<?xml version="1.0" encoding="utf-8"?>
<!-- Generator: Adobe Illustrator 16.0.0, SVG Export Plug-In . SVG Version: 6.00 Build 0)  -->
<!DOCTYPE svg PUBLIC "-//W3C//DTD SVG 1.1//EN" "http://www.w3.org/Graphics/SVG/1.1/DTD/svg11.dtd">
<svg version="1.1" id="Calque_1" xmlns="http://www.w3.org/2000/svg" xmlns:xlink="http://www.w3.org/1999/xlink" x="0px" y="0px"
	 width="100px" height="30px" viewBox="0.022 35.106 100 30" enable-background="new 0.022 35.106 100 30" xml:space="preserve">
<path fill="#000" d="M17.184,35.471c-1.362,0-2.327,0.547-3.271,2.271C13.487,38.517,0.596,61.444,0.214,62.288
	c-0.831,1.841,1.3,2.514,1.296,2.516c0,0,7.296-10.312,21.021-15.275c15.218-5.503,21.718-14.056,21.718-14.056
	S18.207,35.471,17.184,35.471"/>
<path fill="#000" d="M46.765,35.471c0,0-6.96,10.017-21.831,15.397C9.923,56.297,4.508,64.802,4.508,64.802
	s24.69,0.002,25.709,0.002c1.363,0,2.328-0.548,3.271-2.271c0.427-0.776,13.203-23.766,13.7-24.548
	C48.214,36.375,46.761,35.473,46.765,35.471"/>
<path fill="#000" d="M96.175,35.738l-4.627,28.996h3.888l4.586-28.996H96.175 M61.266,35.409c-0.701,0-1.682,0.281-2.39,1.618
	c0.013-0.024-14.979,26.765-14.979,26.765l-0.527,0.942h4.441c0,0,3.969-7.19,4.302-7.793h12.02c0.2,0.863,1.801,7.793,1.801,7.793
	h4.193l-6.659-27.419C63.135,36.046,62.396,35.409,61.266,35.409z M54.278,53.087c0.787-1.443,5.095-9.382,6.282-11.57
	c0.332,1.454,2.34,10.275,2.637,11.57H54.278z M83.636,48.088h-4.08c-2.177,0-2.177,0-2.903-0.62
	c-0.497-0.409-0.663-0.799-0.663-1.551c0-0.001,0.031-0.844,0.031-0.844l-0.004,0.008c0.064-0.298,0.164-0.836,0.354-1.881
	c0.188-1.406,0.623-2.191,1.568-2.829c0.798-0.578,1.373-0.779,3.05-0.779h11.972l0.665-3.854h-12.38
	c-2.702,0-3.991,0.408-5.744,1.82c-1.676,1.299-2.562,2.885-2.946,5.294c0,0,0.021-0.016,0.021-0.017
	c-0.034,0.123-0.063,0.248-0.079,0.358l-0.311,1.858c-0.002,0.006-0.092,1.097-0.092,1.097v0.026c0,2.648,1.262,5.805,7.275,5.805
	h4.081c3.199,0,3.199,1.313,3.199,2.098c0,0.304-0.031,0.565-0.109,0.874l-0.006,0.033l-0.013,0.063l-0.375,2.604
	c-0.203,1.17-0.541,1.804-1.279,2.406c-0.768,0.636-1.38,0.861-3.293,0.861H70.579l0.867,3.815h9.913
	c2.592,0,3.639-0.208,5.545-1.602c1.75-1.252,2.703-2.91,3.003-5.22c0,0-0.021,0.017-0.022,0.017
	c0.037-0.129,0.064-0.267,0.09-0.401l0.368-2.215c0.086-0.509,0.126-1.022,0.126-1.53C90.469,50.271,87.852,48.088,83.636,48.088z"
	/>
</svg>
