<svg xmlns="http://www.w3.org/2000/svg" viewBox="0 0 140 25">
    <path fill="#FF661B" d="M12.94 5.32C11.6 3.5 9.47 2.4 7.18 2.4 3.22 2.4 0 5.65 0 9.64 0 16.2 8.66 24.4 12.94 24.4c4.27 0 12.94-8.2 12.94-14.76 0-4-3.22-7.24-7.18-7.24-2.3 0-4.42 1.1-5.76 2.92z"/>
    <path fill="#000" d="M50.58 17.04c-.32.73-.74 1.37-1.3 1.93-.53.55-1.16 1-1.9 1.3-.72.33-1.5.5-2.34.5-.84 0-1.63-.17-2.35-.5-.74-.3-1.38-.75-1.9-1.3-.55-.54-.97-1.18-1.3-1.92-.3-.73-.46-1.52-.46-2.35 0-.82.16-1.6.47-2.34.33-.74.75-1.38 1.3-1.93.52-.54 1.16-.98 1.9-1.3.7-.32 1.5-.48 2.34-.48.84 0 1.62.16 2.35.48.72.32 1.35.76 1.9 1.3.54.57.96 1.2 1.28 1.94.3.73.47 1.5.47 2.33 0 .83-.16 1.6-.47 2.34zm1.24-9.17c-1.9-1.88-4.15-2.83-6.78-2.83-2.3 0-4.3.72-6 2.14V0h-3.57v14.7c0 2.67.93 4.95 2.8 6.84 1.87 1.88 4.13 2.83 6.77 2.83 2.63 0 4.88-.95 6.78-2.83 1.87-1.87 2.8-4.14 2.8-6.84 0-1.33-.23-2.57-.7-3.7-.47-1.16-1.17-2.2-2.1-3.13zm62.63 9.17c-.32.73-.75 1.37-1.3 1.93-.53.55-1.17 1-1.9 1.3-.72.33-1.5.5-2.34.5-.83 0-1.62-.17-2.35-.5-.73-.3-1.36-.75-1.9-1.3-.53-.54-.95-1.18-1.27-1.92-.3-.73-.47-1.52-.47-2.34 0-.82.17-1.6.48-2.34.32-.74.74-1.38 1.28-1.92.53-.55 1.16-.98 1.9-1.3.72-.33 1.5-.5 2.35-.5.85 0 1.63.17 2.36.5.72.32 1.36.75 1.9 1.3.54.56.97 1.2 1.3 1.93.3.73.46 1.5.46 2.34 0 .83-.16 1.6-.47 2.34zm1.24-9.17c-1.9-1.88-4.17-2.83-6.8-2.83s-4.9.95-6.76 2.83c-1.87 1.9-2.8 4.17-2.8 6.84s.93 4.95 2.8 6.84c1.87 1.88 4.13 2.83 6.77 2.83 2.63 0 4.9-.95 6.8-2.83 1.85-1.87 2.8-4.14 2.8-6.83-.02-1.33-.26-2.57-.72-3.7-.46-1.14-1.16-2.18-2.1-3.13zm19.9 9.17c-.32.73-.75 1.37-1.3 1.93-.53.55-1.17 1-1.9 1.3-.73.33-1.5.5-2.34.5-.85 0-1.63-.17-2.36-.5-.73-.3-1.36-.75-1.9-1.3-.54-.54-.96-1.18-1.27-1.92-.32-.73-.47-1.52-.47-2.35 0-.82.15-1.6.47-2.34.3-.74.73-1.38 1.27-1.93.54-.54 1.17-.98 1.9-1.3.73-.32 1.5-.48 2.36-.48.83 0 1.6.16 2.34.48.73.32 1.37.76 1.9 1.3.55.57.98 1.2 1.3 1.94.3.73.46 1.5.46 2.33 0 .83-.16 1.6-.47 2.34zM138.9 11c-.46-1.14-1.16-2.18-2.1-3.13-1.88-1.88-4.14-2.83-6.76-2.83-2.65 0-4.9.95-6.77 2.83-1.88 1.9-2.82 4.17-2.82 6.83 0 2.67.94 4.95 2.8 6.84 1.88 1.88 4.13 2.83 6.78 2.83 2.62 0 4.88-.95 6.77-2.83 1.87-1.87 2.8-4.14 2.8-6.84 0-1.33-.24-2.57-.7-3.7zm-45.84 6.04c-.3.73-.74 1.37-1.28 1.93-.54.55-1.18 1-1.9 1.3-.74.33-1.52.5-2.35.5-.84 0-1.63-.17-2.36-.5-.74-.3-1.37-.75-1.9-1.3-.54-.54-.97-1.18-1.28-1.92-.3-.73-.47-1.52-.47-2.35 0-.82.16-1.6.47-2.34.3-.74.74-1.38 1.27-1.93.53-.54 1.16-.98 1.9-1.3.72-.32 1.5-.48 2.35-.48.83 0 1.6.16 2.34.48.72.32 1.36.76 1.9 1.3.54.57.97 1.2 1.28 1.94.32.73.47 1.5.47 2.33 0 .83-.15 1.6-.47 2.34zm.47-9.87c-1.73-1.42-3.73-2.13-6-2.13-2.64 0-4.9.95-6.77 2.83-1.87 1.9-2.8 4.17-2.8 6.83 0 2.67.93 4.95 2.8 6.84 1.87 1.88 4.13 2.83 6.77 2.83 2.62 0 4.88-.95 6.77-2.83 1.87-1.87 2.8-4.14 2.8-6.84V0h-3.57v7.17zM66.2 20.77c-3.33 0-6.02-2.72-6.02-6.07 0-3.34 2.7-6.06 6-6.06 3.32 0 6.02 2.72 6.02 6.06 0 3.35-2.7 6.07-6 6.07zm9.56-6.07c0-5.33-4.28-9.66-9.57-9.66-5.3 0-9.6 4.33-9.6 9.66 0 5.34 4.3 9.67 9.6 9.67 2.33 0 4.47-.85 6.14-2.26V24.38h3.42v-9.4-.27z"/>
</svg>