<?xml version="1.0" encoding="UTF-8" standalone="no"?>
<!DOCTYPE svg PUBLIC "-//W3C//DTD SVG 1.1//EN" "http://www.w3.org/Graphics/SVG/1.1/DTD/svg11.dtd">
<svg width="100%" height="100%" viewBox="0 0 1775 600" version="1.1" xmlns="http://www.w3.org/2000/svg" xmlns:xlink="http://www.w3.org/1999/xlink" xml:space="preserve" xmlns:serif="http://www.serif.com/" style="fill-rule:evenodd;clip-rule:evenodd;stroke-linejoin:round;stroke-miterlimit:1.41421;">
    <g transform="matrix(4.16667,0,0,4.16667,0,0)">
        <path d="M131.041,104.174C128.442,106.156 125.52,106.39 121.733,106.39L114.467,106.39C113.162,106.39 112.103,105.331 112.103,104.025L112.103,88.233C112.103,86.928 113.162,85.87 114.467,85.87L121.733,85.87C125.52,85.87 128.442,86.102 131.041,88.084C133.637,90.067 134.829,92.515 134.829,96.129C134.829,99.626 133.637,102.309 131.041,104.174ZM137.102,78.525L137.102,78.292C142.727,76.192 148.031,69.432 148.031,60.57C148.031,51.71 143.486,46.463 138.507,43.665C133.53,40.867 126.928,40.284 124.568,40.284L101.498,40.284L101.498,40.313C97.712,40.396 94.666,43.484 94.666,47.29C94.666,51.101 97.72,54.194 101.514,54.268L101.514,54.275L119.353,54.275C123.14,54.275 125.088,54.508 127.144,55.907C129.308,57.306 130.824,59.521 130.824,63.369C130.824,67.333 129.308,69.432 127.144,71.064C125.088,72.579 122.817,72.812 118.92,72.812L114.467,72.812L102.264,72.812C97.816,72.812 94.224,76.443 94.272,80.891L94.677,118.365C94.677,119.671 95.736,120.73 97.042,120.73L125.197,120.73C132.879,120.73 139.589,119.213 144.351,115.483C149.113,111.751 152.575,106.505 152.575,97.646C152.575,87.734 146.407,80.973 137.102,78.525Z" style="fill-rule:nonzero;"/>
        <path d="M195.293,85.87L177.316,85.87C176.211,85.87 175.338,84.868 175.551,83.784C176.504,78.958 180.102,74.328 186.344,74.328C192.664,74.328 196.188,79.109 197.06,83.81C197.26,84.886 196.387,85.87 195.293,85.87ZM186.67,62.203C170.868,62.203 157.882,73.047 157.882,92.049C157.882,111.053 169.895,122.012 186.344,122.012C195.293,122.012 201.458,119.695 205.509,117.347C207.781,116.368 209.373,114.111 209.373,111.48C209.373,107.954 206.513,105.096 202.987,105.096C201.891,105.096 200.861,105.372 199.96,105.858C196.883,107.291 193.021,108.487 188.833,108.487C182.45,108.487 177.048,105.417 175.536,98.666C175.287,97.551 176.146,96.48 177.287,96.48L211.495,96.48C212.446,96.48 213.229,95.741 213.274,94.791C213.333,93.558 213.399,91.84 213.399,90.3C213.399,73.511 202.469,62.203 186.67,62.203Z" style="fill-rule:nonzero;"/>
        <path d="M255.292,85.87L237.316,85.87C236.21,85.87 235.337,84.868 235.551,83.784C236.503,78.958 240.101,74.328 246.343,74.328C252.663,74.328 256.187,79.109 257.06,83.81C257.26,84.886 256.387,85.87 255.292,85.87ZM246.669,62.203C230.867,62.203 217.881,73.047 217.881,92.049C217.881,111.053 229.895,122.012 246.343,122.012C255.292,122.012 261.458,119.695 265.509,117.347C267.78,116.368 269.372,114.111 269.372,111.48C269.372,107.954 266.513,105.096 262.986,105.096C261.89,105.096 260.859,105.372 259.959,105.858C256.883,107.291 253.02,108.487 248.832,108.487C242.449,108.487 237.047,105.417 235.535,98.666C235.286,97.551 236.146,96.48 237.287,96.48L271.494,96.48C272.445,96.48 273.228,95.741 273.274,94.791C273.332,93.558 273.399,91.84 273.399,90.3C273.399,73.511 262.468,62.203 246.669,62.203Z" style="fill-rule:nonzero;"/>
        <path d="M311.238,106.739C303.88,106.739 298.792,100.677 298.792,91.817C298.792,82.956 303.88,76.893 311.238,76.893C318.704,76.893 323.79,82.956 323.79,91.817C323.79,100.677 318.704,106.739 311.238,106.739ZM316.324,62.203C308.207,62.203 302.472,65.584 298.575,70.597L298.36,70.597L298.441,65.138C298.455,64.101 297.619,63.252 296.582,63.252L289.993,63.252C285.588,63.252 282.018,66.823 282.018,71.228L282.018,135.711C282.018,135.838 282.03,135.962 282.055,136.081C282.431,140.517 286.144,144 290.676,144C295.208,144 298.921,140.517 299.296,136.081C299.32,135.962 299.334,135.838 299.334,135.711L299.334,118.611C299.334,117.017 301.233,116.14 302.409,117.216C305.766,120.287 310.368,122.012 316.215,122.012C331.691,122.012 341.43,108.955 341.43,92.049C341.43,75.143 331.691,62.203 316.324,62.203Z" style="fill-rule:nonzero;"/>
        <path d="M367.3,65.413C367.3,64.219 366.332,63.252 365.139,63.252L358.816,63.252C353.938,63.252 349.984,67.207 349.984,72.084L349.984,111.718C349.984,111.819 350,111.916 350.014,112.014C350.013,112.033 350.011,112.052 350.011,112.071C350.011,116.854 353.887,120.73 358.668,120.73C363.45,120.73 367.326,116.854 367.326,112.071C367.326,111.892 367.311,111.717 367.3,111.54L367.3,65.413Z" style="fill-rule:nonzero;"/>
        <path d="M358.643,37.252C353.701,37.252 350.075,40.086 349.073,44.416C347.457,51.395 354.027,57.798 361.047,56.373C365.556,55.457 368.49,51.919 368.49,46.929C368.49,41.216 364.485,37.252 358.643,37.252Z" style="fill-rule:nonzero;"/>
        <path d="M423.349,105.924L401.203,105.924C399.639,105.924 398.781,104.102 399.778,102.897L421.914,76.14C423.195,74.591 423.897,72.645 423.897,70.635C423.897,66.622 420.644,63.369 416.63,63.369L384.579,63.369C379.937,63.369 376.173,67.132 376.173,71.775L376.173,75.627C376.173,76.649 377,77.476 378.022,77.476L397.997,77.476C399.563,77.476 400.419,79.299 399.421,80.504L378.39,105.891C375.629,109.032 374.985,112.06 374.982,115.326C374.98,118.304 377.389,120.73 380.366,120.73L416.643,120.73C421.366,120.73 425.196,116.899 425.196,112.175L425.196,107.772C425.196,106.751 424.369,105.924 423.349,105.924Z" style="fill-rule:nonzero;"/>
        <path d="M27.063,42.716C25.541,42.716 24.061,41.927 23.244,40.515C22.026,38.408 22.746,35.712 24.852,34.494C29.539,31.783 34.9,30.454 40.341,30.636C44.995,30.795 49.609,32.129 53.684,34.493C55.79,35.713 56.507,38.41 55.285,40.515C54.064,42.621 51.367,43.338 49.262,42.116C46.438,40.479 43.249,39.555 40.039,39.445C36.236,39.311 32.518,40.241 29.265,42.123C28.57,42.524 27.811,42.716 27.063,42.716Z" style="fill:rgb(255,200,38);fill-rule:nonzero;"/>
        <path d="M21.017,29.702C19.52,29.702 18.06,28.939 17.234,27.562C15.982,25.474 16.659,22.767 18.746,21.515C25.388,17.532 33.029,15.572 40.813,15.834C47.491,16.062 54.086,18.026 59.884,21.512C61.97,22.766 62.644,25.473 61.39,27.559C60.136,29.645 57.427,30.318 55.343,29.065C50.825,26.349 45.697,24.82 40.512,24.643C34.424,24.439 28.461,25.967 23.28,29.074C22.57,29.5 21.788,29.702 21.017,29.702Z" style="fill:rgb(255,200,38);fill-rule:nonzero;"/>
        <path d="M14.649,15.697C13.151,15.697 11.692,14.934 10.865,13.556C9.613,11.469 10.291,8.763 12.378,7.511C21.095,2.283 31.101,-0.297 41.342,0.055C50.099,0.355 58.751,2.931 66.361,7.505C68.446,8.758 69.121,11.466 67.867,13.552C66.613,15.638 63.906,16.313 61.82,15.059C55.491,11.254 48.305,9.112 41.04,8.864C32.501,8.574 24.168,10.718 16.911,15.069C16.201,15.495 15.42,15.697 14.649,15.697Z" style="fill:rgb(255,200,38);fill-rule:nonzero;"/>
        <path d="M42.64,90.09C42.78,90.062 42.922,90.037 43.063,90.003C48.769,88.659 52.657,83.34 53.209,77.01C53.384,74.991 53.224,72.87 52.671,70.741C50.557,62.617 43.199,57.184 36.148,58.55C28.457,60.041 23.879,68.647 25.961,77.487C27.962,85.979 35.369,91.529 42.64,90.09Z" style="fill-rule:nonzero;"/>
        <path d="M67.627,43.081C66.475,41.542 64.643,40.542 62.573,40.542C59.084,40.542 56.255,43.371 56.255,46.86C56.255,48.469 56.862,49.933 57.852,51.048L57.843,51.056C62.655,55.857 65.634,62.497 65.634,69.831L65.634,69.832C65.634,81.226 58.478,91.653 47.598,95.038C29.342,100.718 12.587,87.231 12.587,69.832C12.587,62.807 15.323,56.424 19.782,51.678C21.149,50.52 22.019,48.792 22.019,46.86C22.019,43.371 19.19,40.542 15.701,40.542C14.004,40.542 12.466,41.215 11.331,42.304L11.33,42.303C11.324,42.308 11.319,42.314 11.314,42.32C11.187,42.442 11.067,42.571 10.951,42.704C4.173,49.737 0,59.294 0,69.832C0,107.565 37.421,118.602 39.266,142.697C39.371,144.067 41.183,144.488 41.906,143.319C56.405,119.856 78.085,99.495 78.221,69.831C78.22,59.48 74.192,50.076 67.627,43.081Z" style="fill-rule:nonzero;"/>
    </g>
</svg>
