<?xml version="1.0" encoding="utf-8"?>
<!-- Generator: Adobe Illustrator 22.0.1, SVG Export Plug-In . SVG Version: 6.00 Build 0)  -->
<svg version="1.1" id="Blinkist_Icon" xmlns="http://www.w3.org/2000/svg" xmlns:xlink="http://www.w3.org/1999/xlink" x="0px"
	 y="0px" viewBox="0 0 270 270" style="enable-background:new 0 0 270 270;" xml:space="preserve">
<style type="text/css">
	.st0{fill:#2CDE80;}
	.st1{fill:#002F54;}
</style>
<g>
	<path class="st0" d="M184.3,29.8L135,79.1L85.7,29.8C48.1,48.1,22.1,86.7,22.1,131.3c0,62.3,50.5,112.9,112.9,112.9
		c62.3,0,112.9-50.5,112.9-112.9C247.9,86.7,221.9,48.1,184.3,29.8z"/>
	<path class="st1" d="M164.9,109L164.9,109L135,79.1L105.1,109l0,0c-16.5,16.5-16.5,43.3,0,59.9c16.5,16.5,43.3,16.5,59.9,0
		C181.5,152.4,181.5,125.6,164.9,109z"/>
</g>
</svg>
