<?xml version="1.0" encoding="utf-8"?>
<!-- Generator: Adobe Illustrator 22.1.0, SVG Export Plug-In . SVG Version: 6.00 Build 0)  -->
<svg version="1.1" id="artwork" xmlns="http://www.w3.org/2000/svg" xmlns:xlink="http://www.w3.org/1999/xlink" x="0px" y="0px"
	 viewBox="0 0 991.5 219.4" style="enable-background:new 0 0 991.5 219.4;" xml:space="preserve">
<style type="text/css">
	.st0{fill:#6B7D93;}
</style>
<g>
	<path class="st0" d="M136.2,91.7c-4.8-3.6-7.7-9.2-7.6-15.2c0-1.9,1-5.5,1.7-7.9c0.3-1.2,0.4-1.8,1.7-2c6.5-1.3,9.3-1.1,9.8-1.9
		c1.2-2.1,2-4.4,2.4-6.8L94.4,42c0,0,3.2,8.1,4.8,8.8l22.7,10c0,0-11.7,2.5-18.1,4.5l-1.5,0.5c1.6,2.6,3.8,4.8,6.3,6.5
		c4.2-1.2,12-3.2,12-3.2c-11.1,21.8-33.5,35.5-57.9,35.6c-1.1,0-5.8-0.1-8.7,0.2c-2.5,0.2-3.8,2.3-1.3,3.4c4.4,2.4,7.7,6.3,9.1,11.1
		c0.9,2.9-0.7,4.7-2.7,6.3c-4.4,3.4-15.6,11.8-26.6,20c-1.3-2.4-2.5-4.9-3.6-7.4c-10-22.5-14.8-53.7-14.8-95.5v-0.4l86.2-27.6
		l86.1,27.6v0.4c0,13.9-0.6,27.8-2,41.7l-0.1,1.1h14.2l0.1-0.9c1.3-12.7,1.9-26.8,1.9-41.9V32.2L100.2,0L0,32.2v10.6
		C0,86.6,5.2,119.7,16,144c1.5,3.4,3.2,6.9,5,10.2c-8.8,6.5-15.5,11.5-15.5,11.5c2,3.5,4.3,6.9,4.3,6.9l55.1-39.4
		c29.6-19.9,64.5-30.6,100.2-30.5h16.7c-2.4,13.7-5.9,25.7-10.3,35.7c-5,11.4-11.8,21.9-20,31.2c-6.8,7.7-14.5,14.5-22.9,20.3
		c-8.7,6.2-18.3,11.2-28.3,14.9h-0.1l-0.3-0.1c-10-3.7-19.5-8.6-28.2-14.8c-8.4-5.8-16.1-12.7-22.9-20.3c-2.1-2.4-4.2-5-6.4-8
		l-0.6-0.8L30.4,169l0.6,0.8c2.5,3.4,4.9,6.4,7.3,9.1c7.5,8.5,16.1,16.1,25.4,22.5c15.8,11,29.3,15.7,31.8,16.6
		c0.1,0,2.6,0.9,3.8,1.2l0.7,0.2h0.2h0.2c0,0,0.3-0.1,0.7-0.2c1.2-0.4,3.7-1.2,3.8-1.2c2.5-0.8,15.9-5.6,31.7-16.6
		c9.3-6.5,17.8-14,25.4-22.5c9.2-10.4,16.8-22.2,22.4-34.9c5.2-11.8,9-25.3,11.7-41.3h12l1.3-8h-44.3
		C146.3,94.2,140.8,95,136.2,91.7z"/>
	<rect x="657.4" y="32.1" class="st0" width="15.2" height="155.1"/>
	<path class="st0" d="M515.8,133.1l-0.2-0.1c-5.1-2.8-10.5-5.1-16.1-6.7c-3.5-1.2-7.5-2.4-12.8-4.6c-6.5-2.7-8.5-4.2-10.2-6
		c-1.6-1.5-2.7-3.4-3.2-5.6c-0.6-2.6-0.2-5.2,1-7.5c2.3-4.6,7.1-6.5,9.4-7.5c3.3-1.2,6.7-1.8,10.2-1.8h0.2c10.3,0,18.8,4.4,24.1,8.1
		l0.8,0.6l8.8-12.3l-0.8-0.6c-7.1-5-18.6-10.8-32.9-10.8h-0.3c-5.5,0-10.9,0.9-16,2.9c-3.4,1.4-12.4,5.1-17.2,14.7
		c-2.8,5.5-3.6,11.7-2.2,17.7c1.1,4.5,3.3,8.7,6.5,12.2c3.6,3.9,8,6.6,15.9,9.9c5.8,2.4,10.1,3.8,14,5.1c4.6,1.3,9,3.1,13.2,5.4
		l0.2,0.1c2.1,1.1,4.1,2.5,5.8,4.3c4.1,4.6,3.1,10.7,2.2,13.5c-0.9,2.5-2.5,4.7-4.6,6.3c-6.1,4.9-15,6.1-22.2,5.4
		c-12-1.3-23.2-8.4-27.2-11.3l-0.8-0.6l-9.3,11.6l0.8,0.6c5,3.7,10.5,6.9,16.2,9.3c5.4,2.2,11.1,3.8,16.9,4.6
		c2.4,0.2,5.2,0.5,8.1,0.5c4.6,0,9.2-0.5,13.7-1.6c4.9-1.3,9.6-3.6,13.5-6.8c4-3.3,7.2-7.5,9.2-12.2c4.2-9.9,2.2-21.3-5.2-29.2
		C522.6,137.5,519.4,135,515.8,133.1z"/>
	<path class="st0" d="M601.5,78.3L601.5,78.3c-8.7-0.6-17.4,1.4-25,5.8c-4.4,2.6-8.6,5.6-12.5,8.9V32.1h-15.3v155.1H564V113
		c4.4-4.9,11.9-11.8,19.2-15.2c5-2.4,10.3-4.9,17.1-4.3c6,0.5,10.5,2.3,13.4,5.5c1.6,1.7,4.2,4.5,4.2,14.8v73.4h15.2v-73.4
		c0-16.3-5.6-22.4-8.3-25.3C621,84.5,613.8,79.4,601.5,78.3z"/>
	<path class="st0" d="M850.9,78.4c-8.7-0.6-17.4,1.4-25,5.8c-4.5,2.7-8.7,5.7-12.7,9.1l-0.9-8.8h-14.1v102.9h15.2v-74.2
		c4.4-4.9,11.9-11.8,19.2-15.2c5-2.4,10.3-4.9,17.1-4.3c6,0.5,10.5,2.3,13.4,5.5c1.6,1.7,4.2,4.5,4.2,14.8v73.4h15.2V114
		c0-16.3-5.6-22.4-8.3-25.3C870.4,84.5,863.3,79.4,850.9,78.4z"/>
	<path class="st0" d="M991.5,131.7c0-8.3-0.4-15.8-2.1-21.7c-2.8-9.8-9.5-19.3-17.3-24.8c-3.6-2.5-7.7-4.3-11.9-5.2l-0.4-0.1
		c-9.5-2.4-19.4-1.9-28.6,1.4c-4.8,1.8-9.2,4.5-13.1,7.8c-4,3.3-7.5,7.2-10.2,11.6c-2.9,4.6-5.1,9.6-6.3,14.9
		c-1.3,5.1-2.1,10.3-2.3,15.5c-0.3,5.8,0,11.6,1,17.2c0.9,5.8,2.8,11.4,5.7,16.5c3.1,5.5,7.2,10.4,12.2,14.4c5.4,4.1,11.5,7.1,18,9
		c4.4,1.3,8.9,1.9,13.5,1.8c2.1,0,4-0.1,5.5-0.2c5.4-0.3,10.7-1.3,15.8-2.9c5.5-1.8,10.8-4.5,15.5-7.9l0.8-0.6l-9-12.2l-0.8,0.6
		c-3.3,2.2-6.9,4.1-10.7,5.5c-4.1,1.5-8.4,2.5-12.7,2.9c-9.4,0.6-18.8-2.2-26.3-7.9c-3.4-2.8-6.3-6.3-8.4-10.1
		c-2-3.6-3.4-7.6-4-11.7c-0.4-2.1-0.6-4.3-0.7-6.4h77L991.5,131.7z M915.3,124.2c0.3-1.6,0.6-3.2,1-4.7l0.1-0.2
		c0.9-3.8,2.4-7.4,4.5-10.7c1.9-3,4.3-5.7,7-7.9c2.6-2.3,5.6-4.1,8.8-5.3c3-1.1,6.1-1.7,9.2-1.9c3.4-0.2,6.7,0.1,10,0.9l0.4,0.1
		c2.5,0.5,4.9,1.6,7,3c5,3.5,9.5,10.1,11.5,16.7c0.8,3.3,1.2,6.6,1.2,10H915.3z"/>
	<path class="st0" d="M417.9,81.7L417.9,81.7c-6.2-2.3-12.7-3.5-19.3-3.5c-15.6,0-29.4,5.9-39.2,16.3l-0.7,0.7l10.7,9.8l1.1-1.1
		c3.5-3.4,10-8,15.6-9.4c3.9-1,7.9-1.5,11.9-1.4c4.7-0.1,9.4,0.7,13.8,2.3c10.8,4.1,12.4,13.4,12.5,21v0.8c-7.4,1-14.7,2.3-21.6,3.8
		c-15.2,3.3-21.9,6-27.4,9c-10.3,5.6-14,10.7-15.9,14c-3,5.5-4.4,11.7-3.8,17.9c0.3,4.8,1.7,9.4,4.1,13.5c3.3,5.1,8,9.1,13.5,11.6
		c4.5,2.1,9.4,3.2,14.4,3.1c10.1-0.1,20.1-2.6,29-7.3c2.8-1.5,5.4-3.2,8-5.1l0.9,9.5h14.2v-70.7C439.4,107.8,439.4,89.8,417.9,81.7z
		 M424.2,161c-3.4,2.8-7.1,5.3-11,7.3c-5.8,3.2-12,5.5-18.5,6.7c-5.2,0.9-10.4,1-15.2-1.2c-2.8-1.3-5.2-3.5-6.9-6.1
		c-1.2-2.1-1.9-4.4-2-6.8c-0.3-3.2,0.3-6.4,1.9-9.2c0.6-1,2.3-4.1,9.9-8.2c3.8-2,9.2-4.4,23.5-7.5c5.9-1.3,12.1-2.4,18.3-3.3
		L424.2,161z"/>
	<path class="st0" d="M323,86.3c-1.9-1.8-4.1-3.2-6.5-4.2l-0.4-0.2c-6.2-2.7-12.9-4-19.7-3.7c-7.7,0.3-15.2,2.3-22,5.9
		c-10.5,5.4-18.8,14.4-23.3,25.4c-3.2,8.1-4.8,16.8-4.7,25.6v0.3c-0.1,8.2,1.4,16.4,4.6,24c3.2,7.5,7,13.6,13.1,19
		c9.3,7.9,21.1,12.1,33.3,11.7c9.8-0.2,19-4.4,25.6-11.6l0.9,8.7H338V32.1h-15V86.3z M323,159.6c-2.4,3.4-5.1,6.4-8.3,9.1
		c-3.8,3.2-8.4,5.5-13.2,6.6c-5.2,0.7-10.4,0.3-15.4-1.2c-4.5-1.7-8.7-4.3-12.2-7.6c-3.7-3.5-6.7-7.7-8.6-12.5
		c-2.3-6-3.4-12.4-3.4-18.8v-0.3c-0.1-6.7,1.1-13.4,3.5-19.6c3.2-7.6,8.9-13.8,16.1-17.6c4.8-2.5,10.1-3.9,15.5-4.2h1.3
		c4-0.1,8,0.8,11.7,2.4l0.5,0.2c4.8,2,9,5.1,12.4,9L323,159.6z"/>
	<path class="st0" d="M752.5,81.7L752.5,81.7c-6.2-2.3-12.7-3.5-19.3-3.5c-15.6,0-29.3,5.9-39.2,16.3l-0.7,0.7L704,105l1.1-1.1
		c3.5-3.4,10-8,15.6-9.4c3.9-1,7.9-1.5,11.9-1.4c4.7-0.1,9.4,0.6,13.8,2.3c10.8,4.1,12.4,13.4,12.5,21v0.8c-7.4,1-14.7,2.3-21.6,3.8
		c-15.2,3.3-21.9,6-27.4,9c-10.2,5.6-14,10.7-15.9,14c-3,5.4-4.4,11.7-3.8,17.9c0.3,4.8,1.7,9.4,4.1,13.5c3.3,5.1,8,9.1,13.5,11.6
		c4.5,2.1,9.4,3.2,14.4,3.1c10.1-0.1,20.1-2.6,29-7.3c2.8-1.5,5.4-3.2,8-5.1l0.9,9.5h14.1v-70.7C774.1,107.8,774.1,89.8,752.5,81.7z
		 M758.8,161c-3.4,2.8-7.1,5.3-11,7.3c-5.8,3.2-12,5.5-18.5,6.7c-5.2,0.9-10.3,1-15.2-1.2c-2.8-1.3-5.2-3.5-6.9-6.1
		c-1.2-2.1-1.9-4.4-2-6.8c-0.3-3.2,0.3-6.4,1.8-9.2c0.6-1,2.3-4.1,9.9-8.2c3.8-2,9.2-4.4,23.5-7.5c5.9-1.3,12.1-2.4,18.3-3.3
		L758.8,161z"/>
</g>
</svg>
