<?xml version="1.0" encoding="utf-8"?>
<!-- Generator: Adobe Illustrator 22.1.0, SVG Export Plug-In . SVG Version: 6.00 Build 0)  -->
<svg version="1.1" id="Layer_1" xmlns="http://www.w3.org/2000/svg" xmlns:xlink="http://www.w3.org/1999/xlink" x="0px" y="0px"
	 viewBox="0 0 290 78" style="enable-background:new 0 0 290 78;" xml:space="preserve">
<style type="text/css">
	.st0{fill:#00CCBC;}
</style>
<path class="st0" d="M105.9,58.4h6.6l-1.1-5.1V22.7h-6.3v13.9c-1.9-2.2-4.5-3.5-7.6-3.5c-6.3,0-11.2,5.2-11.2,12.9
	c0,7.7,4.9,12.9,11.2,12.9c3.1,0,5.8-1.3,7.8-3.6L105.9,58.4C105.9,58.4,105.9,58.4,105.9,58.4z M230.9,40c1.3,0,2.5,0.3,3.6,1.1
	l3-6.8c-1.4-0.9-3-1.2-4.6-1.2c-2.9,0-5.2,1.3-6.8,3.7l-0.7-3.1H219l1,4.8v19.9h6.3V42.6C227.2,41,228.8,40,230.9,40L230.9,40
	L230.9,40L230.9,40z M249.4,52.2c-3.7,0-6.4-2.4-6.4-6.2c0-3.8,2.7-6.2,6.4-6.2c3.7,0,6.4,2.4,6.4,6.2
	C255.8,49.8,253.1,52.2,249.4,52.2L249.4,52.2z M92.4,46c0-3.8,2.7-6.2,6.4-6.2c3.7,0,6.4,2.4,6.4,6.2c0,3.8-2.7,6.2-6.4,6.2
	C95.1,52.2,92.4,49.8,92.4,46z M277.4,52.2c-3.7,0-6.4-2.4-6.4-6.2c0-3.8,2.7-6.2,6.4-6.2c3.7,0,6.4,2.4,6.4,6.2
	C283.8,49.8,281.1,52.2,277.4,52.2z M127.9,39.4c3.3,0,5.4,1.5,6.1,4.4h-12.2C122.5,40.9,124.6,39.4,127.9,39.4
	C127.9,39.4,127.9,39.4,127.9,39.4z M203.5,39.4c3.3,0,5.4,1.5,6.1,4.4h-12.2C198.1,40.9,200.3,39.4,203.5,39.4L203.5,39.4z
	 M172.6,58.4h10.2l6.6-24.7h-6.9l-4.8,20l-4.9-20H166L172.6,58.4L172.6,58.4L172.6,58.4z M156.3,58.4h6.3V33.7h-6.3V58.4z
	 M128.8,58.8c3.5,0,7-1,9.9-2.8l-2.4-5.5c-2.3,1.2-4.8,1.9-7.4,1.9c-3.3,0-5.7-1.3-6.7-3.7H140c0.2-0.9,0.3-1.8,0.3-2.9
	c0-7.7-5.3-12.8-12.4-12.8c-7.1,0-12.4,5.2-12.4,12.9C115.6,53.8,120.8,58.8,128.8,58.8L128.8,58.8L128.8,58.8z M289.9,46
	c0-7.7-5.3-12.9-12.5-12.9c-7.2,0-12.5,5.2-12.5,12.9c0,7.7,5.3,12.9,12.5,12.9C284.6,58.9,289.9,53.7,289.9,46L289.9,46z
	 M204.4,58.9c3.5,0,7-1,9.9-2.8l-2.4-5.5c-2.3,1.2-4.8,1.9-7.4,1.9c-3.3,0-5.7-1.3-6.7-3.7h17.8c0.2-0.9,0.3-1.8,0.3-2.9
	c0-7.7-5.3-12.8-12.4-12.8c-7.1,0-12.4,5.2-12.4,12.9C191.1,53.9,196.3,58.9,204.4,58.9L204.4,58.9L204.4,58.9z M249.4,58.9
	c7.2,0,12.5-5.2,12.5-12.9c0-7.7-5.3-12.9-12.5-12.9s-12.5,5.2-12.5,12.9C236.9,53.7,242.2,58.9,249.4,58.9L249.4,58.9z M144.4,58.4
	h6.3V22.7h-6.3L144.4,58.4L144.4,58.4L144.4,58.4z M159.5,30.2c2.2,0,3.9-1.7,3.9-4s-1.7-4-3.9-4c-2.3,0-4,1.7-4,4
	S157.2,30.2,159.5,30.2L159.5,30.2L159.5,30.2z M50.9,0.2l-3.6,34.3L41.1,5.6L21.7,9.6l6.2,28.9L0,44.4l4.9,23.1L54,77.9l11.2-25.1
	l5.3-50.6L50.9,0.2L50.9,0.2L50.9,0.2z M35.4,49.9c-1,0.9-2.3,0.8-3.8,0.4c-1.4-0.5-2-2.2-1.5-4.2c0.4-1.5,2.3-1.8,3.2-1.8
	c0.4,0,0.7,0.1,1,0.2c0.7,0.3,1.8,0.9,2,1.9C36.7,47.8,36.4,49,35.4,49.9L35.4,49.9L35.4,49.9L35.4,49.9z M49.6,51.5
	c-0.7,1.3-2.7,1.4-4.6,0.5c-1.3-0.6-1.3-2.2-1.1-3.2c0.1-0.5,0.3-1,0.6-1.4c0.5-0.6,1.2-1.3,2.1-1.3c1.4,0,2.7,0.6,3.4,1.8
	C50.7,48.9,50.3,50.2,49.6,51.5L49.6,51.5z"/>
</svg>
