<?xml version="1.0" encoding="UTF-8"?>
<svg width="1024px" height="287px" viewBox="0 0 1024 287" version="1.1" xmlns="http://www.w3.org/2000/svg" xmlns:xlink="http://www.w3.org/1999/xlink">
    <!-- Generator: Sketch 48.2 (47327) - http://www.bohemiancoding.com/sketch -->
    <title>1-Colour</title>
    <desc>Created with Sketch.</desc>
    <defs></defs>
    <g id="Page-1" stroke="none" stroke-width="1" fill="none" fill-rule="evenodd">
        <g id="1-Colour">
            <g id="Group">
                <path d="M49.046,197.288 L87.241,97.771 L125.435,197.288 L49.046,197.288 Z M161.889,98.238 L119.494,110.041 L124.475,97.062 L87.513,0.643 L0.002,228.651 L211.986,228.651 L161.889,98.238 Z" id="Fill-1" fill="#5A9BA9"></path>
                <path d="M328.687,142.512 C324.628,133.811 314.766,127.43 304.323,127.43 C284.892,127.43 273.29,143.092 273.29,163.975 C273.29,184.566 284.892,200.229 304.323,200.229 C315.055,200.229 324.628,194.138 328.687,185.146 L328.687,142.512 Z M328.687,217.92 C322.885,224.88 310.125,231.552 296.204,231.552 C258.5,231.552 237.328,201.099 237.328,163.975 C237.328,126.85 258.5,96.107 296.204,96.107 C310.125,96.107 322.885,102.778 328.687,109.739 L328.687,51.647 L364.942,41.533 L364.942,228.651 L328.687,228.651 L328.687,217.92 Z" id="Fill-2" fill="#3A3C3F"></path>
                <path d="M416.256,149.763 L466.43,149.763 C466.141,136.131 458.021,125.399 443.228,125.399 C429.306,125.399 419.446,133.811 416.256,149.763 Z M489.556,215.518 C489.556,215.518 475.235,231.552 443.52,231.552 C405.814,231.552 380.581,203.998 380.581,163.975 C380.581,124.82 406.683,96.107 442.938,96.107 C480.932,96.107 501.816,122.499 501.816,160.495 L501.816,171.515 L415.385,171.515 C416.546,190.948 427.316,202.549 447.602,202.549 C462.383,202.549 473.63,194.83 479.342,188.837 L489.556,215.518 Z" id="Fill-3" fill="#3A3C3F"></path>
                <polyline id="Fill-4" fill="#3A3C3F" points="554.551 228.651 518.586 228.651 518.586 51.647 554.551 41.533 554.551 228.651"></polyline>
                <path d="M613.118,185.146 C617.469,194.138 627.039,200.229 637.481,200.229 C656.913,200.229 668.515,184.566 668.515,163.975 C668.515,143.092 656.913,127.43 637.481,127.43 C626.75,127.43 617.469,133.811 613.118,142.512 L613.118,185.146 Z M613.118,276.093 L577.155,286.126 L577.155,99.007 L613.118,99.007 L613.118,109.739 C618.92,102.778 631.68,96.107 645.602,96.107 C683.308,96.107 704.769,127.43 704.769,163.975 C704.769,200.519 683.308,231.552 645.602,231.552 C631.68,231.552 618.92,224.88 613.118,217.92 L613.118,276.093 Z" id="Fill-5" fill="#3A3C3F"></path>
                <path d="M720.41,51.647 L756.373,41.533 L756.373,110.898 C763.334,102.778 776.097,96.107 791.18,96.107 C820.47,96.107 837,115.249 837,143.961 L837,228.651 L801.04,228.651 L801.04,151.504 C801.04,137.872 794.08,128.591 779.868,128.591 C768.844,128.591 759.275,135.262 756.373,146.573 L756.373,228.651 L720.41,228.651 L720.41,51.647" id="Fill-6" fill="#3A3C3F"></path>
                <path d="M858.59,228.651 L894.55,228.651 L894.55,99.007 L858.59,99.007 L858.59,228.651 Z M876.57,82.186 C864.97,82.186 855.11,73.774 855.11,61.593 C855.11,49.702 864.97,41.001 876.57,41.001 C887.88,41.001 897.74,49.702 897.74,61.593 C897.74,73.774 887.88,82.186 876.57,82.186 Z" id="Fill-7" fill="#3A3C3F"></path>
                <path d="M989.49,183.987 C986.3,177.026 976.44,172.676 965.99,172.676 C954.68,172.676 943.08,177.606 943.08,188.628 C943.08,199.939 954.68,204.58 965.99,204.58 C976.44,204.58 986.3,200.229 989.49,193.269 L989.49,183.987 Z M989.49,228.651 L989.49,221.69 C985.14,226.042 972.09,230.972 957.87,230.972 C931.77,230.972 909.73,215.892 909.73,188.918 C909.73,164.264 931.77,147.442 959.9,147.442 C971.22,147.442 984.27,151.214 989.49,154.983 L989.49,145.412 C989.49,134.391 982.82,125.399 968.32,125.399 C956.26,125.399 943.08,131.388 934.89,137.3 L924.12,109.332 C935.33,103.702 953.41,96.107 969.48,96.107 C1003.99,96.107 1024,114.959 1024,145.991 L1024,228.651 L989.49,228.651 Z" id="Fill-8" fill="#3A3C3F"></path>
            </g>
        </g>
    </g>
</svg>