<?xml version="1.0" encoding="UTF-8"?>
<svg width="998px" height="320px" viewBox="0 0 998 320" version="1.1" xmlns="http://www.w3.org/2000/svg" xmlns:xlink="http://www.w3.org/1999/xlink">
    <!-- Generator: Sketch 50.2 (55047) - http://www.bohemiancoding.com/sketch -->
    <title>Artboard 2</title>
    <desc>Created with Sketch.</desc>
    <defs></defs>
    <g id="Artboard-2" stroke="none" stroke-width="1" fill="none" fill-rule="evenodd">
        <path d="M454,129.471235 L463.295332,126.919307 C465.847891,131.658601 471.224505,134.210528 478.512749,134.210528 C486.624159,134.210528 491.000329,131.658601 491.000329,126.919307 C491.000329,114.978073 456.278584,125.824384 456.278584,103.949482 C456.278584,95.015257 465.756152,89 477.78504,89 C487.262609,89 496.831916,93.7392934 499.929947,100.941234 L490.816852,103.401401 C488.631247,99.5735099 483.526129,97.3861437 477.967277,97.3861437 C470.677794,97.3861437 466.302864,99.8463107 466.302864,104.131763 C466.302864,115.979996 501.296105,105.041925 501.296105,126.645267 C501.296105,136.671935 492.456986,142.962473 478.512749,142.962473 C466.759076,142.962473 457.189769,137.675098 454,129.471235" id="Fill-2" fill="#140014"></path>
        <path d="M515.563459,121.114922 L515.563459,97.6900157 L508,97.6900157 L508,89.7589533 L515.563459,89.7589533 L515.563459,80.1886062 L525.861715,78 L525.861715,89.7589533 L541.261369,89.7589533 L541.261369,97.6900157 L525.861715,97.6900157 L525.861715,119.930719 C525.861715,130.686509 528.68577,134.42264 536.613703,134.42264 C537.616627,134.42264 538.803028,134.240359 540.806396,133.967558 L542.173794,141.897381 C540.169186,142.353702 537.252153,142.626503 535.065308,142.626503 C521.669022,142.626503 515.563459,137.066327 515.563459,121.114922" id="Fill-4" fill="#140014"></path>
        <path d="M554,90.6472407 L564.205277,90.6472407 L564.205277,99.3967055 C566.211125,93.8365297 571.678238,88.7314353 582.523205,90.2814397 L581.429782,100.125828 C569.765368,97.9384613 564.205277,104.228999 564.205277,116.988635 L564.205277,142.785668 L554,142.785668 L554,90.6472407 Z" id="Fill-6" fill="#140014"></path>
        <path d="M628.102968,110.693861 C627.374019,102.399478 621.72343,97.112103 612.519836,97.112103 C603.769976,97.112103 597.664414,101.670356 596.480493,110.693861 L628.102968,110.693861 Z M586,116.071757 C586,100.029831 596.753228,89 612.337599,89 C628.922415,89 638.946695,101.215275 637.672275,118.716684 L596.206517,118.716684 C596.572231,128.833873 602.860031,134.576329 612.976049,134.576329 C620.265533,134.576329 625.003697,132.114922 627.556256,127.102828 L636.943326,128.559832 C632.751873,138.221939 624.548724,143.143513 612.792572,143.143513 C596.572231,143.143513 586,132.387723 586,116.071757 Z" id="Fill-8" fill="#140014"></path>
        <path d="M690.649679,116.071757 C690.649679,104.677364 683.997405,97.6589445 674.337599,97.6589445 C664.768292,97.6589445 658.206517,104.586844 658.206517,116.071757 C658.206517,127.648429 664.768292,134.576329 674.518597,134.576329 C684.087904,134.576329 690.649679,127.557909 690.649679,116.071757 M648,116.071757 C648,98.1152658 658.935465,89 671.876779,89 C680.078688,89 687.369411,93.0101713 690.375703,100.210872 L690.375703,90.0031628 L700.58346,90.0031628 L700.58346,142.05107 L690.375703,142.05107 L690.375703,132.205442 C687.45991,139.225102 680.078688,143.327034 671.968517,143.327034 C659.025964,143.327034 648,134.121248 648,116.071757" id="Fill-10" fill="#140014"></path>
        <path d="M715,90.0031628 L725.206517,90.0031628 L725.206517,99.8475507 C727.028888,93.1019316 732.952213,89.0917603 741.062384,89.0917603 C749.811004,89.0917603 754.095436,92.3728095 756.919491,101.488075 C759.380311,93.5582529 766.306561,89 776.058105,89 C789.180415,89 794.647528,96.8393022 794.647528,115.615435 L794.647528,142.14159 L784.442251,142.14159 L784.442251,116.437558 C784.442251,103.1286 780.978506,97.841225 772.320385,97.841225 C763.389528,97.841225 759.653047,103.31088 759.653047,116.254037 L759.653047,142.14159 L749.44777,142.14159 L749.44777,116.528078 C749.44777,102.855799 746.34726,97.9329853 737.872615,97.9329853 C729.033496,97.9329853 725.206517,103.857722 725.206517,117.25596 L725.206517,142.14159 L715,142.14159 L715,90.0031628 Z" id="Fill-12" fill="#140014"></path>
        <path d="M807.65749,142.643 L817.771029,142.643 L817.771029,90.5045724 L807.65749,90.5045724 L807.65749,142.643 Z M806,77.4696555 C806,74.0050857 809.297624,72 812.760128,72 C816.040396,72 818.120626,74.0050857 818.120626,77.4696555 C818.120626,80.841225 816.040396,82.9380709 812.760128,82.9380709 C809.297624,82.9380709 806,80.841225 806,77.4696555 Z" id="Fill-14" fill="#140014"></path>
        <path d="M833,89.9114026 L843.206517,89.9114026 L843.206517,99.3899894 C845.576839,92.9184111 851.500164,89 860.247545,89 C874.647995,89 881.299029,97.2931435 881.299029,113.79263 L881.299029,142.04983 L871.092512,142.04983 L871.092512,114.612272 C871.092512,103.21912 866.718821,97.841225 857.057776,97.841225 C847.216973,97.841225 843.206517,104.312803 843.206517,115.798956 L843.206517,142.04983 L833,142.04983 L833,89.9114026 Z" id="Fill-16" fill="#140014"></path>
        <path d="M935.556701,114.887553 C935.556701,103.675442 929.085424,96.8380622 919.33636,96.8380622 C909.675314,96.8380622 903.204038,103.675442 903.204038,114.887553 C903.204038,126.280705 909.675314,133.026325 919.426858,133.026325 C929.085424,133.026325 935.556701,126.190185 935.556701,114.887553 M894.27442,146.334042 L903.935465,143.964396 C906.486785,149.342291 912.136135,152.805621 919.244621,152.805621 C929.541637,152.805621 935.374464,147.701766 935.374464,134.666849 L935.374464,130.109836 C932.45867,137.857378 925.076208,140.865627 916.966038,140.865627 C903.935465,140.865627 893,132.206682 893,114.887553 C893,97.6589445 903.935465,89 916.875539,89 C925.076208,89 932.45867,92.0082485 935.374464,99.8463107 L935.374464,89.9114026 L945.580981,89.9114026 L945.580981,133.026325 C945.580981,152.53282 936.377388,160.918963 919.154122,160.918963 C906.941758,160.918963 897.827423,155.631589 894.27442,146.334042" id="Fill-17" fill="#140014"></path>
        <path d="M454,220.471235 L463.295332,217.919307 C465.847891,222.658601 471.224505,225.210528 478.512749,225.210528 C486.624159,225.210528 491.000329,222.658601 491.000329,217.919307 C491.000329,205.978073 456.278584,216.824384 456.278584,194.949482 C456.278584,186.015257 465.756152,180 477.78504,180 C487.262609,180 496.831916,184.739293 499.929947,191.941234 L490.816852,194.401401 C488.631247,190.57351 483.526129,188.386144 477.967277,188.386144 C470.677794,188.386144 466.302864,190.846311 466.302864,195.131763 C466.302864,206.979996 501.296105,196.041925 501.296105,217.645267 C501.296105,227.671935 492.456986,233.962473 478.512749,233.962473 C466.759076,233.962473 457.189769,228.675098 454,220.471235" id="Fill-18" fill="#140014"></path>
        <path d="M552.104207,201.693861 C551.375259,193.399478 545.724669,188.112103 536.521076,188.112103 C527.771216,188.112103 521.665654,192.670356 520.480493,201.693861 L552.104207,201.693861 Z M510,207.071757 C510,191.029831 520.754468,180 536.337599,180 C552.923654,180 562.947934,192.215275 561.672275,209.716684 L520.207757,209.716684 C520.572231,219.833873 526.860031,225.576329 536.976049,225.576329 C544.266772,225.576329 549.003697,223.114922 551.556256,218.102828 L560.943326,219.559832 C556.751873,229.221939 548.548724,234.143513 536.792572,234.143513 C520.572231,234.143513 510,223.387723 510,207.071757 Z" id="Fill-19" fill="#140014"></path>
        <path d="M574,181.627959 L584.206517,181.627959 L584.206517,190.377424 C586.141701,185.010689 591.41294,180.086635 601.521521,181.144358 L600.595459,190.962705 C589.500071,189.227941 584.206517,195.518478 584.206517,207.969354 L584.206517,233.766387 L574,233.766387 L574,181.627959 Z" id="Fill-20" fill="#140014"></path>
        <polygon id="Fill-21" fill="#140014" points="606 181 617.118942 181 633.885995 222.016836 650.654287 181 661.955466 181 638.988633 233.228948 628.783356 233.228948"></polygon>
        <path d="M670.912425,233.643 L681.027204,233.643 L681.027204,181.504572 L670.912425,181.504572 L670.912425,233.643 Z M670,168.469655 C670,165.006326 672.551319,163 676.013824,163 C679.294092,163 682.120626,165.006326 682.120626,168.469655 C682.120626,171.842465 679.294092,173.938071 676.013824,173.938071 C672.551319,173.938071 670,171.842465 670,168.469655 Z" id="Fill-22" fill="#140014"></path>
        <path d="M694,207.071757 C694,191.302632 704.753228,180 719.790888,180 C732.913199,180 740.750633,186.016497 744.030901,197.865971 L735.282281,199.597015 C732.729722,192.215275 727.902298,188.658944 720.245861,188.658944 C710.767052,188.658944 704.206517,196.133686 704.206517,207.071757 C704.206517,217.919307 710.767052,225.394048 720.245861,225.394048 C727.353108,225.394048 732.82146,221.383877 735.098804,214.546498 L743.848664,216.278783 C741.024609,227.490894 732.274749,234.143513 719.790888,234.143513 C704.753228,234.143513 694,222.842121 694,207.071757" id="Fill-23" fill="#140014"></path>
        <path d="M794.104207,201.693861 C793.375259,193.399478 787.724669,188.112103 778.521076,188.112103 C769.771216,188.112103 763.665654,192.670356 762.480493,201.693861 L794.104207,201.693861 Z M752,207.071757 C752,191.029831 762.754468,180 778.337599,180 C794.922415,180 804.947934,192.215275 803.672275,209.716684 L762.207757,209.716684 C762.572231,219.833873 768.860031,225.576329 778.976049,225.576329 C786.266772,225.576329 791.003697,223.114922 793.556256,218.102828 L802.943326,219.559832 C798.751873,229.221939 790.548724,234.143513 778.792572,234.143513 C762.572231,234.143513 752,223.387723 752,207.071757 Z" id="Fill-24" fill="#140014"></path>
        <path d="M812,220.471235 L821.295332,217.919307 C823.847891,222.658601 829.224505,225.210528 836.513989,225.210528 C844.625399,225.210528 849.000329,222.658601 849.000329,217.919307 C849.000329,205.978073 814.278584,216.824384 814.278584,194.949482 C814.278584,186.015257 823.756152,180 835.78628,180 C845.263849,180 854.833156,184.739293 857.931186,191.941234 L848.816852,194.401401 C846.631247,190.57351 841.527368,188.386144 835.968517,188.386144 C828.677794,188.386144 824.304103,190.846311 824.304103,195.131763 C824.304103,206.979996 859.297345,196.041925 859.297345,217.645267 C859.297345,227.671935 850.456986,233.962473 836.513989,233.962473 C824.759076,233.962473 815.189769,228.675098 812,220.471235" id="Fill-25" fill="#140014"></path>
        <g id="Group" transform="translate(53.000000, 51.000000)" fill="#0002B0">
            <path d="M362.609938,0.918645118 L13.6866459,0.918645118 C6.27443098,0.918645118 0.266805371,6.92894212 0.266805371,14.3416831 L0.266805371,202.267935 C0.266805371,209.681916 6.27443098,215.690973 13.6866459,215.690973 L362.609938,215.690973 C370.022153,215.690973 376.029778,209.681916 376.029778,202.267935 L376.029778,14.3416831 C376.029778,6.92894212 370.022153,0.918645118 362.609938,0.918645118" id="Fill-26"></path>
        </g>
        <path d="M105.827722,160.48061 C102.076365,162.326975 104.662396,165.041343 104.662396,165.041343 C111.687822,172.700845 120.353382,177.512058 128.572647,180.479387 C129.538379,167.264669 129.393334,162.615896 129.473915,155.955837 C116.6231,156.85236 109.208406,158.925646 105.827722,160.48061 M205.501495,161.664813 C204.837012,170.322518 201.556744,184.912399 178.261388,192.10194 C162.895206,196.791633 148.391861,194.543506 140.455249,192.501221 C140.287889,195.68927 139.938291,197.039634 139.43125,197.590195 C138.777924,198.264757 133.749668,201.215965 130.995036,197.039634 C129.756568,195.070508 129.137954,191.474498 128.779678,188.311249 C110.97375,180.021825 102.770601,168.035951 102.471832,167.50399 C102.076365,167.122069 98.0311973,162.826697 102.076365,157.540562 C105.892187,152.780188 118.353733,148.034695 129.592927,146.100289 C129.979716,136.382382 131.10785,129.027921 132.451694,125.669992 C134.062074,121.763981 136.111312,125.294271 137.895252,127.911918 C139.386621,129.871123 140.265574,138.351507 140.339956,145.145487 C147.667871,144.802006 152.031644,145.342647 160.214957,146.841811 C170.883885,148.808457 178.008488,154.323993 177.386154,160.59469 C176.920024,166.735188 171.338858,169.285875 169.226396,169.459475 C166.986243,169.656636 163.538615,168.044631 163.538615,168.044631 C161.159615,166.903828 163.352658,165.908105 166.211425,164.627182 C169.309456,163.083377 168.616459,161.512293 168.616459,161.512293 C167.463531,158.091123 153.613511,155.676836 139.834155,155.666916 C139.779608,163.377258 140.149041,176.154254 140.339956,183.595515 C149.982406,185.460481 157.190069,185.11204 157.190069,185.11204 C157.190069,185.11204 192.349432,184.123757 193.41806,161.348613 C194.505284,138.544948 158.331841,116.682446 131.613651,109.732226 C104.905379,102.635686 89.8057338,107.59694 88.50528,108.281422 C87.090773,108.999384 88.4123019,109.225065 88.4123019,109.225065 C88.4123019,109.225065 89.8491236,109.438346 92.3756488,110.311308 C95.0385418,111.166911 92.960791,112.550754 92.960791,112.550754 C88.4123019,114.012719 83.2749514,113.087676 82.2993011,110.99207 C81.3038154,108.895224 82.9538669,106.994299 84.8617778,104.263811 C86.7622503,101.413043 88.8561174,101.492403 88.8561174,101.492403 C121.878223,89.9082904 162.109231,110.85319 162.109231,110.85319 C199.78892,130.162524 206.188294,152.862029 205.501495,161.664813 M376.948171,156.80152 C376.948171,156.80152 376.463445,152.971149 372.767875,157.188401 C369.592983,160.748451 363.863052,167.41719 359.250098,176.477895 C364.088679,175.927334 368.758659,173.265046 370.169447,171.909722 C372.464147,169.845117 377.809768,164.245261 376.948171,156.80152 M379.488333,172.051083 C376.215504,177.841899 366.971,189.964173 354.687972,187.102245 C350.631647,197.071874 347.224929,207.159302 345.274868,222.248905 C345.274868,222.248905 344.848408,225.180273 342.442135,224.16347 C340.059416,223.315308 336.13326,219.300176 335.339847,213.746201 C334.485688,206.45002 337.691573,194.113225 344.242191,179.967265 C342.330561,176.818896 341.028868,172.321404 342.143365,165.916785 C342.143365,165.916785 343.789698,154.023912 355.575603,143.304081 C355.575603,143.304081 356.98887,142.066558 357.807077,142.448479 C358.708345,142.83288 358.290564,146.700451 357.575252,148.582776 C356.832667,150.453942 351.583743,159.662208 351.583743,159.662208 C351.583743,159.662208 348.312153,165.880825 349.232016,170.786279 C355.414441,161.153932 369.465293,141.730517 378.175482,147.857374 C381.099954,149.97778 382.448756,154.591833 382.449996,159.566727 C382.449996,163.93154 381.41236,168.574113 379.488333,172.051083 M230.873362,114.38596 C225.391372,115.209322 216.932844,122.636943 212.901313,128.73032 C219.091176,129.887244 229.99069,129.450762 234.816873,119.467494 C234.816873,119.467494 237.158682,113.281117 230.873362,114.38596 M206.852777,119.186013 C205.093631,122.039261 205.01553,123.757906 205.838696,124.93591 C207.840824,121.838381 211.515319,116.936647 216.919207,113.183156 C212.747589,113.570037 209.233017,115.395323 206.852777,119.186013 M223.068159,135.77602 C217.094006,137.797226 212.991812,137.115224 209.545423,135.61234 C208.042897,138.310587 207.134191,139.13147 205.978783,139.31127 C204.269225,139.488591 202.759261,136.730823 202.46669,135.82314 C202.172879,135.159738 201.363349,133.981735 202.345198,131.292167 C198.962035,128.195879 198.720292,124.074107 199.28064,121.267979 C200.119922,118.05141 205.838696,105.787775 223.255355,104.359291 C223.255355,104.359291 231.751075,103.720689 233.212691,108.335983 L233.460633,108.335983 C233.460633,108.335983 241.730726,108.360783 241.553447,115.818164 C241.491462,123.273065 232.415559,132.595411 223.068159,135.77602 M218.684551,187.227486 C216.620437,188.75269 212.27898,188.079368 211.051669,186.379323 C209.821878,184.825599 209.394179,178.717342 209.655757,169.127155 C209.902459,159.419167 210.104532,147.418413 212.159968,145.516248 C214.349292,143.585562 215.705533,145.268247 216.534898,146.582651 C217.468398,147.875974 218.5643,149.313138 218.789927,152.363547 C218.999437,155.407756 219.697393,171.372801 219.697393,171.372801 C219.697393,171.372801 220.606099,185.714681 218.684551,187.227486 M266.714564,148.612536 C266.100908,149.82898 265.771146,151.583585 262.73634,152.043626 C262.73634,152.043626 233.654027,154.064832 232.279191,156.121998 C232.279191,156.121998 231.256432,157.352081 232.844498,157.698042 C234.423886,158.036563 240.999298,158.925646 244.172951,159.095526 C247.57471,159.132726 258.996141,159.220767 263.087178,164.430021 C263.087178,164.430021 265.512047,166.882748 265.41411,172.476404 C265.300057,178.19654 264.305811,180.212786 262.131363,182.279872 C259.819307,184.208077 240.115386,193.144782 227.407138,179.403064 C227.407138,179.403064 221.561914,172.780205 229.425383,167.769351 C229.425383,167.769351 235.1268,164.288661 249.547085,168.388112 C249.547085,168.388112 253.909618,170.000117 253.718703,171.620802 C253.473241,173.341926 250.133467,175.169692 245.260175,175.049411 C240.530688,174.904331 237.050827,172.607844 237.723989,172.987285 C238.372356,173.237766 232.653583,170.207198 230.873362,172.255683 C229.110497,174.162809 229.519601,175.349492 231.245274,176.502695 C235.667313,179.044703 252.710821,178.14446 257.803542,172.419364 C257.803542,172.419364 259.819307,170.109237 256.74855,168.194672 C253.677793,166.405347 244.865948,165.327784 241.440634,165.169063 C238.14549,164.984303 225.950481,165.209983 224.166541,161.928934 C224.166541,161.928934 222.409874,159.719248 224.331422,153.41011 C226.381899,146.836851 240.603831,144.299804 246.771379,143.717003 C246.771379,143.717003 263.682238,143.119321 266.801343,146.616131 C266.801343,146.616131 267.219125,147.418413 266.714564,148.612536 M302.079718,179.160023 C300.730915,182.375352 297.167994,185.810162 292.739756,183.676116 C288.369785,181.53835 281.410064,167.098509 281.410064,167.098509 C281.410064,167.098509 278.767006,161.713174 278.258726,161.852054 C278.258726,161.852054 277.68722,160.803011 277.337623,166.685588 C276.974388,172.544604 277.407046,183.968757 275.101189,185.765522 C272.918063,187.568487 270.272526,186.851765 268.900169,184.746239 C267.654262,182.667993 267.134825,177.738979 267.815424,169.078794 C268.615036,160.39877 270.603528,151.168184 273.14493,148.293856 C275.682612,145.438128 277.719453,147.510173 278.514106,148.262856 C278.514106,148.262856 281.907187,151.381464 287.505709,160.53765 L288.493756,162.231495 C288.493756,162.231495 293.580279,170.88176 294.113353,170.861919 C294.113353,170.861919 294.527416,171.257481 294.899328,170.97104 C295.431163,170.818519 295.216693,168.044631 295.216693,168.044631 C295.216693,168.044631 294.161702,158.618125 289.521474,142.66052 C289.521474,142.66052 288.81856,140.672794 289.292128,138.806589 C289.763217,136.921783 291.628978,137.805906 291.628978,137.805906 C291.628978,137.805906 298.820525,141.471356 302.310303,153.33943 C305.780246,165.209983 303.449595,175.922374 302.079718,179.160023 M341.672276,153.162109 C336.583274,154.351273 323.199385,155.012195 323.199385,155.012195 L321.510903,160.37149 C321.510903,160.37149 328.199128,159.789928 333.064983,160.30577 C333.064983,160.30577 334.641891,160.121009 334.827848,162.119895 C334.889833,163.9861 334.672884,165.984986 334.672884,165.984986 C334.672884,165.984986 334.569988,167.196469 332.876547,167.50399 C331.044258,167.815231 318.462461,168.306272 318.462461,168.306272 L316.42438,175.291212 C316.42438,175.291212 315.668158,176.906937 317.364079,176.445655 C318.940988,176.017854 332.122804,173.510567 333.84104,173.870168 C335.680767,174.333929 337.716368,176.818896 337.128746,179.085623 C336.427071,181.895471 323.267569,190.398175 315.256575,189.805453 C315.256575,189.805453 311.046526,190.080734 307.486085,184.320918 C304.173585,178.832662 308.743149,168.442673 308.743149,168.442673 C308.743149,168.442673 306.649282,163.590539 308.167924,161.947534 C308.167924,161.947534 309.067952,161.116732 311.703572,160.928251 L314.928053,154.166512 C314.928053,154.166512 311.254797,154.423193 309.067952,151.684025 C307.034831,149.084978 306.864991,147.892094 308.425783,147.175372 C310.094431,146.33713 325.391189,143.508682 335.918791,143.867043 C335.918791,143.867043 339.57593,143.503722 342.748343,149.93562 C342.748343,149.93562 344.285581,152.537148 341.672276,153.162109" id="Fill-27" fill="#FFFFFF"></path>
    </g>
</svg>