<?xml version="1.0" encoding="utf-8"?>
<!-- Generator: Adobe Illustrator 17.0.0, SVG Export Plug-In . SVG Version: 6.00 Build 0)  -->
<!DOCTYPE svg PUBLIC "-//W3C//DTD SVG 1.1//EN" "http://www.w3.org/Graphics/SVG/1.1/DTD/svg11.dtd">
<svg version="1.1" id="Layer_1" xmlns="http://www.w3.org/2000/svg" xmlns:xlink="http://www.w3.org/1999/xlink" x="0px" y="0px"
	 width="50px" height="10px" viewBox="0 0 50 10" enable-background="new 0 0 50 10" xml:space="preserve">
<g>
	<g>
		<polygon fill="#0F0B0C" points="0.314,9.19 1.58,9.195 4.526,0.796 3.265,0.796 		"/>
	</g>
	<g>
		<polygon fill="#0F0B0C" points="4.72,9.204 5.986,9.204 8.933,0.81 7.671,0.805 		"/>
	</g>
	<g>
		<polygon fill="#0F0B0C" points="12.375,7.302 13.02,7.302 13.024,5.243 14.867,5.248 14.867,4.64 13.024,4.635 13.029,3.346 
			15.079,3.351 15.079,2.743 12.384,2.738 		"/>
	</g>
	<g>
		<g>
			<path fill="#0F0B0C" d="M22.112,4.919c0.293-0.216,0.446-0.563,0.446-0.906c0-0.689-0.36-1.253-1.455-1.257l-1.491-0.005
				l-0.009,4.564L21.13,7.32c1.167,0.005,1.572-0.586,1.572-1.325C22.698,5.554,22.517,5.122,22.112,4.919z M20.251,3.364h0.87
				c0.64,0,0.748,0.324,0.748,0.649c0,0.315-0.14,0.644-0.703,0.644h-0.919L20.251,3.364z M21.152,6.712h-0.906l0.005-1.451h0.919
				c0.622,0,0.847,0.225,0.843,0.734C22.008,6.347,21.869,6.717,21.152,6.712z"/>
		</g>
	</g>
	<g>
		<polygon fill="#0F0B0C" points="23.297,7.325 26.041,7.334 26.041,6.726 23.937,6.721 23.941,5.27 25.843,5.275 25.847,4.667 
			23.941,4.662 23.946,3.373 26.05,3.378 26.05,2.77 23.306,2.761 		"/>
	</g>
	<g>
		<g>
			<path fill="#0F0B0C" d="M30.006,4.103c0-0.816-0.36-1.329-1.536-1.329L26.996,2.77l-0.014,4.564h0.64l0.005-1.897l0.96,0.005
				l0.928,1.901h0.793c-0.32-0.622-0.725-1.379-1.059-2.01C29.812,5.135,30.001,4.703,30.006,4.103z M28.546,4.833h-0.919
				l0.005-1.451h0.919c0.671,0,0.766,0.324,0.766,0.721C29.316,4.509,29.217,4.833,28.546,4.833z"/>
		</g>
	</g>
	<g>
		<polygon fill="#0F0B0C" points="33.858,6.099 31.74,2.783 31.236,2.783 31.227,7.347 31.844,7.347 31.84,4.036 33.957,7.352 
			34.462,7.352 34.471,2.788 33.854,2.788 		"/>
	</g>
	<g>
		<g>
			<path fill="#0F0B0C" d="M36.809,2.716c-1.527-0.005-1.735,1.162-1.739,2.356s0.203,2.361,1.73,2.365
				c1.532,0.005,1.735-1.162,1.739-2.356C38.539,3.887,38.341,2.72,36.809,2.716z M36.796,6.829
				c-0.942-0.005-1.077-0.811-1.072-1.757c0.005-0.942,0.14-1.753,1.081-1.748c0.942,0.005,1.077,0.811,1.072,1.753
				C37.877,6.023,37.742,6.834,36.796,6.829z"/>
		</g>
	</g>
	<g>
		<polygon fill="#0F0B0C" points="43.36,7.374 46.104,7.379 46.104,6.771 44,6.766 44.005,5.32 45.911,5.324 45.911,4.716 
			44.005,4.712 44.009,3.419 46.113,3.423 46.118,2.815 43.374,2.81 		"/>
	</g>
	<g>
		<polygon fill="#0F0B0C" points="47.69,6.775 47.699,2.819 47.06,2.819 47.051,7.383 49.686,7.388 49.686,6.78 		"/>
	</g>
	<g>
		<polygon fill="#0F0B0C" points="16.719,2.729 16.719,2.729 16.714,2.729 15.11,7.307 15.795,7.307 17.061,3.716 18.3,7.316 
			18.994,7.316 17.408,2.734 		"/>
	</g>
	<g>
		<polygon fill="#0F0B0C" points="40.819,6.379 39.576,2.783 38.886,2.783 40.472,7.365 40.598,7.365 41.162,7.37 42.766,2.792 
			42.076,2.792 		"/>
	</g>
</g>
</svg>
