<svg id="Layer_1" data-name="Layer 1" xmlns="http://www.w3.org/2000/svg" viewBox="0 0 111.97 31.88"><defs><style>.cls-1{fill:#00254a;}</style></defs><title>logo</title><rect class="cls-1" x="52.83" y="7.46" width="2.52" height="15.13"/><path class="cls-1" d="M48.81,21.81h1.81v2.37a5.57,5.57,0,0,1-1.62.95,6,6,0,0,1-2,.36,5.8,5.8,0,0,1-2.13-.4A5.91,5.91,0,0,1,43,24,5.18,5.18,0,0,1,41.8,22.3a4.92,4.92,0,0,1-.46-2.1,5.6,5.6,0,0,1,.43-2.2A5.48,5.48,0,0,1,43,16.27a5.18,5.18,0,0,1,1.78-1.12,6,6,0,0,1,2.21-.4,5.85,5.85,0,0,1,2.29.45,6,6,0,0,1,1.87,1.26l.15.16,1.65-1.93-.13-.13a8.27,8.27,0,0,0-2.6-1.75A8,8,0,0,0,47,12.17a8.52,8.52,0,0,0-3.09.58,8.3,8.3,0,0,0-2.6,1.63,8,8,0,0,0-1.79,2.47,7.46,7.46,0,0,0-.66,3.1,8.29,8.29,0,0,0,.63,3.19A8,8,0,0,0,47,28.06a8.29,8.29,0,0,0,3.44-.72,8.53,8.53,0,0,0,2.74-2l0,0v-6H47.71Z" transform="translate(-3.57 -5.15)"/><polygon class="cls-1" points="70.23 18.35 61.08 7.46 57.77 7.46 59.72 9.8 59.72 22.58 62.23 22.58 62.23 12.82 70.36 22.58 72.79 22.58 72.79 7.46 70.23 7.46 70.23 18.35"/><rect class="cls-1" x="109.18" y="7.46" width="2.52" height="15.13"/><path class="cls-1" d="M93.22,14.49a8,8,0,0,0-2.59-1.7,8.13,8.13,0,0,0-3.16-.62,8.39,8.39,0,0,0-5.7,2.21A8.12,8.12,0,0,0,80,16.85a7.34,7.34,0,0,0-.66,3.1A8.11,8.11,0,0,0,80,23.14a8,8,0,0,0,1.72,2.58,8.33,8.33,0,0,0,8.89,1.74,8.44,8.44,0,0,0,2.6-1.66,8.06,8.06,0,0,0,1.77-2.49,7.43,7.43,0,0,0,.66-3.12A7.7,7.7,0,0,0,95,17,7.92,7.92,0,0,0,93.22,14.49ZM82.3,22.3a4.92,4.92,0,0,1-.45-2.1,5.43,5.43,0,0,1,1.6-3.93,5.28,5.28,0,0,1,1.78-1.12,6.24,6.24,0,0,1,4.37,0,5.6,5.6,0,0,1,1.78,1.1,5.31,5.31,0,0,1,1.22,1.69A5.14,5.14,0,0,1,93,20.06a5.29,5.29,0,0,1-.44,2.14,5.49,5.49,0,0,1-3,2.87,5.67,5.67,0,0,1-2.17.42,5.88,5.88,0,0,1-2.13-.4A6,6,0,0,1,83.54,24,5.21,5.21,0,0,1,82.3,22.3Z" transform="translate(-3.57 -5.15)"/><path class="cls-1" d="M108.62,19.66a5.54,5.54,0,0,0-2.06-.9,14.53,14.53,0,0,0-3.23-.3,6.94,6.94,0,0,1-1.51-.13,2.6,2.6,0,0,1-.88-.35,1.14,1.14,0,0,1-.43-.45,1.38,1.38,0,0,1-.12-.56,1.74,1.74,0,0,1,.22-.82,2.27,2.27,0,0,1,.6-.72,3.13,3.13,0,0,1,.9-.5,3.42,3.42,0,0,1,1.12-.18,9.66,9.66,0,0,1,1.26.08,5.45,5.45,0,0,1,1.07.29,5.78,5.78,0,0,1,1,.52c.34.22.71.49,1.1.8l.15.12,1.6-1.87-.14-.13a7.76,7.76,0,0,0-2.86-1.87,9.59,9.59,0,0,0-3.2-.52,6.08,6.08,0,0,0-2.25.4,5.61,5.61,0,0,0-1.78,1.06A4.88,4.88,0,0,0,98,15.17,4.21,4.21,0,0,0,97.6,17a3.44,3.44,0,0,0,1.47,3,7.39,7.39,0,0,0,4.16,1c.51,0,1,0,1.57,0a4.85,4.85,0,0,1,1.34.24,2,2,0,0,1,.91.59,1.81,1.81,0,0,1,.33,1.17,1.67,1.67,0,0,1-.33,1.06,2.69,2.69,0,0,1-.92.77,4.81,4.81,0,0,1-1.34.46,8.18,8.18,0,0,1-1.56.16,5,5,0,0,1-1.51-.22,5.94,5.94,0,0,1-1.22-.55,5.45,5.45,0,0,1-.94-.73c-.26-.26-.5-.51-.69-.74l-.14-.17L96.9,24.8,97,25a8.41,8.41,0,0,0,1.29,1.31,8.75,8.75,0,0,0,1.52,1,8.59,8.59,0,0,0,1.67.61,7.33,7.33,0,0,0,1.74.21,9.84,9.84,0,0,0,2.66-.34,6.81,6.81,0,0,0,2.14-1,4.82,4.82,0,0,0,1.44-1.58,4.28,4.28,0,0,0,.53-2.1,6,6,0,0,0-.29-1.92A3.2,3.2,0,0,0,108.62,19.66Z" transform="translate(-3.57 -5.15)"/><path class="cls-1" d="M18.74,35.47h11a9.34,9.34,0,0,1-1.41-.82A11.13,11.13,0,0,1,23.47,26H18.16a10.94,10.94,0,0,1-7-18.79,15.15,15.15,0,0,0,7.59,28.28Z" transform="translate(-3.57 -5.15)"/><path class="cls-1" d="M24.52,20.15v5.4h0a10,10,0,0,0,4.37,8.24,9.27,9.27,0,0,0,5,1.65l0-15.13a18.78,18.78,0,0,0-.15-2.1,12,12,0,0,0-4.6-6.94,12,12,0,0,0-10-2.2c-4.47,1-7.71,4.52-7.71,8.47a7.34,7.34,0,0,0,2.13,5.17A5.66,5.66,0,0,1,13,20.25a5.76,5.76,0,0,1,11.51-.41C24.51,20,24.52,20.15,24.52,20.15Z" transform="translate(-3.57 -5.15)"/><path class="cls-1" d="M18.75,5.15a9.92,9.92,0,0,0-9.88,9.94,9.78,9.78,0,0,0,2.64,6.69,8.39,8.39,0,0,1-1.15-4.24c0-4.45,3.6-8.45,8.55-9.51a13,13,0,0,1,10.89,2.4,13.35,13.35,0,0,1,1.32,1.14A15.15,15.15,0,0,0,18.75,5.15Z" transform="translate(-3.57 -5.15)"/><path class="cls-1" d="M58.46,31.73a1.7,1.7,0,0,0-.47.49v-.55h-.5v3.8H58V34.18a6,6,0,0,1,.09-1.31,1.26,1.26,0,0,1,.34-.62.68.68,0,0,1,.47-.2.73.73,0,0,1,.26.06l.26-.41a.88.88,0,0,0-.44-.13A.9.9,0,0,0,58.46,31.73Zm3.42-1.47h-.49v1.41h-.66v.42h.66v3.38h.49V32.09h.77v-.42h-.77ZM55,32.37a1.79,1.79,0,0,0-1.51-.8,1.89,1.89,0,0,0-1.39.58,2,2,0,0,0-.57,1.41A2,2,0,0,0,52.05,35a1.84,1.84,0,0,0,1.37.58,1.82,1.82,0,0,0,.84-.19,2.11,2.11,0,0,0,.69-.56v.66h.48v-3.8H55Zm-.16,2a1.41,1.41,0,0,1-.56.55,1.47,1.47,0,0,1-.76.2,1.46,1.46,0,0,1-1.29-.77,1.54,1.54,0,0,1-.21-.77,1.48,1.48,0,0,1,.21-.76,1.41,1.41,0,0,1,.54-.57,1.54,1.54,0,0,1,.76-.2,1.46,1.46,0,0,1,1.07.44,1.65,1.65,0,0,1,.24,1.88Zm-13.54-4-2.43,5.14h.58l.8-1.69h2.21l.81,1.69h.55l-2.39-5.14Zm-.82,3,.88-1.86.88,1.86Zm7.2-1.71a1.8,1.8,0,0,0-.84.2,2,2,0,0,0-.67.6v-.7h-.48v5.18h.48v-2a2.11,2.11,0,0,0,.69.56,1.78,1.78,0,0,0,.83.19A1.85,1.85,0,0,0,49,35a2,2,0,0,0,.57-1.42A1.92,1.92,0,0,0,49,32.15,1.85,1.85,0,0,0,47.63,31.57Zm1.26,2.77a1.58,1.58,0,0,1-.55.57,1.49,1.49,0,0,1-.74.2,1.47,1.47,0,0,1-.76-.2,1.41,1.41,0,0,1-.56-.55,1.65,1.65,0,0,1,.24-1.88A1.46,1.46,0,0,1,47.59,32a1.46,1.46,0,0,1,1.3.77,1.47,1.47,0,0,1,.2.76A1.53,1.53,0,0,1,48.89,34.34Zm66.22-.49a2.22,2.22,0,0,0-.75-.55,1.81,1.81,0,0,1-.58-.4.51.51,0,0,1-.14-.35.48.48,0,0,1,.17-.37.59.59,0,0,1,.4-.15,1.11,1.11,0,0,1,.77.38l.31-.33a1.53,1.53,0,0,0-1.05-.51,1.05,1.05,0,0,0-.75.29,1,1,0,0,0-.29.72,1,1,0,0,0,.18.59,2.14,2.14,0,0,0,.7.52,2.33,2.33,0,0,1,.62.4.58.58,0,0,1,.13.38.57.57,0,0,1-.2.44.71.71,0,0,1-.5.19,1.08,1.08,0,0,1-.8-.42L113,35a1.46,1.46,0,0,0,.49.39,1.38,1.38,0,0,0,.63.14,1.14,1.14,0,0,0,.82-.32,1.08,1.08,0,0,0,.14-1.39Zm-6.77-1.54a1.89,1.89,0,0,0-1.55-.74,1.83,1.83,0,0,0-1.51.72,2.08,2.08,0,0,0-.44,1.29,2,2,0,0,0,.52,1.37,1.81,1.81,0,0,0,1.45.61,2.29,2.29,0,0,0,.76-.12,1.76,1.76,0,0,0,.59-.38,2,2,0,0,0,.47-.64l-.41-.21a2.32,2.32,0,0,1-.42.53,1.3,1.3,0,0,1-.46.27,1.59,1.59,0,0,1-.57.1,1.37,1.37,0,0,1-1-.42,1.55,1.55,0,0,1-.42-1.08h3.42A2.11,2.11,0,0,0,108.34,32.31Zm-3,.87a1.62,1.62,0,0,1,.44-.78,1.4,1.4,0,0,1,1-.36,1.58,1.58,0,0,1,.65.14,1.27,1.27,0,0,1,.49.38,1.56,1.56,0,0,1,.29.62Zm-37.54-.87a1.89,1.89,0,0,0-1.55-.74,1.81,1.81,0,0,0-1.51.72A2.09,2.09,0,0,0,64.87,35a1.8,1.8,0,0,0,1.45.61,2.19,2.19,0,0,0,.75-.12,1.8,1.8,0,0,0,.6-.38,2.17,2.17,0,0,0,.47-.64l-.41-.21a2.32,2.32,0,0,1-.42.53,1.4,1.4,0,0,1-.46.27,1.63,1.63,0,0,1-.57.1,1.35,1.35,0,0,1-1-.42,1.55,1.55,0,0,1-.42-1.08h3.42A2.11,2.11,0,0,0,67.85,32.31Zm-2.95.87a1.62,1.62,0,0,1,.44-.78,1.4,1.4,0,0,1,1-.36,1.62,1.62,0,0,1,.65.14,1.35,1.35,0,0,1,.49.38,1.56,1.56,0,0,1,.29.62Zm37.47-2.92h-.49v1.41h-.66v.42h.66v3.38h.49V32.09h.78v-.42h-.78Zm8.37,5.21h.49V30.2h-.49Zm-13.31-3.9a1.88,1.88,0,0,0-1.46.64A2,2,0,0,0,96,35a2,2,0,0,0,2.86,0,2,2,0,0,0,.55-1.39,2,2,0,0,0-.52-1.37A1.88,1.88,0,0,0,97.43,31.57Zm1.28,2.79a1.47,1.47,0,0,1-.53.55,1.58,1.58,0,0,1-1.5,0,1.58,1.58,0,0,1-.54-.55,1.61,1.61,0,0,1-.2-.77,1.51,1.51,0,0,1,.44-1.09,1.41,1.41,0,0,1,1.05-.45,1.44,1.44,0,0,1,1,.45,1.59,1.59,0,0,1,.23,1.86ZM73.87,33.3a1.88,1.88,0,0,1-.59-.4.54.54,0,0,1-.13-.35.5.5,0,0,1,.16-.37.61.61,0,0,1,.41-.15,1.11,1.11,0,0,1,.77.38l.31-.33a1.53,1.53,0,0,0-1-.51,1.05,1.05,0,0,0-.75.29.94.94,0,0,0-.29.72,1,1,0,0,0,.18.59,2,2,0,0,0,.7.52,2.52,2.52,0,0,1,.62.4.58.58,0,0,1,.13.38.6.6,0,0,1-.2.44.71.71,0,0,1-.5.19,1.08,1.08,0,0,1-.8-.42l-.31.35a1.5,1.5,0,0,0,.5.39,1.38,1.38,0,0,0,.63.14,1.16,1.16,0,0,0,.82-.32,1.07,1.07,0,0,0,.33-.79,1,1,0,0,0-.2-.6A2.07,2.07,0,0,0,73.87,33.3Zm-3.62,2.17h.48V30.2h-.48Zm13.36-1c.2-.15.41-.32.64-.52l-.35-.36c-.16.14-.37.31-.65.51l-.51-.51L82,32.75a3.63,3.63,0,0,0,.72-.74,1.08,1.08,0,0,0,.18-.55.81.81,0,0,0-.14-.47,1,1,0,0,0-.4-.34,1.28,1.28,0,0,0-.59-.13,1.24,1.24,0,0,0-.85.29.8.8,0,0,0-.3.63,1.09,1.09,0,0,0,.12.47,4.38,4.38,0,0,0,.55.75,4.51,4.51,0,0,0-1,1,1.4,1.4,0,0,0-.25.77,1.11,1.11,0,0,0,.36.85,1.33,1.33,0,0,0,1,.34,2.36,2.36,0,0,0,.84-.15,4.46,4.46,0,0,0,1-.68l.68.71h.71a6.32,6.32,0,0,0-.45-.49Zm-2.45-2.73a.59.59,0,0,1-.07-.26.4.4,0,0,1,.17-.32.73.73,0,0,1,.45-.13.74.74,0,0,1,.46.13.38.38,0,0,1,.17.31.66.66,0,0,1-.13.35,3,3,0,0,1-.56.57A5.26,5.26,0,0,1,81.16,31.72ZM81.92,35a1.31,1.31,0,0,1-.54.11.88.88,0,0,1-.61-.22.72.72,0,0,1-.25-.52.92.92,0,0,1,.21-.54,4,4,0,0,1,.85-.78c.18.19.33.37.47.51l.81.84A4.48,4.48,0,0,1,81.92,35Zm10.89-2.52H90.19V30.33h-.51v5.14h.51V33h2.62v2.48h.51V30.33h-.51Z" transform="translate(-3.57 -5.15)"/><path class="cls-1" d="M46.3,37h-.84V31.49h.84v.42a1.8,1.8,0,0,1,1.33-.51,2.07,2.07,0,0,1,1.51.63,2.21,2.21,0,0,1,0,3.07,2.08,2.08,0,0,1-2.41.43,1.71,1.71,0,0,1-.43-.29Zm-.49-.35H46V34.32l.31.38a2,2,0,0,0,.63.52,1.72,1.72,0,0,0,.75.17,1.67,1.67,0,0,0,1.25-.53,1.79,1.79,0,0,0,.52-1.3,1.73,1.73,0,0,0-.52-1.28,1.69,1.69,0,0,0-1.26-.53,1.73,1.73,0,0,0-.76.17,1.83,1.83,0,0,0-.6.55l-.32.44V31.84h-.14Zm35.52-.91a1.52,1.52,0,0,1-1.08-.39,1.31,1.31,0,0,1-.41-1,1.58,1.58,0,0,1,.27-.86,4.29,4.29,0,0,1,.89-.91,3.2,3.2,0,0,1-.45-.65,1.09,1.09,0,0,1-.14-.54,1,1,0,0,1,.36-.76,1.39,1.39,0,0,1,1-.34,1.45,1.45,0,0,1,.66.15,1.14,1.14,0,0,1,.48.41,1,1,0,0,1,.17.56,1.24,1.24,0,0,1-.21.64,3.75,3.75,0,0,1-.61.66l1,1.09.51-.41.13-.12.59.63-.14.12q-.24.21-.48.39l.4.39c.18.18.34.35.47.5l.24.29H83.82L83.2,35a4.17,4.17,0,0,1-1,.6A2.58,2.58,0,0,1,81.33,35.77Zm.4-5.08a1.09,1.09,0,0,0-.74.25.62.62,0,0,0-.23.5.87.87,0,0,0,.1.39,4.42,4.42,0,0,0,.52.72l.11.14-.14.11a4.06,4.06,0,0,0-.94.93,1.19,1.19,0,0,0-.22.67,1,1,0,0,0,.3.73,1.19,1.19,0,0,0,.84.29,2.08,2.08,0,0,0,.78-.15,4.15,4.15,0,0,0,1-.64l.12-.1.74.76h.25L84,35.1c-.22-.22-.4-.4-.54-.52l-.16-.15.18-.12.48-.39-.1-.11c-.14.12-.32.26-.53.41l-.13.09-1.52-1.57.14-.12a3.48,3.48,0,0,0,.68-.71.91.91,0,0,0,.16-.45.72.72,0,0,0-.11-.37.89.89,0,0,0-.34-.29A1.19,1.19,0,0,0,81.73,30.69Zm32.42,5.05a1.75,1.75,0,0,1-.71-.16,1.6,1.6,0,0,1-.55-.45L112.8,35l.53-.61.13.15c.36.41.78.46,1.05.22a.4.4,0,0,0,.15-.31.35.35,0,0,0-.1-.26,1.78,1.78,0,0,0-.56-.36,2.29,2.29,0,0,1-.76-.58,1.2,1.2,0,0,1-.22-.69,1.15,1.15,0,0,1,.35-.85,1.21,1.21,0,0,1,.87-.33,1.71,1.71,0,0,1,1.18.56l.12.12-.56.57-.12-.12c-.36-.34-.71-.42-.93-.22a.33.33,0,0,0-.12.24.36.36,0,0,0,.1.24,1.84,1.84,0,0,0,.53.36,2.48,2.48,0,0,1,.81.59h0a1.14,1.14,0,0,1,.22.7,1.25,1.25,0,0,1-.38.91A1.29,1.29,0,0,1,114.15,35.74Zm-.89-.71a1.2,1.2,0,0,0,.34.23,1.17,1.17,0,0,0,.55.13.94.94,0,0,0,.7-.28.9.9,0,0,0,.27-.66A.81.81,0,0,0,115,34a2.08,2.08,0,0,0-.68-.49,2.08,2.08,0,0,1-.64-.44.73.73,0,0,1-.18-.47.64.64,0,0,1,.23-.49.93.93,0,0,1,1.28.11l.07-.08a1,1,0,0,0-1.43-.11.86.86,0,0,0-.09,1.08,1.88,1.88,0,0,0,.64.47,2.27,2.27,0,0,1,.67.45.74.74,0,0,1,.18.49.76.76,0,0,1-.26.57,1,1,0,0,1-1.41-.11Zm-6.44.71a2,2,0,0,1-1.59-.67,2.23,2.23,0,0,1-.57-1.49,2.28,2.28,0,0,1,.48-1.4,2,2,0,0,1,1.65-.78,2.06,2.06,0,0,1,1.69.8h0a2.24,2.24,0,0,1,.45,1.4v.18h-3.4a1.26,1.26,0,0,0,.36.79,1.16,1.16,0,0,0,.88.37,1.44,1.44,0,0,0,.51-.09,1.27,1.27,0,0,0,.41-.24,2.25,2.25,0,0,0,.38-.49l.09-.15.71.38-.08.15a2.53,2.53,0,0,1-.51.69,1.93,1.93,0,0,1-.65.41A2.33,2.33,0,0,1,106.82,35.74Zm0-4a1.63,1.63,0,0,0-1.37.65,1.88,1.88,0,0,0,.08,2.44,1.61,1.61,0,0,0,1.32.55,1.83,1.83,0,0,0,.68-.12,1.67,1.67,0,0,0,.54-.33,1.8,1.8,0,0,0,.35-.45l-.11-.05a2.5,2.5,0,0,1-.36.44,1.87,1.87,0,0,1-.52.3,1.9,1.9,0,0,1-.63.11,1.5,1.5,0,0,1-1.13-.48,1.68,1.68,0,0,1-.47-1.2v-.18h3.41a1.77,1.77,0,0,0-.37-1h0A1.66,1.66,0,0,0,106.79,31.75Zm-9.36,4a2,2,0,0,1-1.55-.65,2.17,2.17,0,0,1-.61-1.51,2.2,2.2,0,0,1,.57-1.49,2.18,2.18,0,0,1,3.18,0,2.19,2.19,0,0,1,.56,1.49,2.16,2.16,0,0,1-.6,1.51A2,2,0,0,1,97.43,35.74Zm0-4a1.71,1.71,0,0,0-1.33.58,1.78,1.78,0,0,0-.48,1.25,1.8,1.8,0,0,0,.51,1.27,1.83,1.83,0,0,0,2.6,0,1.8,1.8,0,0,0,.51-1.27,1.82,1.82,0,0,0-.48-1.26A1.74,1.74,0,0,0,97.43,31.75Zm-23.77,4a1.75,1.75,0,0,1-.71-.16,1.52,1.52,0,0,1-.55-.45L72.31,35l.53-.61.13.15c.36.41.78.46,1,.22a.4.4,0,0,0,.15-.31.35.35,0,0,0-.1-.26,1.78,1.78,0,0,0-.56-.36,2.29,2.29,0,0,1-.76-.58,1.2,1.2,0,0,1,.13-1.54,1.21,1.21,0,0,1,.87-.33,1.67,1.67,0,0,1,1.17.56l.13.12-.56.57-.12-.12c-.36-.34-.71-.42-.94-.22a.35.35,0,0,0-.11.24.36.36,0,0,0,.1.24,1.68,1.68,0,0,0,.53.36h0a2.32,2.32,0,0,1,.8.59,1.14,1.14,0,0,1,.23.71,1.25,1.25,0,0,1-.38.91A1.29,1.29,0,0,1,73.66,35.74ZM72.77,35a1.3,1.3,0,0,0,.33.23,1.21,1.21,0,0,0,.56.13.9.9,0,0,0,.69-.28.87.87,0,0,0,.28-.66.81.81,0,0,0-.16-.5,2.08,2.08,0,0,0-.68-.49h0a2.07,2.07,0,0,1-.64-.45.69.69,0,0,1-.18-.46.65.65,0,0,1,.23-.49.93.93,0,0,1,1.28.11l.07-.08A1,1,0,0,0,73.12,32,.86.86,0,0,0,73,33.06a1.78,1.78,0,0,0,.64.47,2.27,2.27,0,0,1,.67.45.72.72,0,0,1,.18.49.74.74,0,0,1-.27.57,1,1,0,0,1-1.4-.11Zm-6.45.71a2,2,0,0,1-1.58-.67,2.26,2.26,0,0,1-.09-2.89,2,2,0,0,1,1.64-.78,2,2,0,0,1,1.69.8h0a2.18,2.18,0,0,1,.46,1.4v.18H65a1.24,1.24,0,0,0,.36.79,1.16,1.16,0,0,0,.88.37,1.52,1.52,0,0,0,.51-.09,1.27,1.27,0,0,0,.41-.24,2.25,2.25,0,0,0,.38-.49l.08-.15.71.38-.07.15a2.53,2.53,0,0,1-.51.69,1.93,1.93,0,0,1-.65.41A2.35,2.35,0,0,1,66.32,35.74Zm0-4a1.62,1.62,0,0,0-1.36.65,1.81,1.81,0,0,0-.41,1.18A1.89,1.89,0,0,0,65,34.84a1.64,1.64,0,0,0,1.32.55,1.85,1.85,0,0,0,.69-.12,1.51,1.51,0,0,0,.54-.33,1.8,1.8,0,0,0,.35-.45l-.11-.05a3,3,0,0,1-.36.44,2,2,0,0,1-.52.3,1.9,1.9,0,0,1-.63.11,1.49,1.49,0,0,1-1.13-.48,1.69,1.69,0,0,1-.48-1.2v-.18h3.41a1.77,1.77,0,0,0-.37-1h0A1.68,1.68,0,0,0,66.29,31.75Zm-12.87,4a2,2,0,0,1-1.5-.64,2.14,2.14,0,0,1-.62-1.54A2.08,2.08,0,0,1,51.93,32a2.14,2.14,0,0,1,2.44-.42,2.27,2.27,0,0,1,.4.29v-.41h.83v4.15h-.83v-.4a1.71,1.71,0,0,1-.43.29A2,2,0,0,1,53.42,35.74Zm0-4a1.67,1.67,0,0,0-1.26.53,1.7,1.7,0,0,0-.53,1.28,1.79,1.79,0,0,0,.52,1.3,1.7,1.7,0,0,0,1.25.53,1.73,1.73,0,0,0,.76-.17,1.93,1.93,0,0,0,.63-.52l.31-.38v1h.14V31.84h-.14v1.07l-.31-.44a1.72,1.72,0,0,0-.61-.54A1.58,1.58,0,0,0,53.44,31.75Zm58,3.89h-.84V30h.84Zm-.49-.35h.14V30.38h-.14Zm-8.36.35h-.84V32.27H101v-.78h.67V30.08h.84v1.41h.77v.78h-.77Zm-.49-.35h.14V31.92H103v-.08h-.77V30.43h-.14v1.41h-.67v.08h.67Zm-8.56.35h-.87V33.16H90.37v2.48h-.86V30.16h.86v2.15h2.26V30.16h.87ZM93,35.29h.17V30.51H93v2.15H90V30.51h-.16v4.78H90V32.81h3Zm-22.07.35h-.84V30h.84Zm-.49-.35h.14V30.38h-.14Zm-8.37.35h-.83V32.27h-.67v-.78h.67V30.08h.83v1.41h.78v.78h-.78Zm-.48-.35h.13V31.92h.78v-.08H61.7V30.43h-.13v1.41H60.9v.08h.67Zm-3.41.35h-.85V31.49h.85v.25a1.3,1.3,0,0,1,.2-.15,1,1,0,0,1,1.13,0l.16.09-.43.69-.14-.06a.52.52,0,0,0-.19-.05.51.51,0,0,0-.35.16,1.06,1.06,0,0,0-.29.54,5.21,5.21,0,0,0-.09,1.26Zm-.5-.35h.15V34.18a5.75,5.75,0,0,1,.1-1.36,2,2,0,0,1,.18-.44l-.28.41v-.95h-.15ZM59,31.75a.76.76,0,0,0-.42.13,1.39,1.39,0,0,0-.35.34,1.14,1.14,0,0,1,.11-.11.87.87,0,0,1,.58-.24l.19,0,.07-.12A.57.57,0,0,0,59,31.75ZM44,35.64H43.1L42.3,34h-2l-.8,1.69h-1l2.59-5.48h.35Zm-.71-.35h.16l-2.18-4.68L39.1,35.29h.19l.8-1.69h2.43Zm38.05,0a1.06,1.06,0,0,1-.73-.27.86.86,0,0,1-.3-.65,1.17,1.17,0,0,1,.23-.64,4.24,4.24,0,0,1,.9-.82l.13-.1.11.12c.17.2.32.37.46.51l.94,1-.15.12a4,4,0,0,1-1,.63h0A1.41,1.41,0,0,1,81.38,35.29Zm.18-2a3.73,3.73,0,0,0-.69.65.82.82,0,0,0-.17.44.52.52,0,0,0,.19.39.89.89,0,0,0,1,.08,4.11,4.11,0,0,0,.75-.46l-.67-.7A5,5,0,0,1,81.56,33.28Zm-28.09,2a1.65,1.65,0,0,1-.83-.23,1.73,1.73,0,0,1-.62-.64,1.68,1.68,0,0,1-.22-.85,1.71,1.71,0,0,1,.22-.85,1.65,1.65,0,0,1,1.46-.85,1.59,1.59,0,0,1,1.19.49,1.7,1.7,0,0,1,.48,1.23,1.79,1.79,0,0,1-.21.86h0a1.58,1.58,0,0,1-.62.61A1.69,1.69,0,0,1,53.47,35.29Zm0-3.07a1.42,1.42,0,0,0-.67.17,1.36,1.36,0,0,0-.48.5,1.38,1.38,0,0,0-.18.68,1.36,1.36,0,0,0,.18.68,1.27,1.27,0,0,0,.49.51,1.32,1.32,0,0,0,1.33,0,1.23,1.23,0,0,0,.48-.48h0a1.34,1.34,0,0,0,.18-.69,1.32,1.32,0,0,0-.39-1A1.22,1.22,0,0,0,53.48,32.22ZM47.6,35.29a1.72,1.72,0,0,1-.85-.23,1.52,1.52,0,0,1-.62-.61,1.8,1.8,0,0,1-.22-.86,1.71,1.71,0,0,1,.49-1.23,1.59,1.59,0,0,1,1.19-.49,1.65,1.65,0,0,1,.84.22,1.68,1.68,0,0,1,.61.63,1.72,1.72,0,0,1,.23.85,1.79,1.79,0,0,1-.84,1.49A1.65,1.65,0,0,1,47.6,35.29Zm0-3.07a1.21,1.21,0,0,0-.94.39,1.32,1.32,0,0,0-.39,1,1.44,1.44,0,0,0,.17.69,1.34,1.34,0,0,0,1.82.48,1.41,1.41,0,0,0,.49-.51h0a1.36,1.36,0,0,0,.18-.68,1.37,1.37,0,0,0-.67-1.18A1.25,1.25,0,0,0,47.59,32.22Zm49.84,3.05a1.68,1.68,0,0,1-.83-.21,1.58,1.58,0,0,1-.61-.62,1.68,1.68,0,0,1-.22-.85,1.65,1.65,0,0,1,.49-1.21,1.6,1.6,0,0,1,2.34,0,1.65,1.65,0,0,1,.49,1.21,1.68,1.68,0,0,1-.22.85h0a1.58,1.58,0,0,1-.61.62A1.68,1.68,0,0,1,97.43,35.27Zm0-3.05a1.22,1.22,0,0,0-.92.4,1.39,1.39,0,0,0-.21,1.65,1.15,1.15,0,0,0,.47.48,1.35,1.35,0,0,0,1.32,0,1.21,1.21,0,0,0,.47-.48h0a1.39,1.39,0,0,0-.21-1.65A1.22,1.22,0,0,0,97.43,32.22Zm-55,1.24H40.15L41.31,31Zm-1.75-.35h1.2l-.6-1.28Zm67.73.25h-3.28l.06-.22a1.79,1.79,0,0,1,.5-.87,1.54,1.54,0,0,1,1.07-.41,1.76,1.76,0,0,1,.72.16,1.53,1.53,0,0,1,.56.43,1.77,1.77,0,0,1,.32.69ZM105.63,33H108a1.2,1.2,0,0,0-.18-.34,1.1,1.1,0,0,0-.43-.33,1.44,1.44,0,0,0-.58-.13,1.22,1.22,0,0,0-.84.32A1.26,1.26,0,0,0,105.63,33ZM68,33.36H64.66l.07-.23a1.76,1.76,0,0,1,.5-.86,1.54,1.54,0,0,1,1.07-.41A1.8,1.8,0,0,1,67,32a1.53,1.53,0,0,1,.56.43,1.84,1.84,0,0,1,.32.69ZM65.14,33h2.35a1.2,1.2,0,0,0-.18-.34,1.14,1.14,0,0,0-.44-.33,1.4,1.4,0,0,0-.57-.13,1.2,1.2,0,0,0-.84.32A1.26,1.26,0,0,0,65.14,33Zm16.48-.4-.1-.13a4.25,4.25,0,0,1-.51-.67h0a.69.69,0,0,1-.09-.34.57.57,0,0,1,.24-.46,1,1,0,0,1,1.11,0,.55.55,0,0,1,.25.44.82.82,0,0,1-.17.45,2.47,2.47,0,0,1-.6.62Zm-.31-1a3.37,3.37,0,0,0,.36.49,1.87,1.87,0,0,0,.39-.42.5.5,0,0,0,.11-.26s0-.09-.11-.16a.66.66,0,0,0-.69,0,.21.21,0,0,0-.1.18A.35.35,0,0,0,81.31,31.63Z" transform="translate(-3.57 -5.15)"/></svg>