<svg width="153" height="24" viewBox="0 0 153 24" fill="none" xmlns="http://www.w3.org/2000/svg">
<path d="M2.24074 22.7986H0.0807423V1.55858H2.24074V22.7986ZM9.58371 8.75858C9.62371 9.13858 9.65371 9.55858 9.67371 10.0186C9.69371 10.4786 9.70371 10.8586 9.70371 11.1586H9.76371C10.1637 10.3386 10.8137 9.67858 11.7137 9.17858C12.6137 8.65858 13.5637 8.39858 14.5637 8.39858C16.3437 8.39858 17.6737 8.92858 18.5537 9.98858C19.4537 11.0486 19.9037 12.4486 19.9037 14.1886V22.7986H17.8637V15.0286C17.8637 14.2886 17.8037 13.6186 17.6837 13.0186C17.5637 12.4186 17.3537 11.9086 17.0537 11.4886C16.7737 11.0486 16.3837 10.7086 15.8837 10.4686C15.4037 10.2286 14.7937 10.1086 14.0537 10.1086C13.5137 10.1086 12.9837 10.2186 12.4637 10.4386C11.9637 10.6586 11.5137 10.9986 11.1137 11.4586C10.7137 11.8986 10.3937 12.4686 10.1537 13.1686C9.91371 13.8486 9.79371 14.6586 9.79371 15.5986V22.7986H7.75371V11.8486C7.75371 11.4686 7.74371 10.9786 7.72371 10.3786C7.70371 9.77858 7.67371 9.23858 7.63371 8.75858H9.58371ZM27.0154 8.75858C27.0554 9.13858 27.0854 9.55858 27.1054 10.0186C27.1254 10.4786 27.1354 10.8586 27.1354 11.1586H27.1954C27.5954 10.3386 28.2454 9.67858 29.1454 9.17858C30.0454 8.65858 30.9954 8.39858 31.9954 8.39858C33.7754 8.39858 35.1054 8.92858 35.9854 9.98858C36.8854 11.0486 37.3354 12.4486 37.3354 14.1886V22.7986H35.2954V15.0286C35.2954 14.2886 35.2354 13.6186 35.1154 13.0186C34.9954 12.4186 34.7854 11.9086 34.4854 11.4886C34.2054 11.0486 33.8154 10.7086 33.3154 10.4686C32.8354 10.2286 32.2254 10.1086 31.4854 10.1086C30.9454 10.1086 30.4154 10.2186 29.8954 10.4386C29.3954 10.6586 28.9454 10.9986 28.5454 11.4586C28.1454 11.8986 27.8254 12.4686 27.5854 13.1686C27.3454 13.8486 27.2254 14.6586 27.2254 15.5986V22.7986H25.1854V11.8486C25.1854 11.4686 25.1754 10.9786 25.1554 10.3786C25.1354 9.77858 25.1054 9.23858 25.0654 8.75858H27.0154ZM56.567 15.7786C56.567 16.8386 56.377 17.8186 55.997 18.7186C55.637 19.6186 55.127 20.3986 54.467 21.0586C53.807 21.7186 53.017 22.2386 52.097 22.6186C51.177 22.9786 50.167 23.1586 49.067 23.1586C47.987 23.1586 46.987 22.9786 46.067 22.6186C45.147 22.2386 44.357 21.7186 43.697 21.0586C43.037 20.3986 42.517 19.6186 42.137 18.7186C41.777 17.8186 41.597 16.8386 41.597 15.7786C41.597 14.7186 41.777 13.7386 42.137 12.8386C42.517 11.9386 43.037 11.1586 43.697 10.4986C44.357 9.83858 45.147 9.32858 46.067 8.96858C46.987 8.58858 47.987 8.39858 49.067 8.39858C50.167 8.39858 51.177 8.58858 52.097 8.96858C53.017 9.32858 53.807 9.83858 54.467 10.4986C55.127 11.1586 55.637 11.9386 55.997 12.8386C56.377 13.7386 56.567 14.7186 56.567 15.7786ZM54.407 15.7786C54.407 14.9986 54.277 14.2686 54.017 13.5886C53.777 12.8886 53.427 12.2886 52.967 11.7886C52.507 11.2686 51.947 10.8586 51.287 10.5586C50.627 10.2586 49.887 10.1086 49.067 10.1086C48.247 10.1086 47.507 10.2586 46.847 10.5586C46.207 10.8586 45.657 11.2686 45.197 11.7886C44.737 12.2886 44.377 12.8886 44.117 13.5886C43.877 14.2686 43.757 14.9986 43.757 15.7786C43.757 16.5586 43.877 17.2986 44.117 17.9986C44.377 18.6786 44.737 19.2786 45.197 19.7986C45.657 20.2986 46.207 20.6986 46.847 20.9986C47.507 21.2786 48.247 21.4186 49.067 21.4186C49.887 21.4186 50.627 21.2786 51.287 20.9986C51.947 20.6986 52.507 20.2986 52.967 19.7986C53.427 19.2786 53.777 18.6786 54.017 17.9986C54.277 17.2986 54.407 16.5586 54.407 15.7786ZM66.7168 22.7986H64.4668L58.7368 8.75858H61.0168L65.5768 20.6386H65.6368L70.2268 8.75858H72.4168L66.7168 22.7986Z" fill="#505050"/>
<path d="M90.6653 15.2686C90.6653 16.4886 90.4453 17.5986 90.0053 18.5986C89.5653 19.5786 88.9653 20.4186 88.2053 21.1186C87.4453 21.7986 86.5653 22.3286 85.5653 22.7086C84.5653 23.0886 83.4953 23.2786 82.3553 23.2786C81.2353 23.2786 80.1653 23.0886 79.1453 22.7086C78.1453 22.3286 77.2653 21.7986 76.5053 21.1186C75.7653 20.4186 75.1753 19.5786 74.7353 18.5986C74.2953 17.5986 74.0753 16.4886 74.0753 15.2686C74.0753 14.0486 74.2953 12.9486 74.7353 11.9686C75.1753 10.9886 75.7653 10.1586 76.5053 9.47858C77.2653 8.79858 78.1453 8.27858 79.1453 7.91858C80.1653 7.55858 81.2353 7.37858 82.3553 7.37858C83.4953 7.37858 84.5653 7.55858 85.5653 7.91858C86.5653 8.27858 87.4453 8.79858 88.2053 9.47858C88.9653 10.1586 89.5653 10.9886 90.0053 11.9686C90.4453 12.9486 90.6653 14.0486 90.6653 15.2686ZM85.9253 15.2686C85.9253 14.7886 85.8453 14.3186 85.6853 13.8586C85.5253 13.3986 85.2953 12.9986 84.9953 12.6586C84.6953 12.2986 84.3253 12.0086 83.8853 11.7886C83.4453 11.5686 82.9353 11.4586 82.3553 11.4586C81.7753 11.4586 81.2653 11.5686 80.8253 11.7886C80.3853 12.0086 80.0153 12.2986 79.7153 12.6586C79.4353 12.9986 79.2153 13.3986 79.0553 13.8586C78.9153 14.3186 78.8453 14.7886 78.8453 15.2686C78.8453 15.7486 78.9153 16.2186 79.0553 16.6786C79.2153 17.1386 79.4453 17.5586 79.7453 17.9386C80.0453 18.2986 80.4153 18.5886 80.8553 18.8086C81.2953 19.0286 81.8053 19.1386 82.3853 19.1386C82.9653 19.1386 83.4753 19.0286 83.9153 18.8086C84.3553 18.5886 84.7253 18.2986 85.0253 17.9386C85.3253 17.5586 85.5453 17.1386 85.6853 16.6786C85.8453 16.2186 85.9253 15.7486 85.9253 15.2686ZM103.47 11.8786C103.25 11.8186 103.03 11.7786 102.81 11.7586C102.61 11.7386 102.41 11.7286 102.21 11.7286C101.55 11.7286 100.99 11.8486 100.53 12.0886C100.09 12.3286 99.7304 12.6186 99.4504 12.9586C99.1904 13.2986 99.0004 13.6686 98.8804 14.0686C98.7604 14.4686 98.7004 14.8186 98.7004 15.1186V22.7986H93.7804V7.85858H98.5204V10.0186H98.5804C98.9604 9.25858 99.5004 8.63858 100.2 8.15858C100.9 7.67858 101.71 7.43858 102.63 7.43858C102.83 7.43858 103.02 7.44858 103.2 7.46858C103.4 7.48858 103.56 7.51858 103.68 7.55858L103.47 11.8786ZM116.458 22.7986V20.8486H116.398C115.918 21.6086 115.228 22.1986 114.328 22.6186C113.448 23.0186 112.508 23.2186 111.508 23.2186C110.388 23.2186 109.388 22.9986 108.508 22.5586C107.628 22.1186 106.878 21.5386 106.258 20.8186C105.658 20.0786 105.198 19.2286 104.878 18.2686C104.558 17.3086 104.398 16.3086 104.398 15.2686C104.398 14.2286 104.558 13.2386 104.878 12.2986C105.218 11.3386 105.688 10.4986 106.288 9.77858C106.908 9.05858 107.648 8.48858 108.508 8.06858C109.388 7.64858 110.368 7.43858 111.448 7.43858C112.548 7.43858 113.478 7.64858 114.238 8.06858C114.998 8.48858 115.588 8.94858 116.008 9.44858H116.068V0.118583H120.988V22.7986H116.458ZM116.278 15.2986C116.278 14.8186 116.188 14.3486 116.008 13.8886C115.848 13.4286 115.608 13.0186 115.288 12.6586C114.988 12.2986 114.618 12.0086 114.178 11.7886C113.738 11.5686 113.238 11.4586 112.678 11.4586C112.098 11.4586 111.588 11.5686 111.148 11.7886C110.708 12.0086 110.338 12.2986 110.038 12.6586C109.738 12.9986 109.508 13.3986 109.348 13.8586C109.208 14.3186 109.138 14.7886 109.138 15.2686C109.138 15.7486 109.208 16.2286 109.348 16.7086C109.508 17.1686 109.738 17.5786 110.038 17.9386C110.338 18.2986 110.708 18.5886 111.148 18.8086C111.588 19.0286 112.098 19.1386 112.678 19.1386C113.238 19.1386 113.738 19.0286 114.178 18.8086C114.618 18.5886 114.988 18.2986 115.288 17.9386C115.608 17.5786 115.848 17.1686 116.008 16.7086C116.188 16.2486 116.278 15.7786 116.278 15.2986ZM135.184 13.6186C135.184 12.8386 134.934 12.1686 134.434 11.6086C133.954 11.0486 133.224 10.7686 132.244 10.7686C131.764 10.7686 131.324 10.8486 130.924 11.0086C130.524 11.1486 130.174 11.3486 129.874 11.6086C129.574 11.8686 129.334 12.1786 129.154 12.5386C128.974 12.8786 128.874 13.2386 128.854 13.6186H135.184ZM139.714 15.5086C139.714 15.7086 139.714 15.9086 139.714 16.1086C139.714 16.3086 139.704 16.4986 139.684 16.6786H128.854C128.894 17.0986 129.014 17.4786 129.214 17.8186C129.434 18.1586 129.704 18.4586 130.024 18.7186C130.364 18.9586 130.734 19.1486 131.134 19.2886C131.554 19.4286 131.984 19.4986 132.424 19.4986C133.204 19.4986 133.864 19.3586 134.404 19.0786C134.944 18.7786 135.384 18.3986 135.724 17.9386L139.144 20.0986C138.444 21.1186 137.514 21.9086 136.354 22.4686C135.214 23.0086 133.884 23.2786 132.364 23.2786C131.244 23.2786 130.184 23.1086 129.184 22.7686C128.184 22.4086 127.304 21.8986 126.544 21.2386C125.804 20.5586 125.214 19.7286 124.774 18.7486C124.354 17.7686 124.144 16.6486 124.144 15.3886C124.144 14.1686 124.354 13.0686 124.774 12.0886C125.194 11.0886 125.764 10.2486 126.484 9.56858C127.204 8.86858 128.054 8.32858 129.034 7.94858C130.014 7.56858 131.074 7.37858 132.214 7.37858C133.314 7.37858 134.324 7.56858 135.244 7.94858C136.164 8.30858 136.954 8.83858 137.614 9.53858C138.274 10.2386 138.784 11.0886 139.144 12.0886C139.524 13.0886 139.714 14.2286 139.714 15.5086ZM152.455 11.8786C152.235 11.8186 152.015 11.7786 151.795 11.7586C151.595 11.7386 151.395 11.7286 151.195 11.7286C150.535 11.7286 149.975 11.8486 149.515 12.0886C149.075 12.3286 148.715 12.6186 148.435 12.9586C148.175 13.2986 147.985 13.6686 147.865 14.0686C147.745 14.4686 147.685 14.8186 147.685 15.1186V22.7986H142.765V7.85858H147.505V10.0186H147.565C147.945 9.25858 148.485 8.63858 149.185 8.15858C149.885 7.67858 150.695 7.43858 151.615 7.43858C151.815 7.43858 152.005 7.44858 152.185 7.46858C152.385 7.48858 152.545 7.51858 152.665 7.55858L152.455 11.8786Z" fill="#F96D6D"/>
</svg>
