<?xml version="1.0" encoding="utf-8"?>
<!-- Generator: Adobe Illustrator 19.2.1, SVG Export Plug-In . SVG Version: 6.00 Build 0)  -->
<svg version="1.1" id="layer" xmlns="http://www.w3.org/2000/svg" xmlns:xlink="http://www.w3.org/1999/xlink" x="0px" y="0px"
	 viewBox="0 0 652 652" style="enable-background:new 0 0 652 652;" xml:space="preserve">
<style type="text/css">
	.st0{fill:#FF8200;}
	.st1{fill:#43B02A;}
</style>
<g id="logos">
	<g id="Logo">
		<path id="Carrot" class="st0" d="M94,309c7.2,7.2,12.9,18.9,9.6,25.8c-8.9,18.6-75.3,51.2-80.9,45.6c-5.7-5.6,27-72.1,45.6-81
			C75.2,296.1,86.9,301.8,94,309L94,309z"/>
		<path id="Leaves" class="st1" d="M129.2,301.1L129.2,301.1c-1.2-4.3-4.1-8.6-8.5-9.1c-8.1-0.9-20.8,13.3-19.9,16.8
			c0.9,3.5,18.9,9.4,25.6,4.5C129.9,310.9,130.3,305.5,129.2,301.1L129.2,301.1z M104.2,261.6c6,1.6,12,5.8,12.8,12
			c1.3,11.3-18.7,29.2-23.4,27.9s-13.1-26.4-6.4-35.9C90.7,260.8,98.2,260.1,104.2,261.6L104.2,261.6z"/>
	</g>
	<g id="Logotype">
		<path class="st1" d="M282.9,328.6l-5.9-0.9c-5.7-0.8-8.9-2.7-8.9-6c0-3.8,4.3-6.2,10.6-6.2c4.1,0.2,8.1,1.4,11.6,3.4l0.7,0.4
			c2.7,1.3,6.1,0.3,7.5-2.4l0.5-0.9c1.6-2.8,0.6-6.3-2.2-7.9c-0.1,0-0.1-0.1-0.2-0.1c-5.5-3-11.6-4.7-17.8-4.8
			c-15.1,0-24.8,7.2-24.8,19c0,9.6,6.9,15.7,20,17.5l6,0.8c6.3,0.9,9.4,2.8,9.4,5.7s-1.5,6.4-11.3,6.4c-5.4,0.1-10.7-1.4-15.3-4.2
			c-0.9-0.5-1.9-0.8-2.9-0.8c-2,0-3.8,1.1-4.8,2.7l-0.3,0.5c-0.8,1.3-1.1,3-0.7,4.5c0.4,1.5,1.4,2.8,2.7,3.5
			c6.6,3.6,13.9,5.7,21.5,5.9c15.8,0,25.5-6.9,25.5-19C303.4,336.1,296.5,330.6,282.9,328.6z"/>
		<path class="st1" d="M466.1,349.8c-1.1-1.3-2.8-2-4.5-2c-1.2,0-2.3,0.3-3.3,1c-3,2-6.6,3-10.2,3.1c-9.6,0-16.3-7.5-16.3-17.8
			c0-10.3,6.9-17.9,16.3-17.9c3.5,0,7,1,10,3c2.5,1.5,5.7,1.2,7.7-0.9l0.5-0.6c2.5-2.6,2.4-6.7-0.2-9.2c-0.3-0.3-0.6-0.5-0.9-0.7
			c-5-3.2-10.8-4.9-16.8-4.8c-18.2,0-30.9,12.7-30.9,30.9s12.7,30.9,30.9,30.9c5.9,0.1,11.8-1.6,16.8-4.8c3-2,3.8-6.1,1.8-9.1
			c-0.2-0.2-0.4-0.5-0.6-0.7L466.1,349.8z"/>
		<path class="st1" d="M172,282.4c-4.6,0-8.4,3.8-8.3,8.5c0,0,0,0,0,0.1c-0.2,4.6,3.4,8.4,8,8.5c0.1,0,0.2,0,0.4,0
			c4.7,0.2,8.7-3.3,8.9-8c0.2-4.7-3.3-8.7-8-8.9c-0.3,0-0.6,0-0.9,0V282.4z"/>
		<path class="st1" d="M174.6,303.7h-5c-2.4,0-4.4,2-4.4,4.4V359c0,2.4,2,4.4,4.4,4.4h5c2.4,0,4.4-2,4.4-4.4v-50.9
			C179,305.7,177,303.7,174.6,303.7z"/>
		<path class="st1" d="M337.9,351.6c-6.6,0-12-5.4-12-12v-23H338c2.4,0,4.4-2,4.4-4.4c0,0,0,0,0,0v-4c0-2.4-2-4.4-4.4-4.4
			c0,0,0,0,0,0h-12.2v-13.2c0-2.4-2-4.4-4.4-4.4h-5.3c-2.4,0-4.4,2-4.4,4.4v48.2c-0.3,14.1,10.8,25.8,25,26.2c0.1,0,0.1,0,0.2,0l0,0
			c3,0,5.5-2.5,5.5-5.5V356C342.4,353.6,340.4,351.6,337.9,351.6z"/>
		<path class="st1" d="M217.4,303.2c-14.8-0.4-27.1,11.3-27.5,26.1c0,0.1,0,0.1,0,0.2V359c0,2.4,2,4.4,4.4,4.4h5
			c2.4,0,4.4-2,4.4-4.4c0,0,0,0,0,0v-27.4c0-9.2,5.5-15.2,13.6-15.2s13.6,6.1,13.6,15.2V359c0,2.4,2,4.4,4.4,4.4h5
			c2.4,0,4.4-2,4.4-4.4v-29.6c-0.3-14.8-12.6-26.5-27.3-26.2C217.5,303.2,217.4,303.2,217.4,303.2z"/>
		<path class="st1" d="M580.7,303.9c-3-0.4-6.1-0.7-9.2-0.6h-0.7c-14.6,0-26.4,11.8-26.4,26.4V359c0,2.4,2,4.4,4.4,4.4c0,0,0,0,0,0
			h5c2.4,0,4.4-2,4.4-4.4v-28.8c-0.4-7.2,5.2-13.4,12.4-13.8c0.3,0,0.6,0,0.9,0c1.4,0,2.8,0.2,4.2,0.5c0.4,0,0.8,0,1.2,0
			c2.8,0,5.2-1.9,5.9-4.7c0.4-1.5,0.6-2.6,0.9-3.6c0.2-1.1,0.1-2.2-0.5-3.1C582.6,304.7,581.7,304.1,580.7,303.9z"/>
		<path class="st1" d="M617.6,316.6c2.4,0,4.4-2,4.4-4.4c0,0,0,0,0,0v-4c0-2.4-2-4.4-4.4-4.4c0,0,0,0,0,0h-12.1v-13.2
			c0-2.4-2-4.4-4.4-4.4h-5.3c-2.4,0-4.4,2-4.4,4.4v48.2c-0.3,14.1,10.8,25.8,25,26.2c0.1,0,0.1,0,0.2,0l0,0c3,0,5.5-2.5,5.5-5.5l0,0
			V356c0-2.4-2-4.4-4.5-4.4c-6.6,0-12-5.4-12-12v-23H617.6z"/>
		<path class="st1" d="M521.5,308L521.5,308c-5-3.2-10.8-4.9-16.8-4.8h-0.5c-5.9-0.1-11.8,1.6-16.8,4.8l0,0
			c-8.8,5.7-13.9,15.6-13.5,26.1c0,12,5.6,21.7,14.7,26.9c4.5,2.6,9.5,4,14.7,4c6.8,0.2,13.3-2.7,17.8-7.9v2.1c0,2.4,2,4.4,4.4,4.4
			h5.1c2.4,0,4.4-2,4.4-4.4v-25C535.5,323.6,530.3,313.7,521.5,308z M510,351c-1.6,0.5-3.2,0.8-4.8,0.9h-1.3
			c-1.6-0.1-3.2-0.4-4.8-0.9c-6.8-2.7-11.2-9.4-10.8-16.8c0-9.6,6-16.8,14.6-17.7l0,0h0.6h2.2h0.6l0,0c8.5,0.9,14.6,8.1,14.6,17.7
			C521.2,341.5,516.9,348.3,510,351z"/>
		<path class="st1" d="M395.9,308L395.9,308c-5-3.2-10.8-4.9-16.8-4.8h-0.6c-5.9-0.1-11.8,1.6-16.8,4.8l0,0
			c-8.7,5.8-13.8,15.7-13.3,26.1c0,12,5.6,21.7,14.7,26.9c4.5,2.6,9.5,4,14.7,4c6.8,0.2,13.3-2.7,17.7-7.9v2.1c0,2.4,2,4.4,4.4,4.4
			h5c2.4,0,4.4-2,4.4-4.4v-25C409.8,323.6,404.7,313.7,395.9,308z M384.4,351c-1.6,0.5-3.2,0.8-4.8,0.9h-1.3
			c-1.6-0.1-3.2-0.4-4.8-0.9c-6.9-2.7-11.2-9.4-10.8-16.8c0-9.6,6-16.8,14.6-17.7l0,0h0.6h2.2h0.6h0.1c8.5,0.9,14.6,8.1,14.6,17.7
			C395.6,341.5,391.2,348.3,384.4,351z"/>
	</g>
</g>
</svg>
