<?xml version="1.0" encoding="UTF-8" standalone="no"?>
<svg
   xmlns:dc="http://purl.org/dc/elements/1.1/"
   xmlns:cc="http://creativecommons.org/ns#"
   xmlns:rdf="http://www.w3.org/1999/02/22-rdf-syntax-ns#"
   xmlns:svg="http://www.w3.org/2000/svg"
   xmlns="http://www.w3.org/2000/svg"
   xmlns:sodipodi="http://sodipodi.sourceforge.net/DTD/sodipodi-0.dtd"
   xmlns:inkscape="http://www.inkscape.org/namespaces/inkscape"
   inkscape:version="1.0beta2 (2b71d25, 2019-12-03)"
   height="159.11905"
   width="652"
   sodipodi:docname="instacart-cut.svg"
   xml:space="preserve"
   viewBox="0 0 652 159.11905"
   y="0px"
   x="0px"
   id="layer"
   version="1.1"><metadata
   id="metadata865"><rdf:RDF><cc:Work
       rdf:about=""><dc:format>image/svg+xml</dc:format><dc:type
         rdf:resource="http://purl.org/dc/dcmitype/StillImage" /><dc:title></dc:title></cc:Work></rdf:RDF></metadata><defs
   id="defs863" /><sodipodi:namedview
   inkscape:current-layer="layer"
   inkscape:window-maximized="0"
   inkscape:window-y="705"
   inkscape:window-x="0"
   inkscape:cy="79.559525"
   inkscape:cx="326"
   inkscape:zoom="0.51533742"
   fit-margin-bottom="0"
   fit-margin-right="0"
   fit-margin-left="0"
   fit-margin-top="0"
   inkscape:snap-page="true"
   showgrid="false"
   id="namedview861"
   inkscape:window-height="868"
   inkscape:window-width="1590"
   inkscape:pageshadow="2"
   inkscape:pageopacity="0"
   guidetolerance="10"
   gridtolerance="10"
   objecttolerance="10"
   borderopacity="1"
   inkscape:document-rotation="0"
   bordercolor="#666666"
   pagecolor="#ffffff" />
<style
   id="style833"
   type="text/css">
	.st0{fill:#FF8200;}
	.st1{fill:#43B02A;}
</style>
<g
   transform="translate(0,-246.44048)"
   id="logos">
	<g
   id="Logo">
		<path
   inkscape:connector-curvature="0"
   d="m 94,309 c 7.2,7.2 12.9,18.9 9.6,25.8 -8.9,18.6 -75.3,51.2 -80.9,45.6 -5.7,-5.6 27,-72.1 45.6,-81 6.9,-3.3 18.6,2.4 25.7,9.6 z"
   class="st0"
   id="Carrot" />
		<path
   inkscape:connector-curvature="0"
   d="m 129.2,301.1 v 0 c -1.2,-4.3 -4.1,-8.6 -8.5,-9.1 -8.1,-0.9 -20.8,13.3 -19.9,16.8 0.9,3.5 18.9,9.4 25.6,4.5 3.5,-2.4 3.9,-7.8 2.8,-12.2 z m -25,-39.5 c 6,1.6 12,5.8 12.8,12 1.3,11.3 -18.7,29.2 -23.4,27.9 -4.7,-1.3 -13.1,-26.4 -6.4,-35.9 3.5,-4.8 11,-5.5 17,-4 z"
   class="st1"
   id="Leaves" />
	</g>
	<g
   id="Logotype">
		<path
   inkscape:connector-curvature="0"
   id="path838"
   d="m 282.9,328.6 -5.9,-0.9 c -5.7,-0.8 -8.9,-2.7 -8.9,-6 0,-3.8 4.3,-6.2 10.6,-6.2 4.1,0.2 8.1,1.4 11.6,3.4 l 0.7,0.4 c 2.7,1.3 6.1,0.3 7.5,-2.4 L 299,316 c 1.6,-2.8 0.6,-6.3 -2.2,-7.9 -0.1,0 -0.1,-0.1 -0.2,-0.1 -5.5,-3 -11.6,-4.7 -17.8,-4.8 -15.1,0 -24.8,7.2 -24.8,19 0,9.6 6.9,15.7 20,17.5 l 6,0.8 c 6.3,0.9 9.4,2.8 9.4,5.7 0,2.9 -1.5,6.4 -11.3,6.4 -5.4,0.1 -10.7,-1.4 -15.3,-4.2 -0.9,-0.5 -1.9,-0.8 -2.9,-0.8 -2,0 -3.8,1.1 -4.8,2.7 l -0.3,0.5 c -0.8,1.3 -1.1,3 -0.7,4.5 0.4,1.5 1.4,2.8 2.7,3.5 6.6,3.6 13.9,5.7 21.5,5.9 15.8,0 25.5,-6.9 25.5,-19 -0.4,-9.6 -7.3,-15.1 -20.9,-17.1 z"
   class="st1" />
		<path
   inkscape:connector-curvature="0"
   id="path840"
   d="m 466.1,349.8 c -1.1,-1.3 -2.8,-2 -4.5,-2 -1.2,0 -2.3,0.3 -3.3,1 -3,2 -6.6,3 -10.2,3.1 -9.6,0 -16.3,-7.5 -16.3,-17.8 0,-10.3 6.9,-17.9 16.3,-17.9 3.5,0 7,1 10,3 2.5,1.5 5.7,1.2 7.7,-0.9 l 0.5,-0.6 c 2.5,-2.6 2.4,-6.7 -0.2,-9.2 -0.3,-0.3 -0.6,-0.5 -0.9,-0.7 -5,-3.2 -10.8,-4.9 -16.8,-4.8 -18.2,0 -30.9,12.7 -30.9,30.9 0,18.2 12.7,30.9 30.9,30.9 5.9,0.1 11.8,-1.6 16.8,-4.8 3,-2 3.8,-6.1 1.8,-9.1 -0.2,-0.2 -0.4,-0.5 -0.6,-0.7 z"
   class="st1" />
		<path
   inkscape:connector-curvature="0"
   id="path842"
   d="m 172,282.4 c -4.6,0 -8.4,3.8 -8.3,8.5 0,0 0,0 0,0.1 -0.2,4.6 3.4,8.4 8,8.5 0.1,0 0.2,0 0.4,0 4.7,0.2 8.7,-3.3 8.9,-8 0.2,-4.7 -3.3,-8.7 -8,-8.9 -0.3,0 -0.6,0 -0.9,0 v -0.2 z"
   class="st1" />
		<path
   inkscape:connector-curvature="0"
   id="path844"
   d="m 174.6,303.7 h -5 c -2.4,0 -4.4,2 -4.4,4.4 V 359 c 0,2.4 2,4.4 4.4,4.4 h 5 c 2.4,0 4.4,-2 4.4,-4.4 v -50.9 c 0,-2.4 -2,-4.4 -4.4,-4.4 z"
   class="st1" />
		<path
   inkscape:connector-curvature="0"
   id="path846"
   d="m 337.9,351.6 c -6.6,0 -12,-5.4 -12,-12 v -23 H 338 c 2.4,0 4.4,-2 4.4,-4.4 0,0 0,0 0,0 v -4 c 0,-2.4 -2,-4.4 -4.4,-4.4 0,0 0,0 0,0 h -12.2 v -13.2 c 0,-2.4 -2,-4.4 -4.4,-4.4 h -5.3 c -2.4,0 -4.4,2 -4.4,4.4 v 48.2 c -0.3,14.1 10.8,25.8 25,26.2 0.1,0 0.1,0 0.2,0 v 0 c 3,0 5.5,-2.5 5.5,-5.5 V 356 c 0,-2.4 -2,-4.4 -4.5,-4.4 z"
   class="st1" />
		<path
   inkscape:connector-curvature="0"
   id="path848"
   d="m 217.4,303.2 c -14.8,-0.4 -27.1,11.3 -27.5,26.1 0,0.1 0,0.1 0,0.2 V 359 c 0,2.4 2,4.4 4.4,4.4 h 5 c 2.4,0 4.4,-2 4.4,-4.4 0,0 0,0 0,0 v -27.4 c 0,-9.2 5.5,-15.2 13.6,-15.2 8.1,0 13.6,6.1 13.6,15.2 V 359 c 0,2.4 2,4.4 4.4,4.4 h 5 c 2.4,0 4.4,-2 4.4,-4.4 v -29.6 c -0.3,-14.8 -12.6,-26.5 -27.3,-26.2 0.1,0 0,0 0,0 z"
   class="st1" />
		<path
   inkscape:connector-curvature="0"
   id="path850"
   d="m 580.7,303.9 c -3,-0.4 -6.1,-0.7 -9.2,-0.6 h -0.7 c -14.6,0 -26.4,11.8 -26.4,26.4 V 359 c 0,2.4 2,4.4 4.4,4.4 0,0 0,0 0,0 h 5 c 2.4,0 4.4,-2 4.4,-4.4 v -28.8 c -0.4,-7.2 5.2,-13.4 12.4,-13.8 0.3,0 0.6,0 0.9,0 1.4,0 2.8,0.2 4.2,0.5 0.4,0 0.8,0 1.2,0 2.8,0 5.2,-1.9 5.9,-4.7 0.4,-1.5 0.6,-2.6 0.9,-3.6 0.2,-1.1 0.1,-2.2 -0.5,-3.1 -0.6,-0.8 -1.5,-1.4 -2.5,-1.6 z"
   class="st1" />
		<path
   inkscape:connector-curvature="0"
   id="path852"
   d="m 617.6,316.6 c 2.4,0 4.4,-2 4.4,-4.4 0,0 0,0 0,0 v -4 c 0,-2.4 -2,-4.4 -4.4,-4.4 0,0 0,0 0,0 h -12.1 v -13.2 c 0,-2.4 -2,-4.4 -4.4,-4.4 h -5.3 c -2.4,0 -4.4,2 -4.4,4.4 v 48.2 c -0.3,14.1 10.8,25.8 25,26.2 0.1,0 0.1,0 0.2,0 v 0 c 3,0 5.5,-2.5 5.5,-5.5 v 0 -3.5 c 0,-2.4 -2,-4.4 -4.5,-4.4 -6.6,0 -12,-5.4 -12,-12 v -23 z"
   class="st1" />
		<path
   inkscape:connector-curvature="0"
   id="path854"
   d="m 521.5,308 v 0 c -5,-3.2 -10.8,-4.9 -16.8,-4.8 h -0.5 c -5.9,-0.1 -11.8,1.6 -16.8,4.8 v 0 c -8.8,5.7 -13.9,15.6 -13.5,26.1 0,12 5.6,21.7 14.7,26.9 4.5,2.6 9.5,4 14.7,4 6.8,0.2 13.3,-2.7 17.8,-7.9 v 2.1 c 0,2.4 2,4.4 4.4,4.4 h 5.1 c 2.4,0 4.4,-2 4.4,-4.4 v -25 c 0.5,-10.6 -4.7,-20.5 -13.5,-26.2 z M 510,351 c -1.6,0.5 -3.2,0.8 -4.8,0.9 h -1.3 c -1.6,-0.1 -3.2,-0.4 -4.8,-0.9 -6.8,-2.7 -11.2,-9.4 -10.8,-16.8 0,-9.6 6,-16.8 14.6,-17.7 v 0 h 0.6 2.2 0.6 v 0 c 8.5,0.9 14.6,8.1 14.6,17.7 0.3,7.3 -4,14.1 -10.9,16.8 z"
   class="st1" />
		<path
   inkscape:connector-curvature="0"
   id="path856"
   d="m 395.9,308 v 0 c -5,-3.2 -10.8,-4.9 -16.8,-4.8 h -0.6 c -5.9,-0.1 -11.8,1.6 -16.8,4.8 v 0 c -8.7,5.8 -13.8,15.7 -13.3,26.1 0,12 5.6,21.7 14.7,26.9 4.5,2.6 9.5,4 14.7,4 6.8,0.2 13.3,-2.7 17.7,-7.9 v 2.1 c 0,2.4 2,4.4 4.4,4.4 h 5 c 2.4,0 4.4,-2 4.4,-4.4 v -25 c 0.5,-10.6 -4.6,-20.5 -13.4,-26.2 z m -11.5,43 c -1.6,0.5 -3.2,0.8 -4.8,0.9 h -1.3 c -1.6,-0.1 -3.2,-0.4 -4.8,-0.9 -6.9,-2.7 -11.2,-9.4 -10.8,-16.8 0,-9.6 6,-16.8 14.6,-17.7 v 0 h 0.6 2.2 0.6 0.1 c 8.5,0.9 14.6,8.1 14.6,17.7 0.2,7.3 -4.2,14.1 -11,16.8 z"
   class="st1" />
	</g>
</g>
</svg>
