<?xml version="1.0" encoding="utf-8"?>
<!-- Generator: Adobe Illustrator 23.0.2, SVG Export Plug-In . SVG Version: 6.00 Build 0)  -->
<svg version="1.1" id="logos" xmlns="http://www.w3.org/2000/svg" xmlns:xlink="http://www.w3.org/1999/xlink" x="0px" y="0px"
	 viewBox="0 0 826 216" style="enable-background:new 0 0 826 216;" xml:space="preserve">
<style type="text/css">
	.st0{fill:#EE5C57;}
	.st1{fill:#FFFFFF;}
</style>
<g>
	<g>
		<circle class="st0" cx="111.8" cy="108.3" r="100"/>
		<g>
			<g>
				<path class="st1" d="M51.1,64.8L37.7,78.2c-1.1,1.1-1.1,3,0,4.1l15.9,15.9c17,17,44.9,16.7,62.5,0.9l4.9-4.4
					c-7.9-0.9-16.6-7.3-21.1-11.9L82,64.9C73.4,56.3,59.6,56.3,51.1,64.8z"/>
			</g>
			<g>
				<path class="st1" d="M185.7,99.8c0,0-10.7-10.7-16.4-16.4c-6.7-6.7-20.7-4-27.8,3.1l-19,19c-0.6,0.6-1.2,1.2-1.9,1.7
					c-13.3,12.1-31.7,15.5-48,10.3l34.3,34.3c8.5,8.5,22.4,8.5,30.9,0l47.8-47.8C186.8,102.7,186.8,100.9,185.7,99.8z M162.9,103.7
					c-3.2,0-5.8-2.6-5.8-5.8c0-3.2,2.6-5.8,5.8-5.8c3.2,0,5.8,2.6,5.8,5.8C168.7,101.1,166.1,103.7,162.9,103.7z"/>
			</g>
		</g>
	</g>
	<g>
		<path class="st0" d="M308,136.5c-3.2,4.2-7.2,6.3-11.8,6.3c-2.4,0-4.6-1-6.3-2.9c-1.8-1.9-2.7-4.6-2.7-8.1v-85H262V133
			c0,9.8,3,17.5,8.9,23.2c6,5.7,13.2,8.5,21.8,8.5s16.8-3.6,24.6-10.7L308,136.5z"/>
		<path class="st0" d="M386.4,73.4v40.7c0,6.5-1.5,11.4-4.5,14.9s-7.4,5.2-13.3,5.2c-5.8,0-10-1.8-12.3-5.5
			c-2.4-3.7-3.6-10-3.6-18.8V73.5h-25.2v44.3c0,25.8,12.1,38.7,36.2,38.7c8.9,0,16.9-2.4,23.9-7.3c0.1,1,0.1,2,0.1,3
			c0,7.2-1.9,13.2-5.7,17.9c-3.8,4.7-8.8,7.1-15.2,7.1c-5.3,0-9.8-1.7-13.6-4.9l-16.1,16.1c1.1,0.9,2.2,1.8,3.4,2.6
			c7.6,5.1,16.5,7.7,26.6,7.7c13,0,23.6-4.4,31.9-13.2c8.3-8.8,12.4-21,12.4-36.7V73.4L386.4,73.4L386.4,73.4z"/>
		<path class="st0" d="M468.7,44.1c-9.6,0-17.8,2.8-24.6,8.5s-10.3,13.9-10.3,24.8v85.9H459v-53.5h21.7V89.6H459v-11
			c0-4.2,1.2-7.4,3.6-9.6c2.4-2.2,5.4-3.3,8.9-3.3c5.7,0,10.1,2.2,13.2,6.5l9.3-17.5C486.8,47.6,478.3,44.1,468.7,44.1z"/>
		<g>
			<path class="st0" d="M576.9,75.7c-15,0-26.7,7-33.1,18.9V76.2h-12.7v117.4h12.7v-50.1c6.4,11.9,18.1,18.9,33.4,18.9
				c24.3,0,40.9-17.8,40.9-43.2C618.1,93.6,601.2,75.7,576.9,75.7z M574.6,151.2c-18.1,0-30.8-13.4-30.8-32.3
				c0-18.8,12.7-32.3,30.8-32.3c17.9,0,30.7,13.7,30.7,32.3C605.3,137.6,592.6,151.2,574.6,151.2z"/>
			<path class="st0" d="M703.3,76.1v18.3c-6.5-12.1-18.3-19.1-33.7-18.9c-24.1,0-40.9,17.9-40.9,43.4c0,25.6,17,43.7,41.4,43.7
				c15.2,0,26.9-7,33.3-18.9V162H716V76.2h-12.7V76.1z M703.3,122.4c-1.5,17.3-13.9,29.2-30.8,29.2c-18.3,0-31.2-13.5-31.2-32.5
				s12.9-32.6,31.2-32.6c17,0,29.4,12.1,30.8,29.4V122.4z"/>
			<path class="st0" d="M803.4,76.1v33.4c0,20.2-10.6,32.6-28.9,33c-15.3,0-24.5-9.1-24.5-24.5V76.1h-12.7v45.2
				c0,20.7,13,33.4,34.6,33.4c15.2-0.2,25.8-6.4,31.5-18.3v15.8c0,19.2-11.3,30.7-30,30.7c-5.2-0.2-10.5-1.4-15.5-3.4l-7.9,7.9
				c7.4,3.9,16.1,6.2,24.5,6.4c25.8,0.2,41.6-15.7,41.6-41.4V76.1L803.4,76.1L803.4,76.1z"/>
		</g>
	</g>
</g>
</svg>
