<?xml version="1.0" encoding="UTF-8"?>
<svg width="364px" height="152px" viewBox="0 0 364 152" version="1.1" xmlns="http://www.w3.org/2000/svg" xmlns:xlink="http://www.w3.org/1999/xlink">
    <!-- Generator: Sketch 59.1 (86144) - https://sketch.com -->
    <title>TR Logo</title>
    <desc>Created with Sketch.</desc>
    <defs>
        <path d="M27.166,87.7421108 L15.062,87.7421108 C14.596,87.7421108 14.286,87.4321108 14.286,86.9661108 L14.286,47.5501108 C14.286,47.2401108 14.131,47.0851108 13.82,47.0851108 L0.863,47.0851108 C0.397,47.0851108 0.087,46.7751108 0.087,46.3091108 L0.087,35.7571108 C0.087,35.2911108 0.397,34.9811108 0.863,34.9811108 L41.365,34.9811108 C41.83,34.9811108 42.141,35.2911108 42.141,35.7571108 L42.141,46.3091108 C42.141,46.7751108 41.83,47.0851108 41.365,47.0851108 L28.407,47.0851108 C28.097,47.0851108 27.942,47.2401108 27.942,47.5501108 L27.942,86.9661108 C27.942,87.4321108 27.631,87.7421108 27.166,87.7421108 Z M89.967,87.7421108 L76.544,87.7421108 C75.845,87.7421108 75.613,87.5091108 75.38,86.9661108 L67.388,68.9651108 L62.345,68.9651108 C62.034,68.9651108 61.879,69.1201108 61.879,69.4311108 L61.879,86.9661108 C61.879,87.4321108 61.569,87.7421108 61.103,87.7421108 L48.999,87.7421108 C48.534,87.7421108 48.223,87.4321108 48.223,86.9661108 L48.223,35.7571108 C48.223,35.2911108 48.534,34.9811108 48.999,34.9811108 L70.492,34.9811108 C82.596,34.9811108 89.501,42.0421108 89.501,51.9731108 C89.501,58.5681108 86.398,63.9221108 80.811,66.7151108 L90.51,86.8111108 C90.743,87.2761108 90.51,87.7421108 89.967,87.7421108 Z M69.638,57.7151108 C73.518,57.7151108 75.845,55.5421108 75.845,52.1281108 C75.845,48.7141108 73.518,46.5421108 69.638,46.5421108 L62.345,46.5421108 C62.034,46.5421108 61.879,46.6971108 61.879,47.0071108 L61.879,57.2491108 C61.879,57.5601108 62.034,57.7151108 62.345,57.7151108 L69.638,57.7151108 Z M94.42,86.9661108 L112.654,35.7571108 C112.809,35.2911108 113.119,34.9811108 113.663,34.9811108 L126.31,34.9811108 C126.853,34.9811108 127.163,35.2911108 127.318,35.7571108 L145.164,86.9661108 C145.319,87.4321108 145.087,87.7421108 144.621,87.7421108 L131.819,87.7421108 C131.275,87.7421108 130.965,87.4321108 130.81,86.9661108 L128.327,78.8191108 L111.18,78.8191108 L108.697,86.9661108 C108.542,87.4321108 108.231,87.7421108 107.688,87.7421108 L94.963,87.7421108 C94.498,87.7421108 94.265,87.4321108 94.42,86.9661108 Z M114.671,67.4911108 L124.913,67.4911108 L120.025,51.0421108 L119.792,51.0421108 L114.671,67.4911108 Z M151.092,86.9661108 L151.092,35.7571108 C151.092,35.2911108 151.402,34.9811108 151.868,34.9811108 L172.274,34.9811108 C181.585,34.9811108 188.413,38.8601108 191.051,47.0071108 C192.137,50.4211108 192.602,53.3701108 192.602,61.3611108 C192.602,69.2761108 192.137,72.3021108 191.051,75.7161108 C188.413,83.8621108 181.585,87.7421108 172.274,87.7421108 L151.868,87.7421108 C151.402,87.7421108 151.092,87.4321108 151.092,86.9661108 Z M164.748,75.1721108 C164.748,75.4831108 164.903,75.6381108 165.213,75.6381108 L169.325,75.6381108 C174.136,75.6381108 176.774,74.3191108 178.016,70.5951108 C178.481,69.0431108 178.791,67.2581108 178.791,61.3611108 C178.791,55.4651108 178.481,53.6801108 178.016,52.1281108 C176.774,48.4041108 174.136,47.0851108 169.325,47.0851108 L165.213,47.0851108 C164.903,47.0851108 164.748,47.2401108 164.748,47.5501108 L164.748,75.1721108 Z M200.935,86.9661108 L200.935,35.7571108 C200.935,35.2911108 201.246,34.9811108 201.711,34.9811108 L236.239,34.9811108 C236.704,34.9811108 237.015,35.2911108 237.015,35.7571108 L237.015,45.7661108 C237.015,46.2311108 236.704,46.5421108 236.239,46.5421108 L215.057,46.5421108 C214.746,46.5421108 214.591,46.6971108 214.591,47.0071108 L214.591,54.9991108 C214.591,55.3091108 214.746,55.4651108 215.057,55.4651108 L232.437,55.4651108 C232.902,55.4651108 233.213,55.7751108 233.213,56.2411108 L233.213,66.0171108 C233.213,66.4821108 232.902,66.7931108 232.437,66.7931108 L215.057,66.7931108 C214.746,66.7931108 214.591,66.9481108 214.591,67.2581108 L214.591,75.7161108 C214.591,76.0261108 214.746,76.1811108 215.057,76.1811108 L236.239,76.1811108 C236.704,76.1811108 237.015,76.4911108 237.015,76.9571108 L237.015,86.9661108 C237.015,87.4321108 236.704,87.7421108 236.239,87.7421108 L201.711,87.7421108 C201.246,87.7421108 200.935,87.4321108 200.935,86.9661108 Z M41.743,151.069111 L28.32,151.069111 C27.622,151.069111 27.389,150.836111 27.157,150.293111 L19.165,132.292111 L14.121,132.292111 C13.811,132.292111 13.656,132.447111 13.656,132.758111 L13.656,150.293111 C13.656,150.759111 13.345,151.069111 12.88,151.069111 L0.776,151.069111 C0.31,151.069111 0,150.759111 0,150.293111 L0,99.0841108 C0,98.6181108 0.31,98.3081108 0.776,98.3081108 L22.268,98.3081108 C34.372,98.3081108 41.278,105.369111 41.278,115.300111 C41.278,121.895111 38.174,127.249111 32.588,130.042111 L42.287,150.138111 C42.519,150.603111 42.287,151.069111 41.743,151.069111 Z M21.415,121.042111 C25.294,121.042111 27.622,118.869111 27.622,115.455111 C27.622,112.041111 25.294,109.869111 21.415,109.869111 L14.121,109.869111 C13.811,109.869111 13.656,110.024111 13.656,110.334111 L13.656,120.576111 C13.656,120.886111 13.811,121.042111 14.121,121.042111 L21.415,121.042111 Z M49.688,150.293111 L49.688,99.0841108 C49.688,98.6181108 49.999,98.3081108 50.464,98.3081108 L84.992,98.3081108 C85.457,98.3081108 85.768,98.6181108 85.768,99.0841108 L85.768,109.093111 C85.768,109.558111 85.457,109.869111 84.992,109.869111 L63.81,109.869111 C63.499,109.869111 63.344,110.024111 63.344,110.334111 L63.344,118.326111 C63.344,118.636111 63.499,118.792111 63.81,118.792111 L81.19,118.792111 C81.656,118.792111 81.966,119.102111 81.966,119.567111 L81.966,129.344111 C81.966,129.809111 81.656,130.120111 81.19,130.120111 L63.81,130.120111 C63.499,130.120111 63.344,130.275111 63.344,130.585111 L63.344,139.043111 C63.344,139.353111 63.499,139.508111 63.81,139.508111 L84.992,139.508111 C85.457,139.508111 85.768,139.818111 85.768,140.284111 L85.768,150.293111 C85.768,150.759111 85.457,151.069111 84.992,151.069111 L50.464,151.069111 C49.999,151.069111 49.688,150.759111 49.688,150.293111 Z M106.67,151.069111 L94.566,151.069111 C94.101,151.069111 93.79,150.759111 93.79,150.293111 L93.79,99.0841108 C93.79,98.6181108 94.101,98.3081108 94.566,98.3081108 L115.671,98.3081108 C128.551,98.3081108 135.223,105.601111 135.223,115.843111 C135.223,125.930111 128.473,133.456111 115.671,133.456111 L107.912,133.456111 C107.601,133.456111 107.446,133.611111 107.446,133.922111 L107.446,150.293111 C107.446,150.759111 107.136,151.069111 106.67,151.069111 Z M114.895,121.895111 C119.162,121.895111 121.568,119.490111 121.568,115.843111 C121.568,112.196111 119.162,109.869111 114.895,109.869111 L107.912,109.869111 C107.601,109.869111 107.446,110.024111 107.446,110.334111 L107.446,121.430111 C107.446,121.740111 107.601,121.895111 107.912,121.895111 L114.895,121.895111 Z M163.031,152.000111 C150.229,152.000111 142.005,144.707111 142.005,130.663111 L142.005,99.0841108 C142.005,98.6181108 142.315,98.3081108 142.781,98.3081108 L154.885,98.3081108 C155.35,98.3081108 155.66,98.6181108 155.66,99.0841108 L155.66,131.516111 C155.66,136.792111 158.609,139.818111 163.031,139.818111 C167.609,139.818111 170.325,136.792111 170.325,131.516111 L170.325,99.0841108 C170.325,98.6181108 170.635,98.3081108 171.101,98.3081108 L183.205,98.3081108 C183.67,98.3081108 183.981,98.6181108 183.981,99.0841108 L183.981,130.663111 C183.981,144.707111 175.601,152.000111 163.031,152.000111 Z M193.245,150.293111 L193.245,99.0841108 C193.245,98.6181108 193.555,98.3081108 194.021,98.3081108 L215.513,98.3081108 C227.307,98.3081108 232.738,103.972111 232.738,112.352111 C232.738,117.783111 230.255,121.585111 226.298,123.680111 L226.298,123.835111 C230.178,125.309111 233.669,129.732111 233.669,135.861111 C233.669,146.181111 226.376,151.069111 215.28,151.069111 L194.021,151.069111 C193.555,151.069111 193.245,150.759111 193.245,150.293111 Z M207.366,119.490111 L212.875,119.490111 C216.987,119.490111 219.16,117.705111 219.16,114.059111 C219.16,110.334111 217.065,108.627111 212.875,108.627111 L207.366,108.627111 C207.056,108.627111 206.901,108.782111 206.901,109.093111 L206.901,119.024111 C206.901,119.335111 207.056,119.490111 207.366,119.490111 Z M206.901,140.284111 C206.901,140.594111 207.056,140.749111 207.366,140.749111 L213.573,140.749111 C217.841,140.749111 220.013,138.655111 220.013,134.775111 C220.013,131.128111 217.841,128.878111 213.573,128.878111 L207.366,128.878111 C207.056,128.878111 206.901,129.033111 206.901,129.344111 L206.901,140.284111 Z M241.769,150.293111 L241.769,99.0841108 C241.769,98.6181108 242.08,98.3081108 242.545,98.3081108 L254.649,98.3081108 C255.115,98.3081108 255.425,98.6181108 255.425,99.0841108 L255.425,138.499111 C255.425,138.810111 255.58,138.965111 255.891,138.965111 L278.237,138.965111 C278.702,138.965111 279.013,139.275111 279.013,139.741111 L279.013,150.293111 C279.013,150.759111 278.702,151.069111 278.237,151.069111 L242.545,151.069111 C242.08,151.069111 241.769,150.759111 241.769,150.293111 Z M285.639,150.293111 L285.639,99.0841108 C285.639,98.6181108 285.949,98.3081108 286.414,98.3081108 L298.519,98.3081108 C298.984,98.3081108 299.294,98.6181108 299.294,99.0841108 L299.294,150.293111 C299.294,150.759111 298.984,151.069111 298.519,151.069111 L286.414,151.069111 C285.949,151.069111 285.639,150.759111 285.639,150.293111 Z M309.024,138.965111 C307.86,135.396111 307.472,132.525111 307.472,124.688111 C307.472,116.852111 307.86,113.981111 309.024,110.412111 C311.817,101.799111 318.645,97.3771108 328.189,97.3771108 C337.5,97.3771108 344.172,101.799111 347.121,109.403111 C347.354,109.946111 347.276,110.257111 346.733,110.489111 L336.413,114.990111 C335.87,115.222111 335.56,115.067111 335.327,114.524111 C333.853,111.421111 331.991,109.558111 328.422,109.558111 C325.085,109.558111 322.99,111.188111 322.059,114.136111 C321.516,115.766111 321.283,117.395111 321.283,124.688111 C321.283,131.982111 321.516,133.611111 322.059,135.241111 C322.99,138.189111 325.085,139.818111 328.422,139.818111 C331.991,139.818111 333.853,137.956111 335.327,134.853111 C335.56,134.310111 335.87,134.154111 336.413,134.387111 L346.733,138.887111 C347.276,139.120111 347.354,139.430111 347.121,139.974111 C344.172,147.577111 337.5,152.000111 328.189,152.000111 C318.645,152.000111 311.817,147.577111 309.024,138.965111 Z M364,66.8901108 C364,68.0781108 363.186,69.1101108 362.031,69.3871108 L324.083,78.4841108 C322.952,78.7551108 321.767,78.7071108 320.661,78.3431108 L304.08,72.8951108 C302.972,72.5311108 301.783,72.4831108 300.649,72.7571108 L264.192,81.5571108 C262.813,81.8901108 261.426,81.0421108 261.094,79.6641108 C261.046,79.4661108 261.022,79.2641108 261.022,79.0611108 L261.022,53.2501108 C261.022,52.0651108 261.834,51.0331108 262.987,50.7551108 L300.649,41.6641108 C301.783,41.3901108 302.972,41.4381108 304.08,41.8021108 L320.661,47.2501108 C321.767,47.6141108 322.952,47.6621108 324.083,47.3911108 L360.834,38.5811108 C362.213,38.2501108 363.599,39.1001108 363.929,40.4791108 C363.976,40.6751108 364,40.8761108 364,41.0781108 L364,66.8901108 Z M364,28.3811108 C364,29.5681108 363.186,30.6011108 362.031,30.8771108 L324.083,39.9741108 C322.952,40.2461108 321.767,40.1971108 320.661,39.8341108 L304.08,34.3861108 C302.972,34.0221108 301.783,33.9741108 300.649,34.2471108 L264.192,43.0471108 C262.813,43.3801108 261.426,42.5321108 261.094,41.1541108 C261.046,40.9571108 261.022,40.7551108 261.022,40.5521108 L261.022,14.7411108 C261.022,13.5551108 261.834,12.5231108 262.987,12.2451108 L300.649,3.15411078 C301.783,2.88111078 302.972,2.92911078 304.08,3.29311078 L320.661,8.74111078 C321.767,9.10411078 322.952,9.15311078 324.083,8.88111078 L360.834,0.0711107756 C362.213,-0.258889224 363.599,0.591110776 363.929,1.96911078 C363.976,2.16511078 364,2.36611078 364,2.56811078 L364,28.3811108 Z" id="path-1"></path>
    </defs>
    <g id="Page-1" stroke="none" stroke-width="1" fill="none" fill-rule="evenodd">
        <g id="Artboard">
            <mask id="mask-2" fill="white">
                <use xlink:href="#path-1"></use>
            </mask>
            <use id="TR-Logo" fill="#000000" xlink:href="#path-1"></use>
        </g>
    </g>
</svg>