<?xml version="1.0" encoding="utf-8"?>
<!-- Generator: Adobe Illustrator 23.0.1, SVG Export Plug-In . SVG Version: 6.00 Build 0)  -->
<svg version="1.1" id="Logo1" xmlns="http://www.w3.org/2000/svg" xmlns:xlink="http://www.w3.org/1999/xlink" x="0px" y="0px"
	 viewBox="0 0 608.03 392.81" xml:space="preserve">
<style type="text/css">
	.st0{fill:#00B0CC;}
	.st1{fill:#001E57;}
	.st2{fill-rule:evenodd;clip-rule:evenodd;fill:#001E57;}
	.st3{fill-rule:evenodd;clip-rule:evenodd;fill:#0E2356;}
	.st4{fill:#1D1D1B;}
	.st5{fill:#FFB600;}
</style>
<g>
	<g>
		<path class="st0" d="M584.73,28.21c3.93,3.93,3.93,10.3,0,14.23c-3.93,3.93-10.3,3.93-14.23,0s-3.93-10.3,0-14.23
			S580.8,24.28,584.73,28.21z"/>
		<path class="st0" d="M544.61,68.15c3.93,3.93,3.93,10.3,0,14.23c-3.93,3.93-10.3,3.93-14.23,0c-3.93-3.93-3.93-10.3,0-14.23
			C534.3,64.22,540.67,64.22,544.61,68.15z"/>
	</g>
	<g>
		<polygon class="st1" points="442.25,25.09 309.38,25.09 309.38,55.65 360.78,55.65 360.78,161.26 390.85,161.26 390.85,55.65 
			442.25,55.65 		"/>
	</g>
	<g>
		<path class="st2" d="M244.88,132.87c-21.74,0-39.43-17.73-39.43-39.51c0-21.79,17.69-39.51,39.43-39.51
			c9.33,0,17.91,3.27,24.67,8.73l20.33-20.33c-12-10.63-27.76-17.1-45-17.1c-37.54,0-68.07,30.6-68.07,68.21
			c0,37.61,30.54,68.21,68.07,68.21c17.14,0,32.8-6.39,44.78-16.9l-20.34-20.34C262.59,129.67,254.1,132.87,244.88,132.87z"/>
	</g>
	<g>
		<path class="st2" d="M88.91,77.49c-8.81,0-15.95,7.17-15.95,16.02c0,8.85,7.14,16.02,15.95,16.02c8.81,0,15.95-7.17,15.95-16.02
			C104.87,84.66,97.72,77.49,88.91,77.49z M88.92,105.76c-6.74,0-12.19-5.48-12.2-12.24c0-6.76,5.45-12.25,12.19-12.25
			c6.73,0,12.19,5.48,12.19,12.24C101.1,100.28,95.65,105.76,88.92,105.76z"/>
		<g>
			<path class="st2" d="M127.81,93.36c0,21.79-17.69,39.51-39.43,39.51s-39.43-17.73-39.43-39.51c0-21.79,17.69-39.51,39.43-39.51
				S127.81,71.57,127.81,93.36z M88.38,25.15c-37.54,0-68.07,30.6-68.07,68.21c0,37.61,30.54,68.21,68.07,68.21
				c37.53,0,68.07-30.6,68.07-68.21C156.46,55.75,125.92,25.15,88.38,25.15z"/>
		</g>
		<path class="st1" d="M89.02,85.6c4.36,0,7.9,3.54,7.9,7.91c0,4.37-3.54,7.92-7.9,7.91c-4.36,0-7.9-3.54-7.9-7.91
			C81.12,89.14,84.66,85.59,89.02,85.6z"/>
	</g>
	<g>
		<g>
			<path class="st3" d="M519.57,25.15c-37.54,0-68.07,30.6-68.07,68.21c0,37.61,30.54,68.21,68.07,68.21
				c37.54,0,68.08-30.6,68.08-68.21C587.65,55.75,557.11,25.15,519.57,25.15z M519.57,132.87c-21.74,0-39.43-17.73-39.43-39.51
				c0-21.79,17.69-39.51,39.43-39.51c21.74,0,39.43,17.73,39.43,39.51C559,115.14,541.31,132.87,519.57,132.87z"/>
		</g>
		<g>
			<path class="st1" d="M519.57,25.15c-37.54,0-68.07,30.6-68.07,68.21c0,37.61,30.54,68.21,68.07,68.21
				c37.54,0,68.08-30.6,68.08-68.21C587.65,55.75,557.11,25.15,519.57,25.15z M519.57,132.87c-21.74,0-39.43-17.73-39.43-39.51
				c0-21.79,17.69-39.51,39.43-39.51c21.74,0,39.43,17.73,39.43,39.51C559,115.14,541.31,132.87,519.57,132.87z"/>
		</g>
	</g>
	<rect x="221.13" y="285.5" class="st4" width="366.37" height="3"/>
	<g>
		<g>
			<path class="st4" d="M37.7,320.41h15.51l17.05,52.29H57.84l-3.6-11.63H35.2l-3.6,11.63H20.43L37.7,320.41z M37.77,352.66h13.89
				l-6.91-22.6L37.77,352.66z"/>
			<path class="st4" d="M90.62,373.5c-2.8,0-5.4-0.43-7.83-1.28c-2.43-0.85-4.52-2.11-6.29-3.77c-1.76-1.66-3.15-3.69-4.15-6.11
				c-1-2.41-1.51-5.18-1.51-8.3v-0.59c0-3.07,0.52-5.84,1.55-8.3c1.03-2.46,2.45-4.57,4.26-6.33c1.81-1.71,3.92-3.01,6.32-3.91
				c2.4-0.9,4.97-1.35,7.72-1.35c2.21,0,4.35,0.26,6.43,0.77c2.08,0.51,3.96,1.35,5.63,2.52c1.61,1.17,2.96,2.71,4.04,4.61
				c1.08,1.9,1.74,4.22,1.98,6.95H98.7c-0.34-2.19-1.16-3.83-2.46-4.9c-1.3-1.07-3.08-1.61-5.33-1.61c-2.79,0-5.02,0.99-6.69,2.95
				c-1.66,1.97-2.5,4.78-2.5,8.42v0.58c0,3.84,0.82,6.73,2.47,8.68c1.64,1.95,3.96,2.92,6.94,2.92c2.16,0,4.01-0.6,5.55-1.81
				c1.55-1.21,2.44-3.04,2.69-5.51h9.62c-0.14,2.29-0.66,4.38-1.54,6.25c-0.88,1.88-2.11,3.48-3.67,4.79
				c-1.57,1.37-3.46,2.43-5.66,3.18C95.91,373.13,93.41,373.5,90.62,373.5z"/>
			<path class="st4" d="M130.89,373.5c-2.8,0-5.4-0.43-7.83-1.28c-2.43-0.85-4.52-2.11-6.29-3.77c-1.76-1.66-3.15-3.69-4.15-6.11
				c-1-2.41-1.51-5.18-1.51-8.3v-0.59c0-3.07,0.52-5.84,1.55-8.3c1.03-2.46,2.45-4.57,4.26-6.33c1.81-1.71,3.92-3.01,6.32-3.91
				c2.4-0.9,4.97-1.35,7.72-1.35c2.21,0,4.35,0.26,6.43,0.77c2.08,0.51,3.96,1.35,5.63,2.52c1.61,1.17,2.96,2.71,4.04,4.61
				c1.08,1.9,1.74,4.22,1.98,6.95h-10.07c-0.34-2.19-1.16-3.83-2.46-4.9c-1.3-1.07-3.08-1.61-5.33-1.61c-2.79,0-5.02,0.99-6.69,2.95
				c-1.66,1.97-2.5,4.78-2.5,8.42v0.58c0,3.84,0.82,6.73,2.47,8.68c1.64,1.95,3.96,2.92,6.94,2.92c2.16,0,4.01-0.6,5.55-1.81
				c1.55-1.21,2.44-3.04,2.69-5.51h9.62c-0.14,2.29-0.66,4.38-1.54,6.25c-0.88,1.88-2.11,3.48-3.67,4.79
				c-1.57,1.37-3.46,2.43-5.66,3.18C136.19,373.13,133.69,373.5,130.89,373.5z"/>
			<path class="st4" d="M171.46,373.5c-2.89,0-5.56-0.44-8.01-1.32c-2.45-0.88-4.56-2.17-6.32-3.88c-1.81-1.66-3.22-3.68-4.23-6.07
				c-1-2.39-1.51-5.12-1.51-8.19v-0.59c0-3.02,0.5-5.75,1.51-8.19c1-2.44,2.41-4.54,4.23-6.29c1.76-1.71,3.85-3.03,6.25-3.99
				c2.4-0.95,4.99-1.43,7.79-1.43c2.5,0,4.88,0.38,7.13,1.13c2.25,0.76,4.24,1.92,5.95,3.48c1.72,1.56,3.09,3.57,4.12,6.03
				c1.03,2.46,1.54,5.4,1.54,8.81v2.93H162.2c0.15,3.22,1.04,5.69,2.68,7.43c1.64,1.73,3.94,2.59,6.87,2.59
				c2.49,0,4.37-0.49,5.62-1.46c1.25-0.97,2.05-2.27,2.39-3.88h10.07c-0.64,4.15-2.54,7.33-5.7,9.55
				C180.98,372.4,176.75,373.5,171.46,373.5z M179.55,349.44c-0.2-2.93-1-5.08-2.43-6.47c-1.42-1.39-3.41-2.08-5.95-2.08
				c-2.4,0-4.38,0.74-5.92,2.23c-1.54,1.49-2.51,3.6-2.9,6.33H179.55z"/>
			<path class="st4" d="M196.16,334.45h10.65v6.07c0.98-1.9,2.5-3.53,4.56-4.9c2.06-1.36,4.71-2.05,7.94-2.05
				c1.91,0,3.65,0.29,5.22,0.88s2.94,1.46,4.12,2.63c1.13,1.22,2.01,2.77,2.64,4.65c0.64,1.88,0.96,4.08,0.96,6.62v24.36h-10.66
				v-22.82c0-2.63-0.54-4.57-1.62-5.81c-1.08-1.24-2.79-1.87-5.14-1.87c-2.3,0-4.21,0.7-5.74,2.08c-1.52,1.39-2.28,3.5-2.28,6.33
				v22.09h-10.65V334.45z"/>
			<path class="st4" d="M253.19,373.43c-4.07,0-7.15-1.01-9.26-3.03c-2.11-2.02-3.16-5.04-3.16-9.03v-19.38h-4.92v-7.53h4.92v-8.26
				h10.59v8.26h8.08v7.53h-8.08v18.43c0,1.51,0.36,2.64,1.06,3.4c0.71,0.76,1.78,1.13,3.2,1.13c0.78,0,1.51-0.06,2.17-0.18
				c0.66-0.12,1.29-0.3,1.87-0.55v8.19c-0.73,0.24-1.64,0.48-2.72,0.7C255.86,373.32,254.61,373.43,253.19,373.43z"/>
			<path class="st4" d="M275.98,373.5c-1.86,0-3.59-0.28-5.18-0.84c-1.59-0.56-2.97-1.43-4.15-2.6c-1.18-1.17-2.09-2.67-2.76-4.5
				c-0.66-1.83-0.99-3.99-0.99-6.47v-24.65h10.59v23.18c0,2.54,0.56,4.45,1.69,5.74c1.13,1.29,2.79,1.94,5,1.94
				c2.25,0,4.15-0.7,5.69-2.08c1.55-1.39,2.32-3.5,2.32-6.33v-22.45h10.58v38.25h-10.58v-6c-0.98,1.95-2.46,3.57-4.45,4.86
				C281.75,372.86,279.16,373.5,275.98,373.5z"/>
			<path class="st4" d="M305.96,334.45h10.65v7.31c1.22-2.58,2.82-4.53,4.78-5.85s4.51-2,7.65-2.05v9.87
				c-3.97-0.05-7.03,0.66-9.19,2.12c-2.16,1.46-3.24,4.02-3.24,7.68v19.16h-10.65V334.45z"/>
			<path class="st4" d="M350.79,373.5c-2.89,0-5.56-0.44-8.01-1.32c-2.45-0.88-4.56-2.17-6.32-3.88c-1.81-1.66-3.22-3.68-4.23-6.07
				c-1-2.39-1.51-5.12-1.51-8.19v-0.59c0-3.02,0.5-5.75,1.51-8.19c1-2.44,2.41-4.54,4.23-6.29c1.76-1.71,3.85-3.03,6.25-3.99
				c2.4-0.95,4.99-1.43,7.79-1.43c2.5,0,4.88,0.38,7.13,1.13c2.25,0.76,4.24,1.92,5.95,3.48c1.72,1.56,3.09,3.57,4.12,6.03
				c1.03,2.46,1.54,5.4,1.54,8.81v2.93h-27.71c0.15,3.22,1.04,5.69,2.68,7.43c1.64,1.73,3.94,2.59,6.87,2.59
				c2.49,0,4.37-0.49,5.62-1.46c1.25-0.97,2.05-2.27,2.39-3.88h10.07c-0.64,4.15-2.54,7.33-5.7,9.55
				C360.31,372.4,356.08,373.5,350.79,373.5z M358.88,349.44c-0.2-2.93-1-5.08-2.43-6.47c-1.42-1.39-3.41-2.08-5.95-2.08
				c-2.4,0-4.38,0.74-5.92,2.23c-1.54,1.49-2.51,3.6-2.9,6.33H358.88z"/>
		</g>
		<g>
			<path class="st5" d="M393.89,323.45h12.68c4.11,0,7.69,0.6,10.74,1.8c3.04,1.2,5.57,2.85,7.58,4.94c2.01,2.09,3.51,4.56,4.5,7.41
				c0.98,2.85,1.48,5.94,1.48,9.28v0.6c0,3.29-0.48,6.39-1.44,9.28c-0.96,2.89-2.45,5.41-4.46,7.54c-2.01,2.14-4.55,3.82-7.62,5.04
				c-3.06,1.22-6.7,1.84-10.9,1.84h-12.55V323.45z M406.31,366.51c3.09,0,5.78-0.45,8.08-1.34c2.3-0.89,4.23-2.16,5.77-3.81
				c1.54-1.65,2.71-3.64,3.49-5.99c0.78-2.34,1.17-4.98,1.17-7.93v-0.54c0-2.76-0.35-5.29-1.04-7.59c-0.69-2.3-1.79-4.28-3.29-5.95
				s-3.42-2.96-5.77-3.88c-2.35-0.91-5.18-1.37-8.49-1.37h-6.51v38.39H406.31z"/>
			<path class="st5" d="M443.81,328.99c-1.03,0-1.9-0.36-2.62-1.07c-0.72-0.71-1.07-1.58-1.07-2.6c0-1.02,0.36-1.89,1.07-2.6
				c0.71-0.71,1.59-1.07,2.62-1.07s1.9,0.36,2.62,1.07c0.71,0.71,1.07,1.58,1.07,2.6c0,1.02-0.36,1.89-1.07,2.6
				C445.71,328.64,444.84,328.99,443.81,328.99z M441.13,336.27h5.57v34.92h-5.57V336.27z"/>
			<path class="st5" d="M472.93,383.94c-2.59,0-4.84-0.29-6.74-0.87s-3.49-1.35-4.76-2.3c-1.27-0.96-2.27-2.09-2.99-3.41
				c-0.72-1.31-1.19-2.7-1.41-4.17h5.7c0.81,4.05,4.18,6.08,10.13,6.08c3.44,0,6.18-0.86,8.22-2.57c2.04-1.71,3.05-4.44,3.05-8.18
				v-5.07c-0.49,0.85-1.15,1.67-1.98,2.47s-1.77,1.5-2.82,2.1c-1.05,0.6-2.18,1.09-3.39,1.47c-1.21,0.38-2.44,0.57-3.69,0.57
				c-2.28,0-4.41-0.41-6.37-1.24c-1.97-0.82-3.66-1.97-5.07-3.44s-2.52-3.21-3.32-5.24c-0.8-2.02-1.21-4.24-1.21-6.64v-0.47
				c0-2.36,0.4-4.6,1.21-6.71c0.8-2.11,1.92-3.96,3.35-5.54c1.43-1.58,3.15-2.83,5.17-3.74c2.01-0.91,4.23-1.37,6.64-1.37
				c2.95,0,5.34,0.61,7.18,1.84c1.83,1.22,3.26,2.68,4.29,4.37v-5.61h5.57v32.58c0,2.54-0.43,4.75-1.28,6.64
				c-0.85,1.89-2.01,3.46-3.49,4.71c-1.48,1.25-3.23,2.18-5.27,2.8C477.64,383.63,475.39,383.94,472.93,383.94z M472.86,365.38
				c1.61,0,3.12-0.28,4.53-0.83c1.41-0.55,2.63-1.35,3.66-2.39c1.03-1.04,1.83-2.32,2.42-3.85c0.58-1.53,0.87-3.26,0.87-5.21v-0.46
				c0-3.9-1-6.92-2.99-9.06s-4.71-3.22-8.15-3.22c-1.74,0-3.31,0.31-4.7,0.93c-1.39,0.62-2.55,1.47-3.49,2.56
				c-0.94,1.08-1.67,2.39-2.18,3.92c-0.51,1.53-0.77,3.2-0.77,5.01v0.53c0,1.9,0.29,3.6,0.87,5.08c0.58,1.48,1.35,2.74,2.31,3.78
				c0.96,1.04,2.1,1.84,3.42,2.39C469.99,365.1,471.39,365.38,472.86,365.38z"/>
			<path class="st5" d="M504.6,328.99c-1.03,0-1.9-0.36-2.62-1.07c-0.72-0.71-1.07-1.58-1.07-2.6c0-1.02,0.36-1.89,1.07-2.6
				c0.71-0.71,1.59-1.07,2.62-1.07c1.03,0,1.9,0.36,2.62,1.07c0.71,0.71,1.07,1.58,1.07,2.6c0,1.02-0.36,1.89-1.07,2.6
				C506.5,328.64,505.62,328.99,504.6,328.99z M501.91,336.27h5.57v34.92h-5.57V336.27z"/>
			<path class="st5" d="M530.36,371.65c-3.22,0-5.6-0.85-7.14-2.54s-2.31-3.92-2.31-6.68v-21.5h-5.03v-4.67h5.03v-7.95h5.57v7.95
				h8.19v4.67h-8.19v20.96c0,3.38,1.45,5.07,4.36,5.07c0.89,0,1.68-0.07,2.35-0.2c0.67-0.13,1.32-0.31,1.95-0.53v4.67
				c-0.58,0.22-1.23,0.4-1.95,0.53C532.46,371.59,531.52,371.65,530.36,371.65z"/>
			<path class="st5" d="M553.44,371.79c-1.61,0-3.13-0.2-4.56-0.6c-1.43-0.4-2.67-1.02-3.72-1.87s-1.88-1.91-2.48-3.21
				c-0.6-1.29-0.91-2.83-0.91-4.61c0-2,0.49-3.69,1.48-5.07c0.98-1.38,2.29-2.49,3.92-3.34c1.63-0.84,3.51-1.46,5.64-1.84
				c2.12-0.38,4.3-0.57,6.54-0.57h5.03v-2.52c0-2.79-0.58-4.79-1.75-6c-1.16-1.22-3.09-1.83-5.77-1.83c-4.83,0-7.51,2.07-8.05,6.21
				h-5.57c0.18-2,0.68-3.69,1.51-5.07c0.83-1.38,1.88-2.5,3.15-3.37s2.71-1.49,4.29-1.87c1.59-0.38,3.23-0.57,4.93-0.57
				c1.65,0,3.26,0.19,4.83,0.57c1.57,0.38,2.93,1.05,4.09,2s2.1,2.24,2.82,3.84s1.07,3.63,1.07,6.08v23.03h-5.57v-4.41
				c-1.3,1.65-2.8,2.89-4.5,3.74C558.18,371.36,556.03,371.79,553.44,371.79z M553.97,367.38c1.48,0,2.85-0.19,4.13-0.57
				c1.27-0.38,2.37-0.92,3.29-1.64c0.92-0.71,1.64-1.59,2.18-2.64c0.54-1.04,0.81-2.24,0.81-3.57v-4.34h-4.83
				c-1.75,0-3.37,0.12-4.86,0.37c-1.5,0.25-2.8,0.63-3.89,1.17c-1.1,0.53-1.95,1.24-2.55,2.1s-0.91,1.95-0.91,3.24
				c0,1.83,0.49,3.26,1.48,4.31C549.79,366.86,551.51,367.38,553.97,367.38z"/>
			<path class="st5" d="M581.82,319.58h5.63v51.61h-5.63V319.58z"/>
		</g>
	</g>
	<g>
		<path class="st1" d="M30.24,203.75h-9.7v-6.62h26.88v6.62h-9.7v27.36h-7.49V203.75z"/>
		<path class="st1" d="M101.67,227.08c-1.15,1.47-2.61,2.61-4.37,3.41s-3.58,1.2-5.47,1.2c-1.79,0-3.48-0.29-5.06-0.86
			s-2.96-1.4-4.13-2.47s-2.09-2.36-2.76-3.86c-0.67-1.5-1.01-3.18-1.01-5.04c0-1.86,0.34-3.54,1.01-5.04
			c0.67-1.5,1.59-2.79,2.76-3.86c1.17-1.07,2.54-1.9,4.13-2.47s3.27-0.86,5.06-0.86c1.66,0,3.18,0.29,4.54,0.86
			c1.36,0.58,2.51,1.4,3.46,2.47c0.94,1.07,1.67,2.36,2.18,3.86c0.51,1.5,0.77,3.18,0.77,5.04v2.26h-16.7
			c0.29,1.38,0.91,2.47,1.87,3.29s2.14,1.22,3.55,1.22c1.18,0,2.18-0.26,3-0.79c0.82-0.53,1.53-1.21,2.14-2.04L101.67,227.08z
			 M95.57,216.81c0.03-1.21-0.37-2.26-1.2-3.12c-0.83-0.86-1.9-1.3-3.22-1.3c-0.8,0-1.5,0.13-2.11,0.38
			c-0.61,0.26-1.13,0.58-1.56,0.98c-0.43,0.4-0.77,0.86-1.01,1.39c-0.24,0.53-0.38,1.08-0.41,1.66H95.57z"/>
		<path class="st1" d="M157.54,215.32c-0.35-0.51-0.85-0.94-1.49-1.27c-0.64-0.34-1.33-0.5-2.06-0.5c-1.82,0-3.24,0.54-4.25,1.63
			s-1.51,2.51-1.51,4.27s0.5,3.18,1.51,4.27c1.01,1.09,2.42,1.63,4.25,1.63c0.8,0,1.49-0.18,2.06-0.53
			c0.58-0.35,1.07-0.77,1.49-1.25l4.75,4.99c-1.12,1.15-2.44,1.96-3.96,2.42s-2.97,0.7-4.34,0.7c-1.79,0-3.48-0.29-5.06-0.86
			s-2.96-1.4-4.13-2.47s-2.09-2.36-2.76-3.86c-0.67-1.5-1.01-3.18-1.01-5.04c0-1.86,0.34-3.54,1.01-5.04
			c0.67-1.5,1.59-2.79,2.76-3.86c1.17-1.07,2.54-1.9,4.13-2.47s3.27-0.86,5.06-0.86c1.38,0,2.82,0.23,4.34,0.7s2.84,1.27,3.96,2.42
			L157.54,215.32z"/>
		<path class="st1" d="M206.69,194.82v16.13h0.1c0.16-0.45,0.43-0.9,0.82-1.34c0.38-0.45,0.85-0.85,1.39-1.2
			c0.54-0.35,1.18-0.64,1.92-0.86c0.74-0.22,1.54-0.34,2.4-0.34c1.82,0,3.3,0.28,4.42,0.84c1.12,0.56,1.99,1.34,2.62,2.33
			c0.62,0.99,1.05,2.16,1.27,3.5s0.34,2.8,0.34,4.37v12.86h-7.2v-11.42c0-0.67-0.02-1.37-0.07-2.09c-0.05-0.72-0.19-1.38-0.43-1.99
			c-0.24-0.61-0.61-1.1-1.1-1.49c-0.5-0.38-1.21-0.58-2.14-0.58c-0.93,0-1.68,0.17-2.26,0.5c-0.58,0.34-1.02,0.79-1.32,1.34
			c-0.3,0.56-0.5,1.19-0.6,1.9c-0.1,0.71-0.14,1.44-0.14,2.21v11.62h-7.2v-36.29H206.69z"/>
		<path class="st1" d="M261.65,207.78h6.91v3.17h0.1c0.22-0.45,0.54-0.9,0.96-1.34c0.42-0.45,0.91-0.85,1.49-1.2
			c0.58-0.35,1.23-0.64,1.97-0.86c0.74-0.22,1.54-0.34,2.4-0.34c1.82,0,3.3,0.28,4.42,0.84c1.12,0.56,1.99,1.34,2.62,2.33
			c0.62,0.99,1.05,2.16,1.27,3.5s0.34,2.8,0.34,4.37v12.86h-7.2v-11.42c0-0.67-0.02-1.37-0.07-2.09c-0.05-0.72-0.19-1.38-0.43-1.99
			c-0.24-0.61-0.61-1.1-1.1-1.49c-0.5-0.38-1.21-0.58-2.14-0.58c-0.93,0-1.68,0.17-2.26,0.5c-0.58,0.34-1.02,0.79-1.32,1.34
			c-0.3,0.56-0.5,1.19-0.6,1.9c-0.1,0.71-0.14,1.44-0.14,2.21v11.62h-7.2V207.78z"/>
		<path class="st1" d="M322.94,219.45c0-1.86,0.34-3.54,1.01-5.04c0.67-1.5,1.59-2.79,2.76-3.86c1.17-1.07,2.54-1.9,4.13-2.47
			s3.27-0.86,5.06-0.86s3.48,0.29,5.06,0.86s2.96,1.4,4.13,2.47c1.17,1.07,2.09,2.36,2.76,3.86c0.67,1.5,1.01,3.18,1.01,5.04
			c0,1.86-0.34,3.54-1.01,5.04c-0.67,1.5-1.59,2.79-2.76,3.86c-1.17,1.07-2.54,1.9-4.13,2.47s-3.27,0.86-5.06,0.86
			s-3.48-0.29-5.06-0.86s-2.96-1.4-4.13-2.47c-1.17-1.07-2.09-2.36-2.76-3.86C323.28,222.98,322.94,221.3,322.94,219.45z
			 M330.14,219.45c0,1.76,0.5,3.18,1.51,4.27c1.01,1.09,2.42,1.63,4.25,1.63s3.24-0.54,4.25-1.63c1.01-1.09,1.51-2.51,1.51-4.27
			s-0.5-3.18-1.51-4.27s-2.42-1.63-4.25-1.63s-3.24,0.54-4.25,1.63S330.14,217.69,330.14,219.45z"/>
		<path class="st1" d="M387.79,194.82h7.2v36.29h-7.2V194.82z"/>
		<path class="st1" d="M433.92,219.45c0-1.86,0.34-3.54,1.01-5.04c0.67-1.5,1.59-2.79,2.76-3.86c1.17-1.07,2.54-1.9,4.13-2.47
			s3.27-0.86,5.06-0.86c1.79,0,3.48,0.29,5.06,0.86s2.96,1.4,4.13,2.47c1.17,1.07,2.09,2.36,2.76,3.86c0.67,1.5,1.01,3.18,1.01,5.04
			c0,1.86-0.34,3.54-1.01,5.04c-0.67,1.5-1.59,2.79-2.76,3.86s-2.54,1.9-4.13,2.47s-3.27,0.86-5.06,0.86
			c-1.79,0-3.48-0.29-5.06-0.86s-2.96-1.4-4.13-2.47c-1.17-1.07-2.09-2.36-2.76-3.86C434.26,222.98,433.92,221.3,433.92,219.45z
			 M441.12,219.45c0,1.76,0.5,3.18,1.51,4.27c1.01,1.09,2.42,1.63,4.25,1.63c1.82,0,3.24-0.54,4.25-1.63
			c1.01-1.09,1.51-2.51,1.51-4.27s-0.5-3.18-1.51-4.27c-1.01-1.09-2.42-1.63-4.25-1.63c-1.82,0-3.24,0.54-4.25,1.63
			C441.62,216.26,441.12,217.69,441.12,219.45z"/>
		<path class="st1" d="M523.15,229.14c0,4.42-1.11,7.77-3.34,10.06c-2.22,2.29-5.61,3.43-10.15,3.43c-2.08,0-4.13-0.23-6.14-0.7
			c-2.02-0.46-3.87-1.37-5.57-2.71l3.98-5.95c1.12,0.93,2.3,1.66,3.53,2.21c1.23,0.54,2.58,0.82,4.06,0.82
			c2.21,0,3.83-0.54,4.87-1.61c1.04-1.07,1.56-2.44,1.56-4.1v-2.26h-0.1c-0.83,1.12-1.86,1.91-3.1,2.38
			c-1.23,0.46-2.39,0.7-3.48,0.7c-1.73,0-3.3-0.3-4.7-0.89c-1.41-0.59-2.62-1.42-3.62-2.5c-1.01-1.07-1.79-2.34-2.33-3.82
			c-0.54-1.47-0.82-3.09-0.82-4.85c0-1.54,0.25-3.04,0.74-4.51c0.5-1.47,1.2-2.77,2.11-3.89c0.91-1.12,2.02-2.02,3.34-2.71
			c1.31-0.69,2.8-1.03,4.46-1.03c1.02,0,1.96,0.11,2.81,0.34c0.85,0.22,1.61,0.51,2.28,0.86c0.67,0.35,1.25,0.74,1.73,1.18
			c0.48,0.43,0.86,0.86,1.15,1.27h0.1v-3.07h6.62V229.14z M505.01,219.3c0,0.77,0.14,1.5,0.43,2.18c0.29,0.69,0.7,1.3,1.22,1.82
			c0.53,0.53,1.13,0.95,1.82,1.27s1.45,0.48,2.28,0.48c0.8,0,1.55-0.16,2.26-0.48s1.32-0.74,1.85-1.27
			c0.53-0.53,0.94-1.14,1.22-1.82c0.29-0.69,0.43-1.42,0.43-2.18c0-0.77-0.14-1.5-0.43-2.18c-0.29-0.69-0.7-1.3-1.22-1.82
			c-0.53-0.53-1.14-0.95-1.85-1.27s-1.46-0.48-2.26-0.48c-0.83,0-1.59,0.16-2.28,0.48s-1.3,0.74-1.82,1.27
			c-0.53,0.53-0.94,1.14-1.22,1.82C505.15,217.81,505.01,218.54,505.01,219.3z"/>
		<path class="st1" d="M576.96,234.9c-0.48,1.25-0.94,2.35-1.39,3.31c-0.45,0.96-1.02,1.77-1.7,2.42c-0.69,0.66-1.56,1.15-2.62,1.49
			c-1.06,0.34-2.45,0.5-4.18,0.5c-1.86,0-3.65-0.29-5.38-0.86l0.96-5.9c1.09,0.48,2.21,0.72,3.36,0.72c0.8,0,1.46-0.09,1.97-0.26
			c0.51-0.18,0.94-0.43,1.27-0.77c0.34-0.34,0.62-0.74,0.84-1.22c0.22-0.48,0.46-1.04,0.72-1.68l0.53-1.34l-10.22-23.52h7.78
			l6,15.41h0.1l5.14-15.41h7.39L576.96,234.9z"/>
	</g>
	<g>
		<path class="st4" d="M20.58,274.99h8.55c3.08,0,5.32,0.65,6.72,1.95c1.4,1.3,2.1,3.1,2.1,5.4v0.12c0,2.24-0.72,3.97-2.16,5.18
			c-1.44,1.21-3.56,1.81-6.36,1.81h-2.07v6.99h-6.78V274.99z M28.77,284.89c1.82,0,2.73-0.8,2.73-2.4v-0.12
			c0-0.84-0.23-1.43-0.68-1.79c-0.45-0.35-1.12-0.52-2.02-0.52h-1.44v4.83H28.77z"/>
		<path class="st4" d="M51.87,274.99h8.79l6.72,21.45h-7.2l-0.99-3.57h-6.78l-0.96,3.57h-6.33L51.87,274.99z M53.7,288.25h4.23
			l-2.1-7.77L53.7,288.25z"/>
		<path class="st4" d="M77.4,274.99h8.76c2.98,0,5.22,0.58,6.72,1.75s2.25,2.91,2.25,5.21v0.12c0,1.48-0.34,2.67-1.02,3.55
			c-0.68,0.89-1.55,1.58-2.61,2.06l4.89,8.76h-7.14l-3.99-7.35h-1.08v7.35H77.4V274.99z M85.77,284.71c1.86,0,2.79-0.78,2.79-2.34
			v-0.12c0-0.78-0.23-1.33-0.69-1.67c-0.46-0.33-1.15-0.49-2.07-0.49h-1.62v4.62H85.77z"/>
		<path class="st4" d="M109.95,280.21h-5.4v-5.22h17.67v5.22h-5.43v16.23h-6.84V280.21z"/>
		<path class="st4" d="M156.12,296.83c-1.76,0-3.34-0.26-4.74-0.79c-1.4-0.53-2.59-1.28-3.57-2.25c-0.98-0.97-1.73-2.13-2.25-3.48
			c-0.52-1.35-0.78-2.83-0.78-4.46v-0.24c0-1.66,0.29-3.17,0.88-4.51c0.59-1.35,1.4-2.5,2.43-3.45c1.03-0.95,2.24-1.68,3.64-2.21
			c1.4-0.52,2.9-0.78,4.5-0.78c1.64,0,3.17,0.25,4.58,0.74s2.63,1.2,3.66,2.12c1.03,0.92,1.83,2.04,2.42,3.38s0.87,2.84,0.87,4.54
			v0.24c0,1.68-0.28,3.21-0.83,4.57c-0.55,1.37-1.33,2.54-2.36,3.51c-1.02,0.97-2.25,1.72-3.67,2.26S157.88,296.83,156.12,296.83z
			 M156.3,291.49c1.34,0,2.4-0.5,3.19-1.48c0.79-0.99,1.19-2.39,1.19-4.19v-0.24c0-1.82-0.4-3.21-1.2-4.17s-1.88-1.44-3.24-1.44
			c-1.32,0-2.38,0.47-3.17,1.42s-1.18,2.34-1.18,4.18v0.24c0,1.84,0.39,3.25,1.18,4.21C153.86,291,154.94,291.49,156.3,291.49z"/>
		<path class="st4" d="M178.32,274.99h14.85v5.22h-8.04v4.02h6.48v5.01h-6.48v7.2h-6.81V274.99z"/>
	</g>
</g>
</svg>
