<?xml version="1.0" encoding="UTF-8" standalone="no"?>
<svg
   xmlns:dc="http://purl.org/dc/elements/1.1/"
   xmlns:cc="http://creativecommons.org/ns#"
   xmlns:rdf="http://www.w3.org/1999/02/22-rdf-syntax-ns#"
   xmlns:svg="http://www.w3.org/2000/svg"
   xmlns="http://www.w3.org/2000/svg"
   xmlns:sodipodi="http://sodipodi.sourceforge.net/DTD/sodipodi-0.dtd"
   xmlns:inkscape="http://www.inkscape.org/namespaces/inkscape"
   inkscape:version="1.0beta2 (2b71d25, 2019-12-03)"
   sodipodi:docname="okcupid_whitebg.svg"
   viewBox="0 0 293.56 135.10667"
   height="135.10667"
   width="293.56"
   xml:space="preserve"
   id="svg833"
   version="1.1"><metadata
     id="metadata839"><rdf:RDF><cc:Work
         rdf:about=""><dc:format>image/svg+xml</dc:format><dc:type
           rdf:resource="http://purl.org/dc/dcmitype/StillImage" /><dc:title></dc:title></cc:Work></rdf:RDF></metadata><defs
     id="defs837" /><sodipodi:namedview
     inkscape:current-layer="g841"
     inkscape:window-maximized="0"
     inkscape:window-y="731"
     inkscape:window-x="89"
     inkscape:cy="67.553337"
     inkscape:cx="146.78"
     inkscape:zoom="3.6108462"
     showgrid="false"
     id="namedview835"
     inkscape:window-height="758"
     inkscape:window-width="1443"
     inkscape:pageshadow="2"
     inkscape:pageopacity="0"
     guidetolerance="10"
     gridtolerance="10"
     objecttolerance="10"
     borderopacity="1"
     inkscape:document-rotation="0"
     bordercolor="#666666"
     pagecolor="#ffffff" /><g
     transform="matrix(1.3333333,0,0,-1.3333333,0,135.10667)"
     inkscape:label="ink_ext_XXXXXX"
     inkscape:groupmode="layer"
     id="g841"><g
       transform="scale(0.1)"
       id="g843"><path
         inkscape:connector-curvature="0"
         id="path845"
         style="fill:#2748a3;fill-opacity:1;fill-rule:nonzero;stroke:none"
         d="m 1349.32,544.453 c -13.32,0 -25.12,-5.644 -31.8,-14.375 l -14.36,-102.047 c 5.12,-1.543 11.29,-2.051 20,-2.051 32.31,0 56.94,22.579 56.94,73.848 0,32.313 -9.24,44.625 -30.78,44.625" /><path
         inkscape:connector-curvature="0"
         id="path847"
         style="fill:#2748a3;fill-opacity:1;fill-rule:nonzero;stroke:none"
         d="m 1654.3,468.031 c 0,-31.797 11.79,-40.508 31.29,-40.508 11.28,0 21.54,4.102 28.71,11.797 l 13.34,102.567 c -6.66,3.086 -13.34,3.593 -21.55,3.593 -31.29,0 -51.79,-26.664 -51.79,-77.449" /><path
         inkscape:connector-curvature="0"
         id="path849"
         style="fill:#2748a3;fill-opacity:1;fill-rule:nonzero;stroke:none"
         d="m 437.715,544.973 c -31.281,0 -48.723,-31.797 -48.723,-74.364 0,-30.781 8.723,-44.629 33.852,-44.629 28.191,0 49.754,27.188 49.754,73.848 0,30.25 -8.211,45.145 -34.883,45.145" /><path
         inkscape:connector-curvature="0"
         id="path851"
         style="fill:#2748a3;fill-opacity:1;fill-rule:nonzero;stroke:none"
         d="m 1754.82,377.777 c -19.49,0 -32.83,8.203 -32.83,29.746 0,1.016 0.53,5.625 1.02,8.204 -12.31,-27.696 -38.46,-37.442 -65.63,-37.442 -47.71,0 -75.41,21.016 -75.41,80 0,88.738 47.7,134.891 106.68,134.891 22.05,0 35.9,-3.067 44.63,-9.738 l 9.73,71.281 c 4.12,32.304 14.88,40.008 40.53,40.008 14.35,0 28.73,-3.594 37.44,-10.274 l -29.75,-214.351 c -2.56,-17.969 -3.09,-27.207 -3.09,-33.36 0,-5.117 1.55,-8.711 9.24,-8.711 4.63,0 12.82,0.528 18.46,2.051 5.64,-4.629 7.7,-9.727 7.7,-17.441 0,-23.594 -26.16,-34.864 -68.72,-34.864 z m -247.75,0.508 c -25.14,0 -40,9.746 -40,31.797 0,8.711 1.52,23.086 3.07,33.848 l 17.42,100.015 -23.58,-0.515 c -4.12,5.136 -5.13,11.797 -5.13,18.465 0,22.558 20,30.781 65.64,30.781 33.85,0 41.04,-9.746 37.97,-30.781 l -11.82,-80.016 c -3.59,-23.594 -7.18,-40 -7.18,-46.66 0,-3.594 1.56,-7.188 7.71,-7.188 4.61,0 12.81,0.528 18.97,2.051 5.64,-4.102 8.2,-10.254 8.2,-16.934 0,-24.101 -21.52,-34.863 -71.27,-34.863 z m 45.12,315.414 c 24.1,0 34.86,-13.844 34.86,-32.832 0,-22.554 -15.9,-37.945 -42.56,-37.945 -18.98,0 -35.9,6.687 -35.9,31.797 0,22.066 16.43,38.98 43.6,38.98 z M 1318.05,380.844 c -5.65,0 -15.9,0 -20.53,0.508 l -13.34,-100.508 c -9.73,-3.594 -25.64,-4.102 -36.41,-4.102 -22.56,0 -33.34,9.219 -33.34,28.711 0,5.645 1.55,15.391 3.6,29.238 l 27.71,209.254 -23.59,-0.515 c -3.61,5.136 -4.63,11.797 -4.63,18.465 0,22.558 20,30.781 65.64,30.781 29.75,0 37.95,-6.668 35.39,-23.613 l -3.06,-18.973 c 13.85,35.918 37.93,43.601 64.61,43.601 49.74,0 71.79,-29.738 71.79,-85.144 0,-80.516 -52.3,-127.703 -133.84,-127.703 z m -170.78,-3.067 c -25.12,0 -35.9,7.696 -32.31,31.797 l 1.52,10.254 c -14.86,-27.187 -36.93,-41.543 -79.48,-41.543 -36.4,0 -56.934,14.863 -56.934,48.203 0,14.356 1.036,23.594 5.664,47.696 l 12.805,69.761 -23.586,-0.515 c -4.109,5.136 -5.136,11.797 -5.136,18.465 0,22.558 20.011,30.781 65.667,30.781 33.83,0 41.53,-9.746 37.94,-30.781 l -12.83,-80.016 c -2.56,-14.356 -5.13,-31.289 -5.13,-40 0,-10.254 5.65,-13.848 19.5,-13.848 14.36,0 29.75,6.66 39.47,22.559 l 13.87,102.586 c 4.1,32.312 11.8,40.515 37.44,40.515 14.36,0 30.76,-3.582 39.47,-10.253 l -16.4,-122.067 c -1.02,-8.711 -2.56,-17.949 -2.56,-26.68 0,-3.574 2.05,-6.66 8.2,-6.66 4.61,0 11.8,0.528 17.95,2.051 5.65,-4.102 8.21,-10.781 8.21,-17.441 0,-24.082 -23.6,-34.864 -73.34,-34.864 z M 951.379,537.793 c -11.789,3.586 -24.106,5.637 -43.078,5.637 -36.934,0 -57.957,-21.543 -57.957,-67.703 0,-33.848 10.254,-46.153 37.422,-46.153 15.398,0 33.347,3.594 52.847,10.762 7.18,-3.594 10.766,-13.848 10.766,-21.543 0,-26.152 -23.598,-41.543 -81.543,-41.543 -62.063,0 -95.402,25.137 -95.402,90.273 0,81.043 49.238,126.676 126.679,126.676 48.731,0 60.52,-14.875 60.52,-34.355 0,-10.774 -3.598,-16.934 -10.254,-22.051 z M 702.246,378.285 c -20,0 -27.18,7.188 -37.961,30.254 l -34.355,70.274 -12.821,-96.426 c -9.738,-3.594 -25.636,-4.102 -36.418,-4.102 -22.554,0 -32.808,9.219 -32.808,28.731 0,5.625 1.012,15.371 3.062,29.218 l 28.723,218.485 c 4.109,32.304 14.875,40.008 40.527,40.008 14.348,0 28.723,-3.594 37.434,-10.274 L 633.523,503.926 c 61.036,84.629 66.672,89.765 97.446,89.765 32.301,0 43.59,-9.238 43.59,-27.695 0,-10.769 -3.075,-17.949 -8.211,-23.594 -7.688,0.508 -15.379,0.508 -21.535,0.508 -10.77,0 -16.915,-2.566 -47.184,-44.097 L 732.5,435.727 c 2.566,-4.102 5.129,-7.696 10.781,-7.696 4.61,0 12.317,0.528 18.457,2.051 5.125,-3.594 7.18,-10.781 7.18,-17.441 0,-24.082 -24.105,-34.356 -66.672,-34.356 z M 413.098,377.25 c -58.457,0 -96.938,25.664 -96.938,90.781 0,75.914 46.164,126.696 125.664,126.696 74.356,0 100.52,-36.934 100.52,-91.817 0,-77.457 -47.188,-125.66 -129.246,-125.66 z M 1846,467.348 l -6.2,5.078 28.5,205.406 3.87,27.793 -22.27,17.078 c -22.95,17.602 -51.7,20.227 -66.78,20.227 -51.67,0 -81.4,-27.637 -88.33,-82.129 l -2.66,-19.453 c -1.31,0.019 -2.6,0.031 -3.89,0.031 -19.94,0 -40.23,-4.238 -59.33,-12.641 3.79,9.809 5.93,20.571 5.93,32.129 0,47.719 -34.16,81.035 -83.06,81.035 -52.33,0 -91.78,-37.476 -91.78,-87.183 0,-7.688 0.86,-14.961 2.54,-21.77 -2.91,-1.008 -5.7,-2.121 -8.38,-3.34 -3.07,-1.394 -5.94,-3 -8.71,-4.675 -18.03,11.004 -40.06,16.961 -65.76,16.961 -19.61,0 -36.04,-3.497 -49.77,-9.286 -15.35,7.059 -32.5,8.27 -47.17,8.27 -28.59,0 -49.02,-2.957 -65.41,-9.426 -20.37,9.133 -42.09,10.442 -52.01,10.442 -30.29,0 -49.61,-10.215 -62.05,-23.731 -19.84,20.274 -48.18,22.715 -68.21,22.715 -30.85,0 -52.238,-3.406 -69.23,-10.984 -15.625,7.539 -36.594,12.507 -65.137,12.507 -38.008,0 -71.086,-8.918 -98.047,-25.066 -13.281,13.73 -35.351,24.559 -72.101,24.559 -11.668,0 -21.727,-1.055 -30.848,-3.45 l 5.281,39.629 3.703,27.649 -22.148,16.98 c -22.949,17.602 -51.68,20.227 -66.758,20.227 -51.68,0 -81.406,-27.637 -88.34,-82.129 l -4.863,-36.953 c -22.852,12.453 -51.379,19.082 -85.164,19.082 -103.996,0 -173.859,-70.282 -173.859,-174.899 0,-87.011 54.246,-138.984 145.125,-138.984 40.492,0 75.597,9.648 103.644,27.266 14.102,-16.68 36.27,-26.231 63.953,-26.231 23.117,0 39.992,2.246 53.11,7.09 l 19.382,7.148 c 12.11,-8.75 27.801,-14.238 49.063,-14.238 38.523,0 64.238,7.988 81.394,19.277 22.54,-13.379 51.438,-20.312 86.196,-20.312 38.328,0 69.109,9.98 92.027,25.371 16.684,-14.727 41.087,-24.336 75.137,-24.336 23.42,0 43.9,3.613 61.63,10.957 19.16,-11.465 40.39,-11.465 48.64,-11.465 7.63,0 14.68,0.352 21.42,0.86 -1.5,-10.235 -2.46,-17.93 -2.46,-24.981 0,-38.281 25.26,-74.515 81.54,-76.914 42.28,-1.801 80.37,17.188 80.37,17.188 l 3.83,28.789 7.83,59.101 c 35.63,3.262 66.68,14.571 91.78,32.403 13.52,-20.84 38.17,-35.938 75.49,-35.938 33.05,0 57.05,4.238 75.57,13.34 1.97,0.976 3.73,2.129 5.58,3.203 18.71,-10.781 41.86,-16.543 69.16,-16.543 19.55,0 37.5,3.535 53.23,10.254 12.32,-6.934 27.3,-10.762 44.21,-10.762 108.5,0 116.92,63.594 116.92,83.067 0,28.047 -13.77,45.234 -25.33,54.707" /></g></g></svg>
