<?xml version="1.0" encoding="UTF-8" standalone="no"?>
<!-- Created with Inkscape (http://www.inkscape.org/) -->

<svg
   xmlns:dc="http://purl.org/dc/elements/1.1/"
   xmlns:cc="http://creativecommons.org/ns#"
   xmlns:rdf="http://www.w3.org/1999/02/22-rdf-syntax-ns#"
   xmlns:svg="http://www.w3.org/2000/svg"
   xmlns="http://www.w3.org/2000/svg"
   xmlns:sodipodi="http://sodipodi.sourceforge.net/DTD/sodipodi-0.dtd"
   xmlns:inkscape="http://www.inkscape.org/namespaces/inkscape"
   width="188.46419"
   height="80.364067"
   viewBox="0 0 49.864482 21.262992"
   version="1.1"
   id="svg7568"
   inkscape:version="0.92.0 r15299"
   sodipodi:docname="orange business srvices.svg">
  <defs
     id="defs7562">
    <clipPath
       id="clipPath4110"
       clipPathUnits="userSpaceOnUse">
      <path
         inkscape:connector-curvature="0"
         id="path4108"
         d="m 22.677,745.512 h 143.15 v 62.362 H 22.677 Z" />
    </clipPath>
    <clipPath
       id="clipPath4118"
       clipPathUnits="userSpaceOnUse">
      <path
         inkscape:connector-curvature="0"
         id="path4116"
         d="M 0,0 H 595.276 V 841.89 H 0 Z" />
    </clipPath>
    <clipPath
       id="clipPath4128"
       clipPathUnits="userSpaceOnUse">
      <path
         inkscape:connector-curvature="0"
         id="path4126"
         d="M -0.17137,-12.5486 H 4.06252 V 1.59535 h -4.23389 z" />
    </clipPath>
    <clipPath
       id="clipPath4136"
       clipPathUnits="userSpaceOnUse">
      <path
         inkscape:connector-curvature="0"
         id="path4134"
         d="M 0,1 V 0 h 1 v 1" />
    </clipPath>
    <clipPath
       id="clipPath2174"
       clipPathUnits="userSpaceOnUse">
      <path
         inkscape:connector-curvature="0"
         id="path2172"
         d="m 0,0.89 h 595 v 841 H 0 Z" />
    </clipPath>
  </defs>
  <sodipodi:namedview
     id="base"
     pagecolor="#ffffff"
     bordercolor="#666666"
     borderopacity="1.0"
     inkscape:pageopacity="0.0"
     inkscape:pageshadow="2"
     inkscape:zoom="4.2781504"
     inkscape:cx="94.232094"
     inkscape:cy="40.182034"
     inkscape:document-units="mm"
     inkscape:current-layer="layer1"
     showgrid="false"
     fit-margin-top="0"
     fit-margin-left="0"
     fit-margin-right="0"
     fit-margin-bottom="0"
     units="px"
     inkscape:window-width="1280"
     inkscape:window-height="744"
     inkscape:window-x="-4"
     inkscape:window-y="-4"
     inkscape:window-maximized="1" />
  <metadata
     id="metadata7565">
    <rdf:RDF>
      <cc:Work
         rdf:about="">
        <dc:format>image/svg+xml</dc:format>
        <dc:type
           rdf:resource="http://purl.org/dc/dcmitype/StillImage" />
        <dc:title></dc:title>
      </cc:Work>
    </rdf:RDF>
  </metadata>
  <g
     inkscape:label="Layer 1"
     inkscape:groupmode="layer"
     id="layer1"
     transform="translate(-119.30116,-142.05237)">
    <g
       id="g7941"
       transform="translate(0.13229149,-0.13228863)">
      <path
         inkscape:connector-curvature="0"
         id="path4138"
         style="fill:#231f20;fill-opacity:1;fill-rule:nonzero;stroke:none;stroke-width:32.27256775"
         d="m 146.01071,161.85807 c 0,0.62785 0.46127,0.87353 1.03663,0.87353 0.62496,0 0.86304,-0.30867 0.86304,-0.61525 0,-0.31498 -0.1736,-0.44097 -0.33728,-0.50396 -0.28768,-0.10919 -0.65968,-0.18269 -1.22016,-0.33598 -0.69935,-0.18898 -0.90271,-0.61315 -0.90271,-1.03522 0,-0.81683 0.75391,-1.20111 1.49295,-1.20111 0.85312,0 1.56736,0.45147 1.56736,1.30401 h -0.71424 c -0.0347,-0.52706 -0.39184,-0.72025 -0.88288,-0.72025 -0.33232,0 -0.74896,0.11969 -0.74896,0.53126 0,0.28558 0.19344,0.44517 0.48608,0.52496 0.0645,0.0189 0.9672,0.25198 1.18048,0.31498 0.53568,0.15958 0.7936,0.61735 0.7936,1.03942 0,0.91553 -0.81344,1.2809 -1.62688,1.2809 -0.93248,0 -1.68639,-0.44517 -1.70127,-1.45729 h 0.71424" />
      <path
         inkscape:connector-curvature="0"
         id="path4140"
         style="fill:#231f20;fill-opacity:1;fill-rule:nonzero;stroke:none;stroke-width:32.27256775"
         d="m 151.18397,161.4801 c -0.0198,-0.41157 -0.30255,-0.78114 -0.73903,-0.78114 -0.45632,0 -0.76384,0.34227 -0.77872,0.78114 z m -1.51775,0.42837 c 0,0.46406 0.248,0.87563 0.7936,0.87563 0.37696,0 0.60511,-0.16589 0.71919,-0.49136 h 0.62 c -0.14384,0.64465 -0.6944,1.00582 -1.33919,1.00582 -0.92752,0 -1.44832,-0.64675 -1.44832,-1.55388 0,-0.83994 0.55056,-1.56018 1.43344,-1.56018 0.92751,0 1.50287,0.83993 1.39375,1.72397 h -2.17247" />
      <path
         inkscape:connector-curvature="0"
         id="path4142"
         style="fill:#231f20;fill-opacity:1;fill-rule:nonzero;stroke:none;stroke-width:32.27256775"
         d="m 152.33469,160.26429 h 0.61504 v 0.57116 h 0.01 c 0.0744,-0.31498 0.46128,-0.65095 0.86304,-0.65095 0.1488,0 0.18848,0.0105 0.248,0.0168 v 0.62785 c -0.0942,-0.0105 -0.19344,-0.0273 -0.28272,-0.0273 -0.4464,0 -0.79856,0.35907 -0.79856,1.01002 v 1.4069 h -0.65472 v -2.95448" />
      <path
         inkscape:connector-curvature="0"
         id="path4144"
         style="fill:#231f20;fill-opacity:1;fill-rule:nonzero;stroke:none;stroke-width:32.27256775"
         d="m 154.19965,160.26429 h 0.70928 l 0.74896,2.26783 h 0.01 l 0.72415,-2.26783 h 0.67456 l -1.06144,2.95448 h -0.72911 l -1.07632,-2.95448" />
      <path
         inkscape:connector-curvature="0"
         id="path4146"
         style="fill:#231f20;fill-opacity:1;fill-rule:nonzero;stroke:none;stroke-width:32.27256775"
         d="m 157.4782,160.26429 h 0.64976 v 2.95448 h -0.64976 z m 0,-1.12551 h 0.64976 v 0.61525 h -0.64976 v -0.61525" />
      <path
         inkscape:connector-curvature="0"
         id="path4148"
         style="fill:#231f20;fill-opacity:1;fill-rule:nonzero;stroke:none;stroke-width:32.27256775"
         d="m 160.83611,161.25332 c -0.0546,-0.36118 -0.31743,-0.55436 -0.67951,-0.55436 -0.33728,0 -0.80848,0.17639 -0.80848,1.07302 0,0.49136 0.21824,1.01212 0.78368,1.01212 0.37696,0 0.63983,-0.25198 0.70431,-0.67405 h 0.64976 c -0.11904,0.76434 -0.5952,1.18851 -1.35407,1.18851 -0.92752,0 -1.4384,-0.65725 -1.4384,-1.52658 0,-0.89034 0.48608,-1.58748 1.45824,-1.58748 0.68943,0 1.26975,0.34227 1.33423,1.06882 h -0.64976" />
      <path
         inkscape:connector-curvature="0"
         id="path4150"
         style="fill:#231f20;fill-opacity:1;fill-rule:nonzero;stroke:none;stroke-width:32.27256775"
         d="m 164.05019,161.4801 c -0.0248,-0.41157 -0.30256,-0.78114 -0.744,-0.78114 -0.45136,0 -0.76384,0.34227 -0.77872,0.78114 z m -1.52272,0.42837 c 0,0.46406 0.25296,0.87563 0.7936,0.87563 0.37696,0 0.60512,-0.16589 0.7192,-0.49136 h 0.62 c -0.14384,0.64465 -0.6944,1.00582 -1.3392,1.00582 -0.92752,0 -1.44832,-0.64675 -1.44832,-1.55388 0,-0.83994 0.55056,-1.56018 1.43344,-1.56018 0.93248,0 1.50288,0.83993 1.39376,1.72397 h -2.17248" />
      <path
         inkscape:connector-curvature="0"
         id="path4152"
         style="fill:#231f20;fill-opacity:1;fill-rule:nonzero;stroke:none;stroke-width:32.27256775"
         d="m 165.69194,162.26964 c 0.0298,0.37797 0.31744,0.51446 0.66464,0.51446 0.248,0 0.67952,-0.0525 0.65968,-0.38847 -0.0149,-0.34227 -0.49104,-0.38217 -0.9672,-0.49136 -0.48112,-0.1029 -0.94735,-0.27508 -0.94735,-0.87564 0,-0.64465 0.69439,-0.84413 1.23503,-0.84413 0.60512,0 1.15568,0.24988 1.23504,0.90713 h -0.67952 c -0.0595,-0.30658 -0.31744,-0.39267 -0.60016,-0.39267 -0.18848,0 -0.54064,0.0441 -0.54064,0.30238 0,0.31917 0.48112,0.36537 0.96224,0.47456 0.47616,0.10709 0.95232,0.27928 0.95232,0.86303 0,0.70135 -0.70432,0.95963 -1.31936,0.95963 -0.744,0 -1.29951,-0.33177 -1.30943,-1.02892 h 0.65471" />
      <path
         inkscape:connector-curvature="0"
         id="path4154"
         style="fill:#f47216;fill-opacity:1;fill-rule:nonzero;stroke:none;stroke-width:32.27256775"
         d="m 119.30116,163.20827 h 20.91132 v -20.89132 h -20.91132 z" />
      <path
         inkscape:connector-curvature="0"
         id="path4156"
         style="fill:#ffffff;fill-opacity:1;fill-rule:nonzero;stroke:none;stroke-width:32.27256775"
         d="m 126.42867,160.62966 c 0,0.19529 0.124,0.38008 0.34719,0.38008 0.23808,0 0.4712,-0.1008 0.70928,-0.30868 v -0.68875 c -0.71424,0.0882 -1.05647,0.27088 -1.05647,0.61735 z m 1.07135,0.61106 c -0.29264,0.19948 -0.61504,0.28978 -0.95727,0.28978 -0.5456,0 -0.86304,-0.36118 -0.86304,-0.84834 0,-0.64885 0.5952,-0.99532 1.83023,-1.13181 v -0.16379 c 0,-0.21209 -0.16368,-0.33388 -0.45632,-0.33388 -0.2976,0 -0.53567,0.1155 -0.70927,0.33388 l -0.5208,-0.29608 c 0.2728,-0.37797 0.68944,-0.56906 1.23999,-0.56906 0.75888,0 1.18544,0.32758 1.18544,0.86514 0,0 0,2.10614 0,2.11244 h -0.67952 l -0.0694,-0.25828" />
      <path
         inkscape:connector-curvature="0"
         id="path4158"
         style="fill:#ffffff;fill-opacity:1;fill-rule:nonzero;stroke:none;stroke-width:32.27256775"
         d="m 128.8541,158.66211 0.63488,-0.0882 0.0694,0.34437 c 0.35712,-0.26248 0.6448,-0.40107 0.99696,-0.40107 0.60016,0 0.91263,0.31708 0.91263,0.94703 v 2.02845 h -0.76879 v -1.89406 c 0,-0.35697 -0.0942,-0.51866 -0.372,-0.51866 -0.22816,0 -0.45632,0.10709 -0.71424,0.32338 v 2.08934 h -0.75888 v -2.83059" />
      <path
         inkscape:connector-curvature="0"
         id="path4160"
         style="fill:#ffffff;fill-opacity:1;fill-rule:nonzero;stroke:none;stroke-width:32.27256775"
         d="m 137.11248,159.65534 c 0,-0.39057 -0.2232,-0.61945 -0.58528,-0.61945 -0.34719,0 -0.56543,0.22258 -0.59519,0.61945 z m -0.57536,1.89405 c -0.85807,0 -1.36895,-0.54805 -1.36895,-1.50978 0,-0.97223 0.51584,-1.52239 1.35903,-1.52239 0.83328,0 1.33424,0.53546 1.33424,1.48249 0,0.0483 -0.005,0.10079 -0.005,0.15119 h -1.93439 c 0.005,0.55226 0.23312,0.82944 0.67951,0.82944 0.29264,0 0.48608,-0.11549 0.66464,-0.37377 l 0.56048,0.31287 c -0.248,0.41157 -0.68944,0.62995 -1.2896,0.62995" />
      <path
         inkscape:connector-curvature="0"
         id="path4162"
         style="fill:#ffffff;fill-opacity:1;fill-rule:nonzero;stroke:none;stroke-width:32.27256775"
         d="m 121.87539,159.15138 c -0.57535,0 -0.67951,0.51866 -0.67951,0.89243 0,0.37377 0.10416,0.88823 0.67951,0.88823 0.5704,0 0.67456,-0.51446 0.67456,-0.88823 0,-0.37377 -0.10416,-0.89243 -0.67456,-0.89243 z m 0,2.42951 c -0.75887,0 -1.44335,-0.48296 -1.44335,-1.53708 0,-1.05622 0.68448,-1.53708 1.44335,-1.53708 0.75392,0 1.4384,0.48086 1.4384,1.53708 0,1.05412 -0.68448,1.53708 -1.4384,1.53708" />
      <path
         inkscape:connector-curvature="0"
         id="path4164"
         style="fill:#ffffff;fill-opacity:1;fill-rule:nonzero;stroke:none;stroke-width:32.27256775"
         d="m 123.83955,158.58442 h 0.72912 v 0.34227 c 0.13888,-0.18478 0.48112,-0.40317 0.79856,-0.40317 0.0298,0 0.0694,0 0.0992,0.004 v 0.71815 c -0.01,0 -0.0248,0 -0.0347,0 -0.33232,0 -0.6944,0.0525 -0.81344,0.31288 v 1.93605 h -0.77872 v -2.91038" />
      <path
         inkscape:connector-curvature="0"
         id="path4166"
         style="fill:#ffffff;fill-opacity:1;fill-rule:nonzero;stroke:none;stroke-width:32.27256775"
         d="m 134.70689,158.57392 v 2.75709 c 0,0.48926 -0.0397,1.2872 -1.42848,1.2977 -0.5704,0.002 -1.10112,-0.22678 -1.20528,-0.72654 l 0.75392,-0.12179 c 0.0347,0.14489 0.124,0.28767 0.55056,0.28767 0.39184,0 0.58528,-0.19108 0.58528,-0.64885 v -0.33597 l -0.01,-0.0105 c -0.124,0.21628 -0.30752,0.42207 -0.75392,0.42207 -0.67456,0 -1.21024,-0.47037 -1.21024,-1.45519 0,-0.97433 0.55056,-1.52029 1.17056,-1.52029 0.58032,-0.002 0.79856,0.26458 0.84816,0.40317 l -0.01,-0.002 0.0595,-0.34647 z m -1.36896,2.29723 c 0.58032,-0.004 0.63488,-0.59636 0.63488,-0.98273 0,-0.45776 -0.22816,-0.82524 -0.63984,-0.82524 -0.2728,0 -0.58032,0.20159 -0.58032,0.85674 0,0.35907 0.0248,0.95333 0.58528,0.95123" />
      <path
         inkscape:connector-curvature="0"
         id="path4168"
         style="fill:#ffffff;fill-opacity:1;fill-rule:nonzero;stroke:none;stroke-width:32.27256775"
         d="m 139.41888,158.44163 h -0.15872 v -0.80424 h -0.005 l -0.31744,0.80424 h -0.10416 l -0.31248,-0.80424 h -0.005 v 0.80424 h -0.15376 v -0.96383 h 0.24304 l 0.28768,0.73075 0.28272,-0.73075 h 0.24304 z m -1.25488,-0.83574 h -0.30256 v 0.83574 h -0.15872 v -0.83574 h -0.30256 v -0.12809 h 0.76384 v 0.12809" />
      <path
         inkscape:connector-curvature="0"
         id="path4170"
         style="fill:#231f20;fill-opacity:1;fill-rule:nonzero;stroke:none;stroke-width:32.27256775"
         d="m 146.14958,156.88145 h 1.2648 c 0.43648,0 0.68448,-0.23518 0.68448,-0.64675 0,-0.39897 -0.248,-0.62785 -0.68448,-0.62785 h -1.2648 z m 0,-1.78907 h 1.1656 c 0.3472,0 0.60016,-0.19948 0.60016,-0.56695 0,-0.41157 -0.20832,-0.55856 -0.60016,-0.55856 h -1.1656 z m -0.71423,-1.70927 h 1.98399 c 0.73408,0 1.2152,0.33178 1.2152,1.01213 0,0.41157 -0.21328,0.70764 -0.58528,0.86933 v 0.0105 c 0.496,0.10919 0.76384,0.49766 0.76384,1.05202 0,0.64045 -0.44144,1.13601 -1.50288,1.13601 h -1.87487 v -4.07999" />
      <path
         inkscape:connector-curvature="0"
         id="path4172"
         style="fill:#231f20;fill-opacity:1;fill-rule:nonzero;stroke:none;stroke-width:32.27256775"
         d="m 151.96765,157.4631 h -0.63984 v -0.41156 h -0.0149 c -0.15872,0.29817 -0.51087,0.49136 -0.83823,0.49136 -0.77376,0 -1.10608,-0.38847 -1.10608,-1.15911 v -1.87516 h 0.65472 v 1.81216 c 0,0.52076 0.20832,0.70765 0.56544,0.70765 0.54063,0 0.72415,-0.34858 0.72415,-0.80424 v -1.71557 h 0.65472 v 2.95447" />
      <path
         inkscape:connector-curvature="0"
         id="path4174"
         style="fill:#231f20;fill-opacity:1;fill-rule:nonzero;stroke:none;stroke-width:32.27256775"
         d="m 153.14317,156.51608 c 0.0347,0.37587 0.3224,0.51236 0.6696,0.51236 0.248,0 0.67456,-0.0504 0.65968,-0.38847 -0.0198,-0.34228 -0.49104,-0.38217 -0.9672,-0.49137 -0.48112,-0.10289 -0.94736,-0.27297 -0.94736,-0.87353 0,-0.64675 0.6944,-0.84623 1.23504,-0.84623 0.60512,0 1.15568,0.25198 1.23504,0.90923 h -0.67952 c -0.0595,-0.30868 -0.31744,-0.39477 -0.60512,-0.39477 -0.18848,0 -0.53568,0.0462 -0.53568,0.30237 0,0.32128 0.48112,0.36538 0.96224,0.47457 0.4712,0.10919 0.95232,0.28138 0.95232,0.86303 0,0.70345 -0.70928,0.95963 -1.31936,0.95963 -0.744,0 -1.29952,-0.33178 -1.30944,-1.02682 h 0.64976" />
      <path
         inkscape:connector-curvature="0"
         id="path4176"
         style="fill:#231f20;fill-opacity:1;fill-rule:nonzero;stroke:none;stroke-width:32.27256775"
         d="m 155.63805,154.50863 h 0.65471 v 2.95447 h -0.65471 z m 0,-1.12552 h 0.65471 v 0.61736 h -0.65471 v -0.61736" />
      <path
         inkscape:connector-curvature="0"
         id="path4178"
         style="fill:#231f20;fill-opacity:1;fill-rule:nonzero;stroke:none;stroke-width:32.27256775"
         d="m 157.00204,154.50863 h 0.61504 v 0.43467 l 0.01,0.0126 c 0.1984,-0.32757 0.53568,-0.52705 0.92256,-0.52705 0.63984,0 1.04656,0.34437 1.04656,1.00582 v 2.02844 h -0.64976 v -1.85625 c -0.0149,-0.46407 -0.1984,-0.66355 -0.58032,-0.66355 -0.43648,0 -0.71424,0.34227 -0.71424,0.77694 v 1.74286 h -0.64976 v -2.95447" />
      <path
         inkscape:connector-curvature="0"
         id="path4180"
         style="fill:#231f20;fill-opacity:1;fill-rule:nonzero;stroke:none;stroke-width:32.27256775"
         d="m 162.31419,155.72654 c -0.0248,-0.41157 -0.30256,-0.78324 -0.744,-0.78324 -0.45136,0 -0.76384,0.34227 -0.77872,0.78324 z m -1.52272,0.42836 c 0,0.46197 0.25296,0.87354 0.7936,0.87354 0.37696,0 0.60512,-0.16379 0.72416,-0.49137 h 0.61504 c -0.14384,0.64676 -0.68944,1.00583 -1.3392,1.00583 -0.92256,0 -1.44335,-0.64465 -1.44335,-1.55388 0,-0.83994 0.54559,-1.56018 1.42847,-1.56018 0.93248,0 1.50288,0.83993 1.39376,1.72606 h -2.17248" />
      <path
         inkscape:connector-curvature="0"
         id="path4182"
         style="fill:#231f20;fill-opacity:1;fill-rule:nonzero;stroke:none;stroke-width:32.27256775"
         d="m 163.95595,156.51608 c 0.0347,0.37587 0.31744,0.51236 0.6696,0.51236 0.24304,0 0.67456,-0.0504 0.65472,-0.38847 -0.0149,-0.34228 -0.49104,-0.38217 -0.9672,-0.49137 -0.48112,-0.10289 -0.94736,-0.27297 -0.94736,-0.87353 0,-0.64675 0.69936,-0.84623 1.23504,-0.84623 0.60512,0 1.15567,0.25198 1.23503,0.90923 h -0.67951 c -0.0595,-0.30868 -0.31744,-0.39477 -0.60016,-0.39477 -0.18848,0 -0.54064,0.0462 -0.54064,0.30237 0,0.32128 0.48112,0.36538 0.96224,0.47457 0.47616,0.10919 0.95727,0.28138 0.95727,0.86303 0,0.70345 -0.70927,0.95963 -1.32431,0.95963 -0.744,0 -1.29952,-0.33178 -1.30944,-1.02682 h 0.65472" />
      <path
         inkscape:connector-curvature="0"
         id="path4184"
         style="fill:#231f20;fill-opacity:1;fill-rule:nonzero;stroke:none;stroke-width:32.27256775"
         d="m 166.92202,156.51608 c 0.0347,0.37587 0.3224,0.51236 0.6696,0.51236 0.248,0 0.67456,-0.0504 0.65968,-0.38847 -0.0198,-0.34228 -0.496,-0.38217 -0.9672,-0.49137 -0.48112,-0.10289 -0.95232,-0.27297 -0.95232,-0.87353 0,-0.64675 0.69936,-0.84623 1.23504,-0.84623 0.61008,0 1.15568,0.25198 1.23504,0.90923 h -0.67952 c -0.0546,-0.30868 -0.31248,-0.39477 -0.60016,-0.39477 -0.18848,0 -0.53568,0.0462 -0.53568,0.30237 0,0.32128 0.48112,0.36538 0.95728,0.47457 0.47616,0.10919 0.95728,0.28138 0.95728,0.86303 0,0.70345 -0.70928,0.95963 -1.31936,0.95963 -0.744,0 -1.29952,-0.33178 -1.30944,-1.02682 h 0.64976" />
    </g>
  </g>
</svg>
