<?xml version="1.0" encoding="UTF-8"?>
<svg width="188px" height="51px" viewBox="0 0 188 51" version="1.1" xmlns="http://www.w3.org/2000/svg" xmlns:xlink="http://www.w3.org/1999/xlink">
    <!-- Generator: Sketch 43.1 (39012) - http://www.bohemiancoding.com/sketch -->
    <title>Logo System</title>
    <desc>Created with Sketch.</desc>
    <defs></defs>
    <g id="Page-1" stroke="none" stroke-width="1" fill="none" fill-rule="evenodd">
        <g id="Logo-System">
            <path d="M181.390848,21.6955073 C182.583417,21.3204296 183.712267,21.0692401 184.437885,20.9818673 C186.783424,20.6323602 187.956194,19.1178294 187.956194,17.3120427 C187.956194,15.5062559 186.842063,13.9917251 184.848355,13.9917251 C184.203331,13.9917251 183.444786,14.1664787 182.741124,14.4577346 C181.040608,15.0984976 177.700066,17.0207867 176.468657,18.7100711 L176.527296,18.1858104 C176.527296,16.0887678 174.82678,14.4577346 172.715795,14.4577346 C170.663448,14.4577346 169.02157,16.147019 169.02157,18.2440616 L169.02157,39.6804976 C169.02157,41.7192891 170.663448,43.4085735 172.774433,43.4085735 C174.768142,43.4085735 176.468657,41.7192891 176.468657,39.6804976 L176.468657,28.8853242 C176.478323,23.4661308 181.180677,21.7686704 181.390848,21.6955073 Z M64.3157895,25.6559005 C64.3157895,13.9474123 72.9356462,5.55924171 84.721981,5.55924171 C96.5669543,5.55924171 105.186811,13.9474123 105.186811,25.6559005 C105.186811,37.3643886 96.5669543,45.7525592 84.721981,45.7525592 C72.9356462,45.7525592 64.3157895,37.3643886 64.3157895,25.6559005 Z M96.6255928,25.6559005 C96.6255928,18.3745024 91.9345142,12.898891 84.721981,12.898891 C77.5094478,12.898891 72.8770078,18.3745024 72.8770078,25.6559005 C72.8770078,32.8790474 77.5094478,38.41291 84.721981,38.41291 C91.9345142,38.41291 96.6255928,32.8790474 96.6255928,25.6559005 Z M131.411819,14.6573839 C133.522804,14.6573839 135.106043,16.2884171 135.106043,18.3272085 C135.106043,18.793218 134.988766,19.3174787 134.812851,19.725237 L126.486186,40.1131517 C125.606609,42.1519431 123.612901,43.6082227 121.267362,43.6082227 C118.863184,43.6082227 116.810837,42.1519431 115.989898,40.1131517 L107.663234,19.6669858 C107.487318,19.2592275 107.370042,18.793218 107.370042,18.3272085 C107.370042,16.2884171 108.953281,14.6573839 111.005627,14.6573839 C112.530228,14.6573839 113.878913,15.5311517 114.406659,16.9291801 L121.208723,34.8122938 L127.952149,16.9291801 C128.479895,15.5311517 129.887218,14.6573839 131.411819,14.6573839 Z M136.280111,29.1036777 C136.280111,20.9485118 142.319874,14.366128 150.939731,14.366128 C159.383672,14.366128 165.130243,20.6572559 165.130243,27.9969052 C165.130243,30.443455 163.547004,31.4919763 160.673719,31.4919763 L144.079029,31.4919763 C144.548136,35.0452986 147.421422,38.016109 152.229777,38.016109 C155.676332,38.016109 158.001491,36.5473412 159.760645,35.5570711 C160.171115,35.3240664 160.640223,35.207564 161.167969,35.207564 C162.751208,35.207564 164.099893,36.5473412 164.099893,38.1201232 C164.099893,39.2268957 163.396231,40.1589147 162.516654,40.6831754 C159.760645,42.2559573 157.398296,43.8994787 151.408839,43.8994787 C142.788982,43.8994787 136.280111,38.1326114 136.280111,29.1036777 Z M150.939731,20.2494976 C146.307291,20.2494976 144.313582,23.6863175 143.961752,26.4823744 L157.91771,26.4823744 C157.741795,23.8028199 155.865363,20.2494976 150.939731,20.2494976 Z" id="Combined-Shape" fill="#675E60"></path>
            <g id="Icon">
                <path d="M11.2510663,5.53094289e-18 C5.03739238,5.53094289e-18 0,4.97775864 0,11.1186923 L0,39.8813077 C0,46.0218749 5.03739238,51 11.2510663,51 L40.0536477,51 C46.2673217,51 51.304714,46.0218749 51.304714,39.8813077 L51.304714,11.1186923 C51.304714,4.97775864 46.2673217,5.53094289e-18 40.0536477,5.53094289e-18 L11.2510663,5.53094289e-18 Z" id="Combined-Shape-Copy" fill="#FCCF00"></path>
                <path d="M25.6774081,47.2646484 C14.5676165,47.2646484 5.56135084,38.3118737 5.56135084,27.2680664 C5.56135084,16.2242591 14.5676165,7.27148438 25.6774081,7.27148438 C36.7871998,7.27148438 45.7934655,16.2242591 45.7934655,27.2680664 C45.7934655,38.3118737 36.7871998,47.2646484 25.6774081,47.2646484 Z M25.7024593,40.1923828 C32.8691742,40.1923828 38.6789446,34.4171184 38.6789446,27.2929687 C38.6789446,20.1688191 32.8691742,14.3935547 25.7024593,14.3935547 C18.5357443,14.3935547 12.725974,20.1688191 12.725974,27.2929687 C12.725974,34.4171184 18.5357443,40.1923828 25.7024593,40.1923828 Z" id="Combined-Shape" fill="#FFC100"></path>
                <path d="M25.6774081,45.5214844 C14.5676165,45.5214844 5.56135084,36.5687096 5.56135084,25.5249023 C5.56135084,14.481095 14.5676165,5.52832031 25.6774081,5.52832031 C36.7871998,5.52832031 45.7934655,14.481095 45.7934655,25.5249023 C45.7934655,36.5687096 36.7871998,45.5214844 25.6774081,45.5214844 Z M25.7024593,38.4492187 C32.8691742,38.4492187 38.6789446,32.6739544 38.6789446,25.5498047 C38.6789446,18.425655 32.8691742,12.6503906 25.7024593,12.6503906 C18.5357443,12.6503906 12.725974,18.425655 12.725974,25.5498047 C12.725974,32.6739544 18.5357443,38.4492187 25.7024593,38.4492187 Z" id="Combined-Shape-Copy" fill="#FFFFFF"></path>
            </g>
        </g>
    </g>
</svg>