<?xml version="1.0" encoding="utf-8"?>
<!-- Generator: Adobe Illustrator 24.0.1, SVG Export Plug-In . SVG Version: 6.00 Build 0)  -->
<svg version="1.1" id="Calque_1" xmlns="http://www.w3.org/2000/svg" xmlns:xlink="http://www.w3.org/1999/xlink" x="0px" y="0px"
	 viewBox="0 0 396.9 396.9" style="enable-background:new 0 0 396.9 396.9;" xml:space="preserve">
<style type="text/css">
	.st0{fill:#FE414D;}
	.st1{fill:#A29E9C;}
</style>
<g id="logotype">
	<g>
		<g>
			<path class="st0" d="M204.7,206.5c1.1,0,1.9-0.9,1.9-1.9c0-1.1-0.9-1.9-1.9-1.9c-1.1,0-1.9,0.9-1.9,1.9
				C202.7,205.6,203.6,206.5,204.7,206.5z"/>
			<rect x="203.2" y="210.1" class="st0" width="3" height="25.8"/>
		</g>
		<path class="st0" d="M152.2,235.9c3.7,0,7.1-1.6,9.4-4.5v4.5h3v-25.8h-3v4.4c-2.3-2.8-5.7-4.4-9.4-4.4c-6.9,0-12.5,5.8-12.5,12.8
			C139.7,230.1,145.3,235.9,152.2,235.9z M142.8,223c0-5.4,4.2-9.8,9.4-9.8s9.4,4.4,9.4,9.8v0.4c-0.2,5.3-4.3,9.5-9.4,9.5
			C147,232.9,142.8,228.5,142.8,223z"/>
		<path class="st0" d="M197.6,223c0-7.1-5.6-12.8-12.5-12.8c-3.7,0-7.1,1.6-9.4,4.4v-4.4h-3v35.1h3v-13.8c2.4,2.9,5.8,4.5,9.4,4.5
			C192,235.9,197.6,230.1,197.6,223z M185.1,232.9c-5.1,0-9.2-4.2-9.4-9.5V223c0-5.4,4.2-9.8,9.4-9.8s9.4,4.4,9.4,9.8
			C194.5,228.5,190.3,232.9,185.1,232.9z"/>
		<path class="st0" d="M254.3,210.1c-2.9,0-5.6,1.2-7.6,3.3v-3.3h-2.9V236h2.9v-15.3c0.1-4.2,3.5-7.5,7.6-7.5c4.1,0,7.5,3.4,7.5,7.5
			V236h3v-15.3C264.8,214.9,260.1,210.1,254.3,210.1z"/>
		<path class="st0" d="M280.5,233l-0.3,0.1c-0.3,0.1-0.8,0.2-1.5,0.2c-1.2,0-1.7-0.8-1.7-2.6v-17.6h3.6v-3H277v-8.7h-3.1v8.7h-3.6v3
			h3.6v17.7c0,1.9,0.3,3.2,1.1,4c0.7,0.8,1.7,1.2,3.1,1.2c1,0,1.9-0.1,2.5-0.4l0.2-0.1L280.5,233z"/>
		<path class="st0" d="M233.1,228.5c-1.7,2.7-4.7,4.4-7.9,4.4c-5,0-9.1-4-9.5-9.2h20.4c0.8,0,1.5-0.6,1.5-1.4v-0.2
			c-0.5-6.8-5.9-12-12.4-12c-6.9,0-12.5,5.8-12.5,13c0,7.1,5.6,12.8,12.5,12.8c4.2,0,8.1-2.2,10.4-5.8L233.1,228.5z M225.2,213.2
			c4.4,0,8.3,3.2,9.2,7.7h-18.5C216.9,216.3,220.7,213.2,225.2,213.2z"/>
		<path class="st0" d="M132.8,223.5c0,0-0.8-0.6-1.6-1c-0.9-0.4-2.1-0.8-4.6-1.4c-0.3-0.1-0.7-0.2-1-0.2c-1.7-0.4-3-1-4-1.7
			c-0.9-0.8-1.3-1.5-1.2-2.4c0-1,0.6-1.9,1.6-2.6c1.1-0.8,2.8-1.3,4.7-1.2c2.1,0.1,3.8,1.2,5.5,2.4l0.2,0.1l2.2-2.1
			c-0.3-0.3-0.3-0.3-1.1-0.8c-1.7-1.2-3.9-2.4-6.7-2.5c-2.5-0.1-4.7,0.4-6.4,1.5c-1.9,1.3-3,3.1-3.1,5c0,1.4,0.3,2.8,1.7,4.2
			c1.7,1.7,4.4,2.5,6.9,3c2.1,0.4,4.1,1.2,5,2c1.2,1.1,1.6,1.9,1.6,3s-0.7,2.1-1.9,2.8c-1.2,0.9-2.9,1.4-4.7,1.3
			c-2.3-0.1-4.8-1.1-7.2-3l-0.2-0.1l-2.2,2l0.2,0.2c2.8,2.5,5.9,3.8,9.2,4c2.4,0.1,4.6-0.5,6.5-1.8c2-1.4,3.1-3.2,3.2-5.2
			C135.6,226.9,134.5,224.8,132.8,223.5z"/>
	</g>
	<g>
		<path d="M243.7,183.4c-1.8,1.4-4,2.2-6.4,2.2c-5.6,0-10.2-4.4-10.2-9.9c0-5.4,4.6-9.9,10.2-9.9c2.4,0,4.7,0.8,6.4,2.2l2.2-2.2
			c-2.3-1.9-5.3-3.1-8.6-3.1c-7.3,0-13.2,5.8-13.2,12.9s5.9,12.9,13.2,12.9c3.3,0,6.3-1.2,8.6-3.1L243.7,183.4z"/>
		<path d="M140.9,175.7c0-7.1-5.6-12.8-12.5-12.8c-3.7,0-7.1,1.6-9.4,4.4v-4.4h-3V198h3v-13.8c2.4,2.9,5.8,4.5,9.4,4.5
			C135.3,188.7,140.9,182.8,140.9,175.7z M128.4,185.6c-5.1,0-9.2-4.2-9.4-9.5v-0.4c0-5.4,4.2-9.8,9.4-9.8c5.2,0,9.4,4.4,9.4,9.8
			C137.8,181.2,133.6,185.6,128.4,185.6z"/>
		<path d="M163.6,162.9v15.3c0,4.2-3.3,7.5-7.6,7.6c-4.2-0.1-7.5-3.4-7.5-7.6v-15.3h-3v15.3c0,5.8,4.7,10.6,10.5,10.6
			s10.6-4.7,10.6-10.6v-15.3H163.6z"/>
		<path d="M185.1,162.9c-3.7,0-7.1,1.6-9.4,4.5v-12.1h-3v33.4h3v-4.5c2.3,2.8,5.7,4.4,9.4,4.4c6.9,0,12.5-5.8,12.5-12.8
			C197.6,168.7,192,162.9,185.1,162.9z M194.5,175.8c0,5.4-4.2,9.8-9.4,9.8s-9.4-4.4-9.4-9.8v-0.4c0.2-5.3,4.3-9.5,9.4-9.5
			C190.3,165.9,194.5,170.3,194.5,175.8z"/>
		<path d="M216.6,159.2c1.1,0,1.9-0.9,1.9-1.9c0-1.1-0.9-1.9-1.9-1.9c-1.1,0-1.9,0.9-1.9,1.9C214.6,158.3,215.5,159.2,216.6,159.2z"
			/>
		<rect x="215.1" y="162.9" width="3" height="25.8"/>
		<path d="M254.5,159.2c1.1,0,1.9-0.9,1.9-1.9c0-1.1-0.9-1.9-1.9-1.9c-1.1,0-1.9,0.9-1.9,1.9S253.5,159.2,254.5,159.2z"/>
		<rect x="253" y="162.9" width="3" height="25.8"/>
		<path d="M278.6,176.2c0,0-0.8-0.6-1.6-1c-0.9-0.4-2.1-0.8-4.6-1.4c-0.3-0.1-0.7-0.2-1-0.2c-1.7-0.4-3-1-4-1.7
			c-0.9-0.8-1.3-1.5-1.2-2.4c0-1,0.6-1.9,1.6-2.6c1.1-0.8,2.8-1.3,4.7-1.2c2.1,0.1,3.8,1.2,5.5,2.4l0.2,0.1l2.2-2.1
			c-0.3-0.3-0.3-0.3-1.1-0.8c-1.7-1.2-3.9-2.4-6.7-2.5c-2.5-0.1-4.7,0.4-6.4,1.5c-1.9,1.3-3,3.1-3.1,5c0,1.4,0.3,2.8,1.7,4.2
			c1.7,1.7,4.4,2.5,6.9,3c2.1,0.4,4.1,1.2,5,2c1.2,1.1,1.6,1.9,1.6,3s-0.7,2.1-1.9,2.8c-1.2,0.9-2.9,1.4-4.7,1.3
			c-2.3-0.1-4.8-1.1-7.2-3l-0.2-0.1l-2.2,2l0.2,0.2c2.8,2.5,5.9,3.8,9.2,4c2.4,0.1,4.6-0.5,6.5-1.8c2-1.4,3.1-3.2,3.2-5.2
			C281.4,179.6,280.4,177.5,278.6,176.2z"/>
		<rect x="203.2" y="155.3" width="3" height="33.4"/>
	</g>
	<g>
		<path class="st1" d="M323.6,162.3l-1.9-6l-4.6-0.4l-0.6-1.7l16.9,1.7L320.7,167l-0.5-1.7L323.6,162.3z M324.9,161.2l4.9-4.2
			l-6.4-0.6L324.9,161.2z"/>
		<path class="st1" d="M336.4,169.6l-14.6,3.1l-0.4-1.6L336,168L336.4,169.6z"/>
		<path class="st1" d="M329,194.7c0.6,0.5,1.3,1,2,1.6l-0.9,1.2c-0.8-0.5-1.5-1.1-2.3-1.8l-3.1,2.7l-0.1-2.1l2-1.7
			c-1.6-1.6-2.5-3.2-2.6-4.6c-0.1-2.3,1.6-4.4,3.9-4.5c1.9-0.1,3,0.6,4.9,3.3l0.2,0.3c1.4-1.1,2.1-1.6,3.1-1.6
			c1.8-0.1,3.2,1.2,3.3,3.1c0.1,1.8-1.2,3.2-2.8,3.3c-1.3,0.1-2.1-0.4-3.8-2.4L329,194.7z M331.8,190.1L331,189c-1-1.3-2-2-3-1.9
			c-1.5,0.1-2.7,1.4-2.6,2.8c0.1,1,0.8,2.3,2.3,3.7L331.8,190.1z M334.1,190.6c1.2,1.5,1.5,1.7,2.4,1.6c0.9,0,1.5-0.8,1.4-1.7
			c0-0.9-0.8-1.6-1.7-1.5c-0.5,0-0.9,0.2-1.4,0.7l-0.9,0.7L334.1,190.6z"/>
		<path class="st1" d="M338.8,212.6l-0.4,3c-0.2,1.3-0.5,2.4-1,3.3c-0.5,0.9-1.1,1.7-2,2.3c-1.6,1.2-3.4,1.6-5.5,1.3
			s-3.7-1.2-4.9-2.8c-0.7-0.9-1.1-1.8-1.3-2.8c-0.2-0.9-0.2-2.1,0-3.4l0.4-3L338.8,212.6z M325.3,212.4l-0.2,1.4
			c-0.3,2,0.1,3.6,1.1,4.8c0.9,1.2,2.2,2,3.9,2.2c1.7,0.2,3.1-0.1,4.4-1s2.1-2.4,2.3-4.4l0.2-1.4L325.3,212.4z"/>
		<path class="st1" d="M323.5,234.8l1.6-6.1l-3.6-2.8l0.5-1.8l13.3,10.5l-16.8,2.5l0.5-1.8L323.5,234.8z M325.2,234.5l6.4-0.9
			l-5.1-3.9L325.2,234.5z"/>
		<path class="st1" d="M328.6,248.3l-12.5-4.7l0.6-1.5l12.5,4.7l1.3-3.4l1.4,0.5l-3.1,8.3l-1.4-0.5L328.6,248.3z"/>
		<path class="st1" d="M313.6,259.2l2.8-5.6l-3-3.5l0.8-1.6l11,13l-17-0.9l0.8-1.6L313.6,259.2z M315.3,259.3l6.5,0.4l-4.2-4.9
			L315.3,259.3z"/>
		<path class="st1" d="M307.8,280.4c-1,1.4-3,1.6-4.3,0.6c-1.4-1-1.6-2.9-0.6-4.3s2.9-1.6,4.3-0.6
			C308.5,277.2,308.8,279.1,307.8,280.4z"/>
		<path class="st1" d="M290.4,301.2c1.4,0.4,2.1,0.2,3-0.5c1-0.9,1.2-2.4,0.2-3.4c-0.6-0.7-1.6-0.7-3.1-0.2l-1.5,0.5
			c-2.5,0.8-3.9,0.7-5.3-0.7c-1.7-1.9-1.6-4.8,0.3-6.6c1.7-1.6,3.9-1.7,6-0.3l-0.9,1.4c-1.5-1-2.9-1-4.1,0.1s-1.3,3-0.2,4.2
			c0.9,0.9,1.8,1,3.7,0.3l1.4-0.4c2.3-0.7,3.6-0.6,4.7,0.6c1.5,1.6,1.3,4.1-0.4,5.7c-1.2,1.1-2.7,1.4-4.4,0.9L290.4,301.2z"/>
		<path class="st1" d="M282.2,309.7l-8.1-10.6l1.3-1l8.1,10.6l2.9-2.2l0.9,1.2l-7.1,5.4l-0.9-1.2L282.2,309.7z"/>
		<path class="st1" d="M260.5,308l1.7-1.1l7.3,3.2l0.4-0.2l-3.4-5.6l1.4-0.9l7.8,12.7l-2,1.3c-3.1,1.9-5.3,1.3-6.6-0.8
			c-1.2-1.9-0.7-4.1,1-5.4L260.5,308z M270.6,311.2l-0.9,0.5c-1.8,1.1-2.3,2.5-1.4,4s2.3,1.7,4.2,0.5l0.8-0.5L270.6,311.2z"/>
		<path class="st1" d="M251.1,317.4l5.7-2.7l-0.2-4.6l1.6-0.8l0.5,17l-12.8-11.2l1.6-0.8L251.1,317.4z M252.4,318.5l4.8,4.3
			l-0.3-6.4L252.4,318.5z"/>
		<path class="st1" d="M244.3,329.8l-4.5-12.6l1.6-0.6l4.5,12.6l3.4-1.2l0.5,1.4l-8.4,3l-0.5-1.5L244.3,329.8z"/>
		<path class="st1" d="M228.2,334.4l5.9-1.5l-1.1-4.3l-5.7,1.4l-0.4-1.5l5.7-1.4l-1.4-5.6l-5.9,1.5l-0.4-1.5l7.5-1.9L236,334
			l-7.5,1.9L228.2,334.4z"/>
		<path class="st1" d="M213.6,330.9l-6.2,0.8v-0.4c-0.2-1.5-0.1-2.8,0.3-3.8c0.9-2.3,3.2-4,5.8-4.3c4.2-0.5,8,2.5,8.5,6.7
			c0.5,4.3-2.5,8.1-6.7,8.6c-2.5,0.3-4.4-0.4-6.6-2.5l1.1-1.3c1.8,1.8,3.3,2.4,5.3,2.2c3.4-0.4,5.7-3.5,5.3-6.9s-3.6-5.7-6.7-5.3
			c-2.6,0.3-4.8,2.5-4.6,5.2l4.4-0.5L213.6,330.9z"/>
		<path class="st1" d="M199.3,330.6l4.9,8.5h-1.9l-3.8-6.7l-3.9,6.6h-1.9l5-8.5v-6.4h1.7L199.3,330.6z"/>
		<path class="st1" d="M174.9,332.8c-1.7-0.3-2.8-1.9-2.5-3.6s1.9-2.8,3.6-2.5s2.8,1.9,2.5,3.5C178.2,332,176.6,333.1,174.9,332.8z"
			/>
		<path class="st1" d="M147.9,328.1l5.7,2l1.5-4.2l-5.5-2l0.5-1.5l5.5,2l1.9-5.5l-5.7-2l0.5-1.5l7.3,2.6l-5,14l-7.3-2.6L147.9,328.1
			z"/>
		<path class="st1" d="M140.3,318.6l0.4,8.2L139,326l-0.3-6.4l-5.3,3.6l-1.7-0.8l6.8-4.6L138,309l1.7,0.8l0.4,7l5.8-4l1.7,0.8
			L140.3,318.6z"/>
		<path class="st1" d="M132.9,305.9l-8,12.5l-2.3-1.5c-2.8-1.8-3.5-4.1-2.1-6.3c1.4-2.2,3.8-2.5,6.2-1l1.2,0.8l3.5-5.5L132.9,305.9z
			 M127.1,311.7L126,311c-1.7-1.1-3.2-0.9-4.1,0.5c-0.9,1.5-0.5,2.8,1.4,4l1,0.7L127.1,311.7z"/>
		<path class="st1" d="M107,303.4l4.7,3.8l2.8-3.4l-4.5-3.7l1-1.2l4.5,3.7l3.7-4.5l-4.7-3.8l1-1.2l6,4.9l-9.4,11.5l-6-4.9L107,303.4
			z"/>
		<path class="st1" d="M104.4,282.3l1.4,1.4l-1.6,7.8l0.3,0.3l4.7-4.5l1.2,1.2l-10.7,10.3l-1.7-1.7c-2.5-2.6-2.5-4.9-0.6-6.6
			c1.6-1.5,3.8-1.6,5.5-0.1L104.4,282.3z M103.5,292.8l-0.7-0.7c-1.5-1.5-3-1.7-4.2-0.5c-1.3,1.2-1.1,2.6,0.4,4.2l0.7,0.7
			L103.5,292.8z"/>
		<path class="st1" d="M87.7,285.3l11.7-9.2l1,1.3l-11.7,9.3L87.7,285.3z"/>
		<path class="st1" d="M79.3,270.7l3.3,5.1l3.7-2.4l-3.2-4.9l1.3-0.8l3.2,4.9l4.9-3.2l-3.3-5.1l1.3-0.8l4.2,6.5l-12.5,8l-4.2-6.5
			L79.3,270.7z"/>
		<path class="st1" d="M87.1,257.6L73,264.1l6.1-15.6l-10.5,4.9l-0.7-1.5l14.1-6.6L76,261l10.4-4.8L87.1,257.6z"/>
		<path class="st1" d="M64.9,232c-0.9,1.7-1,3.3-0.6,4.8c0.9,3.1,4.4,5,7.6,4c3.4-1,5.1-4.5,4.2-7.5c-0.5-1.5-1.5-2.8-3.2-3.7l2-0.6
			c1.3,1.1,2.2,2.4,2.7,3.9c1.2,4-1,8.3-5.2,9.6c-4,1.2-8.4-1.2-9.6-5.2c-0.5-1.5-0.4-3.1,0.1-4.7L64.9,232z"/>
		<path class="st1" d="M60.4,217.9l1,5.9l4.4-0.7l-1-5.8l1.5-0.3l1,5.8l5.7-1l-1-5.9l1.5-0.3l1.3,7.6l-14.7,2.5l-1.3-7.6L60.4,217.9
			z"/>
		<path class="st1" d="M61.8,198.8c0-1.7,1.4-3.1,3.1-3.1c1.7,0,3.1,1.4,3.1,3.1c0,1.7-1.4,3.1-3.1,3.1
			C63.2,201.9,61.8,200.5,61.8,198.8z"/>
		<path d="M62.5,170.2l-1,5.9l3.5,0.6l1-5.7l2.1,0.4l-1,5.7L72,178l1-5.9l2.1,0.4l-1.4,8.1L59,177.9l1.4-8.1L62.5,170.2z"/>
		<path d="M76.3,167.1l-15.2-4.8l14.1-6.9l-9.9-3.1l0.7-2.1l15.1,4.7l-14.1,7l10,3.1L76.3,167.1z"/>
		<path d="M78.9,138.6l2.7-5.5l0.4,0.2c1,0.5,1.9,1,2.5,1.7c2.2,2.2,2.5,5.3,1.2,7.9c-1.8,3.8-6.4,5.3-10.2,3.4
			c-4-1.9-5.5-6.6-3.6-10.4c1.1-2.1,2.6-3.4,5.4-4.1l0.7,2.1c-2,0.4-3.4,1.4-4.1,2.9c-1.4,2.8-0.2,6.1,2.6,7.5
			c2.9,1.4,6.2,0,7.4-2.4c1-2,0.3-4.6-1.5-5.7l-1.6,3.3L78.9,138.6z"/>
		<path d="M80.1,122.1l12.6,8l-1.2,1.9l-12.6-8L80.1,122.1z"/>
		<path d="M96,124.9L83.6,115l15.6-1.4l-8.1-6.5l1.4-1.8l12.3,9.9l-15.6,1.4l8.1,6.5L96,124.9z"/>
		<path d="M105.5,95.5l-4.3,4.1l2.5,2.6l4.2-4l1.5,1.5l-4.2,4l3.4,3.6l4.3-4.1l1.5,1.5l-5.9,5.7L98.1,99.6l5.9-5.7L105.5,95.5z"/>
		<path d="M117.3,86l-4.7,3.6l2.2,2.8l4.6-3.5l1.3,1.7l-4.6,3.5l3,3.9l4.7-3.6l1.3,1.7l-6.5,5l-9.1-11.8l6.5-5L117.3,86z"/>
		<path d="M137.9,88.1l-2.3,1.4l-6.8-3l-0.4,0.2l3.2,5.2l-1.9,1.2L122,80.4l2.3-1.4c1.8-1.1,3.3-1.4,4.5-1.2c1.2,0.2,2.1,1,2.7,2
			c1.1,1.8,0.8,3.9-0.7,5.3L137.9,88.1z M127.4,85l0.6-0.4c1.8-1.1,2.3-2.4,1.5-3.7c-0.8-1.3-2.1-1.4-3.8-0.4l-0.7,0.4L127.4,85z"/>
		<path d="M137.8,71.5l6.5,13.4l-2,1l-6.5-13.4L137.8,71.5z"/>
		<path d="M149.9,82.3l-5.4-15l14.1,7l-3.5-9.7l2.1-0.8l5.3,14.9l-14-7l3.5,9.8L149.9,82.3z"/>
		<path d="M174.2,67.2l6-1.2l0.1,0.5c0.2,1.1,0.3,2.1,0.2,3c-0.4,3.1-2.8,5.2-5.6,5.7c-4.1,0.8-8.1-1.9-8.9-6.1
			c-0.8-4.3,1.9-8.3,6.1-9.1c2.3-0.5,4.3,0.1,6.6,1.8l-1.3,1.8c-1.5-1.4-3.1-1.9-4.8-1.5c-3.1,0.6-5,3.5-4.4,6.6
			c0.6,3.2,3.7,5,6.4,4.5c2.2-0.4,3.8-2.5,3.6-4.6l-3.6,0.7L174.2,67.2z"/>
		<path class="st1" d="M199.4,62c1.7,0,3.1,1.4,3.1,3.1s-1.4,3-3.1,3c-1.7,0-3-1.4-3-3.1C196.3,63.4,197.7,62,199.4,62z"/>
		<path class="st1" d="M217.8,74.2l2.7-14.6l2.7,0.5c3.2,0.6,4.8,2.4,4.3,5c-0.5,2.5-2.6,3.8-5.4,3.3l-1.4-0.3l-1.2,6.4L217.8,74.2z
			 M220.9,66.6l1.3,0.2c2,0.4,3.3-0.4,3.6-2.1c0.3-1.7-0.6-2.8-2.8-3.2l-1.2-0.2L220.9,66.6z"/>
		<path class="st1" d="M238,79l-1.9-0.6l-2.5-7.5l-0.4-0.1l-1.8,6.3l-1.6-0.5l4.1-14.3l2.3,0.7c3.5,1,4.6,3,3.9,5.5
			c-0.6,2.1-2.5,3.3-4.7,2.9L238,79z M233.6,69.4l1,0.3c2,0.6,3.4,0,3.9-1.7s-0.3-2.8-2.5-3.5l-0.9-0.3L233.6,69.4z"/>
		<path class="st1" d="M254.5,69.2c3.8,1.6,5.7,6.3,4,10.1c-1.7,3.9-6.3,5.6-10.2,4c-3.7-1.6-5.7-6.1-4-10.2
			C246,69.3,250.6,67.5,254.5,69.2z M248.9,81.9c3.1,1.3,6.7-0.2,8-3.2c1.4-3.1-0.1-6.7-3.1-8s-6.7,0.1-8,3.1
			C244.5,77,246,80.6,248.9,81.9z"/>
		<path class="st1" d="M267.6,75.9l2.6,1.6c1.1,0.7,2,1.4,2.6,2.2c0.6,0.8,1.1,1.7,1.3,2.7c0.5,1.9,0.1,3.8-1,5.6s-2.6,2.9-4.5,3.4
			c-1.1,0.2-2.1,0.3-3.1,0.1c-0.9-0.2-2-0.6-3.2-1.3l-2.6-1.6L267.6,75.9z M262.1,88.1l1.2,0.8c1.7,1,3.3,1.4,4.9,1
			c1.5-0.4,2.7-1.3,3.6-2.7c0.9-1.4,1.1-2.9,0.8-4.4c-0.3-1.6-1.4-2.9-3.1-3.9l-1.2-0.8L262.1,88.1z"/>
		<path class="st1" d="M284,86.7l-5.7,7.1c-0.8,0.9-1.4,1.8-1.4,2.9s0.6,2.2,1.5,2.9c0.8,0.7,2,1,3.1,0.8c1-0.2,1.7-1.1,2.5-2
			l5.7-7.1l1.3,1l-6,7.5c-0.9,1.1-2,2-3.5,2.2s-2.9-0.2-4.2-1.2c-1.3-1-2-2.3-2.1-3.8c-0.1-1.4,0.5-2.7,1.4-3.9l6-7.5L284,86.7z"/>
		<path class="st1" d="M302.2,108c0-1.9-0.6-3.4-1.7-4.6c-2.3-2.4-6.2-2.4-8.6-0.1c-2.6,2.5-2.5,6.3-0.3,8.6
			c1.1,1.2,2.6,1.8,4.5,1.9l-1.5,1.4c-1.7-0.3-3-1.1-4.1-2.2c-2.9-3-2.9-7.8,0.3-10.9c3-2.9,8-2.7,10.9,0.3c1.1,1.2,1.8,2.6,2,4.3
			L302.2,108z"/>
		<path class="st1" d="M309.7,114.7l-10.6,8.1l-1-1.3l10.6-8.1l-2.2-2.9l1.2-0.9l5.4,7l-1.2,0.9L309.7,114.7z"/>
		<path class="st1" d="M319.3,134.7c0.8,1.5,0.2,3.4-1.3,4.2s-3.4,0.2-4.1-1.3c-0.8-1.5-0.2-3.3,1.3-4.1
			C316.6,132.6,318.5,133.2,319.3,134.7z"/>
	</g>
</g>
</svg>
