<?xml version="1.0" encoding="UTF-8"?>
<svg width="4272px" height="1143px" viewBox="0 0 4272 1143" version="1.1" xmlns="http://www.w3.org/2000/svg" xmlns:xlink="http://www.w3.org/1999/xlink">
    <!-- Generator: Sketch 41.2 (35397) - http://www.bohemiancoding.com/sketch -->
    <title>qonto</title>
    <desc>Created with Sketch.</desc>
    <defs></defs>
    <g id="Page-1" stroke="none" stroke-width="1" fill="none" fill-rule="evenodd">
        <g id="qonto">
            <path d="M1583.729,507.386 C1583.729,444.426 1583.189,381.446 1584.149,318.496 C1584.359,304.556 1579.649,299.896 1567.019,297.846 C1518.709,290.016 1470.189,286.016 1421.529,292.386 C1349.199,301.846 1297.399,340.676 1270.939,408.476 C1240.649,486.096 1243.739,565.606 1268.679,644.076 C1283.419,690.456 1312.569,727.066 1358.839,744.726 C1436.549,774.386 1509.409,759.156 1577.169,714.046 C1581.019,711.476 1583.419,704.056 1583.459,698.866 C1583.879,635.036 1583.729,571.216 1583.729,507.386 M1698.139,1121.926 C1660.499,1128.806 1622.939,1135.676 1583.899,1142.806 L1583.899,819.216 C1578.799,821.556 1575.439,822.986 1572.179,824.616 C1486.889,867.316 1398.809,875.036 1309.249,841.366 C1237.039,814.206 1187.869,761.216 1160.279,690.186 C1121.689,590.796 1117.019,488.756 1151.939,387.606 C1191.149,274.026 1274.059,209.886 1391.749,191.486 C1468.519,179.476 1544.889,187.946 1620.599,202.966 C1643.409,207.496 1666.069,212.806 1688.879,217.336 C1696.519,218.846 1699.059,222.186 1699.059,230.256 C1698.829,524.586 1698.869,818.916 1698.839,1113.246 C1698.839,1115.786 1698.439,1118.326 1698.139,1121.926" id="Fill-1" fill="#3D4E5C"></path>
            <path d="M3784.623,523.421 C3784.653,576.041 3792.623,628.261 3819.763,676.321 C3881.583,785.771 4024.683,779.291 4086.233,713.481 C4119.233,678.221 4137.413,636.141 4144.363,589.111 C4154.403,521.181 4153.303,453.741 4124.273,390.021 C4095.103,326.001 4046.283,288.611 3973.693,286.411 C3903.043,284.281 3850.963,314.391 3816.923,375.951 C3791.823,421.371 3784.963,470.981 3784.623,523.421 M3663.123,523.591 C3663.703,449.591 3679.343,379.801 3719.393,316.761 C3766.643,242.381 3834.813,199.251 3921.533,187.201 C4005.253,175.571 4083.143,192.181 4150.703,245.151 C4211.793,293.041 4246.203,357.981 4261.233,432.731 C4278.513,518.601 4275.043,603.841 4238.673,684.931 C4188.513,796.781 4101.553,856.991 3978.583,862.121 C3890.043,865.811 3812.783,837.831 3751.803,772.141 C3700.763,717.171 3674.913,650.411 3666.793,576.461 C3664.853,558.911 3664.303,541.211 3663.123,523.591" id="Fill-3" fill="#3E4F5D"></path>
            <path d="M2311.898,529.339 C2311.968,462.649 2299.698,413.049 2276.418,370.549 C2215.198,258.789 2051.948,260.679 1989.478,358.109 C1964.338,397.309 1951.708,439.979 1948.148,485.669 C1943.528,545.169 1946.808,603.909 1972.838,658.949 C2002.608,721.889 2051.368,758.329 2122.348,760.569 C2192.668,762.789 2245.138,732.579 2279.208,670.869 C2304.538,624.989 2310.938,574.889 2311.898,529.339 M2433.138,523.489 C2432.568,601.699 2415.268,674.939 2370.188,739.919 C2322.338,808.919 2256.038,848.669 2173.028,859.549 C2091.568,870.219 2015.708,854.889 1949.328,804.519 C1885.148,755.809 1849.348,688.899 1834.178,611.249 C1817.638,526.589 1822.608,442.999 1856.998,362.679 C1911.608,235.149 2027.958,175.379 2154.058,184.969 C2230.398,190.789 2295.908,220.239 2347.228,277.579 C2394.668,330.589 2419.748,394.089 2428.518,464.199 C2430.968,483.849 2431.658,503.719 2433.138,523.489" id="Fill-5" fill="#3D4E5C"></path>
            <path d="M3081.244,846.199 L2965.264,846.199 L2965.264,831.209 C2965.164,715.959 2965.734,600.689 2964.494,485.449 C2964.164,455.479 2960.364,425.109 2954.294,395.729 C2940.854,330.709 2906.064,299.949 2840.134,290.589 C2802.884,285.309 2713.594,291.249 2674.834,301.779 L2674.834,845.799 L2558.724,845.799 L2558.724,832.339 C2558.724,632.479 2558.814,432.619 2558.484,232.759 C2558.464,222.409 2560.774,217.809 2571.474,215.409 C2656.394,196.449 2742.004,184.119 2829.264,186.529 C2878.024,187.869 2925.414,195.449 2968.584,220.149 C3028.034,254.169 3058.694,308.099 3070.264,373.219 C3076.654,409.139 3080.354,445.979 3080.744,482.449 C3082.034,600.709 3081.234,718.999 3081.244,837.269 L3081.244,846.199 Z" id="Fill-7" fill="#3E4F5D"></path>
            <path d="M3591.898,729.871 C3599.418,761.981 3606.668,792.921 3614.558,826.591 C3594.338,833.371 3574.378,840.971 3553.888,846.751 C3492.478,864.101 3430.128,865.821 3368.358,850.681 C3294.688,832.621 3253.698,781.821 3239.778,709.301 C3233.388,676.031 3229.658,641.731 3229.488,607.861 C3228.498,414.491 3228.948,221.111 3228.918,27.731 C3228.918,25.591 3229.098,23.451 3229.258,19.841 C3267.228,13.291 3305.228,6.741 3344.308,0.001 L3344.308,199.341 L3588.438,199.341 L3588.438,297.061 L3345.668,297.061 C3345.278,300.461 3344.758,302.871 3344.758,305.291 C3344.838,408.011 3344.708,510.741 3345.328,613.471 C3345.438,631.471 3347.598,649.651 3350.688,667.421 C3361.318,728.661 3393.718,757.041 3455.828,758.001 C3508.868,758.831 3523.688,757.271 3591.898,729.871" id="Fill-9" fill="#3E4F5D"></path>
            <path d="M371.259,536.61 C364.139,737.39 186.239,906.43 0.739,907.82 C4.619,724.14 163.159,545.3 371.259,536.61" id="Fill-11" fill="#8064ED"></path>
            <path d="M370.883,494.149 C177.153,487.679 7.783,322.249 0.003,121.439 C92.423,127.629 173.183,160.819 241.193,223.029 C320.303,295.409 362.903,385.809 370.883,494.149" id="Fill-13" fill="#8064ED"></path>
            <path d="M783.695,908.045 C591.875,904.145 419.565,732.665 414.955,537.305 C606.905,540.955 778.675,712.525 783.695,908.045" id="Fill-15" fill="#8064ED"></path>
            <path d="M414.696,495.491 C420.946,303.401 582.806,130.661 784.866,122.251 C780.026,210.621 749.306,288.451 692.586,355.341 C620.276,440.611 527.616,487.011 414.696,495.491" id="Fill-17" fill="#8064ED"></path>
        </g>
    </g>
</svg>