<?xml version="1.0" encoding="UTF-8"?>
<svg width="96px" height="32px" viewBox="0 0 96 32" version="1.1" xmlns="http://www.w3.org/2000/svg" xmlns:xlink="http://www.w3.org/1999/xlink">
    <!-- Generator: Sketch 49.2 (51160) - http://www.bohemiancoding.com/sketch -->
    <title>Logo SFEIR</title>
    <desc>Created with Sketch.</desc>
    <defs></defs>
    <g id="Symbols" stroke="none" stroke-width="1" fill="none" fill-rule="evenodd">
        <g id="Main-Menu-page-contenu" transform="translate(-38.000000, -12.000000)">
            <g id="Main-Menu-fond-Blanc" transform="translate(38.000000, 12.000000)">
                <g id="Logo-SFEIR-Copy-2">
                    <g id="SFEIRLogoBleuFULL">
                        <path d="M22.8803536,7.02280992 C22.5845304,8.1966281 22.3173481,9.25752066 22.0432707,10.3430083 C21.3781657,10.2037686 20.745547,10.0465455 20.1043094,9.9431405 C18.7896133,9.73236364 17.4718674,9.72046281 16.199337,10.1586777 C15.7371263,10.3167714 15.3062932,10.5544642 14.9264088,10.8609587 C14.0220994,11.606876 14.1235359,12.9175537 15.1385635,13.5016198 C15.705812,13.8029028 16.2999838,14.0508069 16.9133702,14.2421157 C18.353768,14.7408926 19.8368619,15.1280661 21.241326,15.7098843 C23.544663,16.662876 24.8612155,18.3833388 24.8527293,20.9375207 C24.8442431,23.5136529 23.5253039,25.2614876 21.2431823,26.3522645 C19.359116,27.2528926 17.3529282,27.3289256 15.318895,27.1809587 C13.930781,27.0975306 12.5694305,26.7631936 11.3012155,26.1942479 C11.0104309,26.0602975 10.8847293,25.9375868 10.9750276,25.5743471 C11.217547,24.6031074 11.3960221,23.6162645 11.6124199,22.5748099 C11.8160884,22.6745124 11.9851492,22.7580826 12.1550055,22.8412562 C14.2114475,23.8427769 16.3705193,24.1900165 18.608884,23.6803967 C19.2858803,23.5121528 19.9213959,23.2080933 20.4766409,22.7867769 C21.0218547,22.3929643 21.3295903,21.750283 21.2939585,21.079874 C21.2583268,20.4094649 20.8841908,19.8028252 20.3002873,19.4686942 C19.4891934,18.9913388 18.584221,18.6579835 17.696221,18.3242314 C16.7150055,17.9553058 15.6991823,17.6784132 14.7108066,17.3281322 C12.9525746,16.7066446 11.5588508,15.6781488 10.998895,13.8115702 C10.1672486,11.0368264 11.5066077,8.41785124 14.3655249,7.23252893 C16.0028287,6.55338843 17.727779,6.36442975 19.4772597,6.52099174 C20.600221,6.62135537 21.7112486,6.8458843 22.8798232,7.02347107 L22.8803536,7.02280992 Z M39.5315801,0.762181818 C39.216663,1.7368595 38.9216354,2.6471405 38.6315138,3.54472727 C37.7661878,3.3877686 36.9342762,3.18677686 36.0921547,3.09923967 C35.4526041,3.03767014 34.8079765,3.05227435 34.1718895,3.1427438 C33.5430466,3.20714255 33.0377305,3.68799775 32.943779,4.31140496 C32.7931492,5.22300826 32.7573481,6.1532562 32.6670497,7.13110744 L37.6739006,7.13110744 L37.6739006,10.6247934 L32.7179669,10.6247934 L32.7179669,26.5142479 L29.1893039,26.5142479 L29.1893039,10.6499174 L26.7721989,10.6499174 L26.7721989,7.15517355 L29.175779,7.15517355 C29.1969945,6.77910744 29.1956685,6.44826446 29.2399558,6.1237686 C29.3641989,5.18796694 29.430232,4.23391736 29.6608177,3.32323967 C30.0812818,1.67127273 31.1705635,0.63061157 32.8644862,0.249256198 C35.1248619,-0.259834711 37.3127072,0.105785124 39.5315801,0.762181818 Z M86.7804199,7.79861157 C86.3318453,8.86333884 85.889105,9.91153719 85.4344309,10.9893554 C85.0414144,10.8390083 84.6670939,10.6973884 84.2940994,10.5529917 C81.8421215,9.60092562 79.7878011,10.2181818 78.0941436,12.1445289 C77.6248932,12.6981534 77.1872513,13.2776699 76.7832928,13.8803306 C76.6810897,14.058609 76.6326543,14.262515 76.6438011,14.4675702 C76.6354917,18.3133003 76.633326,22.1586336 76.6373039,26.0035702 L76.6373039,26.5172893 L73.2784972,26.5172893 L73.2784972,7.17183471 L76.6345193,7.17183471 L76.6345193,10.1256198 C76.8888398,9.78803306 77.0663867,9.54790083 77.2492376,9.31173554 C78.9572155,7.09566942 81.2132155,6.32806612 83.9409945,6.83173554 C84.9330287,7.0012373 85.8915665,7.32759221 86.7804199,7.79847934 L86.7804199,7.79861157 Z M68.8931271,26.5224463 L65.5400221,26.5224463 L65.5400221,10.6534876 L59.9675138,10.6534876 L59.9675138,7.17580165 L68.8935249,7.17580165 L68.8935249,26.5232397 L68.8931271,26.5224463 Z M67.280221,0.0158677686 C68.5098448,0.0189715358 69.5041289,1.01554868 69.5010165,2.24178512 C69.4979042,3.46802157 68.4985741,4.45956654 67.2689503,4.45646281 C66.0810166,4.45170248 65.1066961,3.43563636 65.110011,2.20469421 C65.1036947,1.0028314 66.0750437,0.0231499768 67.280221,0.0158677686 Z" id="BLEU" fill="#054F84"></path>
                        <path d="M7.74974586,28.5584132 L7.74974586,31.9362645 L0.106077348,31.9362645 L0.106077348,1.55345455 L7.73834254,1.55345455 L7.73834254,4.9305124 C7.60282873,4.93804959 7.4559116,4.95272727 7.30846409,4.95312397 C6.22846409,4.95484298 5.14899448,4.97322314 4.06979006,4.94386777 C3.64879558,4.93236364 3.52455249,5.04238017 3.52614365,5.47385124 C3.54179006,10.2110413 3.53476243,14.9486281 3.53476243,19.6862149 C3.53476243,22.472595 3.54298343,25.2592397 3.52707182,28.0460165 C3.52495028,28.4387438 3.6198895,28.5789091 4.03796685,28.5676694 C5.1158453,28.5392397 6.19558011,28.5584132 7.27624309,28.5584132 L7.74974586,28.5584132 Z M95.8939227,31.9549091 L88.2755801,31.9549091 L88.2755801,28.5584132 L89.1109392,28.5584132 C90.078232,28.5584132 91.0468508,28.5410909 92.0133481,28.5666116 C92.3966851,28.5766612 92.4803536,28.4420496 92.4796906,28.0859504 C92.4683757,22.986314 92.4658122,17.8865895 92.472,12.7867769 C92.472,10.3484298 92.4604641,7.91021488 92.4839337,5.47186777 C92.4879116,5.03166942 92.3502762,4.93619835 91.9369724,4.94505785 C90.7321989,4.97044628 89.5287514,4.95365289 88.2812818,4.95365289 L88.2812818,1.5701157 L95.8939227,1.5701157 L95.8939227,31.9549091 Z M56.4114033,18.5417521 L41.2764199,18.5417521 L41.2764199,15.1574215 L56.4114033,15.1574215 L56.4114033,18.5417521 Z M41.2688619,7.19166942 L56.4078232,7.19166942 L56.4078232,10.5408264 L41.2693923,10.5408264 L41.2693923,7.19166942 L41.2688619,7.19166942 Z M56.408884,26.4958678 L41.2684641,26.4958678 L41.2684641,23.1475041 L56.408884,23.1475041 L56.408884,26.4958678 Z" id="ORANGE" fill="#E75112"></path>
                    </g>
                </g>
            </g>
        </g>
    </g>
</svg>