<svg xmlns="http://www.w3.org/2000/svg" viewBox="0 0 608 173.7"><path fill="#95BF47" d="M130.6 33c-.1-.9-.9-1.3-1.5-1.4-.6-.1-13.7-1-13.7-1s-9.1-9-10-10c-1-1-2.9-.7-3.7-.5-.1 0-2 .6-5.1 1.6C93.7 13 88.3 5 78.9 5h-.8c-2.7-3.5-6-5.1-8.8-5.1C47.4 0 37 27.3 33.7 41.2c-8.5 2.6-14.5 4.5-15.3 4.7-4.7 1.5-4.9 1.6-5.5 6.1C12.4 55.5 0 151.5 0 151.5l96.7 18.1 52.4-11.3c0-.1-18.4-124.4-18.5-125.3zm-39.3-9.6c-2.4.8-5.2 1.6-8.2 2.5v-1.8c0-5.4-.8-9.8-2-13.2 4.9.7 8.2 6.2 10.2 12.5zM75.2 12c1.3 3.4 2.2 8.2 2.2 14.7v.9c-5.3 1.6-11.1 3.4-16.9 5.2 3.3-12.4 9.4-18.5 14.7-20.8zm-6.5-6.1c.9 0 1.9.3 2.8.9-7 3.3-14.5 11.6-17.7 28.2-4.6 1.4-9.2 2.8-13.4 4.1C44.2 26.5 53 5.9 68.7 5.9z"></path><path fill="#5E8E3E" d="M129.1 31.6c-.6-.1-13.7-1-13.7-1s-9.1-9-10-10c-.4-.4-.9-.6-1.4-.6l-7.3 149.6 52.4-11.3S130.7 33.9 130.6 33.1c-.1-.9-.9-1.4-1.5-1.5z"></path><path fill="#FFF" d="M78.9 60.6l-6.5 19.2s-5.7-3-12.6-3c-10.2 0-10.7 6.4-10.7 8 0 8.8 22.9 12.1 22.9 32.7 0 16.2-10.3 26.6-24.1 26.6-16.6 0-25.1-10.3-25.1-10.3l4.4-14.7s8.7 7.5 16.1 7.5c4.8 0 6.8-3.8 6.8-6.6 0-11.5-18.8-12-18.8-30.8C31.3 73.4 42.7 58 65.6 58c9 .1 13.3 2.6 13.3 2.6z"></path><path d="M210.2 96.6c-5.2-2.8-7.9-5.2-7.9-8.5 0-4.2 3.7-6.9 9.6-6.9 6.8 0 12.8 2.8 12.8 2.8l4.8-14.6s-4.4-3.4-17.3-3.4c-18 0-30.5 10.3-30.5 24.8 0 8.2 5.8 14.5 13.6 19 6.3 3.6 8.5 6.1 8.5 9.9 0 3.9-3.1 7-9 7-8.7 0-16.9-4.5-16.9-4.5l-5.1 14.6s7.6 5.1 20.3 5.1c18.5 0 31.8-9.1 31.8-25.5.1-8.9-6.6-15.1-14.7-19.8zM284 65.9c-9.1 0-16.3 4.3-21.8 10.9l-.3-.1 7.9-41.4h-20.6l-20 105.3h20.6l6.9-36c2.7-13.6 9.7-22 16.3-22 4.6 0 6.4 3.1 6.4 7.6 0 2.8-.3 6.3-.9 9.1l-7.8 41.2h20.6l8.1-42.6c.9-4.5 1.5-9.9 1.5-13.4-.1-11.6-6.2-18.6-16.9-18.6zm63.4 0c-24.8 0-41.2 22.4-41.2 47.3 0 16 9.9 28.8 28.4 28.8 24.3 0 40.8-21.8 40.8-47.3 0-14.8-8.7-28.8-28-28.8zm-10.1 60.3c-7 0-10-6-10-13.4 0-11.8 6.1-31.1 17.3-31.1 7.3 0 9.7 6.3 9.7 12.4 0 12.7-6.1 32.1-17 32.1zm90.8-60.3c-13.9 0-21.8 12.2-21.8 12.2h-.3l1.2-11H389c-.9 7.5-2.5 18.8-4.2 27.3l-14.3 75.4H391l5.7-30.5h.4s4.2 2.7 12.1 2.7c24.2 0 40-24.8 40-49.9.1-13.8-6.1-26.2-21.1-26.2zm-19.7 60.6c-5.4 0-8.5-3-8.5-3l3.4-19.3c2.4-12.8 9.1-21.4 16.3-21.4 6.3 0 8.2 5.8 8.2 11.3 0 13.4-7.9 32.4-19.4 32.4zm70.3-90.2c-6.6 0-11.8 5.2-11.8 11.9 0 6.1 3.9 10.3 9.7 10.3h.3c6.4 0 11.9-4.3 12.1-11.9 0-6-4-10.3-10.3-10.3zm-28.8 104.2h20.6l14-73h-20.7m73.1-.1h-14.3l.7-3.4c1.2-7 5.4-13.3 12.2-13.3 3.7 0 6.6 1 6.6 1l4-16.1s-3.6-1.8-11.2-1.8c-7.3 0-14.6 2.1-20.2 6.9-7 6-10.3 14.6-11.9 23.3l-.6 3.4h-9.6l-3 15.5h9.6l-10.9 57.6H509l10.9-57.6h14.2l2.8-15.5zm49.6.1s-12.9 32.5-18.7 50.2h-.3c-.4-5.7-5.1-50.2-5.1-50.2h-21.7l12.4 67c.3 1.5.1 2.4-.4 3.4-2.4 4.6-6.4 9.1-11.2 12.4-3.9 2.8-8.2 4.6-11.6 5.8l5.7 17.5c4.2-.9 12.8-4.3 20.2-11.2 9.4-8.8 18.1-22.4 27-40.9l25.2-54h-21.5z"></path></svg>