<?xml version="1.0" encoding="utf-8"?>
<!-- Generator: Adobe Illustrator 16.0.0, SVG Export Plug-In . SVG Version: 6.00 Build 0)  -->
<!DOCTYPE svg PUBLIC "-//W3C//DTD SVG 1.1//EN" "http://www.w3.org/Graphics/SVG/1.1/DTD/svg11.dtd">
<svg version="1.1" id="Ebene_1" xmlns="http://www.w3.org/2000/svg" xmlns:xlink="http://www.w3.org/1999/xlink" x="0px" y="0px"
	 width="306px" height="132px" viewBox="0 0 306 132" enable-background="new 0 0 306 132" xml:space="preserve">
<g>
	<defs>
		<path id="SVGID_1_" d="M92.361,34.7c-0.472,0-0.709,0.225-0.709,0.676v4.497c0.022,0.451,0.258,0.676,0.709,0.676h7.47v23.016
			h-9.192c-0.475,0.023-0.711,0.259-0.711,0.711v4.457c0,0.451,0.236,0.677,0.711,0.677h25.328c0.473,0,0.709-0.226,0.709-0.677
			v-4.457c-0.022-0.474-0.259-0.711-0.709-0.711h-10.294V35.376c-0.022-0.451-0.259-0.676-0.71-0.676H92.361z M205.491,34.7
			c-0.474,0-0.71,0.225-0.71,0.676v4.497c0.021,0.451,0.259,0.676,0.71,0.676h7.47v23.016h-9.193
			c-0.474,0.023-0.71,0.259-0.71,0.711v4.457c0,0.451,0.236,0.677,0.71,0.677h25.328c0.475,0,0.71-0.226,0.71-0.677v-4.457
			c-0.021-0.474-0.259-0.711-0.71-0.711h-10.293V35.376c-0.022-0.451-0.26-0.676-0.71-0.676H205.491z M292.329,34.532
			c-0.692,0-0.916,0.259-1.094,0.722c0,0-0.001,0.002-0.001,0.003l-9.872,25.98l-10.182-25.823c-0.232-0.629-0.51-0.882-1.148-0.882
			h-4.229c-0.492,0-0.822,0.332-0.822,0.823c0,0.201,0.052,0.35,0.102,0.493c0.002,0.006,0.005,0.013,0.007,0.018l13.172,33.533
			l-1.141,2.982c-0.431,0.941-1.237,3.497-2.205,4.84c-0.816,1.133-1.326,1.52-2.189,1.918c-0.504,0.259-1.077,0.401-1.69,0.403
			c-0.242,0-0.479-0.025-0.708-0.068c-0.858-0.154-1.775-0.491-2.602-0.778c-0.509-0.179-0.868-0.434-1.349-0.434
			c-0.396,0-0.824,0.229-0.824,0.887v3.824c0,0.008,0.001,0.016,0.001,0.021c0.004,0.515,0.152,0.937,0.843,1.317
			c1.541,0.702,2.875,1.109,5.121,1.109c1.805-0.131,3.168-0.625,4.641-1.519c1.449-0.879,2.723-2.13,3.787-3.72
			c0.512-0.765,0.947-1.567,1.327-2.376c0.828-1.767,13.385-34.896,15.997-41.958v-0.001c0.082-0.245,0.082-0.419,0.082-0.561
			c0-0.472-0.307-0.755-0.82-0.755H292.329z M171.694,38.726v-3.069c0-0.449-0.226-0.675-0.676-0.675h-4.452
			c-0.472,0-0.707,0.226-0.707,0.675v33.362c0,0.45,0.235,0.675,0.707,0.675h4.452c0.45,0,0.676-0.225,0.676-0.675V48.536
			c0-3.899,2.852-8.272,8.536-8.272c5.684,0,8.535,4.373,8.535,8.272v20.483h-0.002c0.021,0.45,0.258,0.675,0.708,0.675h4.471
			c0.448,0,0.675-0.225,0.675-0.675V48.565v-0.132l-0.003-0.004c-0.034-3.522-1.13-6.849-3.848-9.816
			c-2.424-2.651-6.634-4.197-10.417-4.197C174.231,34.416,171.694,38.726,171.694,38.726 M35.893,44.133
			c0,5.986,3.124,8.969,10.786,10.293l0.213,0.037c5.24,0.928,9.026,1.599,9.026,5.37c0,3.201-3.711,4.659-7.159,4.659
			c-4.28,0-6.92-2.054-7.435-5.782c-0.066-0.454-0.23-0.918-0.955-0.918h-4.331c-0.59,0-0.957,0.367-0.957,0.959
			c0,6.659,5.541,11.311,13.474,11.311c7.933,0,13.474-4.484,13.474-10.906c0-7.026-6.198-8.648-12.007-9.616
			c-7.285-1.203-8.289-3.31-8.289-5.407c0-3.238,3.42-4.388,6.349-4.388c3.991,0,6.38,1.526,7.104,4.534
			c0.129,0.453,0.252,0.88,0.947,0.88h3.788c0.591,0,0.958-0.367,0.958-0.959c0-5.997-5.17-10.025-12.865-10.025
			C39.686,34.175,35.893,39.337,35.893,44.133 M136.376,34.08c-7.874,1.603-13.825,8.977-13.825,17.833
			c0,10.029,7.631,18.159,17.044,18.159c4.314,0,8.251-1.71,11.253-4.525v4.256c0,6.656-3.481,10.321-9.805,10.321
			c-4.783,0-7.703-1.95-8.684-5.802c-0.131-0.461-0.257-0.898-0.968-0.898h-3.925c-0.642,0-0.981,0.338-0.98,1.011
			c0.65,6.763,6.501,11.306,14.557,11.306c9.386,0,15.692-6.27,15.692-15.597v-34.72c0-0.45-0.237-0.674-0.71-0.674h-4.454
			c-0.372,0-0.675,0.302-0.675,0.674v2.905c-2.213-2.092-4.943-3.578-7.958-4.218c-0.324-0.068-0.631,0.171-0.631,0.503v5.249
			c0,0.233,0.158,0.433,0.382,0.496c4.851,1.369,8.429,6.094,8.429,11.715c0,6.693-5.068,12.118-11.32,12.118
			s-11.319-5.425-11.319-12.118c0-5.509,3.434-10.159,8.136-11.63c0.218-0.069,0.369-0.265,0.369-0.494v-5.363
			c0-0.287-0.234-0.516-0.508-0.516C136.443,34.07,136.41,34.072,136.376,34.08 M98.39,24.176c0,2.626,2.13,4.756,4.756,4.756
			c2.625,0,4.755-2.13,4.755-4.756s-2.13-4.755-4.755-4.755C100.52,19.421,98.39,21.55,98.39,24.176 M211.519,24.176
			c0,2.626,2.131,4.756,4.758,4.756c2.625,0,4.755-2.13,4.755-4.756s-2.13-4.755-4.755-4.755
			C213.649,19.421,211.519,21.55,211.519,24.176 M240.216,30.289V34.7h-7.142c-0.643,0-0.982,0.339-0.982,0.982v3.655
			c0,0.641,0.34,0.981,0.982,0.981h7.142v28.11c0,0.643,0.341,0.982,0.984,0.982h3.86c0.644,0,0.983-0.339,0.983-0.982v-28.11h11.06
			c0.643,0,0.981-0.34,0.981-0.981v-3.655c0-0.643-0.339-0.982-0.981-0.982h-11.06v-4.411c0-3.623,1.833-5.786,4.904-5.786
			c2.349,0,4.021,0.553,6.393,2.114c0.279,0.186,0.489,0.186,0.645,0.186c0.465,0,0.777-0.394,0.777-0.981v-3.587
			c0-0.679-0.101-0.992-0.688-1.41c-2.294-1.377-4.476-1.939-7.532-1.939C243.406,18.886,240.216,24.796,240.216,30.289
			 M44.759,18.27c-0.029,0.003-0.059,0.008-0.088,0.01c-17.312,1.898-30.784,16.568-30.784,34.387
			c0,19.106,15.489,34.595,34.596,34.595s34.596-15.488,34.596-34.595c0-17.819-13.472-32.489-30.785-34.387
			c-0.029-0.002-0.058-0.007-0.087-0.01c-0.048-0.003-0.096-0.005-0.147-0.005c-0.237,0-0.495,0.048-0.689,0.237
			c-0.153,0.149-0.23,0.358-0.227,0.622v4.462v0.002c0.001,0.259,0.166,0.459,0.399,0.482c14.444,1.528,25.699,13.746,25.699,28.597
			c0,15.882-12.876,28.758-28.759,28.758c-15.884,0-28.759-12.876-28.759-28.758c0-14.851,11.255-27.069,25.699-28.597
			c0.232-0.023,0.398-0.223,0.399-0.482v-0.002c-0.001,0-0.001-4.462-0.001-4.462c0.003-0.264-0.073-0.473-0.226-0.622
			c-0.195-0.189-0.453-0.237-0.689-0.237C44.856,18.265,44.807,18.267,44.759,18.27"/>
	</defs>
	<clipPath id="SVGID_2_">
		<use xlink:href="#SVGID_1_"  overflow="visible"/>
	</clipPath>
	
		<linearGradient id="SVGID_3_" gradientUnits="userSpaceOnUse" x1="-22" y1="156.1816" x2="-21" y2="156.1816" gradientTransform="matrix(329.8602 -230.9706 -230.9706 -329.8602 43279.0273 46634.3438)">
		<stop  offset="0" style="stop-color:#00E487"/>
		<stop  offset="0.5006" style="stop-color:#00E487"/>
		<stop  offset="1" style="stop-color:#1ECBD0"/>
	</linearGradient>
	<polygon clip-path="url(#SVGID_2_)" fill="url(#SVGID_3_)" points="-18.531,40.964 204.095,-114.92 329.77,64.562 107.144,220.447 
			"/>
</g>
<g>
	<defs>
		<rect id="SVGID_4_" x="-22" y="-17.622" width="355.238" height="173.622"/>
	</defs>
	<clipPath id="SVGID_5_">
		<use xlink:href="#SVGID_4_"  overflow="visible"/>
	</clipPath>
	<path clip-path="url(#SVGID_5_)" fill="#969696" d="M64.798,115.08V99.435c0-0.148,0.075-0.227,0.225-0.234h1.336
		c0.15,0,0.229,0.079,0.236,0.234v6.021c0.472-0.584,1.08-1.052,1.825-1.403s1.484-0.528,2.218-0.528
		c1.246,0,2.226,0.347,2.939,1.038c0.713,0.693,1.07,1.677,1.07,2.949v7.569c0,0.148-0.076,0.225-0.226,0.225h-1.345
		c-0.151,0-0.226-0.076-0.226-0.225v-7.109c0-1.827-0.898-2.74-2.695-2.74c-0.966,0-1.801,0.377-2.504,1.129
		c-0.704,0.753-1.056,1.758-1.056,3.016v5.705c0,0.148-0.079,0.225-0.236,0.225h-1.336C64.873,115.305,64.798,115.229,64.798,115.08
		"/>
	<path clip-path="url(#SVGID_5_)" fill="#969696" d="M76.927,109.528c0-1.698,0.545-3.124,1.634-4.276
		c1.09-1.151,2.462-1.729,4.116-1.729c1.685,0,3.046,0.581,4.082,1.742c1.037,1.16,1.556,2.568,1.556,4.223v0.369
		c0,0.151-0.075,0.226-0.225,0.226h-9.231c0.09,1.135,0.477,2.042,1.162,2.722c0.686,0.678,1.585,1.019,2.701,1.019
		c1.67,0,2.8-0.7,3.392-2.102c0.045-0.134,0.15-0.204,0.314-0.212h1.494c0.105,0,0.161,0.053,0.168,0.157
		c0,0.06-0.015,0.139-0.045,0.236c-0.876,2.426-2.665,3.635-5.368,3.627c-1.729,0-3.12-0.567-4.172-1.702
		C77.453,112.69,76.927,111.259,76.927,109.528 M78.96,108.375h7.423c-0.187-0.947-0.617-1.708-1.291-2.282
		c-0.674-0.574-1.479-0.863-2.415-0.863c-0.921,0-1.72,0.273-2.397,0.818C79.602,106.593,79.162,107.368,78.96,108.375"/>
	<path clip-path="url(#SVGID_5_)" fill="#969696" d="M94.82,115.08v-11.096c0-0.149,0.075-0.225,0.225-0.225h1.336
		c0.15,0,0.229,0.075,0.236,0.225v1.27c0.247-0.473,0.668-0.878,1.264-1.219c0.594-0.341,1.207-0.512,1.835-0.512
		c1.61,0,2.685,0.621,3.224,1.865c0.321-0.555,0.786-1.004,1.392-1.348c0.607-0.345,1.247-0.518,1.921-0.518
		c2.283,0,3.425,1.184,3.425,3.549v8.008c0,0.148-0.079,0.225-0.236,0.225h-1.325c-0.15,0-0.229-0.076-0.236-0.225v-7.693
		c0-1.444-0.696-2.163-2.089-2.156c-0.748,0-1.377,0.365-1.887,1.096c-0.509,0.729-0.763,1.697-0.763,2.901v5.853
		c0,0.148-0.075,0.225-0.225,0.225h-1.336c-0.15,0-0.229-0.076-0.236-0.225v-7.693c0-1.444-0.696-2.163-2.089-2.156
		c-0.748,0-1.375,0.365-1.881,1.096c-0.505,0.729-0.758,1.697-0.758,2.901v5.853c0,0.148-0.079,0.225-0.236,0.225h-1.336
		C94.895,115.305,94.82,115.229,94.82,115.08"/>
	<path clip-path="url(#SVGID_5_)" fill="#969696" d="M111.968,109.528c0-1.698,0.545-3.124,1.634-4.276
		c1.09-1.151,2.462-1.729,4.116-1.729c1.685,0,3.046,0.581,4.082,1.742c1.037,1.16,1.556,2.568,1.556,4.223v0.369
		c0,0.151-0.075,0.226-0.225,0.226H113.9c0.09,1.135,0.477,2.042,1.162,2.722c0.686,0.678,1.585,1.019,2.701,1.019
		c1.67,0,2.8-0.7,3.392-2.102c0.045-0.134,0.15-0.204,0.314-0.212h1.494c0.105,0,0.161,0.053,0.168,0.157
		c0,0.06-0.015,0.139-0.045,0.236c-0.876,2.426-2.665,3.635-5.368,3.627c-1.729,0-3.12-0.567-4.172-1.702
		C112.495,112.69,111.968,111.259,111.968,109.528 M114.001,108.375h7.423c-0.187-0.947-0.617-1.708-1.291-2.282
		c-0.674-0.574-1.479-0.863-2.415-0.863c-0.921,0-1.72,0.273-2.397,0.818C114.644,106.593,114.204,107.368,114.001,108.375"/>
	<path clip-path="url(#SVGID_5_)" fill="#969696" d="M125.098,111.874c0-1.229,0.438-2.179,1.314-2.846s1.995-1.001,3.358-1.001
		c0.981,0,2.063,0.17,3.246,0.508v-0.638c0-0.859-0.242-1.518-0.724-1.978c-0.484-0.459-1.17-0.689-2.061-0.689
		c-1.348,0-2.254,0.584-2.718,1.752c-0.045,0.134-0.15,0.203-0.315,0.203h-1.471c-0.105,0-0.159-0.047-0.163-0.141
		c-0.003-0.095,0.002-0.171,0.017-0.23c0.247-0.951,0.766-1.738,1.555-2.358c0.79-0.621,1.822-0.933,3.095-0.933
		c1.347,0,2.448,0.372,3.301,1.115c0.854,0.743,1.281,1.713,1.281,2.907v5.537c0,0.85,0.13,1.515,0.391,1.994
		c0.031,0.062,0.047,0.1,0.047,0.114c0,0.075-0.06,0.113-0.181,0.113h-1.829c-0.15,0-0.225-0.075-0.225-0.228v-1.211
		c-0.367,0.514-0.885,0.918-1.555,1.217c-0.671,0.297-1.41,0.446-2.219,0.446c-1.1,0-2.066-0.32-2.897-0.962
		C125.514,113.927,125.098,113.028,125.098,111.874 M126.984,111.762c0,0.657,0.215,1.165,0.646,1.522
		c0.43,0.359,1.035,0.538,1.813,0.538c1.011,0,1.859-0.317,2.544-0.953c0.685-0.634,1.028-1.511,1.028-2.631
		c-0.981-0.336-2.026-0.504-3.134-0.504c-0.876,0-1.578,0.17-2.105,0.509C127.249,110.584,126.984,111.09,126.984,111.762"/>
	<path clip-path="url(#SVGID_5_)" fill="#969696" d="M137.766,115.08v-11.096c0-0.149,0.075-0.225,0.225-0.225h1.336
		c0.15,0,0.229,0.075,0.236,0.225v1.314c0.981-1.184,2.253-1.775,3.818-1.775c1.228,0,2.201,0.368,2.92,1.106
		c0.719,0.737,1.078,1.765,1.078,3.083v7.367c0,0.148-0.078,0.225-0.236,0.225h-1.325c-0.15,0-0.228-0.076-0.236-0.225v-7.086
		c0-1.842-0.872-2.764-2.616-2.764c-1.011,0-1.831,0.359-2.46,1.078c-0.629,0.719-0.943,1.756-0.943,3.111v5.66
		c0,0.148-0.079,0.225-0.236,0.225h-1.336C137.841,115.305,137.766,115.229,137.766,115.08"/>
	<path clip-path="url(#SVGID_5_)" fill="#969696" d="M150.277,101.412v-1.978c0-0.148,0.074-0.227,0.224-0.234h1.977
		c0.15,0,0.228,0.079,0.236,0.234v1.978c0,0.149-0.079,0.225-0.236,0.225h-1.977C150.352,101.637,150.277,101.562,150.277,101.412
		 M150.591,115.08v-11.096c0-0.149,0.079-0.225,0.236-0.225h1.336c0.15,0,0.225,0.075,0.225,0.225v11.096
		c0,0.148-0.075,0.225-0.225,0.225h-1.336C150.67,115.305,150.591,115.229,150.591,115.08"/>
	<path clip-path="url(#SVGID_5_)" fill="#969696" d="M155.791,115.08v-11.096c0-0.149,0.075-0.225,0.225-0.225h1.338
		c0.148,0,0.228,0.075,0.234,0.225v1.314c0.981-1.184,2.254-1.775,3.818-1.775c1.229,0,2.201,0.368,2.92,1.106
		c0.719,0.737,1.078,1.765,1.078,3.083v7.367c0,0.148-0.078,0.225-0.235,0.225h-1.325c-0.15,0-0.229-0.076-0.236-0.225v-7.086
		c0-1.842-0.872-2.764-2.616-2.764c-1.011,0-1.831,0.359-2.46,1.078s-0.943,1.756-0.943,3.111v5.66c0,0.148-0.078,0.225-0.234,0.225
		h-1.338C155.866,115.305,155.791,115.229,155.791,115.08"/>
	<path clip-path="url(#SVGID_5_)" fill="#969696" d="M167.742,109.397c0-1.768,0.478-3.188,1.435-4.262
		c0.958-1.074,2.195-1.612,3.714-1.612c1.532,0,2.758,0.502,3.678,1.506v-1.045c0-0.149,0.074-0.225,0.225-0.225h1.336
		c0.15,0,0.229,0.075,0.236,0.225v10.635c0,1.745-0.423,3.093-1.268,4.043c-0.846,0.951-2.087,1.426-3.725,1.426
		c-1.361,0-2.509-0.333-3.444-0.999c-0.934-0.667-1.439-1.584-1.514-2.751c0-0.149,0.074-0.225,0.225-0.225h1.336
		c0.15,0,0.229,0.075,0.236,0.225c0.187,0.688,0.522,1.201,1.009,1.539c0.485,0.336,1.203,0.504,2.152,0.504
		c1.084,0,1.887-0.328,2.41-0.987s0.785-1.568,0.785-2.729v-0.83c-1.069,0.95-2.295,1.426-3.678,1.426
		c-1.488,0-2.719-0.541-3.691-1.623S167.742,111.142,167.742,109.397 M170.559,106.359c-0.621,0.753-0.931,1.766-0.931,3.038
		s0.31,2.283,0.931,3.032c0.62,0.749,1.499,1.123,2.635,1.123c1.088,0,1.953-0.379,2.599-1.135c0.645-0.756,0.967-1.763,0.967-3.021
		s-0.322-2.268-0.967-3.026c-0.646-0.76-1.511-1.141-2.599-1.141C172.058,105.23,171.179,105.607,170.559,106.359"/>
	<path clip-path="url(#SVGID_5_)" fill="#969696" d="M187.267,113.874c-1.112-1.104-1.668-2.553-1.668-4.348
		c0-1.794,0.556-3.243,1.668-4.347c1.111-1.104,2.513-1.656,4.2-1.656c1.688,0,3.088,0.553,4.2,1.656s1.668,2.553,1.668,4.347
		c0,1.795-0.556,3.243-1.668,4.348c-1.112,1.103-2.512,1.655-4.2,1.655C189.779,115.529,188.378,114.977,187.267,113.874
		 M188.592,106.414c-0.737,0.789-1.105,1.826-1.105,3.112c0,1.285,0.368,2.324,1.105,3.112c0.737,0.789,1.695,1.184,2.875,1.184
		c1.179,0,2.138-0.395,2.875-1.184c0.737-0.788,1.106-1.827,1.106-3.112c0-1.286-0.369-2.323-1.106-3.112s-1.696-1.184-2.875-1.184
		C190.287,105.23,189.329,105.625,188.592,106.414"/>
	<path clip-path="url(#SVGID_5_)" fill="#969696" d="M198.582,105.241v-1.256c0-0.15,0.078-0.226,0.234-0.226h1.877v-1.471
		c0-0.967,0.305-1.76,0.915-2.381c0.61-0.622,1.398-0.933,2.364-0.933c0.846,0,1.583,0.146,2.213,0.439
		c0.119,0.061,0.179,0.192,0.179,0.395v1.218c0,0.136-0.045,0.207-0.134,0.215c-0.06,0-0.12-0.015-0.18-0.045
		c-0.672-0.336-1.344-0.507-2.016-0.516c-0.47,0-0.846,0.157-1.125,0.471c-0.28,0.313-0.42,0.746-0.42,1.298v1.31h3.538
		c0.149,0,0.224,0.075,0.224,0.226v1.256c0,0.149-0.074,0.226-0.224,0.226h-3.538v9.613c0,0.149-0.076,0.224-0.227,0.224h-1.345
		c-0.149,0-0.226-0.074-0.226-0.224v-9.613h-1.877C198.66,105.467,198.582,105.391,198.582,105.241"/>
	<path clip-path="url(#SVGID_5_)" fill="#969696" d="M212.936,115.08V99.435c0-0.148,0.075-0.227,0.225-0.234h1.338
		c0.148,0,0.228,0.079,0.234,0.234v15.646c0,0.148-0.078,0.225-0.234,0.225h-1.338C213.011,115.305,212.936,115.229,212.936,115.08"
		/>
	<path clip-path="url(#SVGID_5_)" fill="#969696" d="M218.73,101.412v-1.978c0-0.148,0.074-0.227,0.224-0.234h1.977
		c0.15,0,0.229,0.079,0.236,0.234v1.978c0,0.149-0.079,0.225-0.236,0.225h-1.977C218.805,101.637,218.73,101.562,218.73,101.412
		 M219.044,115.08v-11.096c0-0.149,0.079-0.225,0.236-0.225h1.336c0.15,0,0.225,0.075,0.225,0.225v11.096
		c0,0.148-0.074,0.225-0.225,0.225h-1.336C219.123,115.305,219.044,115.229,219.044,115.08"/>
	<path clip-path="url(#SVGID_5_)" fill="#969696" d="M223.548,109.397c0-1.768,0.479-3.188,1.436-4.262
		c0.958-1.074,2.195-1.612,3.714-1.612c1.532,0,2.758,0.502,3.678,1.506v-1.045c0-0.149,0.074-0.225,0.225-0.225h1.336
		c0.15,0,0.229,0.075,0.236,0.225v10.635c0,1.745-0.423,3.093-1.268,4.043c-0.846,0.951-2.087,1.426-3.725,1.426
		c-1.361,0-2.509-0.333-3.444-0.999c-0.934-0.667-1.439-1.584-1.514-2.751c0-0.149,0.074-0.225,0.225-0.225h1.336
		c0.15,0,0.229,0.075,0.236,0.225c0.187,0.688,0.522,1.201,1.009,1.539c0.485,0.336,1.203,0.504,2.152,0.504
		c1.084,0,1.887-0.328,2.41-0.987s0.785-1.568,0.785-2.729v-0.83c-1.069,0.95-2.295,1.426-3.678,1.426
		c-1.488,0-2.719-0.541-3.691-1.623S223.548,111.142,223.548,109.397 M226.365,106.359c-0.621,0.753-0.931,1.766-0.931,3.038
		s0.31,2.283,0.931,3.032c0.62,0.749,1.499,1.123,2.635,1.123c1.088,0,1.953-0.379,2.599-1.135c0.645-0.756,0.967-1.763,0.967-3.021
		s-0.322-2.268-0.967-3.026c-0.646-0.76-1.511-1.141-2.599-1.141C227.864,105.23,226.985,105.607,226.365,106.359"/>
	<path clip-path="url(#SVGID_5_)" fill="#969696" d="M237.159,115.08V99.435c0-0.148,0.075-0.227,0.226-0.234h1.337
		c0.148,0,0.228,0.079,0.234,0.234v6.021c0.473-0.584,1.08-1.052,1.825-1.403s1.484-0.528,2.218-0.528
		c1.246,0,2.227,0.347,2.939,1.038c0.713,0.693,1.071,1.677,1.071,2.949v7.569c0,0.148-0.077,0.225-0.228,0.225h-1.345
		c-0.15,0-0.226-0.076-0.226-0.225v-7.109c0-1.827-0.898-2.74-2.695-2.74c-0.965,0-1.801,0.377-2.504,1.129
		c-0.704,0.753-1.057,1.758-1.057,3.016v5.705c0,0.148-0.078,0.225-0.234,0.225h-1.337
		C237.234,115.305,237.159,115.229,237.159,115.08"/>
	<path clip-path="url(#SVGID_5_)" fill="#969696" d="M248.738,105.241v-1.256c0-0.15,0.079-0.226,0.236-0.226h2.044v-3.303
		c0-0.149,0.074-0.224,0.225-0.224h1.336c0.15,0,0.229,0.074,0.236,0.224v3.303h3.819c0.148,0,0.224,0.075,0.224,0.226v1.256
		c0,0.149-0.075,0.226-0.224,0.226h-3.819v6.406c0,1.3,0.607,1.949,1.819,1.949c0.815,0,1.542-0.115,2.179-0.349
		c0.06-0.028,0.113-0.044,0.157-0.044c0.104,0,0.162,0.08,0.168,0.237v1.084c0,0.218-0.063,0.35-0.19,0.395
		c-0.688,0.264-1.509,0.392-2.46,0.384c-1.085,0-1.936-0.31-2.549-0.926c-0.614-0.616-0.921-1.471-0.921-2.563v-6.573h-2.044
		C248.817,105.467,248.738,105.391,248.738,105.241"/>
	<path clip-path="url(#SVGID_5_)" fill="#969696" d="M54.1,105.241v-1.256c0-0.15,0.079-0.226,0.236-0.226h2.044v-3.303
		c0-0.149,0.074-0.224,0.225-0.224h1.336c0.15,0,0.228,0.074,0.236,0.224v3.303h3.819c0.149,0,0.224,0.075,0.224,0.226v1.256
		c0,0.149-0.075,0.226-0.224,0.226h-3.819v6.406c0,1.3,0.607,1.949,1.819,1.949c0.816,0,1.542-0.115,2.179-0.349
		c0.06-0.028,0.113-0.044,0.157-0.044c0.105,0,0.162,0.08,0.168,0.237v1.084c0,0.218-0.063,0.35-0.19,0.395
		c-0.689,0.264-1.509,0.392-2.46,0.384c-1.085,0-1.936-0.31-2.549-0.926c-0.614-0.616-0.921-1.471-0.921-2.563v-6.573h-2.044
		C54.179,105.467,54.1,105.391,54.1,105.241"/>
</g>
</svg>
