<?xml version="1.0" encoding="UTF-8" standalone="no"?>
<!-- Created with Inkscape (http://www.inkscape.org/) -->
<svg
   xmlns:dc="http://purl.org/dc/elements/1.1/"
   xmlns:cc="http://web.resource.org/cc/"
   xmlns:rdf="http://www.w3.org/1999/02/22-rdf-syntax-ns#"
   xmlns:svg="http://www.w3.org/2000/svg"
   xmlns="http://www.w3.org/2000/svg"
   xmlns:xlink="http://www.w3.org/1999/xlink"
   xmlns:sodipodi="http://sodipodi.sourceforge.net/DTD/sodipodi-0.dtd"
   xmlns:inkscape="http://www.inkscape.org/namespaces/inkscape"
   width="302"
   height="183"
   id="svg2"
   sodipodi:version="0.32"
   inkscape:version="0.45.1"
   version="1.0"
   inkscape:output_extension="org.inkscape.output.svg.inkscape">
  <g
     inkscape:label="Layer 1"
     inkscape:groupmode="layer"
     id="layer1"
     transform="translate(-426.36532,-582.1445)">
    <path
       id="path5944"
       d="M 558.09048,713.38726 C 558.09048,722.92815 554.35338,728.34414 535.8147,728.34414 C 533.3778,728.34414 531.25981,728.19774 529.15001,727.90504 L 529.15001,601.72508 C 529.15001,592.14989 532.39641,582.1445 551.09859,582.1445 C 553.54388,582.1445 555.81718,582.3596 558.09048,582.8764 L 558.09048,713.38726 z M 518.41272,694.28028 C 518.41272,712.01826 506.86593,724.99455 483.44516,727.53464 C 466.37018,729.36884 441.6492,727.22464 429.94712,725.89004 C 429.45642,723.96985 429.12942,721.58455 429.12942,719.66445 C 429.12942,704.16537 437.42141,700.58347 445.3947,700.58347 C 453.52319,700.58347 466.37018,702.06447 475.97087,702.06447 C 486.37276,702.06447 489.62745,698.51707 489.62745,695.10698 C 489.62745,690.64688 485.39966,688.79548 477.27117,687.25409 L 454.82339,682.94029 C 436.28471,679.3668 426.36532,666.54581 426.36532,652.90632 C 426.36532,636.27064 438.07571,622.38176 461.16928,619.85896 C 478.57126,617.93876 499.87404,620.08296 511.58443,621.50346 C 512.06683,623.50126 512.23043,625.43855 512.23043,627.43635 C 512.23043,642.95253 504.10184,646.30203 496.12854,646.30203 C 490.28165,646.30203 480.84466,645.18263 470.11567,645.18263 C 459.21488,645.18263 454.65989,648.20503 454.65989,651.84732 C 454.65989,655.71372 459.05128,657.26342 465.72428,658.51202 L 487.19055,662.44721 C 508.98393,666.45091 518.41272,678.9276 518.41272,694.28028 M 635.82699,762.22661 C 638.27229,763.5096 643.14609,764.9735 649.49198,765.137 C 660.22087,765.3439 666.07606,761.27951 670.46746,751.55802 L 728.36519,622.52816 C 726.0914,621.27126 720.719,619.84176 716.32761,619.79016 C 709.00862,619.62666 698.92563,621.10766 692.58803,636.31394 L 673.88585,680.53779 L 637.12729,620.73726 C 634.6904,620.00536 628.9987,618.98066 624.77091,618.98066 C 611.76032,618.98066 604.44133,623.72525 596.95884,631.87925 L 561.34527,670.9887 L 589.96694,716.15136 C 595.33974,724.40905 602.33163,728.61974 613.55132,728.61974 C 621.03381,728.61974 627.2079,726.91474 630.1354,725.50245 L 595.65854,673.4085 L 620.05241,647.37833 L 660.22087,710.52016"
       style="fill:#221e1f;fill-rule:nonzero;stroke:none" />
  </g>
</svg>
