<svg width="72" height="24" fill="none" xmlns="http://www.w3.org/2000/svg"><path d="M28.297 0a2.685 2.685 0 00-2.701 2.7 2.685 2.685 0 002.7 2.702c1.505 0 2.701-1.197 2.701-2.701S29.8 0 28.297 0zm-9.698 23.509h3.897V.798H18.6v22.711zm28.173-14.24a7.437 7.437 0 00-5.493-2.456c-3.929 0-7.918 3.039-7.918 8.594C33.36 20.9 37.35 24 41.279 24a7.36 7.36 0 005.493-2.486v1.995h3.898V.798h-3.898v8.47zm-42.72 2.854c0-1.136 1.35-1.964 3.498-1.964 2.302 0 3.652 1.411 3.652 2.792H15.1c0-3.621-3.13-6.138-7.55-6.138-4.389 0-7.458 2.425-7.458 5.31 0 6.568 11.263 3.897 11.263 6.598 0 1.044-1.411 1.934-3.498 1.934-2.271 0-3.96-1.167-3.96-2.578H0C0 21.698 3.437 24 7.857 24c4.388 0 7.611-2.271 7.611-5.279 0-6.383-11.417-3.744-11.417-6.598zm58.71-5.31c-5.187 0-8.992 3.53-8.992 8.594 0 4.726 3.805 8.593 8.992 8.593 5.187 0 8.962-3.867 8.962-8.593 0-5.064-3.775-8.594-8.962-8.594zM26.332 23.51h3.898V7.274h-3.898v16.235zm36.43-3.07c-2.823 0-5.033-2.055-5.033-5.032 0-3.07 2.21-5.064 5.033-5.064 2.762 0 5.003 2.025 5.003 5.064 0 2.977-2.24 5.033-5.003 5.033zm-20.747-.03c-2.486 0-4.757-1.903-4.757-5.002 0-3.162 2.271-5.034 4.757-5.034 2.456 0 4.757 1.903 4.757 5.034 0 3.1-2.301 5.002-4.757 5.002z" fill="#39AC37"/></svg>