<?xml version="1.0" encoding="utf-8"?>
<!-- Generator: Adobe Illustrator 22.1.0, SVG Export Plug-In . SVG Version: 6.00 Build 0)  -->
<svg version="1.1" id="Ebene_1" xmlns="http://www.w3.org/2000/svg" xmlns:xlink="http://www.w3.org/1999/xlink" x="0px" y="0px"
	 viewBox="0 0 2267.7 1417.3" style="enable-background:new 0 0 2267.7 1417.3;" xml:space="preserve">
<style type="text/css">
	.st0{fill:#424442;}
	.st1{fill:#FFFFFF;}
	.st2{fill:none;stroke:#DC0A30;stroke-width:0.25;stroke-miterlimit:10;}
	.st3{fill:#DC0A2F;}
	.st4{fill:#213A8E;}
</style>
<rect id="Graue_Fläche_1_" x="111" y="644" class="st0" width="2046.9" height="638.4"/>
<g id="TOTAL">
	<path class="st1" d="M296.3,809.7h-99.8c-7.2,0-12.4-5.9-12.4-12.4v-53.5c0-6.5,5.2-12.4,12.4-12.4h285.1c7.2,0,12.4,5.9,12.4,12.4
		v53.5c0,6.5-5.2,12.4-12.4,12.4h-99.8v366c0,6.5-5.9,12.4-12.4,12.4h-60.7c-6.5,0-12.4-5.9-12.4-12.4V809.7z"/>
	<path class="st1" d="M1135.9,809.7h-99.8c-7.2,0-12.4-5.9-12.4-12.4v-53.5c0-6.5,5.2-12.4,12.4-12.4h285.1
		c7.2,0,12.4,5.9,12.4,12.4v53.5c0,6.5-5.2,12.4-12.4,12.4h-99.8v366c0,6.5-5.9,12.4-12.4,12.4h-60.7c-6.5,0-12.4-5.9-12.4-12.4
		V809.7z"/>
	<path class="st1" d="M1317.3,1171.2l202.9-439.1c2-3.9,5.2-7.2,11.1-7.2h6.5c6.5,0,9.1,3.3,11.1,7.2l200.9,439.1
		c3.9,8.5-1.3,17-11.1,17H1682c-9.8,0-14.4-3.9-18.9-13l-32-70.5H1436l-32,70.5c-2.6,6.5-8.5,13-18.9,13h-56.8
		C1318.6,1188.1,1313.4,1179.6,1317.3,1171.2z M1599.1,1032.2l-65.2-143.5h-2l-63.9,143.5H1599.1z"/>
	<path class="st1" d="M1809.2,743.8c0-6.5,5.2-12.4,12.4-12.4h60c6.5,0,12.4,5.9,12.4,12.4v366h166.4c7.2,0,12.4,5.9,12.4,12.4v53.5
		c0,6.5-5.2,12.4-12.4,12.4h-238.8c-7.2,0-12.4-5.9-12.4-12.4V743.8z"/>
</g>
<path class="st1" d="M758.8,725.6c130.5,0,234.9,105,234.9,235.5s-104.4,234.2-234.9,234.2c-130.5,0-234.2-103.7-234.2-234.2
	S628.3,725.6,758.8,725.6z M758.8,1110.5c82.2,0,150.1-67.2,150.1-149.4S841,810.4,758.8,810.4c-82.2,0-149.4,68.5-149.4,150.7
	S676.6,1110.5,758.8,1110.5z"/>
<path class="st2" d="M873.6,951.2"/>
<path class="st2" d="M621.1,1096.1"/>
<g>
	<path class="st1" d="M707.5,959.8c0-26.6,11.4-50.5,29.5-67.2l-39.8-22.9c-21.3,24-34.2,55.5-34.2,90.1c0,35.1,13.3,67.1,35.2,91.3
		l39.9-23C719.4,1011.4,707.5,987,707.5,959.8z"/>
	<polygon class="st1" points="855.2,960.7 759,905.3 759,1016.1 	"/>
</g>
<polygon class="st3" points="1169.4,558.1 110.4,556.4 110.4,133.5 1523.2,135.3 "/>
<g>
	<path class="st1" d="M315.4,328.9h-55.7c-7.5,0-13.5-6.1-13.5-13.5v-11.3c0-7.5,6.1-13.5,13.5-13.5h83.4l12.6-42h-96.6
		c-30.1,0-54.7,24.5-54.7,54.7v13c0,30.1,24.5,54.7,54.7,54.7h55.4c7.6,0,13.5,5.9,13.5,13.5V396c0,7.5-6.1,13.5-13.5,13.5h-97.9
		L204,451.3h111.4c30.1,0,54.7-24.5,54.7-54.7v-13C370.1,353.4,345.6,328.9,315.4,328.9z"/>
	<path class="st1" d="M499.2,248.6h-111v202.7H430V290.6h68.4c7.6,0,13.5,5.9,13.5,13.5v31.4c0,7.6-5.9,13.5-13.5,13.5H455l-12.6,42
		h56.9c29.5,0,54.1-24.1,54.7-53.8v-35C553.3,272.7,528.7,248.6,499.2,248.6z"/>
	<path class="st1" d="M683,248.6h-50.4c-30.1,0-54.7,24.5-54.7,54.7v93.4c0,30.1,24.5,54.7,54.7,54.7H683
		c30.1,0,54.7-24.5,54.7-54.7v-93.4C737.7,273.1,713.2,248.6,683,248.6z M695.6,304.1V396c0,7.5-6.1,13.5-13.5,13.5h-48.9
		c-7.3,0-13.5-6.2-13.5-13.5v-91.9c0-7.5,6.1-13.5,13.5-13.5h48.9C689.7,290.6,695.6,296.5,695.6,304.1z"/>
	<path class="st1" d="M928.9,337.3v-35c-0.6-29.6-25.1-53.7-54.7-53.7h-111v202.7H805V290.6h68.4c7.6,0,13.5,5.9,13.5,13.5v31.4
		c0,7.6-5.9,13.5-13.5,13.5H830l-12.6,42H853l34.7,60.2h48.4L898,385.6C916.5,376.7,928.6,357.9,928.9,337.3z"/>
	<polygon class="st1" points="947.3,248.6 947.3,290.6 1022.6,290.6 1004.8,308.3 1004.8,451.3 1046.6,451.3 1046.6,290.6 
		1104.1,290.6 1104.1,248.6 	"/>
</g>
<polygon class="st4" points="1633.2,133.5 2157,135.3 2157,558.1 1279.4,556.4 "/>
<g>
	<path class="st1" d="M1693.9,416.3v38.2h-38.2v-38.2H1693.9z"/>
	<path class="st1" d="M1863,297.8h-56.1v156.7h-38.2V316.9l19.1-19.1h-75.2v-38.5H1863V297.8z"/>
	<path class="st1" d="M2034.2,259.3l-52.3,195.2H1924l-52.3-195.2h39.6l41.6,155.3l41.6-155.3H2034.2z"/>
</g>
</svg>
