<?xml version="1.0" encoding="utf-8"?>
<!-- Generator: Adobe Illustrator 17.1.0, SVG Export Plug-In . SVG Version: 6.00 Build 0)  -->
<!DOCTYPE svg PUBLIC "-//W3C//DTD SVG 1.1//EN" "http://www.w3.org/Graphics/SVG/1.1/DTD/svg11.dtd">
<svg version="1.1" id="Layer_1" xmlns="http://www.w3.org/2000/svg" xmlns:xlink="http://www.w3.org/1999/xlink" x="0px" y="0px"
	 viewBox="0 0 379 64" enable-background="new 0 0 379 64" xml:space="preserve">
<g>
	<g>
		<g>
			<g>
				<g>
					<defs>
						<polygon id="SVGID_1_" points="1.3,11 375.3,11 376,61.8 2,61.8 						"/>
					</defs>
					<clipPath id="SVGID_2_">
						<use xlink:href="#SVGID_1_"  overflow="visible"/>
					</clipPath>
					<path clip-path="url(#SVGID_2_)" fill="#251802" d="M13,39.2V25.5l-4.5,1.8c0,0-1.1,2.3-0.9,5.7c0.1,2.7,1.7,5.8,2.9,7.2
						L13,39.2z M25.1,11c1,0.1,2.7,0.6,3.9,1.6c1.3,1.2,1.6,3.1,1.2,4.8c-0.4,1.5-0.9,2.3-2.5,3.4c-1.6,1.1-2.8,1.2-2.8,1.2v6.6
						L28,31l-3.1,2.8v9c0,0,2.6-2.1,4.6-6.2c0,0,0.1-0.2,0.3-0.7c0.2,1.1,0.1,3.4-1.2,6.2c-1,2.2-2.7,4.2-5,5.4
						c-3.9,2.1-6.9,2.3-10,1.7c-3.7-0.7-7.1-2.7-9.3-6.2c-1.6-2.5-2.3-5.3-2.3-8.4c0.1-6.1,4.8-11.3,10.2-13.3
						c0.7-0.2,0.9-0.4,1.8-0.5c-0.4,0.3-0.9,0.6-1.5,1c-1.7,1.1-3.2,3.3-3.9,5L19,22.3v14.1l-8.3,4.1c1,1.3,3.9,3.2,6.4,3.5
						c4.2,0.5,7-1.1,7-1.1l0-9.2L21,31l3.1-2.4v-6.6c-1.8-0.2-4.3-1-5.5-1.3c-1.9-0.4-8.1-2.1-9.1-2.3c-1-0.1-2.2-0.1-2.9,0.5
						c-0.7,0.6-1.2,1.8-0.9,2.8c0.2,0.6,0.6,0.9,0.9,1.2c0,0-0.4,0-1-0.4c-1.2-0.7-2.1-2-2.2-3.7c-0.1-2.1,0.8-4.1,2.6-5.4
						c1.6-1,3.4-1.6,5.5-1.3c3.1,0.4,7.2,2.1,10.9,3c1.4,0.3,2.5,0.4,3.5-0.1c0.5-0.3,1.3-1.2,0.6-2.3c-0.8-1.3-2.3-1.3-3.6-1.5
						C24.1,11,24.3,11,25.1,11"/>
				</g>
			</g>
		</g>
		<g>
			<g>
				<g>
					<defs>
						<polygon id="SVGID_3_" points="1.3,11 375.3,11 376,61.8 2,61.8 						"/>
					</defs>
					<clipPath id="SVGID_4_">
						<use xlink:href="#SVGID_3_"  overflow="visible"/>
					</clipPath>
					<path clip-path="url(#SVGID_4_)" fill="#251802" d="M65.8,35.6L61,39V27.8L65.8,35.6z M65.6,24.8c0,0-3.2,1.9-5.3,3.1
						c-2.1,1.2-5,2.6-5,2.6v13l-1.9,1.5l0.3,0.3l1.9-1.5l5.9,5.1l10.2-7.8l-0.2-0.3l-5.7,4.3L61,41v-1.6l9.3-6.6L65.6,24.8z"/>
				</g>
			</g>
		</g>
		<g>
			<g>
				<g>
					<defs>
						<polygon id="SVGID_5_" points="1.3,11 375.3,11 376,61.8 2,61.8 						"/>
					</defs>
					<clipPath id="SVGID_6_">
						<use xlink:href="#SVGID_5_"  overflow="visible"/>
					</clipPath>
					<path clip-path="url(#SVGID_6_)" fill="#251802" d="M38.8,54c1.3,0.3,3.7,0.5,6.6-0.9c3.2-1.5,4.4-4.8,4.4-8.1l0.1-4.7V29.9
						l2-1.5l-0.2-0.3l-2,1.5l-4.3-5l-6.6,4.9V12.9l-6.7,5.5c0.3,0.2,1.8,0.4,1.8,1.8v23.3l-3.5,2.2l0.2,0.3l1.5-1.1l4.2,3.8l6.6-5.1
						l-0.2-0.3l-1.6,1.2L38.9,43l0-13l2.6-1.6l3.6,3.7c0,0,0,8.4,0,11.2c0,3-0.8,6.5-2.4,8.3C41.1,53.4,40.5,53.5,38.8,54"/>
				</g>
			</g>
		</g>
		<g>
			<g>
				<g>
					<defs>
						<polygon id="SVGID_7_" points="1.3,11 375.3,11 376,61.8 2,61.8 						"/>
					</defs>
					<clipPath id="SVGID_8_">
						<use xlink:href="#SVGID_7_"  overflow="visible"/>
					</clipPath>
					<path clip-path="url(#SVGID_8_)" fill="#251802" d="M84.6,52.8c-2.6-0.3-3.7-1.8-3.7-3.1c0-0.8,0.8-2.3,2.4-2.5
						c1.6-0.2,3.2,0.5,4.6,2.1l6.1-6.5l-0.3-0.3l-1.6,1.8c-1.7-1.8-3.7-3-6.1-3.3V21.1L101.5,49c0,0,0.4,0.3,1.1,0.3
						c0.6,0,0.4-0.4,0.4-0.4l0-28.1c1.3,0,3-0.7,4-1.7c3-3,1.8-6.3,1.5-6.7c-0.2,1.4-1.3,2.9-3.2,2.9c-2.5,0-4-1.8-4-1.8L95,20.3
						l0.3,0.3l1.7-1.9c2.1,1.9,3.3,2.1,4.9,2.2v16.3L90.6,16.5c-1.1-1.7-2.7-3.2-5.2-3.2c-2.9,0-5,2.5-5.3,4.6c-0.3,2.4,0,3,0,3
						s0.4-2.7,2.1-2.7c1.5,0,2,0.8,2.7,1.8v6.6c-1.6,0.1-5.4,0.3-5.7,4.5c0,1.6,1,3.2,1.9,3.7c1.1,0.7,2,0.7,2,0.7s-1.3-0.7-0.9-2.1
						c0.4-1.2,2.7-1.4,2.8-0.9v8.4c-1.3,0-5,0.1-6.9,3.5c-1.1,2-1,4.3,0.1,5.9C79.2,51.7,81.2,53.4,84.6,52.8"/>
				</g>
			</g>
		</g>
		<g>
			<g>
				<g>
					<defs>
						<polygon id="SVGID_9_" points="1.3,11 375.3,11 376,61.8 2,61.8 						"/>
					</defs>
					<clipPath id="SVGID_10_">
						<use xlink:href="#SVGID_9_"  overflow="visible"/>
					</clipPath>
					<path clip-path="url(#SVGID_10_)" fill="#251802" d="M118.2,35.6L113,39V27.8L118.2,35.6z M118,24.8c0,0-3.2,1.9-5.4,3.1
						c-2.2,1.2-4.7,2.6-4.7,2.6v13l-1.9,1.5l0.3,0.3l1.9-1.5l5.5,5.1l10.2-7.8l-0.2-0.3l-5.7,4.3l-4.6-4.2v-1.6l9.3-6.6L118,24.8z"
						/>
				</g>
			</g>
		</g>
		<g>
			<g>
				<g>
					<defs>
						<polygon id="SVGID_11_" points="1.3,11 375.3,11 376,61.8 2,61.8 						"/>
					</defs>
					<clipPath id="SVGID_12_">
						<use xlink:href="#SVGID_11_"  overflow="visible"/>
					</clipPath>
					<path clip-path="url(#SVGID_12_)" fill="#251802" d="M132.4,49.2l-5-4l-2.2,1.5l-0.2-0.3l2.2-1.6V33.5c0.1-4.6-4.4-3.5-4.1-8.4
						c0.1-2.2,2.3-3.8,3.4-4.3c1.2-0.6,2.4-0.6,2.4-0.6s-2.1,1.2-1.6,3c0.8,2.8,5.6,3,5.7,6.7l0,12.8l3.1,2.8l0.9-0.7V30.9l-1.4-1.9
						l5-4.3l4.6,3.9l-2.1,1.8v12.3l4.6,3.4l0.8-0.5V30.9l-1.9-1.8l5-4.4l4.7,3.7l1.9-1.6l0.2,0.3l-4.2,3.6v12l-10.7,6.4L138,45
						L132.4,49.2z"/>
				</g>
			</g>
		</g>
		<g>
			<g>
				<g>
					<defs>
						<polygon id="SVGID_13_" points="1.3,11 375.3,11 376,61.8 2,61.8 						"/>
					</defs>
					<clipPath id="SVGID_14_">
						<use xlink:href="#SVGID_13_"  overflow="visible"/>
					</clipPath>
					<path clip-path="url(#SVGID_14_)" fill="#251802" d="M352.3,35.6L347,39V27.8L352.3,35.6z M352.2,24.8c0,0-3.2,1.9-5.4,3.1
						c-2.1,1.2-4.9,2.6-4.9,2.6v13l-2.1,1.5l0.3,0.3l1.9-1.5l5.9,5.1l10.2-7.8l-0.2-0.3l-5.7,4.3l-4.7-4.2l0-1.6l9.3-6.6L352.2,24.8
						z"/>
				</g>
			</g>
		</g>
	</g>
	<polygon fill="#251802" points="306.2,30.3 306.4,30.6 308.4,29 311.2,32.1 311.2,42.9 309.8,44.1 314.3,49 318.9,44.6 317,42.7 
		317,29.7 318.1,28.8 321,32.4 321,43.1 320.1,44.3 324.3,48.8 328.8,44.5 327,42.8 327,29.8 328.3,28.8 332,32.3 332,43 330.5,44 
		335.2,48.9 341.4,43.4 341.1,43.1 339.6,44.4 337,42 337,29.8 339.5,28.1 339.3,27.8 337,29.5 332.8,24.9 326.8,29.5 322.5,25.1 
		316.7,29.5 312.4,25.1 	"/>
	<polygon fill="#251802" points="293,30 293.8,30.2 295.4,28.9 298,31.8 298,44.1 296.2,45.6 296.4,45.9 298.3,44.3 302.4,48.9 
		308.3,43.8 308.1,43.5 306.3,45 303.9,42.3 303.9,30.2 306,28.5 305.7,28.2 303.7,29.9 299.4,25 	"/>
	<polygon fill="#251802" points="295.2,19.8 299.7,15.8 303.3,19.7 298.8,23.6 	"/>
	<g>
		<g>
			<g>
				<g>
					<defs>
						<polygon id="SVGID_15_" points="1.3,11 375.3,11 376,61.8 2,61.8 						"/>
					</defs>
					<clipPath id="SVGID_16_">
						<use xlink:href="#SVGID_15_"  overflow="visible"/>
					</clipPath>
					<path clip-path="url(#SVGID_16_)" fill="#251802" d="M275.2,39.2V25.5l-4.2,1.8c0,0-1.1,2.3-0.9,5.7c0.1,2.7,1.7,5.8,2.9,7.2
						L275.2,39.2z M287.2,11c1.1,0.1,2.7,0.6,3.9,1.6c1.3,1.2,1.6,3.1,1.2,4.8c-0.4,1.5-0.9,2.3-2.5,3.4c-1.6,1.1-2.8,1-2.8,1v6.6
						l3,2.6l-3,2.6v8.9c0,0,2.5-1.8,4.6-5.9c0,0,0.1-0.2,0.3-0.7c0.2,1.1,0.1,3.4-1.2,6.2c-1,2.2-2.7,4.2-5,5.4
						c-3.9,2.1-6.9,2.3-10,1.7c-3.7-0.7-7.1-2.7-9.3-6.2c-1.6-2.5-2.3-5.3-2.3-8.4c0.1-6.1,4.8-11.3,10.2-13.3
						c0.6-0.2,0.9-0.4,1.8-0.5c-0.4,0.3-0.9,0.6-1.5,1c-1.7,1.1-3.2,3.3-3.9,5l10.3-4.3v14.1l-8.2,3.9c1,1.3,3.9,3.2,6.4,3.5
						c4.2,0.5,6.9-1.3,6.9-1.3v-9.2l-3-2.6l3-2.6v-6.6c-1.8-0.2-4.1-0.8-5.4-1.1c-1.9-0.4-8.1-2.1-9.1-2.3c-1-0.1-2.2-0.1-2.9,0.5
						c-0.7,0.6-1.2,1.8-0.9,2.8c0.2,0.6,0.6,0.9,0.9,1.2c0,0-0.4,0-1-0.4c-1.2-0.7-2.1-2-2.2-3.7c-0.1-2.1,0.8-4.1,2.6-5.4
						c1.6-1,3.4-1.6,5.5-1.3c3.1,0.4,7.2,2.1,10.9,3c1.4,0.3,2.5,0.4,3.5-0.1c0.5-0.3,1.3-1.2,0.6-2.3c-0.8-1.3-2.3-1.3-3.6-1.5
						C286.1,11,286.4,11,287.2,11"/>
				</g>
			</g>
		</g>
		<g>
			<g>
				<g>
					<defs>
						<polygon id="SVGID_17_" points="1.3,11 375.3,11 376,61.8 2,61.8 						"/>
					</defs>
					<clipPath id="SVGID_18_">
						<use xlink:href="#SVGID_17_"  overflow="visible"/>
					</clipPath>
					<path clip-path="url(#SVGID_18_)" fill="#251802" d="M365,27.4v6.5l2.8,1.9c0,0,4.8-3.8,6.6-7.2c0,0-2.2,2.9-5.1,2
						c-2.5-0.7-3.7-3.1-3.7-3.1 M360.1,44.5c0,0,2.1-3.4,5.8-2.7c3.5,0.7,5.1,4.3,5.1,4.3v-8.2l-2.9-2
						C365.5,38.5,360.7,42.2,360.1,44.5 M363.6,50.7c-0.7,0.2-3.6-0.5-4.3-3.5c-0.7-2.9,1.4-4.8,4.5-7.9l-3.7-3.3v-6.2
						c0,0,2.7-1.3,4.8-2.6c2.1-1.3,4.3-2.7,4.3-2.7s1.6,1.9,3.4,1.8c2.8-0.2,2.7-2.4,2.6-2.9c0.5,0.8,1.8,3.3-3.2,8.8l4,3.1v8.1
						c0,0-4.6,2.3-9.1,5.5c0,0-2.5-3-4.6-1.6C360.9,48.4,361.6,50,363.6,50.7"/>
				</g>
			</g>
		</g>
		<g>
			<g>
				<g>
					<defs>
						<polygon id="SVGID_19_" points="1.3,11 375.3,11 376,61.8 2,61.8 						"/>
					</defs>
					<clipPath id="SVGID_20_">
						<use xlink:href="#SVGID_19_"  overflow="visible"/>
					</clipPath>
					<path clip-path="url(#SVGID_20_)" fill="#251802" d="M202,41.5l5.2,4.5V32.2l-5.2-4.6V41.5z M213.1,30.2l1.8-1.6l0.3,0.3
						l-2.2,1.6v12.9c0,0-2.9,1.7-5.2,3c-2.3,1.3-4.8,2.8-4.8,2.8l-6.1-5l-1.6,1.4l-0.3-0.3l2.1-1.4V29.9h-0.3c0,0,2.9-1.3,5.3-2.6
						c2.2-1.2,4.6-2.6,4.6-2.6L213.1,30.2z"/>
				</g>
			</g>
		</g>
		<g>
			<g>
				<g>
					<defs>
						<polygon id="SVGID_21_" points="1.3,11 375.3,11 376,61.8 2,61.8 						"/>
					</defs>
					<clipPath id="SVGID_22_">
						<use xlink:href="#SVGID_21_"  overflow="visible"/>
					</clipPath>
					<path clip-path="url(#SVGID_22_)" fill="#251802" d="M225.2,28.9l3.9-3.9c0,0,0.5,0.5,1,0.7c0.3,0.1,1.5,0.7,2.5,0.1
						c0.6-0.3,0.7-0.4,1.3-1c0.1,3-1.4,5.1-3.2,6c-0.8,0.4-3.4,1-5.8-1.7V43l2.9,2.1l2.1-1.6l0.2,0.3l-6.4,5.2l-4.9-4.3l-1.8,1.6
						l-0.3-0.3l2.2-2.3l0-11.9l-1.6-2.6l-1.8,1.5l-0.3-0.3l6.2-5.4L225.2,28.9z"/>
				</g>
			</g>
		</g>
		<g>
			<g>
				<g>
					<defs>
						<polygon id="SVGID_23_" points="1.3,11 375.3,11 376,61.8 2,61.8 						"/>
					</defs>
					<clipPath id="SVGID_24_">
						<use xlink:href="#SVGID_23_"  overflow="visible"/>
					</clipPath>
					<path clip-path="url(#SVGID_24_)" fill="#251802" d="M241.6,34.7l7.2-10.1c0,0,1,1.1,2.6,1.5c2.2,0.6,4.2-1.5,4.2-1.5
						c-0.4,2.7-1.8,5.8-4.7,6.3c-2.6,0.4-5-1.5-5-1.5l-0.5,0.7l10,14.6l2-1.7l0.3,0.3l-6.9,5.8L241.6,34.7z"/>
				</g>
			</g>
		</g>
		<g>
			<g>
				<g>
					<defs>
						<polygon id="SVGID_25_" points="1.3,11 375.3,11 376,61.8 2,61.8 						"/>
					</defs>
					<clipPath id="SVGID_26_">
						<use xlink:href="#SVGID_25_"  overflow="visible"/>
					</clipPath>
					<path clip-path="url(#SVGID_26_)" fill="#251802" d="M236,21.1c0-2.2-1.3-3.5-2.5-3.4l7.5-5.3v30.2l2.4,2.1l1.6-1.3l0.3,0.3
						l-6.3,5.3l-4.3-3.9l-1.7,1.5l-0.3-0.3l3.4-2.5V21.1L236,21.1z"/>
				</g>
			</g>
		</g>
		<g>
			<g>
				<g>
					<defs>
						<polygon id="SVGID_27_" points="1.3,11 375.3,11 376,61.8 2,61.8 						"/>
					</defs>
					<clipPath id="SVGID_28_">
						<use xlink:href="#SVGID_27_"  overflow="visible"/>
					</clipPath>
					<path clip-path="url(#SVGID_28_)" fill="#251802" d="M185.2,29.6c0,0-0.9,1-2.2,1c-1.4,0-2-1-2-1v4.1c0,0,0.6-1,2-1
						c1.4,0,2.2,0.9,2.2,0.9V29.6z M185,20.8l-2.5-2.6l-1.5,1.1V29c0,0,0.9,1.1,2.3,1.1c1.4,0,1.7-1.1,1.7-1.1V20.8z M181,48.2
						c0,0,1.8,0.5,3.2-0.6c1.5-1.2,0.8-2.8,0.8-2.8V34.4c0,0-0.4-1.1-1.7-1.1c-1.4,0-2.3,1.1-2.3,1.1L181,48.2L181,48.2z M170,20.6
						c0-2-0.9-3.2-2.2-3.2c-2,0-2.5,2.7-2.5,2.7s-0.4-2.1,1.5-4c1-1.1,2.9-2.6,5.9-1.9c3.1,0.7,4.3,3,4.3,5.1v28.1
						c0,0,0.8,0.1,1.6,0.3c0.9,0.2,1.4,0.4,1.4,0.4V14.3h1v4.6l6.1-4.9l4.6,4l2.2-1.8l0.2,0.3l-2.2,1.9v26.1
						c-0.1,1.7-0.4,3.4-2.1,4.4c-3.7,2.1-8.2-0.3-12.2-0.9c-3-0.4-7.6-1-8.8,1.7c-0.4,0.9-0.4,2.2,1,3.1c2.7,1.7,14.7-2.9,18.8-1.1
						c3.7,1.7,3.7,4.4,3.2,6.2c-1,3.4-5.5,4.1-5.5,4.1s2.2-1.2,1.6-3.3c-0.3-1-1-1.3-3.4-1.1c-5.1,0.6-11.3,3-15.4,1.3
						c-2.1-0.9-3.6-3.4-3.5-6c0.1-3.6,4.5-5.1,4.5-5.1V34.3c-0.1-0.5-2.4-0.4-3,0.6c-0.8,1.5,1,2.2,1,2.2s-1.4,0.2-2.6-1.1
						c-0.6-0.6-1.8-2.9-0.2-5.1c1.3-1.8,2.9-2.1,4.9-2.3L170,20.6L170,20.6L170,20.6z"/>
				</g>
			</g>
		</g>
	</g>
</g>
</svg>
