<?xml version="1.0" encoding="utf-8"?>
<!-- Generator: Adobe Illustrator 22.0.1, SVG Export Plug-In . SVG Version: 6.00 Build 0)  -->
<svg version="1.1" id="Layer_2_1_" xmlns="http://www.w3.org/2000/svg" xmlns:xlink="http://www.w3.org/1999/xlink" x="0px" y="0px"
	 viewBox="0 0 633.3 254.2" style="enable-background:new 0 0 633.3 254.2;" xml:space="preserve">
<style type="text/css">
	.st0{fill:none;}
	.st1{fill:#01C3A7;}
</style>
<g>
	<g>
		<rect y="0.1" class="st0" width="633.3" height="253.1"/>
	</g>
	<path class="st1" d="M378.9,152.8c-1.2,0.1-2.1,0.1-3,0.1c-4.3,0-7.4-1.6-7.4-7.1V73.6h-16.9v75.1c0,12.3,7.8,19.6,20.2,19.6
		c2.7,0,4.7-0.3,7.1-0.8L378.9,152.8L378.9,152.8z M435.5,130.7c0-7.4,4.4-13.2,11.9-13.2c8.3,0,11.8,5.6,11.8,12.7v37.2h17.2v-40.2
		c0-14-7.2-25.3-23-25.3c-6.9,0-14.5,3-18.4,9.6v-7.9h-16.7v63.7h17.2V130.7z M299.6,130.7c0-7.4,4.4-13.2,11.9-13.2
		c8.3,0,11.8,5.6,11.8,12.7v37.2h17.2v-40.2c0-14-7.2-25.3-23-25.3c-6.9,0-14.5,3-18.4,9.6v-7.9h-16.7v63.7h17.2V130.7z M386.4,82.8
		c0,5.7,4.8,10.5,10.6,10.5c6,0,10.6-4.8,10.6-10.5c0-6-4.7-10.7-10.6-10.7C391.1,72,386.4,76.8,386.4,82.8 M405.6,103.6h-17.2v63.7
		h17.2V103.6z M250.3,82.8c0,5.7,4.8,10.5,10.6,10.5c6,0,10.6-4.8,10.6-10.5c0-6-4.7-10.7-10.6-10.7C255.1,72,250.3,76.8,250.3,82.8
		 M269.6,103.6h-17.2v63.7h17.2V103.6z M532.8,144.8c-2.1,5.7-6.5,9.7-14.5,9.7c-8.5,0-15.7-6.1-16-14.5h45.5c0-0.3,0.3-2.8,0.3-5.3
		c0-20.5-11.8-33-31.4-33c-16.3,0-31.3,13.2-31.3,33.5c0,21.5,15.4,34.1,32.9,34.1c15.7,0,25.7-9.2,29-20.2L532.8,144.8z
		 M502.6,128.2c0.4-5.8,5.3-12.6,14.2-12.6c9.8,0,14,6.2,14.2,12.6H502.6z M208.6,156.3c-5.6,0-8.3-3.6-8.3-7.4c0-4.9,3.5-7.4,7.9-8
		l14.4-2.2v2.8C222.6,152.8,215.9,156.3,208.6,156.3 M183.2,150c0,10,8.3,19.2,21.9,19.2c9.4,0,15.5-4.4,18.8-9.5
		c0,2.5,0.3,6,0.6,7.6h15.8c-0.4-2.2-0.8-6.7-0.8-10.1v-31.3c0-12.8-7.5-24.2-27.7-24.2c-17.1,0-26.3,11-27.3,21l15.3,3.2
		c0.5-5.6,4.7-10.4,12.2-10.4c7.2,0,10.7,3.8,10.7,8.3c0,2.2-1.2,4-4.8,4.5l-15.7,2.3C191.6,132.2,183.2,138.6,183.2,150
		 M176.7,103.4c-1.3-0.1-2.6-0.3-4-0.3c-5.4,0-14.2,1.6-18.1,10v-9.5h-16.7v63.7h17.2v-29.1c0-13.7,7.6-18,16.4-18
		c1.6,0,3.2,0.1,5.2,0.5L176.7,103.4L176.7,103.4z M97,122.7v25.9c0,12.3,7.8,19.7,20.2,19.7c6.3,0,9.7-1.6,9.7-1.6v-14.2
		c-0.9,0.3-3.2,0.5-5.3,0.5c-4.9,0-7.5-1.8-7.5-7.4v-22.9C114.1,122.7,97,122.7,97,122.7z M113.8,99.9c0.3-1,0.3-2.2,0.3-3.5V84.6
		H98.6v8.8c0,2.6-0.5,4.9-1.7,6.5H113.8z M85.5,103.6v15.3H92c11.5,0,18.5-6.1,21.2-15.3H85.5z M116.9,103.6
		c-1.6,6.6-4.5,11.3-10.5,15.3h20.4v-15.3H116.9z"/>
</g>
</svg>
