<?xml version="1.0" encoding="UTF-8"?>
<svg width="200" height="87.594" data-name="Layer 1" version="1.1" viewBox="0 0 200 87.594" xmlns="http://www.w3.org/2000/svg" xmlns:cc="http://creativecommons.org/ns#" xmlns:dc="http://purl.org/dc/elements/1.1/" xmlns:rdf="http://www.w3.org/1999/02/22-rdf-syntax-ns#">
<g transform="matrix(.83517 0 0 .83517 -.22538 -.35912)" fill="#d40e14">
  <path d="m239.07 91.1a1.79 1.79 0 0 0 0.51-0.65 2.86 2.86 0 0 0 0.16-1.09v-35.68a3 3 0 0 0-0.16-1.11 1.55 1.55 0 0 0-0.51-0.62q-0.81-0.62-3.76-0.62t-3.82 0.62a1.55 1.55 0 0 0-0.51 0.62 3 3 0 0 0-0.13 1.11v35.7a2.14 2.14 0 0 0 0.62 1.73q0.81 0.62 3.82 0.62t3.78-0.63zm-26.62 0.2a13.6 13.6 0 0 0 5-2.92 11.26 11.26 0 0 0 2.92-4.38 16.28 16.28 0 0 0 0.92-5.55v-24.77a2.09 2.09 0 0 0-0.62-1.75q-0.88-0.62-3.76-0.62t-3.82 0.62a1.38 1.38 0 0 0-0.52 0.62 3.24 3.24 0 0 0-0.2 1.13v24.66a9.43 9.43 0 0 1-0.51 3 4.69 4.69 0 0 1-2.23 2.54 9 9 0 0 1-4.55 1 10.52 10.52 0 0 1-3.34-0.47 5.81 5.81 0 0 1-2.26-1.33 5.18 5.18 0 0 1-1.3-2.08 8.3 8.3 0 0 1-0.41-2.67v-24.65a2.09 2.09 0 0 0-0.62-1.75q-0.88-0.62-3.76-0.62t-3.82 0.62a1.38 1.38 0 0 0-0.52 0.62 3.24 3.24 0 0 0-0.12 1.13v24.76a16.29 16.29 0 0 0 0.92 5.55 11.26 11.26 0 0 0 2.88 4.42 13.6 13.6 0 0 0 5 2.88 26.25 26.25 0 0 0 14.7 0zm-43.62-0.2a1.65 1.65 0 0 0 0.49-0.65 3.08 3.08 0 0 0 0.15-1.09v-30.45h8.9a5.55 5.55 0 0 0 1.6-0.19 1.63 1.63 0 0 0 0.95-0.83 7.32 7.32 0 0 0 0.62-2.19 15.27 15.27 0 0 0 0.22-2.24 3.7 3.7 0 0 0-0.12-1.07 1.12 1.12 0 0 0-0.47-0.62 1.85 1.85 0 0 0-0.62-0.22 7.09 7.09 0 0 0-1.17-0.07h-27.71a5.55 5.55 0 0 0-1.6 0.19 1.64 1.64 0 0 0-1 0.83 6.29 6.29 0 0 0-0.62 1.92 13.78 13.78 0 0 0-0.22 2.47 3.82 3.82 0 0 0 0.17 1.11 1.08 1.08 0 0 0 0.49 0.62 3.7 3.7 0 0 0 1.78 0.29h9.91v30.43a2 2 0 0 0 0.67 1.75q0.81 0.62 3.82 0.62t3.75-0.6z"/>
  <path d="m6.46 29.64h31.19c3.08 0 5.36 1 6.26 5.31 1 4.83 0.62 8.19-4.84 8.57l-9.8 0.7c7.22 45.5 49.32 60.34 72.25 11.31 3.8-8.11 5-9.59 9.19-8.56 5.63 1.4 6.4 4.32 3.7 12.47-19.79 60.44-86.41 66.5-99.48-14.19l-7.93 0.57c-6.47 0.46-6.73-5-6.73-8-0.02-6.03 2.21-8.18 6.19-8.18z"/>
  <circle cx="119.8" cy="11.99" r="11.56"/>
 </g>
</svg>
