<?xml version="1.0" encoding="UTF-8" standalone="no"?>
<svg
   xmlns:dc="http://purl.org/dc/elements/1.1/"
   xmlns:cc="http://creativecommons.org/ns#"
   xmlns:rdf="http://www.w3.org/1999/02/22-rdf-syntax-ns#"
   xmlns:svg="http://www.w3.org/2000/svg"
   xmlns="http://www.w3.org/2000/svg"
   xmlns:sodipodi="http://sodipodi.sourceforge.net/DTD/sodipodi-0.dtd"
   xmlns:inkscape="http://www.inkscape.org/namespaces/inkscape"
   inkscape:version="1.0beta2 (2b71d25, 2019-12-03)"
   sodipodi:docname="wit-logo.svg"
   viewBox="0 0 1333.3333 490.19606"
   height="490.19604"
   width="1333.3333"
   xml:space="preserve"
   id="svg871"
   version="1.1"><metadata
     id="metadata877"><rdf:RDF><cc:Work
         rdf:about=""><dc:format>image/svg+xml</dc:format><dc:type
           rdf:resource="http://purl.org/dc/dcmitype/StillImage" /><dc:title></dc:title></cc:Work></rdf:RDF></metadata><defs
     id="defs875"><clipPath
       id="clipPath887"
       clipPathUnits="userSpaceOnUse"><path
         inkscape:connector-curvature="0"
         id="path885"
         d="M 0,1000 H 1000 V 0 H 0 Z" /></clipPath></defs><sodipodi:namedview
     inkscape:current-layer="g879"
     inkscape:window-maximized="0"
     inkscape:window-y="705"
     inkscape:window-x="0"
     inkscape:cy="245.09803"
     inkscape:cx="36.764704"
     inkscape:zoom="0.20400001"
     fit-margin-bottom="0"
     fit-margin-right="0"
     fit-margin-left="0"
     fit-margin-top="0"
     inkscape:snap-page="true"
     showgrid="false"
     id="namedview873"
     inkscape:window-height="880"
     inkscape:window-width="1618"
     inkscape:pageshadow="2"
     inkscape:pageopacity="0"
     guidetolerance="10"
     gridtolerance="10"
     objecttolerance="10"
     borderopacity="1"
     inkscape:document-rotation="0"
     bordercolor="#666666"
     pagecolor="#ffffff" /><g
     transform="matrix(1.3333333,0,0,-1.3333333,0,911.76471)"
     inkscape:label="wit-logo"
     inkscape:groupmode="layer"
     id="g879"><g
       id="g881"><g
         clip-path="url(#clipPath887)"
         id="g883"><g
           transform="translate(376.3101,580.2988)"
           id="g889"><path
             inkscape:connector-curvature="0"
             id="path891"
             style="fill:#0045ed;fill-opacity:1;fill-rule:nonzero;stroke:none"
             d="M 0,0 C 0,13.865 10.756,24.765 24.393,24.765 H 36.598 C 49.76,24.765 60.969,13.865 60.969,0 v -136.211 c 0,-13.375 -11.209,-24.76 -24.371,-24.76 h -55.114 c -13.165,0 -24.387,11.385 -24.387,24.76 v 18.833 c 0,10.399 -7.805,18.319 -18.05,18.319 -10.722,0 -18.529,-7.92 -18.529,-18.319 v -18.833 c 0,-13.375 -10.73,-24.76 -24.385,-24.76 h -12.187 c -13.162,0 -24.392,11.385 -24.392,24.76 v 12.384 c 0,13.873 -10.72,24.768 -24.385,24.768 h -12.182 c -13.169,0 -23.915,11.379 -24.395,24.755 V 0 c 0,13.865 11.226,24.765 24.395,24.765 h 12.182 c 13.665,0 24.385,-10.9 24.385,-24.765 v -77.264 c 0,-11.891 9.759,-21.795 21.462,-21.795 11.713,0 21.454,9.904 21.454,21.795 V 0 c 0,13.865 10.727,24.765 24.382,24.765 h 12.195 c 13.169,0 24.384,-10.9 24.384,-24.765 v -80.242 c 0,-10.892 7.802,-18.817 18.053,-18.817 10.247,0 18.516,7.925 18.516,18.817 z m 113.843,-74.304 c 13.644,0 24.382,-10.882 24.382,-24.262 v -37.645 c 0,-13.375 11.217,-24.76 24.387,-24.76 h 12.177 c 13.665,0 24.394,11.385 24.394,24.76 v 99.069 c 0,13.857 -10.729,24.761 -24.394,24.761 h -60.946 c -13.17,0 -24.387,-10.904 -24.387,-24.761 v -12.386 c 0,-13.386 11.217,-24.776 24.387,-24.776 M 174.789,86.68 h -12.177 c -13.17,0 -24.387,-10.9 -24.387,-24.76 V 49.528 c 0,-13.372 11.217,-24.763 24.387,-24.763 h 12.177 c 13.665,0 24.394,11.391 24.394,24.763 V 61.92 c 0,13.86 -10.729,24.76 -24.394,24.76 M 236.98,-62.914 v -11.39 c 0,-13.376 11.212,-24.755 24.382,-24.755 h 12.184 c 13.658,0 24.401,-10.895 24.401,-24.768 v -12.384 c 0,-13.375 11.209,-24.76 24.371,-24.76 h 12.211 c 13.646,0 24.371,11.385 24.371,24.76 v 12.384 c 0,13.873 -10.725,24.768 -24.371,24.768 h -12.211 c -13.162,0 -24.371,11.379 -24.371,24.755 v 11.39 c 0,14.867 11.209,25.772 24.371,25.772 h 12.211 c 13.646,0 24.371,11.377 24.371,24.761 V 0 c 0,13.865 -10.725,24.765 -24.371,24.765 h -12.211 c -13.162,0 -24.371,11.391 -24.371,24.763 V 61.92 c 0,13.86 -10.743,24.76 -24.401,24.76 h -12.184 c -13.17,0 -24.382,-10.9 -24.382,-24.76 V 49.528 Z" /></g><g
           transform="translate(523.4326,346.3926)"
           id="g893"><path
             inkscape:connector-curvature="0"
             id="path895"
             style="fill:#454545;fill-opacity:1;fill-rule:nonzero;stroke:none"
             d="m 0,0 c 0.157,-2.461 1.665,-5.295 6.332,-5.295 4.009,0 5.879,2.299 5.879,4.61 0,1.756 -0.888,3.13 -5.274,4.353 L 0,5.589 c -3.085,0.925 -9.659,2.834 -9.659,10.724 0,7.515 6.782,12.116 16.683,12.116 7.837,0 14.18,-3.679 14.467,-11.417 H 11.323 c -0.308,4.291 -3.702,4.594 -5.433,4.594 -3.019,0 -5.286,-1.452 -5.286,-3.828 0,-2.602 1.871,-3.142 5.213,-4.075 l 6.86,-1.902 C 19.616,9.875 22.86,6.281 22.86,0.988 c 0,-6.664 -5.652,-13.332 -17.504,-13.332 -4.917,0 -9.584,1.079 -13.054,4.752 -2.486,2.683 -2.718,5.749 -2.789,7.592 z m 46.787,28.429 c 13.801,0 19.774,-9.505 19.774,-20.304 0,-10.893 -6.175,-20.692 -20.016,-20.692 -10.853,0 -19.462,6.811 -19.462,20.378 0,9.355 4.68,20.618 19.704,20.618 m 0.144,-33.104 c 4.915,0 8.228,2.989 8.228,13.261 0,5.117 -0.977,12.245 -8.372,12.245 -8.148,0 -8.228,-9.565 -8.228,-13.093 0,-8.665 2.866,-12.413 8.372,-12.413 m 27.621,24.132 h -5.66 v 8.061 h 5.66 v 5.285 c 0,6.805 2.269,12.339 13.119,12.339 0.772,0 2.858,0 6.042,-0.392 v -7.904 c -1.13,0.175 -1.428,0.234 -2.328,0.234 -5.741,0 -5.741,-3.06 -5.741,-5.05 v -4.512 h 7.091 v -8.061 h -7.091 v -30.64 H 74.552 Z m 50.167,-30.125 c -3.607,-0.988 -6.869,-1.215 -8.673,-1.215 -11.233,0 -11.233,7.208 -11.233,10.429 v 21.225 h -7.332 v 7.512 h 7.332 v 7.573 l 11.083,4.153 V 27.283 h 9.047 v -7.512 h -9.047 V 2.297 c 0.091,-3.522 0.091,-5.749 5.054,-5.749 1.662,0 2.424,0.086 3.769,0.222 z m 17.682,38.186 7.003,-29.204 8.07,29.204 h 12.288 l 8.002,-29.204 7.487,29.204 h 11.087 l -13.044,-38.701 h -12.161 l -7.863,28.663 -7.989,-28.663 h -12.302 l -12.448,38.701 z m 79.976,-38.701 c -0.37,2.367 -0.37,4.124 -0.37,5.288 -4.238,-6.214 -9.289,-6.214 -11.415,-6.214 -5.511,0 -8.002,1.606 -9.504,3.058 -2.27,2.299 -3.317,5.442 -3.317,8.497 0,3.079 1.047,8.751 8.077,12.043 4.659,2.145 11.385,2.145 15.096,2.145 0,2.544 -0.083,3.756 -0.541,5.136 -0.983,2.836 -3.924,3.22 -4.981,3.22 -1.574,0 -3.229,-0.687 -4.223,-2.141 -0.823,-1.311 -0.823,-2.534 -0.823,-3.455 h -10.95 c 0.071,2.072 0.296,6.214 4.294,9.112 3.478,2.544 7.929,3.143 11.548,3.143 3.193,0 9.802,-0.527 13.587,-4.973 2.574,-3.138 2.64,-7.74 2.64,-9.499 l 0.059,-15.559 c 0,-3.293 0.25,-6.588 0.922,-9.801 z M 208.632,0.763 c 0,-2.606 1.744,-5.523 5.433,-5.523 2.044,0 3.704,1.002 4.756,2.225 1.957,2.456 2.123,5.45 2.123,9.579 -7.179,0.609 -12.312,-1.694 -12.312,-6.281 m 31.696,17.226 c 0,1.86 -0.316,7.458 -0.549,9.678 h 10.496 l 0.235,-7.445 c 1.435,3.302 3.921,7.962 12.969,7.508 V 17.536 c -11.31,1.082 -11.976,-4.829 -11.976,-9.659 v -19.06 H 240.328 Z M 276.016,5.282 c 0,-2.522 0,-10.341 7.761,-10.341 2.811,0 5.584,1.072 6.655,5.358 h 10.175 c -0.13,-1.83 -0.527,-5.133 -3.623,-8.418 -2.786,-2.996 -7.778,-4.528 -13.353,-4.528 -3.231,0 -9.43,0.615 -13.439,4.827 -3.458,3.673 -4.89,8.891 -4.89,15.098 0,6.286 1.494,13.801 7.919,18.306 2.943,2.011 6.555,3.223 10.73,3.223 5.41,0 11.902,-2.137 15.375,-9.35 2.573,-5.28 2.43,-10.956 2.256,-14.175 z m 14.168,7.126 c 0,1.769 -0.141,8.671 -6.612,8.671 -4.909,0 -6.96,-4.147 -7.181,-8.671 z" /></g></g></g></g></svg>
