<svg height="80" viewBox="0 0 100 100" fill="none" xmlns="http://www.w3.org/2000/svg"><mask id="mask0" mask-type="alpha" maskUnits="userSpaceOnUse" x="0" y="0" width="100" height="100"><path d="M88.6364 0H11.3636C5.08767 0 0 5.08767 0 11.3636V88.6364C0 94.9123 5.08767 100 11.3636 100H88.6364C94.9123 100 100 94.9123 100 88.6364V11.3636C100 5.08767 94.9123 0 88.6364 0Z" fill="white"></path></mask><g mask="url(#mask0)"><path fill-rule="evenodd" clip-rule="evenodd" d="M0 100L50 50L100 100H0Z" fill="#93B2D3"></path><path fill-rule="evenodd" clip-rule="evenodd" d="M0 100L50 50L0 0L0 100Z" fill="#1E5193"></path><path fill-rule="evenodd" clip-rule="evenodd" d="M100 0L50 50L0 0H100Z" fill="#D81E4F"></path><path fill-rule="evenodd" clip-rule="evenodd" d="M100 0L50 50L100 100V0Z" fill="#FCCE2D"></path></g></svg>