<?xml version="1.0" encoding="UTF-8" standalone="no"?>
<!-- Created with Inkscape (http://www.inkscape.org/) -->

<svg
   xmlns:dc="http://purl.org/dc/elements/1.1/"
   xmlns:cc="http://creativecommons.org/ns#"
   xmlns:rdf="http://www.w3.org/1999/02/22-rdf-syntax-ns#"
   xmlns:svg="http://www.w3.org/2000/svg"
   xmlns="http://www.w3.org/2000/svg"
   xmlns:sodipodi="http://sodipodi.sourceforge.net/DTD/sodipodi-0.dtd"
   xmlns:inkscape="http://www.inkscape.org/namespaces/inkscape"
   width="72.269447mm"
   height="19.727421mm"
   viewBox="0 0 256.07285 69.900309"
   id="svg5921"
   version="1.1"
   inkscape:version="0.91 r13725"
   sodipodi:docname="Wordline.svg">
  <defs
     id="defs5923" />
  <sodipodi:namedview
     id="base"
     pagecolor="#ffffff"
     bordercolor="#666666"
     borderopacity="1.0"
     inkscape:pageopacity="0.0"
     inkscape:pageshadow="2"
     inkscape:zoom="1.4"
     inkscape:cx="170.60503"
     inkscape:cy="-110.63265"
     inkscape:document-units="px"
     inkscape:current-layer="layer1"
     showgrid="false"
     fit-margin-top="1"
     fit-margin-left="1"
     fit-margin-right="1"
     fit-margin-bottom="1"
     inkscape:window-width="1920"
     inkscape:window-height="1017"
     inkscape:window-x="-8"
     inkscape:window-y="-8"
     inkscape:window-maximized="1" />
  <metadata
     id="metadata5926">
    <rdf:RDF>
      <cc:Work
         rdf:about="">
        <dc:format>image/svg+xml</dc:format>
        <dc:type
           rdf:resource="http://purl.org/dc/dcmitype/StillImage" />
        <dc:title></dc:title>
      </cc:Work>
    </rdf:RDF>
  </metadata>
  <g
     inkscape:label="Calque 1"
     inkscape:groupmode="layer"
     id="layer1"
     transform="translate(56.607861,25.445093)">
    <g
       id="g6563">
      <g
         id="g5001"
         transform="matrix(1.25,0,0,-1.25,91.056696,-21.001788)">
        <path
           d="m 0,0 -3.894,0 0,-9.86 c -1.563,1.375 -3.425,2.197 -6.702,2.197 -5.482,0 -10.966,-3.615 -10.966,-13.698 0,-3.113 0.608,-5.67 1.656,-7.634 -0.781,-0.218 -1.606,-0.383 -2.456,-0.383 -2.203,0 -3.256,0.73 -3.256,3.274 l 0,6.558 -0.017,0 0,15.538 c 0,3.426 -0.39,4.008 -2.786,4.008 l -3.847,0 0,-26.954 c 0,-5.767 2.769,-7.182 6.485,-7.182 2.86,0 5.792,0.968 8.078,2.314 1.747,-1.544 3.972,-2.314 6.426,-2.314 3.378,0 5.868,1.415 7.534,3.271 0.296,-2.393 0.932,-2.938 2.057,-2.938 l 4.48,0 0,29.795 C 2.792,-0.637 2.4,0 0,0 m -3.894,-26.893 c -1.808,-1.514 -3.227,-2.257 -5.33,-2.257 -3.432,0 -5.092,2.257 -5.092,8.13 0,6.408 2.988,7.877 5.922,7.877 1.956,0 3.376,-0.442 4.5,-1.274 l 0,-12.476"
           style="fill:#00609c;fill-opacity:1;fill-rule:nonzero;stroke:none"
           id="path5003"
           inkscape:connector-curvature="0" />
      </g>
      <g
         id="g5005"
         transform="matrix(1.25,0,0,-1.25,37.037946,-7.0167881)">
        <path
           d="m 0,0 c -0.245,2.547 -0.978,2.893 -2.2,2.893 l -4.462,0 0,-25.505 6.763,0 0,18.553 c 1.37,0.735 3.865,1.515 7.389,1.515 l 1.222,0 0,5.63 C 8.224,3.236 7.687,3.331 7.148,3.331 3.966,3.331 1.621,1.716 0,0"
           style="fill:#00609c;fill-opacity:1;fill-rule:nonzero;stroke:none"
           id="path5007"
           inkscape:connector-curvature="0" />
      </g>
      <g
         id="g5009"
         transform="matrix(1.25,0,0,-1.25,120.36045,-12.411788)">
        <path
           d="m 0,0 c 2.148,0 3.866,1.676 3.866,3.772 0,2.104 -1.718,3.82 -3.866,3.82 -2.156,0 -3.917,-1.716 -3.917,-3.82 C -3.917,1.676 -2.156,0 0,0"
           style="fill:#00609c;fill-opacity:1;fill-rule:nonzero;stroke:none"
           id="path5011"
           inkscape:connector-curvature="0" />
      </g>
      <g
         id="g5013"
         transform="matrix(1.25,0,0,-1.25,9.8041964,22.039462)">
        <path
           d="m 0,0 c 7.286,0 13.369,5.954 13.369,13.366 0,5.532 -3.372,10.292 -8.17,12.318 l 0,0 C 3.604,26.361 1.843,26.74 0,26.74 c -0.471,0 -0.938,-0.035 -1.398,-0.082 -1.62,-2.203 -2.574,-4.925 -2.574,-7.875 0,-5.538 3.373,-10.288 8.166,-12.309 C 2.988,5.624 1.552,5.135 0,5.135 c -4.257,0 -7.711,3.682 -7.711,8.231 0,1.958 0.641,3.758 1.712,5.165 0,2.093 0.741,5.887 1.855,7.539 -5.39,-1.741 -9.222,-6.857 -9.222,-12.704 C -13.366,5.954 -7.283,0 0,0 m 1.682,18.783 c 0,0.867 0.129,1.725 0.367,2.508 3.265,-0.951 5.668,-4.137 5.668,-7.925 0,-0.878 -0.13,-1.72 -0.368,-2.519 -3.27,0.964 -5.667,4.14 -5.667,7.936"
           style="fill:#00609c;fill-opacity:1;fill-rule:nonzero;stroke:none"
           id="path5015"
           inkscape:connector-curvature="0" />
      </g>
      <g
         id="g5017"
         transform="matrix(1.25,0,0,-1.25,195.9217,4.5269619)">
        <path
           d="m 0,0 c 0,8.469 -4.012,12.617 -11.552,12.617 -7.144,0 -12.53,-5.084 -12.53,-13.346 0,-3.108 0.677,-5.741 1.988,-7.825 -0.9,-0.279 -1.857,-0.491 -2.852,-0.491 -1.919,0 -2.965,0.558 -3.201,2.375 l 0,12.308 c 0,5.774 -3.179,7.193 -6.9,7.193 -3.431,0 -6.49,-1.45 -8.89,-3.216 -0.289,2.212 -0.98,2.494 -2.201,2.494 l -4.442,0 0,-19.766 c -0.998,-0.336 -2.064,-0.606 -3.192,-0.606 -2.171,0 -3.226,0.727 -3.248,3.193 l 0,12.502 c 0,3.912 -0.345,4.696 -2.691,4.696 l -3.96,0 0,-20.539 c -1.029,-0.345 -2.134,-0.634 -3.305,-0.634 -2.197,0 -3.25,0.728 -3.25,3.269 l -0.007,22.192 c -0.006,3.425 -0.402,4.008 -2.797,4.008 l -3.849,0 0,-27.055 c 0,-5.756 2.772,-7.175 6.49,-7.175 2.968,0 6.008,1.032 8.323,2.459 1.167,-1.259 2.888,-1.671 4.874,-1.671 2.284,0 4.608,0.61 6.612,1.534 l 0,-1.895 6.74,0 0,19.228 c 1.62,0.591 3.624,1.176 5.824,1.176 2.205,0 3.182,-0.74 3.182,-3.278 l 0,-2.949 -0.015,0 0,-7.429 c 0,-5.756 2.773,-7.175 6.479,-7.175 3.093,0 6.262,1.115 8.615,2.642 2.14,-1.71 5.063,-2.642 8.698,-2.642 5.135,0 8.021,1.323 10.077,2.5 l 0,4.699 -2.202,0 c -1.663,-1.229 -3.912,-2.153 -6.804,-2.153 -3.96,0 -6.412,1.419 -6.755,6.559 l 16.642,0 C -0.099,-1.962 0,-0.882 0,0 m -16.638,2.104 c 0.537,4.792 2.589,6.024 5.086,6.024 2.792,0 4.357,-1.474 4.502,-6.024 l -9.588,0"
           style="fill:#00609c;fill-opacity:1;fill-rule:nonzero;stroke:none"
           id="path5019"
           inkscape:connector-curvature="0" />
      </g>
      <g
         id="g5021"
         transform="matrix(1.25,0,0,-1.25,-49.660804,-3.8217881)">
        <path
           d="m 0,0 5.754,-20.162 5.655,0 4.856,16.448 4.809,-16.448 5.649,0 5.846,20.108 c 0.224,0.725 0.687,1.1 1.339,1.1 l 1.481,0 0,4.376 -10.885,0 0,-4.376 1.764,0 c 0.349,0 0.803,-0.033 0.977,-0.266 0.136,-0.179 0.233,-0.602 -0.068,-1.656 l -2.872,-10.447 -4.843,16.745 -5.231,0 -4.837,-16.738 -3.373,12.362 2.607,0 0,4.376 -11.351,0 0,-4.376 1.58,0 C -0.66,1.046 -0.194,0.623 0,0"
           style="fill:#00609c;fill-opacity:1;fill-rule:nonzero;stroke:none"
           id="path5023"
           inkscape:connector-curvature="0" />
      </g>
      <g
         id="g5025"
         transform="matrix(1.25,0,0,-1.25,63.349196,34.796962)">
        <path
           d="m 0,0 c 0.074,-1.282 0.64,-1.873 1.675,-1.873 0.801,0 1.085,0.283 1.418,0.702 l 1.022,0 0,-1.183 c -0.53,-0.32 -1.232,-0.628 -2.587,-0.628 -2.243,0 -3.364,1.257 -3.364,3.29 0,2.082 1.294,3.363 3.241,3.363 1.934,0 2.944,-0.985 2.944,-3.178 C 4.349,0.271 4.324,0.061 4.324,0 L 0,0 Z m 0.025,1.022 2.525,0 C 2.489,2.156 2.144,2.599 1.405,2.599 0.653,2.599 0.16,2.132 0.025,1.022"
           style="fill:#00609c;fill-opacity:1;fill-rule:nonzero;stroke:none"
           id="path5027"
           inkscape:connector-curvature="0" />
      </g>
      <path
         d="m 69.371696,34.673212 3.55762,0 0,-1.679125 -3.55762,0 0,1.679125 z"
         style="fill:#00609c;fill-opacity:1;fill-rule:nonzero;stroke:none"
         id="path5029"
         inkscape:connector-curvature="0" />
      <g
         id="g5031"
         transform="matrix(1.25,0,0,-1.25,73.469196,39.710662)">
        <path
           d="M 0,0 0.431,0 C 0.579,0 0.74,0.161 0.74,0.309 l 0,5.778 C 0.74,6.222 0.579,6.42 0.431,6.42 l -0.48,0 0,1.084 2.205,0 c 0.197,0 0.321,-0.148 0.358,-0.752 0.48,0.481 1.108,0.85 1.971,0.85 1.22,0 2.439,-0.887 2.439,-3.19 0,-2.391 -1.416,-3.253 -2.784,-3.253 -0.739,0 -1.232,0.172 -1.602,0.443 l 0,-1.602 0.826,0 0,-0.961 L 0,-0.961 0,0 Z m 2.538,6.074 0,-3.609 C 2.809,2.292 3.13,2.181 3.585,2.181 c 0.74,0 1.516,0.345 1.516,2.07 0,1.639 -0.702,2.058 -1.491,2.058 -0.32,0 -0.714,-0.099 -1.072,-0.235"
           style="fill:#00609c;fill-opacity:1;fill-rule:nonzero;stroke:none"
           id="path5033"
           inkscape:connector-curvature="0" />
      </g>
      <g
         id="g5035"
         transform="matrix(1.25,0,0,-1.25,82.525446,36.074462)">
        <path
           d="m 0,0 c 0,1.355 1.06,1.971 2.551,1.971 0.541,0 0.912,-0.049 1.318,-0.148 l 0,0.678 c 0,0.653 -0.357,0.961 -1.121,0.961 -0.777,0 -1.171,-0.296 -1.492,-0.579 l -0.825,0 0,1.318 c 0.604,0.271 1.417,0.493 2.674,0.493 1.676,0 2.563,-0.542 2.563,-2.021 l 0,-3.216 c 0,-0.147 0.16,-0.307 0.308,-0.307 l 0.345,0 0,-0.863 C 6.074,-1.861 5.705,-1.959 5.237,-1.959 4.485,-1.959 4.103,-1.664 3.943,-1.147 3.463,-1.738 2.859,-1.948 2.07,-1.948 0.863,-1.948 0,-1.282 0,0 m 3.869,-0.432 0,1.381 C 3.585,0.998 3.265,1.023 2.92,1.023 c -0.727,0 -1.17,-0.297 -1.17,-0.95 0,-0.652 0.382,-0.96 0.985,-0.96 0.456,0 0.826,0.172 1.134,0.455"
           style="fill:#00609c;fill-opacity:1;fill-rule:nonzero;stroke:none"
           id="path5037"
           inkscape:connector-curvature="0" />
      </g>
      <g
         id="g5039"
         transform="matrix(1.25,0,0,-1.25,91.890446,40.910662)">
        <path
           d="m 0,0 0,0.948 c 0.69,0.211 1.306,0.58 1.749,1.134 L -0.382,7.036 C -0.468,7.245 -0.591,7.38 -0.764,7.38 l -0.234,0 0,1.085 3.13,0 0,-1.085 -0.851,0 1.393,-3.338 1.035,2.525 C 3.894,7.036 3.955,7.38 3.413,7.38 l -0.197,0 0,1.085 2.846,0 0,-1.085 -0.271,0 C 5.618,7.38 5.446,7.232 5.347,6.999 L 3.228,2.23 C 2.723,1.121 2.082,0.394 1.466,0 L 0,0"
           style="fill:#00609c;fill-opacity:1;fill-rule:nonzero;stroke:none"
           id="path5041"
           inkscape:connector-curvature="0" />
      </g>
      <g
         id="g5043"
         transform="matrix(1.25,0,0,-1.25,99.791696,37.138162)">
        <path
           d="M 0,0 0.432,0 C 0.579,0 0.74,0.173 0.74,0.308 l 0,3.721 c 0,0.136 -0.161,0.333 -0.308,0.333 l -0.481,0 0,1.084 2.205,0 c 0.21,0 0.333,-0.173 0.37,-0.85 0.542,0.456 1.318,0.948 2.304,0.948 0.702,0 1.343,-0.233 1.565,-1.009 0.554,0.48 1.343,1.009 2.366,1.009 0.862,0 1.638,-0.357 1.638,-1.614 l 0,-3.622 C 10.399,0.161 10.56,0 10.707,0 l 0.346,0 0,-1.023 -3.143,0 0,1.023 0.69,0 0,3.364 C 8.6,3.992 8.391,4.14 7.824,4.14 7.368,4.14 6.876,4.042 6.469,3.906 l 0,-3.906 0.702,0 0,-1.023 -3.191,0 0,1.023 0.69,0 0,3.364 C 4.67,3.992 4.461,4.14 3.894,4.14 3.438,4.14 2.945,4.042 2.538,3.906 l 0,-3.906 0.703,0 0,-1.023 L 0,-1.023 0,0"
           style="fill:#00609c;fill-opacity:1;fill-rule:nonzero;stroke:none"
           id="path5045"
           inkscape:connector-curvature="0" />
      </g>
      <g
         id="g5047"
         transform="matrix(1.25,0,0,-1.25,116.22795,34.796962)">
        <path
           d="m 0,0 c 0.073,-1.282 0.641,-1.873 1.675,-1.873 0.801,0 1.085,0.283 1.417,0.702 l 1.023,0 0,-1.183 c -0.53,-0.32 -1.232,-0.628 -2.587,-0.628 -2.243,0 -3.364,1.257 -3.364,3.29 0,2.082 1.294,3.363 3.24,3.363 1.935,0 2.945,-0.985 2.945,-3.178 C 4.349,0.271 4.325,0.061 4.325,0 L 0,0 Z m 0.024,1.022 2.526,0 C 2.489,2.156 2.143,2.599 1.404,2.599 0.653,2.599 0.16,2.132 0.024,1.022"
           style="fill:#00609c;fill-opacity:1;fill-rule:nonzero;stroke:none"
           id="path5049"
           inkscape:connector-curvature="0" />
      </g>
      <g
         id="g5051"
         transform="matrix(1.25,0,0,-1.25,121.98795,37.138162)">
        <path
           d="m 0,0 0.431,0 c 0.148,0 0.308,0.173 0.308,0.308 l 0,3.721 c 0,0.136 -0.16,0.333 -0.308,0.333 l -0.48,0 0,1.084 2.205,0 c 0.21,0 0.333,-0.173 0.37,-0.838 0.603,0.567 1.429,0.936 2.402,0.936 0.9,0 1.676,-0.357 1.676,-1.614 l 0,-3.622 C 6.604,0.161 6.764,0 6.912,0 l 0.345,0 0,-1.023 -3.191,0 0,1.023 0.74,0 0,3.315 C 4.806,3.956 4.559,4.14 3.955,4.14 3.437,4.14 2.957,4.029 2.538,3.894 L 2.538,0 3.29,0 3.29,-1.023 0,-1.023 0,0"
           style="fill:#00609c;fill-opacity:1;fill-rule:nonzero;stroke:none"
           id="path5053"
           inkscape:connector-curvature="0" />
      </g>
      <g
         id="g5055"
         transform="matrix(1.25,0,0,-1.25,131.27545,30.330662)">
        <path
           d="m 0,0 0.764,0 0,1.725 1.799,0 0,-1.725 1.306,0 0,-1.084 -1.306,0 0,-3.549 c 0,-0.69 0.247,-0.813 0.912,-0.813 l 0.444,0 0,-0.961 c -0.272,-0.086 -0.654,-0.16 -1.159,-0.16 -1.244,0 -1.996,0.394 -1.996,1.737 l 0,3.746 L 0,-1.084 0,0"
           style="fill:#00609c;fill-opacity:1;fill-rule:nonzero;stroke:none"
           id="path5057"
           inkscape:connector-curvature="0" />
      </g>
      <g
         id="g5059"
         transform="matrix(1.25,0,0,-1.25,139.11545,38.076962)">
        <path
           d="m 0,0 0,1.454 1.035,0 c 0.148,-0.456 0.727,-0.74 1.294,-0.74 0.69,0 1.109,0.296 1.109,0.764 0,0.481 -0.284,0.678 -1.318,0.826 -1.393,0.197 -2.046,0.678 -2.046,1.947 0,1.281 0.986,2.02 2.637,2.02 1.01,0 1.7,-0.111 2.218,-0.283 l 0,-1.429 -0.999,0 C 3.721,4.941 3.327,5.187 2.649,5.187 1.984,5.187 1.614,4.916 1.614,4.51 1.614,4.115 1.848,3.881 2.945,3.721 4.51,3.487 5.151,3.055 5.151,1.749 5.151,0.481 4.301,-0.345 2.341,-0.345 1.171,-0.345 0.53,-0.173 0,0"
           style="fill:#00609c;fill-opacity:1;fill-rule:nonzero;stroke:none"
           id="path5061"
           inkscape:connector-curvature="0" />
      </g>
      <g
         id="g5063"
         transform="matrix(1.25,0,0,-1.25,148.2192,34.796962)">
        <path
           d="m 0,0 c 0.074,-1.282 0.641,-1.873 1.676,-1.873 0.801,0 1.084,0.283 1.417,0.702 l 1.023,0 0,-1.183 c -0.53,-0.32 -1.233,-0.628 -2.588,-0.628 -2.243,0 -3.364,1.257 -3.364,3.29 0,2.082 1.294,3.363 3.241,3.363 1.934,0 2.944,-0.985 2.944,-3.178 C 4.349,0.271 4.325,0.061 4.325,0 L 0,0 Z m 0.025,1.022 2.525,0 C 2.489,2.156 2.144,2.599 1.405,2.599 0.653,2.599 0.16,2.132 0.025,1.022"
           style="fill:#00609c;fill-opacity:1;fill-rule:nonzero;stroke:none"
           id="path5065"
           inkscape:connector-curvature="0" />
      </g>
      <g
         id="g5067"
         transform="matrix(1.25,0,0,-1.25,153.9792,37.138162)">
        <path
           d="M 0,0 0.432,0 C 0.579,0 0.74,0.173 0.74,0.308 l 0,3.721 c 0,0.136 -0.161,0.333 -0.308,0.333 l -0.481,0 0,1.084 2.205,0 c 0.21,0 0.346,-0.185 0.37,-0.936 0.431,0.53 0.937,0.998 1.787,0.998 0.135,0 0.271,-0.025 0.394,-0.062 l 0,-1.33 -0.308,0 C 3.463,4.116 2.896,3.918 2.538,3.721 l 0,-3.721 0.9,0 0,-1.023 L 0,-1.023 0,0"
           style="fill:#00609c;fill-opacity:1;fill-rule:nonzero;stroke:none"
           id="path5069"
           inkscape:connector-curvature="0" />
      </g>
      <g
         id="g5071"
         transform="matrix(1.25,0,0,-1.25,160.91045,32.116962)">
        <path
           d="m 0,0 c -0.074,0.21 -0.222,0.345 -0.394,0.345 l -0.234,0 0,1.085 3.142,0 0,-1.085 -0.813,0 1.318,-3.696 0.024,0 1.048,2.883 C 4.263,0.012 4.313,0.345 3.77,0.345 l -0.197,0 0,1.085 2.735,0 0,-1.085 -0.209,0 c -0.197,0 -0.37,-0.148 -0.468,-0.382 l -2.058,-5.002 -1.552,0 L 0,0"
           style="fill:#00609c;fill-opacity:1;fill-rule:nonzero;stroke:none"
           id="path5073"
           inkscape:connector-curvature="0" />
      </g>
      <g
         id="g5075"
         transform="matrix(1.25,0,0,-1.25,169.12045,37.138162)">
        <path
           d="m 0,0 0.468,0 c 0.148,0 0.296,0.172 0.296,0.308 l 0,3.721 c 0,0.136 -0.148,0.333 -0.296,0.333 l -0.517,0 0,1.084 2.329,0 c 0.197,0 0.295,-0.197 0.295,-0.69 l 0,-4.448 C 2.575,0.16 2.736,0 2.883,0 l 0.469,0 0,-1.022 L 0,-1.022 0,0 Z m 0.678,6.9 c 0,0.53 0.431,0.961 0.973,0.961 C 2.193,7.861 2.625,7.43 2.625,6.9 2.625,6.37 2.193,5.952 1.651,5.952 1.109,5.952 0.678,6.37 0.678,6.9"
           style="fill:#00609c;fill-opacity:1;fill-rule:nonzero;stroke:none"
           id="path5077"
           inkscape:connector-curvature="0" />
      </g>
      <g
         id="g5079"
         transform="matrix(1.25,0,0,-1.25,173.63295,34.396962)">
        <path
           d="m 0,0 c 0,2.083 1.343,3.351 3.438,3.351 1.046,0 1.749,-0.147 2.18,-0.332 l 0,-1.479 -1.084,0 C 4.313,1.984 4.029,2.206 3.401,2.206 c -0.974,0 -1.565,-0.69 -1.565,-2.218 0,-1.54 0.505,-2.169 1.552,-2.169 0.801,0 1.122,0.357 1.381,0.69 l 0.874,0 0,-1.269 C 5.163,-3.031 4.448,-3.302 3.351,-3.302 1.109,-3.302 0,-2.069 0,0"
           style="fill:#00609c;fill-opacity:1;fill-rule:nonzero;stroke:none"
           id="path5081"
           inkscape:connector-curvature="0" />
      </g>
      <g
         id="g5083"
         transform="matrix(1.25,0,0,-1.25,183.66045,34.796962)">
        <path
           d="m 0,0 c 0.074,-1.282 0.641,-1.873 1.676,-1.873 0.801,0 1.084,0.283 1.417,0.702 l 1.023,0 0,-1.183 c -0.53,-0.32 -1.233,-0.628 -2.588,-0.628 -2.243,0 -3.364,1.257 -3.364,3.29 0,2.082 1.294,3.363 3.241,3.363 C 3.339,3.671 4.35,2.686 4.35,0.493 4.35,0.271 4.325,0.061 4.325,0 L 0,0 Z m 0.025,1.022 2.526,0 C 2.489,2.156 2.144,2.599 1.405,2.599 0.653,2.599 0.16,2.132 0.025,1.022"
           style="fill:#00609c;fill-opacity:1;fill-rule:nonzero;stroke:none"
           id="path5085"
           inkscape:connector-curvature="0" />
      </g>
      <g
         id="g5087"
         transform="matrix(1.25,0,0,-1.25,189.48295,38.076962)">
        <path
           d="m 0,0 0,1.454 1.035,0 c 0.148,-0.456 0.727,-0.74 1.294,-0.74 0.69,0 1.108,0.296 1.108,0.764 0,0.481 -0.283,0.678 -1.318,0.826 -1.392,0.197 -2.045,0.678 -2.045,1.947 0,1.281 0.985,2.02 2.637,2.02 1.01,0 1.7,-0.111 2.217,-0.283 l 0,-1.429 -0.998,0 C 3.721,4.941 3.327,5.187 2.649,5.187 1.984,5.187 1.614,4.916 1.614,4.51 1.614,4.115 1.848,3.881 2.944,3.721 4.51,3.487 5.15,3.055 5.15,1.749 5.15,0.481 4.3,-0.345 2.341,-0.345 1.17,-0.345 0.53,-0.173 0,0"
           style="fill:#00609c;fill-opacity:1;fill-rule:nonzero;stroke:none"
           id="path5089"
           inkscape:connector-curvature="0" />
      </g>
    </g>
  </g>
</svg>
