<?xml version="1.0" encoding="utf-8"?>
<!-- Generator: Adobe Illustrator 21.0.0, SVG Export Plug-In . SVG Version: 6.00 Build 0)  -->
<svg version="1.1" id="Calque_1" xmlns="http://www.w3.org/2000/svg" xmlns:xlink="http://www.w3.org/1999/xlink" x="0px" y="0px"
	 viewBox="0 0 128 44" style="enable-background:new 0 0 128 44;" xml:space="preserve">
<g id="XMLID_301_">
	<g id="XMLID_334_">
		<path id="XMLID_346_" style="fill:#6A205F;" d="M67.4,24.1H50c0.1,1.3,1.1,4.9,6.1,4.9c1.4,0,3.7-0.5,5-2.6h5.8
			C66.6,27.4,64,34,56.5,34c-3.5,0-6.3-1.1-8.5-3.2c-2.1-2.1-3.5-4.9-3.5-8.4c0-3.5,1.3-6.3,3.4-8.4c2.1-2.1,4.8-3.2,8.3-3.2
			c3.5,0,6.2,1,8.2,3.1c2,2,3,4.9,3,8.5L67.4,24.1z M61.8,20c-0.8-3.3-3.1-4.3-5.9-4.3c-2,0-5.5,1.5-5.5,4.3H61.8z"/>
		<path id="XMLID_343_" style="fill:#6A205F;" d="M75.5,4.3v8.6c2.7-1.5,4.9-2.1,7.7-2.1c3.2,0,5.8,1.1,7.9,3.3
			c2.1,2.2,3.2,4.9,3.2,8.2c0,3.4-1.1,6.2-3.2,8.4c-2.1,2.2-4.8,3.3-8,3.3c-2.7,0-4.9-0.3-7.6-1.8v1.2h-5.4v-29H75.5z M88,22.6
			c0-1.9-0.6-3.5-1.7-4.7c-1.2-1.2-2.6-1.9-4.4-1.9c-1.9,0-3.4,0.6-4.6,1.8c-1.2,1.2-1.8,2.7-1.8,4.6c0,2,0.6,3.5,1.7,4.7
			c1.2,1.2,2.7,1.8,4.6,1.8c1.8,0,3.3-0.6,4.4-1.8C87.5,25.9,88,24.4,88,22.6z"/>
		<path id="XMLID_341_" style="fill:#6A205F;" d="M101.9,11.4v21.9h-5.4V11.4H101.9z"/>
		<path id="XMLID_339_" style="fill:#6A205F;" d="M101.9,4.4v5.2h-5.4V4.4H101.9z"/>
		<path id="XMLID_336_" style="fill:#6A205F;" d="M123,11.4h5v21.9h-5V31c-2.3,2.3-4.8,2.9-7.4,2.9c-3.2,0-5.8-1.1-7.8-3.3
			c-2.1-2.2-3.1-5-3.1-8.4c0-3.3,1-6,3.1-8.2c2.1-2.2,4.6-3.3,7.7-3.3c2.7,0,5.3,0.6,7.5,3.2V11.4z M110.1,22.3
			c0,1.9,0.6,3.4,1.7,4.6c1.1,1.2,2.6,1.8,4.3,1.8c1.9,0,3.4-0.6,4.5-1.7c1.1-1.2,1.7-2.7,1.7-4.6c0-1.9-0.6-3.4-1.7-4.6
			c-1.1-1.2-2.6-1.8-4.5-1.8c-1.7,0-3.2,0.6-4.3,1.8C110.7,19,110.1,20.5,110.1,22.3z"/>
		<polygon id="XMLID_335_" style="fill:#6A205F;" points="55.5,0 42,0 27.7,14.5 13.5,0 0,0 21,22 0,44 13.5,44 27.7,29.5 42,44 
			55.5,44 34.5,22 		"/>
	</g>
</g>
</svg>
