<?xml version="1.0" encoding="UTF-8" standalone="no"?>
<svg
   xmlns:dc="http://purl.org/dc/elements/1.1/"
   xmlns:cc="http://creativecommons.org/ns#"
   xmlns:rdf="http://www.w3.org/1999/02/22-rdf-syntax-ns#"
   xmlns:svg="http://www.w3.org/2000/svg"
   xmlns="http://www.w3.org/2000/svg"
   xmlns:sodipodi="http://sodipodi.sourceforge.net/DTD/sodipodi-0.dtd"
   xmlns:inkscape="http://www.inkscape.org/namespaces/inkscape"
   viewBox="0 0 213.33353 107.75327"
   height="107.75327"
   width="213.33353"
   xml:space="preserve"
   id="svg2"
   version="1.1"
   sodipodi:docname="yelp.svg"
   inkscape:version="0.92.2 5c3e80d, 2017-08-06"><sodipodi:namedview
     pagecolor="#ffffff"
     bordercolor="#666666"
     borderopacity="1"
     objecttolerance="10"
     gridtolerance="10"
     guidetolerance="10"
     inkscape:pageopacity="0"
     inkscape:pageshadow="2"
     inkscape:window-width="1822"
     inkscape:window-height="864"
     id="namedview18"
     showgrid="false"
     fit-margin-top="0"
     fit-margin-left="0"
     fit-margin-right="0"
     fit-margin-bottom="0"
     inkscape:zoom="12.611153"
     inkscape:cx="73.188337"
     inkscape:cy="42.220711"
     inkscape:window-x="0"
     inkscape:window-y="0"
     inkscape:window-maximized="0"
     inkscape:current-layer="g10" /><metadata
     id="metadata8"><rdf:RDF><cc:Work
         rdf:about=""><dc:format>image/svg+xml</dc:format><dc:type
           rdf:resource="http://purl.org/dc/dcmitype/StillImage" /><dc:title></dc:title></cc:Work></rdf:RDF></metadata><defs
     id="defs6" /><g
     transform="matrix(1.3333333,0,0,-1.3333333,-38.66645,147.20954)"
     id="g10"><g
       transform="scale(0.1)"
       id="g12"><path
         id="path14"
         style="fill:#ffffff;fill-opacity:1;fill-rule:nonzero;stroke:none"
         d="m 1827.38,674.871 -2.81,0.914 c 0,0 39.56,8.36 57.23,47.028 10.36,22.683 11.08,48.613 1.15,71.511 -16.88,38.953 -41.6,72.969 -73.49,101.094 -15.79,13.937 -36.09,21.52 -57.15,21.613 -51.25,0.223 -73.48,-40.64 -73.48,-40.64 v 141.119 c 0,47.73 -38.1,86.29 -86.46,86.56 -20.4,0.12 -58.65,-6.77 -83.94,-13.55 -25.28,-6.77 -49.98,-15.87 -73.43,-27.05 -21.68,-10.34 -38.2,-29.44 -45.33,-52.4 -7.14,-22.984 -4.33,-48.129 7.7,-68.98 l 70.56,-122.207 c 0,0 -16.95,10.074 -40.61,10.074 -37.23,0 -70.2,-23.68 -82.03,-58.914 -0.88,-2.594 -1.71,-5.191 -2.5,-7.801 -11.26,10.832 -24.87,20.563 -41.45,28.438 -22.57,10.718 -47.83,16.383 -73.06,16.383 -19.27,0 -38.11,-3.266 -55.63,-9.563 -13.04,6.867 -27.86,10.699 -43.45,10.699 -22.1,0 -42.41,-7.754 -58.4,-20.668 v 17.047 c 0,51.336 -41.76,93.102 -93.101,93.102 -51.336,0 -93.097,-41.766 -93.097,-93.102 v -51.383 c -35.079,36.743 -81.844,51.825 -124.059,51.825 -31.652,0 -73.742,-10.301 -109.145,-39.43 -11.867,16.582 -28.714,28.801 -48.531,34.933 -9.031,2.793 -18.39,4.211 -27.812,4.211 -41.442,0 -77.524,-26.609 -89.778,-66.214 l -3.957,-12.79 -12.797,26.219 c -17.23,37.629 -70.464,69.86 -125.699,43.254 -22.625,-10.898 -39.492,-30.152 -47.664,-53.894 -8.168,-23.743 -6.601,-49.246 4.41,-71.809 l 89.114,-182.594 c -26.391,-10.304 -46.004,-31.531 -54.211,-60.32 -7.891,-27.688 -2.891,-56.504 13.715,-79.066 13.042,-17.719 38.742,-39.09 87.093,-40.25 1.754,-0.04 3.489,-0.071 5.211,-0.071 67.832,0.012 117.469,33.551 136.168,92.028 7.695,24.066 16.613,52.375 25.762,81.636 1.668,-3.73 3.426,-7.386 5.301,-10.945 29.379,-55.688 83.027,-86.359 151.07,-86.359 64.133,0 109.129,21.648 136.953,49.816 15.75,-29.133 46.578,-48.977 81.953,-48.977 22.102,0 42.421,7.762 58.401,20.672 v -17.05 c 0,-51.329 41.76,-93.098 93.1,-93.098 50.52,0 91.77,40.457 93.07,90.668 0.47,0 73.2,-4.121 121.09,46.941 4.94,5.27 13.73,14.36 22.71,29.516 11.4,-6.277 24.51,-9.859 38.45,-9.859 11.28,0 22.02,2.355 31.75,6.578 5.36,-6.84 11.76,-12.914 19.07,-17.938 34.49,-23.687 74.46,-39.863 115.61,-46.777 4.75,-0.789 9.58,-1.199 14.38,-1.199 46.86,0 84.85,36.699 86.48,83.546 l 0.11,2.989 1.58,-2.532 c 15.92,-25.48 43.37,-40.695 73.44,-40.695 20.04,0 39.61,7.035 55.09,19.813 32.17,26.547 58.7,60.543 76.73,98.316 10.73,22.481 11.25,48.508 1.41,71.406 -9.84,22.914 -29.08,40.473 -52.79,48.176"
         inkscape:connector-curvature="0" /><path
         id="path16"
         style="fill:#211d1d;fill-opacity:1;fill-rule:nonzero;stroke:none"
         d="m 1400.63,530.902 h 3.63 c 2.96,0 5.71,0.157 5.71,3.493 0,2.941 -2.51,3.293 -4.79,3.293 h -4.55 z m -2.97,9.438 h 7.78 c 5.07,0 7.46,-1.867 7.46,-6.102 0,-3.781 -2.43,-5.394 -5.6,-5.742 l 6.11,-9.359 h -3.2 l -5.79,9.125 h -3.79 v -9.125 h -2.97 z m 6.85,-26.094 c 8.6,0 15.49,6.754 15.49,15.715 0,8.781 -6.89,15.535 -15.49,15.535 -8.61,0 -15.5,-6.754 -15.5,-15.723 0,-8.773 6.89,-15.527 15.5,-15.527 z m 0,33.906 c 10.03,0 18.44,-7.863 18.44,-18.191 0,-10.516 -8.41,-18.379 -18.44,-18.379 -10.03,0 -18.43,7.863 -18.43,18.191 0,10.516 8.4,18.379 18.43,18.379"
         inkscape:connector-curvature="0" /><path
         id="path18"
         style="fill:#0d0d0d;fill-opacity:1;fill-rule:evenodd;stroke:none"
         d="m 1010.57,478.504 c 0,-18.149 -14.718,-32.863 -32.871,-32.863 -18.148,0 -32.863,14.714 -32.863,32.863 v 327.074 c 0,18.152 14.715,32.867 32.863,32.867 18.153,0 32.871,-14.715 32.871,-32.867 V 478.504"
         inkscape:connector-curvature="0" /><path
         id="path20"
         style="fill:#0d0d0d;fill-opacity:1;fill-rule:nonzero;stroke:none"
         d="m 711.746,628.75 c 2.195,45.402 36.582,52.871 52.047,52.871 15.551,0 50.066,-7.562 51.906,-53.641 0,-2.437 -1.304,-3.875 -2.746,-3.875 h -98.348 c -1.589,0 -3.019,1.598 -2.859,4.645 z m 14.293,-58.742 118.074,-0.121 c 0.817,0 1.629,0.058 2.442,0.121 16.383,1.238 31.914,14.828 31.976,36.594 0,0.043 0.004,0.082 0.004,0.125 -0.019,0.57 -0.082,1.101 -0.113,1.664 -5.856,120.015 -82.93,137.39 -117.879,137.39 -36.348,0 -118.652,-21.453 -118.652,-154.894 0.625,-50.188 11.371,-146.09 116.902,-146.09 91.156,0 111.566,52.648 111.566,66.07 0,19.817 -16.504,36.617 -35.14,30.297 -15.121,-5.133 -35.86,-35.25 -69.281,-35.25 -47.817,0 -54.012,43.723 -54.012,53.035 0,7.688 4.012,10.676 14.113,11.059"
         inkscape:connector-curvature="0" /><path
         id="path22"
         style="fill:#0d0d0d;fill-opacity:1;fill-rule:nonzero;stroke:none"
         d="m 456.391,486.512 -102.688,210.41 c -8.18,16.754 -1.223,36.969 15.535,45.148 16.758,8.184 36.973,1.223 45.149,-15.535 l 79.508,-162.91 48.925,158.086 c 5.512,17.812 24.41,27.785 42.235,22.269 17.812,-5.511 27.785,-24.421 22.269,-42.234 0,0 -54.988,-179.84 -88.035,-283.172 -10.934,-34.183 -39.59,-51.144 -82.531,-50.094 -42.477,1.032 -49.063,26.079 -44.356,42.598 5.176,18.164 20.336,23.652 35.176,23.574 38.375,-0.199 43.262,23.047 28.813,51.86"
         inkscape:connector-curvature="0" /><path
         id="path24"
         style="fill:#0d0d0d;fill-opacity:1;fill-rule:nonzero;stroke:none"
         d="m 1270.16,584.199 c 0,-25.98 0,-72.617 -47.23,-72.617 -47.36,0 -47.23,46.637 -47.23,72.617 v 23.731 c 0,25.98 0,72.617 47.23,72.617 47.37,0 47.23,-46.637 47.23,-72.617 z m 65.11,24.957 c 0,43.133 -5.31,102.239 -59.77,128.114 -30.72,14.589 -68.57,14.332 -97.66,-2.485 -5.84,-3.375 -11.62,-7.109 -16.73,-10.926 -3.5,14.399 -16.44,25.106 -31.91,25.106 -18.15,0 -32.87,-14.715 -32.87,-32.867 V 389.02 c 0,-18.149 14.72,-32.86 32.87,-32.86 18.15,0 32.87,14.711 32.87,32.86 v 85.839 c 0,0 22.08,-27.066 57.23,-27.98 124.83,-3.25 116.64,132.512 115.97,162.277"
         inkscape:connector-curvature="0" /><path
         id="path26"
         style="fill:#db202c;fill-opacity:1;fill-rule:evenodd;stroke:none"
         d="m 1438.85,767.047 114.77,-55.973 c 22.08,-10.765 18.67,-43.23 -5.16,-49.172 l -123.9,-30.89 c -15.45,-3.856 -30.71,6.808 -32.53,22.629 -3.9,33.843 -0.05,67.265 10.35,98.207 5.05,15.031 22.22,22.148 36.47,15.199"
         inkscape:connector-curvature="0" /><path
         id="path28"
         style="fill:#db202c;fill-opacity:1;fill-rule:evenodd;stroke:none"
         d="m 1484.8,530.781 85.43,94.883 c 16.43,18.258 46.7,6.027 45.84,-18.519 L 1611.62,479.5 c -0.56,-15.906 -15,-27.68 -30.7,-25.043 -33,5.543 -64.23,18.301 -91.48,37.023 -13.1,8.997 -15.27,27.493 -4.64,39.301"
         inkscape:connector-curvature="0" /><path
         id="path30"
         style="fill:#db202c;fill-opacity:1;fill-rule:evenodd;stroke:none"
         d="m 1687.34,657.047 121.42,-39.461 c 15.12,-4.91 22.49,-22.012 15.64,-36.352 -14.24,-29.843 -34.9,-56.504 -60.71,-77.804 -12.28,-10.133 -30.67,-7.157 -39.11,6.34 l -67.68,108.316 c -13.01,20.832 7.08,46.555 30.44,38.961"
         inkscape:connector-curvature="0" /><path
         id="path32"
         style="fill:#db202c;fill-opacity:1;fill-rule:evenodd;stroke:none"
         d="m 1810.82,734.508 -122.74,-35.195 c -23.61,-6.77 -42.8,19.64 -29.06,40.003 l 71.41,105.86 c 8.87,13.14 27.29,15.562 39.18,5.074 24.48,-21.598 44.53,-48.617 58.07,-79.875 6.34,-14.613 -1.55,-31.477 -16.86,-35.867"
         inkscape:connector-curvature="0" /><path
         id="path34"
         style="fill:#db202c;fill-opacity:1;fill-rule:evenodd;stroke:none"
         d="m 1524.02,1032.34 c -22.09,-5.92 -43.16,-13.74 -63.09,-23.24 -13.83,-6.6 -19.05,-23.623 -11.39,-36.893 L 1569.5,764.422 c 13.46,-23.309 49.09,-13.762 49.09,13.156 v 239.932 c 0,15.31 -13.04,27.45 -28.31,26.25 -22.01,-1.74 -44.17,-5.5 -66.26,-11.42"
         inkscape:connector-curvature="0" /></g></g></svg>