<?xml version="1.0" encoding="UTF-8" standalone="no"?>
<svg
   xmlns:dc="http://purl.org/dc/elements/1.1/"
   xmlns:cc="http://creativecommons.org/ns#"
   xmlns:rdf="http://www.w3.org/1999/02/22-rdf-syntax-ns#"
   xmlns:svg="http://www.w3.org/2000/svg"
   xmlns="http://www.w3.org/2000/svg"
   xmlns:sodipodi="http://sodipodi.sourceforge.net/DTD/sodipodi-0.dtd"
   xmlns:inkscape="http://www.inkscape.org/namespaces/inkscape"
   viewBox="0 0 646.08859 246.32806"
   height="246.32806"
   width="646.08856"
   xml:space="preserve"
   id="svg2"
   version="1.1"
   sodipodi:docname="zenly.svg"
   inkscape:version="0.92.2 5c3e80d, 2017-08-06"><sodipodi:namedview
     pagecolor="#ffffff"
     bordercolor="#666666"
     borderopacity="1"
     objecttolerance="10"
     gridtolerance="10"
     guidetolerance="10"
     inkscape:pageopacity="0"
     inkscape:pageshadow="2"
     inkscape:window-width="1668"
     inkscape:window-height="814"
     id="namedview28"
     showgrid="false"
     fit-margin-top="0"
     fit-margin-left="0"
     fit-margin-right="0"
     fit-margin-bottom="0"
     inkscape:zoom="0.30299254"
     inkscape:cx="315.71129"
     inkscape:cy="123.16412"
     inkscape:window-x="0"
     inkscape:window-y="0"
     inkscape:window-maximized="0"
     inkscape:current-layer="svg2" /><metadata
     id="metadata8"><rdf:RDF><cc:Work
         rdf:about=""><dc:format>image/svg+xml</dc:format><dc:type
           rdf:resource="http://purl.org/dc/dcmitype/StillImage" /><dc:title></dc:title></cc:Work></rdf:RDF></metadata><defs
     id="defs6"><clipPath
       id="clipPath18"
       clipPathUnits="userSpaceOnUse"><path
         id="path16"
         d="M 0,540 H 802 V 0 H 0 Z"
         inkscape:connector-curvature="0" /></clipPath></defs><g
     transform="matrix(1.3333333,0,0,-1.3333333,-218.95534,483.16394)"
     id="g10"><g
       id="g12"><g
         clip-path="url(#clipPath18)"
         id="g14"><g
           transform="translate(342.3135,233.1123)"
           id="g20"><path
             id="path22"
             style="fill:#00c8ff;fill-opacity:1;fill-rule:nonzero;stroke:none"
             d="m 0,0 c 0,-3.699 3,-6.6 6.6,-6.6 h 53.7 c 3.7,0 6.6,3 6.6,6.6 v 4.7 c 0,3.7 -3,6.601 -6.6,6.601 H 33.1 c -3.8,0 -6.6,-0.401 -6.6,-0.401 v 0.201 c 0,0 2.9,2.5 6.6,7.799 l 30.6,43.4 c 1.9,2.6 2.6,5 2.6,8.3 v 2.1 c 0,4.2 -2.3,6.5 -6.6,6.5 H 8.1 c -3.7,0 -6.6,-3 -6.6,-6.6 v -4.7 c 0,-3.7 3,-6.6 6.6,-6.6 H 33 c 3.8,0 6.6,0.4 6.6,0.4 v -0.2 c 0,0 -2.9,-2.5 -6.6,-7.8 L 2.5,10.5 C 0.6,7.9 -0.1,5.5 -0.1,2.2 V 0 Z M 71.5,24.301 C 71.5,7.9 83.4,-8.1 105.5,-8.1 c 9.5,0 16.8,3 21.2,5.5 3.6,2 4.199,5.3 2.3,9 l -1.7,3.1 c -2,3.801 -4.901,4.301 -8.901,2.5 C 115.3,10.4 111.3,9.101 107.1,9.101 c -6.6,0 -12.8,3.5 -14.4,11 V 20.2 h 32.6 c 4.099,0 7,3.601 7,6.8 0,16.6 -10.2,29.5 -28.6,29.5 C 83.8,56.6 71.5,42.4 71.5,24.301 m 21.8,7.8 v 0 c 1,4.999 3.9,9.199 9.9,9.199 5.3,0 8.5,-4.2 8.5,-9.199 z M 140.8,0 c 0,-3.699 3,-6.6 6.599,-6.6 h 7.5 c 3.701,0 6.601,3 6.601,6.6 v 21.301 c 0,8.8 4.2,16.399 13.399,16.399 4.601,0 6.801,-2.399 6.801,-8.2 V -0.1 c 0,-3.7 3,-6.599 6.6,-6.599 h 7.5 c 3.7,0 6.599,3 6.599,6.599 V 33.301 C 202.399,50.7 192.7,56.5 180.2,56.5 c -10.9,0 -16.801,-5.9 -19.7,-10.7 h -0.2 c 0,0 0.099,1 0.099,1.6 v 1 c 0,3.7 -3,6.6 -6.599,6.6 h -6.5 c -3.7,0 -6.6,-3 -6.6,-6.6 V 0 Z m 72.9,16.2 c 0,-20.8 11.6,-23.399 22.3,-23.399 4.8,0 6.7,2.599 6.7,6.699 v 5.9 c 0,3.6 -1.9,5.3 -4.801,5.6 -1.899,0.2 -3.5,1.4 -3.5,6.101 V 72.5 c 0,3.7 -3,6.6 -6.599,6.6 h -7.5 c -3.7,0 -6.6,-3 -6.6,-6.6 z m 33.6,-34.399 -1.6,-3.5 C 244,-25.5 245,-29 248.899,-30.3 c 2.401,-0.8 5.401,-1.599 8.601,-1.599 9.8,0 20.6,4.799 25.8,18.599 l 22.599,60.8 c 1.701,4.6 -0.5,7.6 -5.299,7.6 h -8.8 c -4,0 -6.401,-1.8 -7.401,-5.6 L 278.2,26.301 c -0.801,-3.401 -2,-9.2 -2,-9.2 H 276 c 0,0 -1.2,6.2 -2.3,9.599 l -7.301,23 c -1.199,3.6 -3.599,5.4 -7.599,5.4 h -9.401 c -5,0 -7.099,-3.1 -5,-7.7 L 267.3,-5.5 266.1,-8.399 C 264.7,-12 261.3,-15 257.6,-15 c -1.4,0 -2.6,0.4 -3.6,0.601 -2.5,0.599 -5,0 -6.7,-3.8"
             inkscape:connector-curvature="0" /></g><g
           transform="translate(188.9131,238.1123)"
           id="g24"><path
             id="path26"
             style="fill:#ffe5c0;fill-opacity:1;fill-rule:nonzero;stroke:none"
             d="M 0,0 C 5.1,8.801 16.3,11.801 25.1,6.7 33.9,1.601 36.9,-9.6 31.8,-18.399 L 12.8,-51.3 c -5.1,-8.8 -16.3,-11.8 -25.1,-6.7 -8.8,5.101 -11.8,16.301 -6.7,25.101 z"
             inkscape:connector-curvature="0" /></g><g
           transform="translate(222.6133,224.4131)"
           id="g28"><path
             id="path30"
             style="fill:#d7b88a;fill-opacity:1;fill-rule:nonzero;stroke:none"
             d="M 0,0 -30.6,17.699 C -31.8,16.6 -32.8,15.3 -33.7,13.8 l -5.6,-9.7 24.6,-14.201 c -1.9,-3.299 -5,-8.399 -9.9,-16.599 -10.3,-17.3 -25.6,-6.2 -30.5,-1.901 0.1,-6.2 3.4,-12.299 9.2,-15.599 8.8,-5.101 20,-2.101 25.1,6.7 l 16.2,28.1 2.8,4.9 C -1,-3.2 -0.4,-1.601 0,0"
             inkscape:connector-curvature="0" /></g><g
           transform="translate(296.5132,286.4126)"
           id="g32"><path
             id="path34"
             style="fill:#9cfa19;fill-opacity:1;fill-rule:nonzero;stroke:none"
             d="m 0,0 -42.7,-74 c -3.5,-6 -11.2,-8.1 -17.2,-4.6 l -65.9,38 c -6,3.5 -8.1,11.2 -4.6,17.2 l 42.7,74 c 14,24.2 44.9,32.5 69.2,18.5 C 5.7,55.2 14,24.2 0,0"
             inkscape:connector-curvature="0" /></g><g
           transform="translate(277.9131,355.6128)"
           id="g36"><path
             id="path38"
             style="fill:#79dc00;fill-opacity:1;fill-rule:nonzero;stroke:none"
             d="M 0,0 C -1.5,0.9 -3,1.6 -4.5,2.3 32.2,-34.3 16,-55.5 16,-55.5 c 0,0 -29.9,-49.5 -37.5,-62.5 -9.2,-15.5 -20.7,-9.7 -20.7,-9.7 l -67.5,39.2 -2.3,-3.9 c -3.5,-6 -1.4,-13.7 4.6,-17.2 l 66.1,-38.2 c 6,-3.5 13.7,-1.4 17.2,4.6 l 42.7,74 C 32.6,-45 24.3,-14 0,0"
             inkscape:connector-curvature="0" /></g><g
           transform="translate(233.0132,269.2124)"
           id="g40"><path
             id="path42"
             style="fill:#ff0066;fill-opacity:1;fill-rule:nonzero;stroke:none"
             d="m 0,0 c 14.7,-5.5 29.6,-14.5 40.8,-22.2 l 22.7,39.3 c 2.2,3.8 3.9,7.9 5,12 -13.1,9 -29.9,19.9 -41.9,25.3 -12.5,5.7 -35.3,11.3 -50,14.7 -0.3,-0.4 -0.6,-0.9 -0.8,-1.3 L -52.7,18.4 C -39.1,13.9 -18,6.8 0,0"
             inkscape:connector-curvature="0" /></g><g
           transform="translate(273.8135,247.1123)"
           id="g44"><path
             id="path46"
             style="fill:#d40055;fill-opacity:1;fill-rule:nonzero;stroke:none"
             d="m 0,0 22.7,39.3 c 2.2,3.8 3.9,7.9 5,12 -2,1.4 -4.1,2.8 -6.2,4.2 C 20.8,53.8 20.1,53 20.1,53 20.1,53 3.1,25 -8.5,5.601 -5.5,3.601 -2.6,1.801 0,0"
             inkscape:connector-curvature="0" /></g><g
           transform="translate(208.8135,337.1128)"
           id="g48"><path
             id="path50"
             style="fill:#ffde00;fill-opacity:1;fill-rule:nonzero;stroke:none"
             d="m 0,0 -2.5,-4.4 c 8.4,-1.5 19.7,-3.8 31.4,-6.9 3.9,-1.1 7.8,-2.2 11.6,-3.5 4.4,-1.4 8.6,-3 12.7,-4.6 13.5,-5.5 27.4,-14.3 38.6,-22.1 7.6,22.4 -1.4,47.7 -22.7,60 C 44.9,32.4 14,24.2 0,0"
             inkscape:connector-curvature="0" /></g><g
           transform="translate(294.0132,300.1128)"
           id="g52"><path
             id="path54"
             style="fill:#ebc400;fill-opacity:1;fill-rule:nonzero;stroke:none"
             d="m 0,0 c 2.3,-1.5 4.5,-3.1 6.7,-4.5 7.6,22.4 -1.4,47.7 -22.7,60 -1.5,0.9 -3,1.6 -4.5,2.3 C 14.9,22.4 0.8,1.4 0,0"
             inkscape:connector-curvature="0" /></g></g></g></g></svg>