<?xml version="1.0" encoding="UTF-8"?>
<svg width="134px" height="32px" viewBox="0 0 134 32" version="1.1" xmlns="http://www.w3.org/2000/svg" xmlns:xlink="http://www.w3.org/1999/xlink">
    <!-- Generator: Sketch 52.5 (67469) - http://www.bohemiancoding.com/sketch -->
    <title>Artboard</title>
    <desc>Created with Sketch.</desc>
    <defs>
        <linearGradient x1="21.4428554%" y1="14.1548979%" x2="50.1424848%" y2="33.0356797%" id="linearGradient-1">
            <stop stop-color="#000000" offset="0%"></stop>
            <stop stop-color="#FFFFFF" stop-opacity="0" offset="100%"></stop>
        </linearGradient>
        <linearGradient x1="35.5046178%" y1="39.2890453%" x2="100.010081%" y2="99.9698681%" id="linearGradient-2">
            <stop stop-color="#000000" offset="0%"></stop>
            <stop stop-color="#FFFFFF" stop-opacity="0" offset="100%"></stop>
        </linearGradient>
        <linearGradient x1="42.0965134%" y1="57.9002335%" x2="90.9091158%" y2="71.1725724%" id="linearGradient-3">
            <stop stop-color="#000000" offset="0%"></stop>
            <stop stop-color="#FFFFFF" stop-opacity="0" offset="100%"></stop>
        </linearGradient>
    </defs>
    <g id="Artboard" stroke="none" stroke-width="1" fill="none" fill-rule="evenodd">
        <g id="logo-monochrome" transform="translate(1.000000, 4.000000)">
            <g id="layer3" transform="translate(27.795076, 14.595218)" fill="#673AB7">
                <g id="text2772">
                    <path d="M0.341162,0.91968 L0.341162,8.92983 L0.963652,8.92983 L0.963652,5.18315 L2.490514,5.18315 C4.569396,5.18315 5.168396,4.06736 5.168396,3.0338 C5.168396,1.88278 4.428455,0.91968 2.54924,0.91968 L0.341162,0.91968 Z M0.963652,1.43646 L2.52575,1.43646 C3.935161,1.43646 4.498925,2.1764 4.498925,3.04554 C4.498925,3.94991 3.946906,4.66636 2.455279,4.66636 L0.963652,4.66636 L0.963652,1.43646 Z" id="path6624" fill-rule="nonzero"></path>
                    <path d="M10.127578,8.01372 C9.845695,8.23687 9.505088,8.48352 9.375892,8.48352 C9.281932,8.48352 9.246696,8.42482 9.246696,8.21338 L9.246696,4.92476 C9.246696,3.82072 8.260108,3.55058 7.602383,3.55058 C7.026873,3.55058 6.545324,3.71501 5.899344,4.11434 L5.899344,4.68985 C6.521834,4.22005 6.944657,4.02038 7.508422,4.02038 C8.295343,4.02038 8.682931,4.39623 8.682931,5.10093 L8.682931,5.7704 C7.144324,5.8409 5.605717,6.32242 5.605717,7.6966 C5.605717,8.43654 6.228207,9.03554 7.026873,9.03554 C7.590637,9.03554 8.095676,8.83587 8.682931,8.37781 C8.729911,8.90634 8.800382,9.03554 9.058774,9.03554 C9.281931,9.03554 9.505088,8.95334 10.033617,8.55399 L10.127577,8.48349 L10.127578,8.01372 Z M8.682931,7.88452 C8.130912,8.37781 7.719833,8.56573 7.214794,8.56573 C6.615795,8.56573 6.169481,8.18989 6.169481,7.6966 C6.169481,6.78048 7.308755,6.18148 8.682931,6.24021 L8.682931,7.88452 Z" id="path6626" fill-rule="nonzero"></path>
                    <path d="M14.587593,4.17307 C14.070809,3.71501 13.741947,3.55058 13.377849,3.55058 C12.790594,3.55058 12.156359,4.05562 11.533869,5.04221 L11.510379,5.04221 L11.510379,3.65629 L10.946615,3.65629 L10.946615,8.92983 L11.510379,8.92983 L11.510379,5.61772 C12.085889,4.64287 12.684888,4.1026 13.201672,4.1026 C13.4953,4.1026 13.753692,4.24354 14.258731,4.7016 L14.587593,4.17307 Z" id="path6628"></path>
                    <path d="M15.813488,3.65629 L15.249723,3.65629 L15.249723,8.92983 L15.813488,8.92983 L15.813488,3.65629 Z M15.813488,0.91968 L15.249723,0.91968 L15.249723,1.88278 L15.813488,1.88278 L15.813488,0.91968 Z" id="path6630" fill-rule="nonzero"></path>
                    <path d="M20.259006,3.99689 C19.730477,3.69152 19.307653,3.55058 18.849595,3.55058 C17.898242,3.55058 17.146556,4.18481 17.146556,4.99523 C17.146556,6.68652 19.883163,6.31068 19.883163,7.5674 C19.883163,8.10768 19.413359,8.48352 18.767379,8.48352 C18.26234,8.48352 17.804282,8.35432 17.111321,8.00197 L17.111321,8.55399 C17.651595,8.88285 18.156634,9.03554 18.696909,9.03554 C19.671751,9.03554 20.423437,8.4013 20.423437,7.57915 C20.423437,5.74691 17.686831,6.22846 17.686831,4.95999 C17.686831,4.45495 18.180125,4.06736 18.81436,4.06736 C19.284163,4.06736 19.671751,4.22005 20.259006,4.60764 L20.259006,3.99689 Z" id="path6632"></path>
                    <path d="M24.567803,2.24687 C25.319489,1.58915 25.765803,1.37774 26.388293,1.37774 C27.410116,1.37774 28.185292,2.12942 28.185292,3.12776 C28.185292,4.30227 27.339645,6.16974 24.473843,8.92983 L29.559468,8.92983 L29.559468,8.37781 L25.836273,8.37781 C27.962135,5.95832 28.784292,4.3375 28.784292,3.11601 C28.784292,1.82405 27.750724,0.81397 26.435273,0.81397 C25.765803,0.81397 25.155058,1.06062 24.567803,1.54217 L24.567803,2.24687 Z" id="path6634"></path>
                    <path d="M35.408523,4.95999 C35.408523,3.49185 35.091406,2.23513 34.292739,1.43646 C33.916896,1.06062 33.411857,0.81397 32.848093,0.81397 C32.272583,0.81397 31.732309,1.1076 31.379956,1.45995 C30.62827,2.21164 30.287662,3.32742 30.287662,5.0657 C30.287662,7.44995 31.356466,9.03554 32.871583,9.03554 C34.245759,9.03554 35.408523,7.54391 35.408523,4.95999 Z M34.809523,4.90129 C34.809523,6.7805 34.128308,8.47179 32.824603,8.47179 C31.673583,8.47179 30.886662,7.02715 30.886662,4.92478 C30.886662,2.84589 31.697074,1.37776 32.848093,1.37776 C34.198779,1.37776 34.809523,3.17476 34.809523,4.90129 Z" id="path6636" fill-rule="nonzero"></path>
                    <path d="M36.567803,2.24687 C37.319489,1.58915 37.765803,1.37774 38.388293,1.37774 C39.410116,1.37774 40.185292,2.12942 40.185292,3.12776 C40.185292,4.30227 39.339645,6.16974 36.473843,8.92983 L41.559468,8.92983 L41.559468,8.37781 L37.836273,8.37781 C39.962135,5.95832 40.784292,4.3375 40.784292,3.11601 C40.784292,1.82405 39.750724,0.81397 38.435273,0.81397 C37.765803,0.81397 37.155058,1.06062 36.567803,1.54217 L36.567803,2.24687 Z" id="path6634"></path>
                    <path d="M47.408523,4.95999 C47.408523,3.49185 47.091406,2.23513 46.292739,1.43646 C45.916896,1.06062 45.411857,0.81397 44.848093,0.81397 C44.272583,0.81397 43.732309,1.1076 43.379956,1.45995 C42.62827,2.21164 42.287662,3.32742 42.287662,5.0657 C42.287662,7.44995 43.356466,9.03554 44.871583,9.03554 C46.245759,9.03554 47.408523,7.54391 47.408523,4.95999 Z M46.809523,4.90129 C46.809523,6.7805 46.128308,8.47179 44.824603,8.47179 C43.673583,8.47179 42.886662,7.02715 42.886662,4.92478 C42.886662,2.84589 43.697074,1.37776 44.848093,1.37776 C46.198779,1.37776 46.809523,3.17476 46.809523,4.90129 Z" id="path6636" fill-rule="nonzero"></path>
                </g>
            </g>
            <g id="layer4" transform="translate(27.795076, 0.595218)" fill="#673AB7">
                <g id="text2768">
                    <path d="M5.768569,0.7488 L5.291719,0.7488 L0.112133,12.04523 L1.016505,12.04523 L2.792363,8.16465 L8.267925,8.16465 L10.043783,12.04523 L10.948156,12.04523 L5.768569,0.7488 Z M7.939063,7.44115 L3.121225,7.44115 L5.521922,2.16291 L7.939063,7.44115 Z" id="path6597" fill-rule="nonzero"></path>
                    <path d="M12.838602,4.66226 L12.049332,4.66226 L12.049332,12.04523 L12.838602,12.04523 L12.838602,6.86564 C13.496327,5.79684 14.186939,5.2871 15.255742,5.2871 C16.554749,5.2871 17.261804,6.17503 17.261804,7.83579 L17.261804,12.04523 L18.051074,12.04523 L18.051074,7.53981 C18.051074,5.55019 16.883612,4.51427 15.305072,4.51427 C14.236268,4.51427 13.5621,4.90891 12.871488,5.94483 L12.838598,5.94483 L12.838602,4.66226 Z" id="path6599"></path>
                    <path d="M26.473811,0.83101 L25.68454,0.83101 L25.68454,5.10623 C24.780168,4.66226 24.253988,4.51427 23.497604,4.51427 C21.343554,4.51427 19.765013,6.14214 19.765013,8.34552 C19.765013,10.51602 21.392883,12.19322 23.497604,12.19322 C24.336204,12.19322 24.89527,12.01234 25.68454,11.46972 L25.68454,12.04523 L26.473811,12.04523 L26.473811,0.83101 Z M25.68454,10.74622 C24.928156,11.25596 24.434863,11.42039 23.694922,11.42039 C21.919064,11.42039 20.603613,10.08849 20.603613,8.29619 C20.603613,6.53678 21.820405,5.2871 23.53049,5.2871 C24.303317,5.2871 24.878827,5.46797 25.68454,5.97771 L25.68454,10.74622 Z" id="path6601" fill-rule="nonzero"></path>
                    <path d="M33.606276,5.38576 C32.882778,4.74448 32.42237,4.51427 31.912633,4.51427 C31.090477,4.51427 30.202548,5.22133 29.331062,6.60255 L29.298172,6.60255 L29.298172,4.66226 L28.508901,4.66226 L28.508901,12.04523 L29.298172,12.04523 L29.298172,7.40826 C30.103885,6.04348 30.942485,5.2871 31.665982,5.2871 C32.077061,5.2871 32.43881,5.48442 33.145864,6.1257 L33.606276,5.38576 Z" id="path6603"></path>
                    <path d="M41.169859,8.36197 C41.169859,6.15859 39.574875,4.51427 37.420825,4.51427 C35.266775,4.51427 33.655348,6.15859 33.655348,8.36197 C33.655348,10.5489 35.266775,12.19322 37.420825,12.19322 C39.574875,12.19322 41.169859,10.5489 41.169859,8.36197 Z M40.331259,8.36197 C40.331259,10.12138 39.081581,11.42039 37.420825,11.42039 C35.743626,11.42039 34.493948,10.12138 34.493948,8.36197 C34.493948,6.58611 35.743626,5.2871 37.420825,5.2871 C39.081581,5.2871 40.331259,6.60255 40.331259,8.36197 Z" id="path6605" fill-rule="nonzero"></path>
                    <path d="M43.833131,4.66226 L43.04386,4.66226 L43.04386,12.04523 L43.833131,12.04523 L43.833131,4.66226 Z M43.833131,0.83101 L43.04386,0.83101 L43.04386,2.17935 L43.833131,2.17935 L43.833131,0.83101 Z" id="path6607" fill-rule="nonzero"></path>
                    <path d="M52.358895,0.83101 L51.569625,0.83101 L51.569625,5.10623 C50.665252,4.66226 50.139072,4.51427 49.382688,4.51427 C47.228638,4.51427 45.650098,6.14214 45.650098,8.34552 C45.650098,10.51602 47.277968,12.19322 49.382688,12.19322 C50.221288,12.19322 50.780354,12.01234 51.569625,11.46972 L51.569625,12.04523 L52.358895,12.04523 L52.358895,0.83101 Z M51.569625,10.74622 C50.813241,11.25596 50.319947,11.42039 49.580006,11.42039 C47.804148,11.42039 46.488697,10.08849 46.488697,8.29619 C46.488697,6.53678 47.705489,5.2871 49.415574,5.2871 C50.188402,5.2871 50.763911,5.46797 51.569625,5.97771 L51.569625,10.74622 Z" id="path6609" fill-rule="nonzero"></path>
                    <polygon id="path6611" points="64.33129 6.04348 60.05608 0.83101 59.18459 0.83101 59.18459 12.04523 60.05608 12.04523 60.05608 2.09713 60.08898 2.09713 64.3313 7.34249 68.57363 2.09713 68.60653 2.09713 68.60653 12.04523 69.47801 12.04523 69.47801 0.83101 68.60653 0.83101"></polygon>
                    <path d="M77.68723,10.76266 C77.29259,11.07508 76.81574,11.42039 76.63487,11.42039 C76.50332,11.42039 76.45399,11.33819 76.45399,11.0422 L76.45399,6.43812 C76.45399,4.89247 75.07277,4.51427 74.15195,4.51427 C73.34624,4.51427 72.67207,4.74448 71.7677,5.30354 L71.7677,6.10926 C72.63918,5.45153 73.23114,5.172 74.02041,5.172 C75.1221,5.172 75.66472,5.69818 75.66472,6.68477 L75.66472,7.62202 C73.51067,7.72072 71.35662,8.39485 71.35662,10.3187 C71.35662,11.35462 72.22811,12.19322 73.34624,12.19322 C74.13551,12.19322 74.84256,11.91368 75.66472,11.2724 C75.73052,12.01234 75.82915,12.19322 76.1909,12.19322 C76.50332,12.19322 76.81574,12.07811 77.55568,11.51905 L77.68723,11.42035 L77.68723,10.76266 Z M75.66472,10.58179 C74.89189,11.2724 74.31638,11.53549 73.60933,11.53549 C72.77073,11.53549 72.14589,11.00931 72.14589,10.3187 C72.14589,9.03613 73.74087,8.19753 75.66472,8.27975 L75.66472,10.58179 Z" id="path6613" fill-rule="nonzero"></path>
                    <path d="M79.55738,0.83101 L78.76811,0.83101 L78.76811,12.04523 L79.55738,12.04523 L79.55738,0.83101 Z M84.78629,4.66226 L83.75038,4.66226 L79.67248,8.16465 L84.32588,12.04523 L85.41113,12.04523 L80.74128,8.16465 L84.78629,4.66226 Z" id="path6615" fill-rule="nonzero"></path>
                    <path d="M91.98787,8.08243 C91.98787,5.61596 90.29422,4.51427 88.71568,4.51427 C86.75895,4.51427 85.3284,6.09281 85.3284,8.26331 C85.3284,10.5489 86.87405,12.19322 89.01166,12.19322 C90.08046,12.19322 90.98484,11.8808 91.85632,11.20663 L91.85632,10.3187 C90.90262,11.09153 90.09691,11.42039 89.11032,11.42039 C87.43312,11.42039 85.93679,9.97339 86.167,8.08243 L91.98787,8.08243 Z M86.26566,7.44115 C86.54519,6.09281 87.49889,5.2871 88.71568,5.2871 C89.9818,5.2871 90.77107,5.99416 91.05061,7.44115 L86.26566,7.44115 Z" id="path6617" fill-rule="nonzero"></path>
                    <path d="M98.67225,5.38576 C97.94876,4.74448 97.48835,4.51427 96.97861,4.51427 C96.15646,4.51427 95.26853,5.22133 94.39704,6.60255 L94.36414,6.60255 L94.36414,4.66226 L93.57487,4.66226 L93.57487,12.04523 L94.36414,12.04523 L94.36414,7.40826 C95.16986,6.04348 96.00846,5.2871 96.73196,5.2871 C97.14303,5.2871 97.50478,5.48442 98.21184,6.1257 L98.67225,5.38576 Z" id="path6619"></path>
                    <path d="M103.75396,5.13911 C103.01402,4.71159 102.42206,4.51427 101.78078,4.51427 C100.44889,4.51427 99.39653,5.4022 99.39653,6.53678 C99.39653,8.90459 103.22778,8.37841 103.22778,10.13782 C103.22778,10.89421 102.57005,11.42039 101.66568,11.42039 C100.95863,11.42039 100.31734,11.23951 99.3472,10.74622 L99.3472,11.51905 C100.10358,11.97945 100.81064,12.19322 101.56702,12.19322 C102.9318,12.19322 103.98416,11.30529 103.98416,10.15427 C103.98416,7.58914 100.15291,8.26331 100.15291,6.48745 C100.15291,5.78039 100.84352,5.23777 101.73145,5.23777 C102.38918,5.23777 102.9318,5.45153 103.75396,5.99416 L103.75396,5.13911 Z" id="path6621"></path>
                </g>
            </g>
            <g id="layer2" transform="translate(0.795076, 0.595218)">
                <g id="g41359" transform="translate(0.407762, 0.739686)">
                    <polyline id="path4805" fill="#673AB7" points="22.2853708 0.00911576605 0.0233611572 22.2711239 22.2853708 22.2711239 22.2853708 0.00911576605"></polyline>
                    <polygon id="path4811" fill="#673AB7" points="11.1377793 22.2694332 7.42191298 14.8161944 22.2853708 0.00911576605"></polygon>
                    <polygon id="path4813" fill="#673AB7" points="0.0233611572 0.00911576605 11.1389005 11.1555885 0.0233611572 22.2688827"></polygon>
                    <polygon id="path10039" fill="url(#linearGradient-1)" opacity="0.2" points="11.1377793 22.2706811 7.42191298 14.8282869 11.1377793 11.1567147 14.8325245 14.8214959"></polygon>
                    <polygon id="path17031" fill="url(#linearGradient-2)" opacity="0.2" points="0.0233611572 22.2711239 7.42191298 14.8282869 11.1377793 22.2694332"></polygon>
                    <polyline id="path10049" fill="url(#linearGradient-3)" opacity="0.2" points="22.2853708 0.00911576605 11.1377793 22.2706811 22.2853708 22.2375438 22.2853708 0.00911576605"></polyline>
                </g>
            </g>
        </g>
    </g>
</svg>