<?xml version="1.0" encoding="UTF-8"?>
<svg width="672px" height="149px" viewBox="0 0 672 149" version="1.1" xmlns="http://www.w3.org/2000/svg" xmlns:xlink="http://www.w3.org/1999/xlink">
    <!-- Generator: Sketch 52.5 (67469) - http://www.bohemiancoding.com/sketch -->
    <title>Artboard</title>
    <desc>Created with Sketch.</desc>
    <defs>
        <linearGradient x1="21.4428554%" y1="14.1548979%" x2="38.3016399%" y2="24.3416013%" id="linearGradient-1">
            <stop stop-color="#000000" offset="0%"></stop>
            <stop stop-color="#E55746" stop-opacity="0" offset="100%"></stop>
        </linearGradient>
        <linearGradient x1="28.0770312%" y1="57.6981527%" x2="66.1336043%" y2="68.6912695%" id="linearGradient-2">
            <stop stop-color="#000000" offset="0%"></stop>
            <stop stop-color="#00B5E4" stop-opacity="0" offset="100%"></stop>
        </linearGradient>
        <linearGradient x1="35.5046178%" y1="39.2890453%" x2="58.096787%" y2="74.0381936%" id="linearGradient-3">
            <stop stop-color="#000000" offset="0%"></stop>
            <stop stop-color="#00B5E4" stop-opacity="0" offset="100%"></stop>
        </linearGradient>
    </defs>
    <g id="Artboard" stroke="none" stroke-width="1" fill="none" fill-rule="evenodd">
        <g id="logo" transform="translate(39.000000, 24.000000)">
            <g id="layer3" transform="translate(122.000000, 64.000000)" fill="#FFFFFF" fill-opacity="0.98823529">
                <g id="text2772">
                    <path d="M0.50976,0.554799 L0.50976,36.92813 L3.33643,36.92813 L3.33643,19.9148 L10.26976,19.9148 C19.70976,19.9148 22.42976,14.848132 22.42976,10.154798 C22.42976,4.928132 19.06976,0.554799 10.53643,0.554799 L0.50976,0.554799 Z M3.33643,2.901465 L10.42976,2.901465 C16.82976,2.901465 19.38976,6.261465 19.38976,10.208132 C19.38976,14.314798 16.88309,17.56813 10.10976,17.56813 L3.33643,17.56813 L3.33643,2.901465 Z" id="path2726" fill-rule="nonzero"></path>
                    <path d="M44.94893,32.76813 C43.66893,33.78146 42.12226,34.90146 41.53559,34.90146 C41.10893,34.90146 40.94893,34.6348 40.94893,33.6748 L40.94893,18.74146 C40.94893,13.728132 36.46893,12.501465 33.48226,12.501465 C30.86893,12.501465 28.68226,13.248132 25.74893,15.061465 L25.74893,17.6748 C28.57559,15.541465 30.49559,14.634798 33.05559,14.634798 C36.62893,14.634798 38.38893,16.34146 38.38893,19.54146 L38.38893,22.58146 C31.40226,22.90146 24.41559,25.08813 24.41559,31.32813 C24.41559,34.68813 27.24226,37.40813 30.86893,37.40813 C33.42893,37.40813 35.72226,36.50146 38.38893,34.42146 C38.60226,36.82146 38.92226,37.40813 40.09559,37.40813 C41.10893,37.40813 42.12226,37.0348 44.52226,35.22146 L44.94893,34.90146 L44.94893,32.76813 Z M38.38893,32.18146 C35.88226,34.42146 34.01559,35.2748 31.72226,35.2748 C29.00226,35.2748 26.97559,33.56813 26.97559,31.32813 C26.97559,27.16813 32.14893,24.44813 38.38893,24.7148 L38.38893,32.18146 Z" id="path2728" fill-rule="nonzero"></path>
                    <path d="M65.20143,15.328132 C62.85476,13.248132 61.36143,12.501465 59.70809,12.501465 C57.04143,12.501465 54.16143,14.794798 51.33476,19.2748 L51.22809,19.2748 L51.22809,12.981465 L48.66809,12.981465 L48.66809,36.92813 L51.22809,36.92813 L51.22809,21.88813 C53.84143,17.46146 56.56143,15.008132 58.90809,15.008132 C60.24143,15.008132 61.41476,15.648132 63.70809,17.72813 L65.20143,15.328132 Z" id="path2730"></path>
                    <path d="M70.7681,12.981465 L68.2081,12.981465 L68.2081,36.92813 L70.7681,36.92813 L70.7681,12.981465 Z M70.7681,0.554799 L68.2081,0.554799 L68.2081,4.928132 L70.7681,4.928132 L70.7681,0.554799 Z" id="path2732" fill-rule="nonzero"></path>
                    <path d="M90.95476,14.528132 C88.55476,13.141465 86.63476,12.501465 84.55476,12.501465 C80.23476,12.501465 76.82143,15.381465 76.82143,19.06146 C76.82143,26.74146 89.24809,25.0348 89.24809,30.74146 C89.24809,33.1948 87.11476,34.90146 84.18143,34.90146 C81.8881,34.90146 79.8081,34.3148 76.66143,32.7148 L76.66143,35.22146 C79.11476,36.7148 81.4081,37.40813 83.86143,37.40813 C88.28809,37.40813 91.70143,34.52813 91.70143,30.7948 C91.70143,22.4748 79.27476,24.66146 79.27476,18.90146 C79.27476,16.60813 81.51476,14.848132 84.39476,14.848132 C86.5281,14.848132 88.28809,15.541465 90.95476,17.30146 L90.95476,14.528132 Z" id="path2734"></path>
                    <path d="M110.52059,6.581465 C113.93392,3.594799 115.96059,2.634799 118.78726,2.634799 C123.42726,2.634799 126.94726,6.048132 126.94726,10.581465 C126.94726,15.914798 123.10726,24.3948 110.09392,36.92813 L133.18726,36.92813 L133.18726,34.42146 L116.28059,34.42146 C125.93392,23.4348 129.66726,16.0748 129.66726,10.528132 C129.66726,4.661465 124.97392,0.074799 119.00059,0.074799 C115.96059,0.074799 113.18726,1.194799 110.52059,3.381465 L110.52059,6.581465 Z" id="path2736"></path>
                    <path d="M159.74726,18.90146 C159.74726,12.234798 158.30726,6.528132 154.68059,2.901465 C152.97393,1.194799 150.68059,0.074799 148.12059,0.074799 C145.50726,0.074799 143.05393,1.408132 141.45393,3.008132 C138.0406,6.421465 136.49393,11.488132 136.49393,19.38146 C136.49393,30.20813 141.34726,37.40813 148.22726,37.40813 C154.46726,37.40813 159.74726,30.6348 159.74726,18.90146 Z M157.02726,18.6348 C157.02726,27.16813 153.93393,34.84813 148.01393,34.84813 C142.78726,34.84813 139.21393,28.28813 139.21393,18.74146 C139.21393,9.301465 142.89393,2.634799 148.12059,2.634799 C154.25393,2.634799 157.02726,10.794798 157.02726,18.6348 Z" id="path2739" fill-rule="nonzero"></path>
                    <path d="M166.52059,6.581465 C169.93392,3.594799 171.96059,2.634799 174.78726,2.634799 C179.42726,2.634799 182.94726,6.048132 182.94726,10.581465 C182.94726,15.914798 179.10726,24.3948 166.09392,36.92813 L189.18726,36.92813 L189.18726,34.42146 L172.28059,34.42146 C181.93392,23.4348 185.66726,16.0748 185.66726,10.528132 C185.66726,4.661465 180.97392,0.074799 175.00059,0.074799 C171.96059,0.074799 169.18726,1.194799 166.52059,3.381465 L166.52059,6.581465 Z" id="path2736"></path>
                    <path d="M215.74726,18.90146 C215.74726,12.234798 214.30726,6.528132 210.68059,2.901465 C208.97393,1.194799 206.68059,0.074799 204.12059,0.074799 C201.50726,0.074799 199.05393,1.408132 197.45393,3.008132 C194.0406,6.421465 192.49393,11.488132 192.49393,19.38146 C192.49393,30.20813 197.34726,37.40813 204.22726,37.40813 C210.46726,37.40813 215.74726,30.6348 215.74726,18.90146 Z M213.02726,18.6348 C213.02726,27.16813 209.93393,34.84813 204.01393,34.84813 C198.78726,34.84813 195.21393,28.28813 195.21393,18.74146 C195.21393,9.301465 198.89393,2.634799 204.12059,2.634799 C210.25393,2.634799 213.02726,10.794798 213.02726,18.6348 Z" id="path2739" fill-rule="nonzero"></path>
                </g>
            </g>
            <g id="layer4" transform="translate(121.000000, 0.000000)" fill="#FFFFFF">
                <g id="text2768">
                    <path d="M26.1551,0.206184 L23.98976,0.206184 L0.46976,51.502182 L4.57643,51.502182 L12.64043,33.880849 L37.50443,33.880849 L45.56843,51.502182 L49.6751,51.502182 L26.1551,0.206184 Z M36.0111,30.595516 L14.13376,30.595516 L25.0351,6.627517 L36.0111,30.595516 Z" id="path2746" fill-rule="nonzero"></path>
                    <path d="M58.25943,17.97685 L54.67543,17.97685 L54.67543,51.502182 L58.25943,51.502182 L58.25943,27.982183 C61.2461,23.12885 64.3821,20.814183 69.23543,20.814183 C75.1341,20.814183 78.34476,24.846183 78.34476,32.387516 L78.34476,51.502182 L81.92876,51.502182 L81.92876,31.043516 C81.92876,22.00885 76.62743,17.30485 69.45943,17.30485 C64.6061,17.30485 61.54476,19.09685 58.40876,23.80085 L58.25943,23.80085 L58.25943,17.97685 Z" id="path2748"></path>
                    <path d="M120.17559,0.579517 L116.59159,0.579517 L116.59159,19.99285 C112.48493,17.97685 110.09559,17.30485 106.66093,17.30485 C96.87959,17.30485 89.71159,24.69685 89.71159,34.702183 C89.71159,44.558182 97.10359,52.174182 106.66093,52.174182 C110.46893,52.174182 113.00759,51.352849 116.59159,48.888849 L116.59159,51.502182 L120.17559,51.502182 L120.17559,0.579517 Z M116.59159,45.603516 C113.15693,47.918182 110.91693,48.664849 107.55693,48.664849 C99.49293,48.664849 93.51959,42.616849 93.51959,34.478183 C93.51959,26.48885 99.04493,20.814183 106.81026,20.814183 C110.31959,20.814183 112.93293,21.635516 116.59159,23.950183 L116.59159,45.603516 Z" id="path2750" fill-rule="nonzero"></path>
                    <path d="M152.56343,21.262183 C149.27809,18.350183 147.18743,17.30485 144.87276,17.30485 C141.13943,17.30485 137.10743,20.515516 133.15009,26.787516 L133.00076,26.787516 L133.00076,17.97685 L129.41676,17.97685 L129.41676,51.502182 L133.00076,51.502182 L133.00076,30.446183 C136.65943,24.24885 140.46743,20.814183 143.75276,20.814183 C145.61943,20.814183 147.26209,21.710183 150.47276,24.622183 L152.56343,21.262183 Z" id="path2752"></path>
                    <path d="M186.90892,34.776849 C186.90892,24.771516 179.66625,17.30485 169.88492,17.30485 C160.10359,17.30485 152.78625,24.771516 152.78625,34.776849 C152.78625,44.707516 160.10359,52.174182 169.88492,52.174182 C179.66625,52.174182 186.90892,44.707516 186.90892,34.776849 Z M183.10092,34.776849 C183.10092,42.766182 177.42625,48.664849 169.88492,48.664849 C162.26892,48.664849 156.59425,42.766182 156.59425,34.776849 C156.59425,26.71285 162.26892,20.814183 169.88492,20.814183 C177.42625,20.814183 183.10092,26.787516 183.10092,34.776849 Z" id="path2754" fill-rule="nonzero"></path>
                    <path d="M199.00259,17.97685 L195.41859,17.97685 L195.41859,51.502182 L199.00259,51.502182 L199.00259,17.97685 Z M199.00259,0.579517 L195.41859,0.579517 L195.41859,6.702184 L199.00259,6.702184 L199.00259,0.579517 Z" id="path2757" fill-rule="nonzero"></path>
                    <path d="M237.71726,0.579517 L234.13326,0.579517 L234.13326,19.99285 C230.02659,17.97685 227.63726,17.30485 224.20259,17.30485 C214.42126,17.30485 207.25326,24.69685 207.25326,34.702183 C207.25326,44.558182 214.64526,52.174182 224.20259,52.174182 C228.01059,52.174182 230.54926,51.352849 234.13326,48.888849 L234.13326,51.502182 L237.71726,51.502182 L237.71726,0.579517 Z M234.13326,45.603516 C230.69859,47.918182 228.45859,48.664849 225.09859,48.664849 C217.03459,48.664849 211.06126,42.616849 211.06126,34.478183 C211.06126,26.48885 216.58659,20.814183 224.35192,20.814183 C227.86126,20.814183 230.47459,21.635516 234.13326,23.950183 L234.13326,45.603516 Z" id="path2759" fill-rule="nonzero"></path>
                    <polygon id="path2761" points="292.08275 24.24885 272.66942 0.579517 268.71209 0.579517 268.71209 51.502182 272.66942 51.502182 272.66942 6.32885 272.81875 6.32885 292.08275 30.147516 311.34675 6.32885 311.49608 6.32885 311.49608 51.502182 315.45342 51.502182 315.45342 0.579517 311.49608 0.579517"></polygon>
                    <path d="M352.73076,45.678182 C350.93876,47.096849 348.77343,48.664849 347.9521,48.664849 C347.35476,48.664849 347.13076,48.291515 347.13076,46.947515 L347.13076,26.04085 C347.13076,19.022183 340.85876,17.30485 336.67743,17.30485 C333.01876,17.30485 329.95743,18.350183 325.85076,20.88885 L325.85076,24.547516 C329.8081,21.56085 332.4961,20.291516 336.0801,20.291516 C341.08276,20.291516 343.54676,22.68085 343.54676,27.16085 L343.54676,31.416849 C333.76543,31.864849 323.9841,34.926183 323.9841,43.662182 C323.9841,48.366182 327.94143,52.174182 333.01876,52.174182 C336.60276,52.174182 339.81343,50.904849 343.54676,47.992849 C343.84543,51.352849 344.29343,52.174182 345.9361,52.174182 C347.35476,52.174182 348.77343,51.651515 352.13343,49.112849 L352.73076,48.664849 L352.73076,45.678182 Z M343.54676,44.856849 C340.03743,47.992849 337.4241,49.187515 334.21343,49.187515 C330.40543,49.187515 327.5681,46.798182 327.5681,43.662182 C327.5681,37.838182 334.81076,34.030183 343.54676,34.403516 L343.54676,44.856849 Z" id="path2763" fill-rule="nonzero"></path>
                    <path d="M361.22293,0.579517 L357.63893,0.579517 L357.63893,51.502182 L361.22293,51.502182 L361.22293,0.579517 Z M384.96693,17.97685 L380.26293,17.97685 L361.7456,33.880849 L382.87626,51.502182 L387.80426,51.502182 L366.59893,33.880849 L384.96693,17.97685 Z" id="path2765" fill-rule="nonzero"></path>
                    <path d="M417.66858,33.507516 C417.66858,22.307516 409.97791,17.30485 402.80991,17.30485 C393.92458,17.30485 387.42858,24.47285 387.42858,34.328849 C387.42858,44.707516 394.44724,52.174182 404.15391,52.174182 C409.00724,52.174182 413.11391,50.755515 417.07124,47.694182 L417.07124,43.662182 C412.74058,47.171515 409.08191,48.664849 404.60191,48.664849 C396.98591,48.664849 390.19124,42.094182 391.23658,33.507516 L417.66858,33.507516 Z M391.68458,30.595516 C392.95391,24.47285 397.28458,20.814183 402.80991,20.814183 C408.55924,20.814183 412.14324,24.02485 413.41258,30.595516 L391.68458,30.595516 Z" id="path2767" fill-rule="nonzero"></path>
                    <path d="M448.02176,21.262183 C444.73643,18.350183 442.64576,17.30485 440.3311,17.30485 C436.59776,17.30485 432.56576,20.515516 428.60843,26.787516 L428.4591,26.787516 L428.4591,17.97685 L424.8751,17.97685 L424.8751,51.502182 L428.4591,51.502182 L428.4591,30.446183 C432.11776,24.24885 435.92576,20.814183 439.2111,20.814183 C441.07776,20.814183 442.72043,21.710183 445.9311,24.622183 L448.02176,21.262183 Z" id="path2769"></path>
                    <path d="M471.09725,20.142183 C467.73725,18.20085 465.04925,17.30485 462.13725,17.30485 C456.08925,17.30485 451.31059,21.33685 451.31059,26.48885 C451.31059,37.240849 468.70792,34.851516 468.70792,42.840849 C468.70792,46.275516 465.72125,48.664849 461.61459,48.664849 C458.40392,48.664849 455.49192,47.843515 451.08659,45.603516 L451.08659,49.112849 C454.52125,51.203515 457.73192,52.174182 461.16659,52.174182 C467.36392,52.174182 472.14259,48.142182 472.14259,42.915516 C472.14259,31.267516 454.74525,34.328849 454.74525,26.26485 C454.74525,23.054183 457.88125,20.590183 461.91325,20.590183 C464.89992,20.590183 467.36392,21.56085 471.09725,24.02485 L471.09725,20.142183 Z" id="path2771"></path>
                </g>
            </g>
            <g id="layer2">
                <g id="g41359" transform="translate(0.207806, 0.164787)">
                    <polyline id="path4805" fill="#00B5E4" points="101.195714 0.041393812 0.106080755 101.13102 101.195714 101.13102 101.195714 0.041393812"></polyline>
                    <polygon id="path4811" fill="#E55746" points="50.5755786 101.123342 33.7021891 67.2789059 101.195714 0.041393812"></polygon>
                    <polygon id="path4813" fill="#E55746" points="0.106080755 0.041393812 50.5806701 50.6564485 0.106080755 101.120842"></polygon>
                    <polygon id="path10039" fill="url(#linearGradient-1)" points="50.5755786 101.129009 33.7021891 67.3338169 50.5755786 50.6615624 67.3530592 67.3029795"></polygon>
                    <polyline id="path10049" fill="url(#linearGradient-2)" points="101.195714 0.041393812 50.5755786 101.129009 101.195714 100.978536 101.195714 0.041393812"></polyline>
                    <polygon id="path17031" fill="url(#linearGradient-3)" points="0.106080755 101.13102 33.7021891 67.3338169 50.5755786 101.123342"></polygon>
                </g>
            </g>
        </g>
    </g>
</svg>