<?xml version="1.0" encoding="UTF-8" standalone="no"?>
<!-- Created with Inkscape (http://www.inkscape.org/) -->

<svg
   xmlns:dc="http://purl.org/dc/elements/1.1/"
   xmlns:cc="http://creativecommons.org/ns#"
   xmlns:rdf="http://www.w3.org/1999/02/22-rdf-syntax-ns#"
   xmlns:svg="http://www.w3.org/2000/svg"
   xmlns="http://www.w3.org/2000/svg"
   xmlns:sodipodi="http://sodipodi.sourceforge.net/DTD/sodipodi-0.dtd"
   xmlns:inkscape="http://www.inkscape.org/namespaces/inkscape"
   id="svg2"
   version="1.1"
   inkscape:version="0.92.2 5c3e80d, 2017-08-06"
   xml:space="preserve"
   width="377.45377"
   height="60"
   viewBox="0 0 377.45377 60.000001"
   sodipodi:docname="organizer-paug-logo.svg"><metadata
     id="metadata8"><rdf:RDF><cc:Work
         rdf:about=""><dc:format>image/svg+xml</dc:format><dc:type
           rdf:resource="http://purl.org/dc/dcmitype/StillImage" /><dc:title></dc:title></cc:Work></rdf:RDF></metadata><defs
     id="defs6"><clipPath
       clipPathUnits="userSpaceOnUse"
       id="clipPath16"><path
         d="M 0,160 914,160 914,0 0,0 0,160 Z"
         id="path18"
         inkscape:connector-curvature="0" /></clipPath></defs><sodipodi:namedview
     pagecolor="#ffffff"
     bordercolor="#666666"
     borderopacity="1"
     objecttolerance="10"
     gridtolerance="10"
     guidetolerance="10"
     inkscape:pageopacity="0"
     inkscape:pageshadow="2"
     inkscape:window-width="1440"
     inkscape:window-height="855"
     id="namedview4"
     showgrid="false"
     inkscape:zoom="1.5404814"
     inkscape:cx="259.89845"
     inkscape:cy="-5.4671816"
     inkscape:window-x="0"
     inkscape:window-y="1"
     inkscape:window-maximized="1"
     inkscape:current-layer="g10"
     fit-margin-top="0"
     fit-margin-left="0"
     fit-margin-right="0"
     fit-margin-bottom="0" /><g
     id="g10"
     inkscape:groupmode="layer"
     inkscape:label="PAUG - Logo"
     transform="matrix(1.25,0,0,-1.25,-1.0445342,60.546578)"><g
       id="g12"
       transform="matrix(0.35456626,0,0,0.35456626,-5.3529044,-5.7020907)"><g
         id="g14"
         clip-path="url(#clipPath16)"><g
           id="g20"
           transform="translate(121.0776,17.8149)"><path
             d="m 0,0 c -4.665,0 -8.459,3.852 -8.459,8.586 l 0,17.083 -11.396,0 0,-17.083 C -19.855,3.852 -23.652,0 -28.319,0 c -4.667,0 -8.465,3.852 -8.465,8.586 l 0,17.083 -6.591,0 c -3.701,0 -6.711,3.01 -6.711,6.71 l 0,58.241 71.854,0 0,-58.241 c 0,-3.7 -3.01,-6.71 -6.708,-6.71 l -6.596,0 0,-17.083 C 8.464,3.852 4.667,0 0,0"
             style="fill:#8fd039;fill-opacity:1;fill-rule:nonzero;stroke:none"
             id="path22"
             inkscape:connector-curvature="0" /></g><g
           id="g24"
           transform="translate(143.3452,108.9351)"><path
             d="m 0,0 -1,0 -70.854,0 -1,0 0,-1 0,-57.741 c 0,-3.975 3.235,-7.21 7.211,-7.21 l 6.092,0 0,-16.583 c 0,-5.01 4.021,-9.086 8.965,-9.086 4.942,0 8.963,4.076 8.963,9.086 l 0,16.583 10.396,0 0,-16.583 c 0,-5.01 4.019,-9.086 8.959,-9.086 4.943,0 8.964,4.076 8.964,9.086 l 0,16.583 6.096,0 c 3.975,0 7.208,3.235 7.208,7.21 L 0,-1 0,0 Z m -1,-1 0,-57.741 c 0,-3.427 -2.782,-6.21 -6.208,-6.21 l -7.096,0 0,-17.583 c 0,-4.466 -3.566,-8.086 -7.964,-8.086 -4.397,0 -7.959,3.62 -7.959,8.086 l 0,17.583 -12.396,0 0,-17.583 c 0,-4.466 -3.566,-8.086 -7.963,-8.086 -4.4,0 -7.965,3.62 -7.965,8.086 l 0,17.583 -7.092,0 c -3.43,0 -6.211,2.78 -6.211,6.21 L -71.854,-1 -1,-1"
             style="fill:#ffffff;fill-opacity:1;fill-rule:nonzero;stroke:none"
             id="path26"
             inkscape:connector-curvature="0" /></g><g
           id="g28"
           transform="translate(121.4092,130.0469)"><path
             d="m 0,0 c -1.882,-0.106 -3.327,-1.724 -3.222,-3.606 0.103,-1.811 1.6,-3.229 3.41,-3.229 0.065,0 0.131,0.002 0.197,0.005 0.912,0.052 1.75,0.455 2.359,1.137 0.608,0.681 0.914,1.559 0.863,2.471 -0.102,1.81 -1.6,3.227 -3.411,3.227 C 0.131,0.005 0.065,0.003 0,0 m -30.333,-1.709 c -1.884,-0.106 -3.33,-1.725 -3.225,-3.607 0.103,-1.81 1.602,-3.229 3.414,-3.229 0.065,0 0.13,0.002 0.196,0.005 1.881,0.107 3.325,1.726 3.219,3.609 -0.102,1.81 -1.599,3.227 -3.408,3.227 -0.065,0 -0.131,-0.002 -0.196,-0.005 M -50.318,-19.96 c 0.318,10.548 6.643,20.2 16.953,25.926 l -6.709,8.655 c -0.588,0.76 -0.493,1.822 0.211,2.368 0.271,0.209 0.599,0.319 0.947,0.319 0.532,0 1.054,-0.264 1.397,-0.704 l 7.102,-9.16 c 4.47,2.007 9.293,3.168 14.343,3.452 0.788,0.045 1.586,0.067 2.371,0.067 4.225,0 8.349,-0.634 12.267,-1.886 l 6.028,9.899 c 0.327,0.535 0.897,0.867 1.49,0.867 0.282,0 0.557,-0.076 0.796,-0.22 0.759,-0.466 0.972,-1.51 0.477,-2.329 L 1.66,7.939 C 12.549,3.408 19.919,-5.473 21.419,-15.918 l 0.078,-0.54 -71.831,-4.047 0.016,0.545 z"
             style="fill:#8fd039;fill-opacity:1;fill-rule:nonzero;stroke:none"
             id="path30"
             inkscape:connector-curvature="0" /></g><g
           id="g32"
           transform="translate(91.2656,122.002)"><path
             d="m 0,0 c -1.547,0 -2.827,1.211 -2.915,2.757 -0.09,1.607 1.145,2.989 2.754,3.079 0.056,0.004 0.112,0.005 0.168,0.005 1.544,0 2.822,-1.21 2.908,-2.755 C 2.959,2.307 2.697,1.557 2.179,0.975 1.66,0.394 0.945,0.049 0.167,0.005 0.111,0.001 0.056,0 0,0 m 30.332,1.709 c -1.545,0 -2.823,1.212 -2.911,2.758 -0.09,1.607 1.144,2.988 2.75,3.078 0.057,0.004 0.113,0.005 0.169,0.005 1.545,0 2.824,-1.21 2.911,-2.755 C 33.295,4.016 33.033,3.267 32.514,2.685 31.995,2.103 31.279,1.758 30.5,1.714 30.444,1.711 30.388,1.709 30.332,1.709 m 5.893,26.679 c -0.765,0 -1.499,-0.424 -1.916,-1.107 l -5.825,-9.565 c -3.854,1.19 -7.901,1.792 -12.043,1.792 -0.795,0 -1.602,-0.022 -2.399,-0.067 C 9.065,19.16 4.306,18.039 -0.118,16.105 l -6.861,8.849 c -0.438,0.564 -1.108,0.899 -1.793,0.899 -0.46,0 -0.894,-0.146 -1.252,-0.423 -0.924,-0.715 -1.059,-2.091 -0.302,-3.07 l 6.355,-8.198 C -14.138,8.317 -20.356,-1.348 -20.674,-11.9 l -0.033,-1.09 1.089,0.061 70.742,3.986 1.089,0.061 -0.155,1.079 C 50.557,2.647 43.291,11.552 32.531,16.218 l 5.394,8.86 c 0.638,1.056 0.35,2.407 -0.64,3.014 -0.321,0.195 -0.686,0.296 -1.06,0.296 M 0,-1 c 0.074,0 0.148,0.002 0.224,0.006 2.161,0.122 3.812,1.975 3.69,4.136 C 3.797,5.226 2.071,6.841 0.007,6.841 -0.068,6.841 -0.143,6.839 -0.218,6.835 -2.381,6.713 -4.034,4.86 -3.913,2.701 -3.795,0.613 -2.065,-1 0,-1 m 30.332,1.709 c 0.074,0 0.149,0.002 0.225,0.007 C 32.72,0.838 34.372,2.69 34.25,4.852 34.132,6.936 32.405,8.55 30.34,8.55 30.266,8.55 30.19,8.548 30.115,8.544 27.953,8.422 26.302,6.57 26.423,4.411 26.541,2.323 28.267,0.709 30.332,0.709 m 5.893,26.679 c 0.186,0 0.371,-0.048 0.537,-0.148 0.526,-0.323 0.663,-1.055 0.309,-1.642 l -6,-9.856 C 41.729,11.496 49.536,2.722 51.068,-7.945 l -70.742,-3.986 c 0.324,10.772 7.094,20.367 17.207,25.784 l -7.068,9.119 c -0.42,0.543 -0.366,1.289 0.122,1.666 0.188,0.145 0.412,0.215 0.641,0.215 0.366,0 0.743,-0.178 1.002,-0.512 l 7.344,-9.47 c 4.371,2.015 9.288,3.276 14.524,3.571 0.786,0.045 1.567,0.066 2.343,0.066 4.392,0 8.605,-0.699 12.488,-1.984 l 6.234,10.236 c 0.245,0.402 0.657,0.628 1.062,0.628"
             style="fill:#ffffff;fill-opacity:1;fill-rule:nonzero;stroke:none"
             id="path34"
             inkscape:connector-curvature="0" /></g><g
           id="g36"
           transform="translate(76.166,54.6528)"><path
             d="m 0,0 6.26,0.014 c 0.449,-4.934 2.521,-10.692 2.521,-10.692 0,0 -4,0.074 -11.012,0.059 C -0.736,-6.421 0,0.001 0,0.001 L 0,0 Z M 3.027,74.426 C 2.502,74.342 2.43,73.692 2.43,73.692 l -0.559,-7.879 -2.023,-1.551 0,-1.588 -0.893,-0.388 0.014,-2.799 c 0,-0.582 1.377,-0.811 1.377,-0.811 0,0 -1.008,-17.568 -1.581,-27.921 C -1.808,20.401 -3.869,9.61 -3.869,9.61 l -1.253,-0.257 0,-0.936 -1.522,-0.003 0.014,-3.257 1.068,0.003 -6.043,-15.829 -3.096,-0.007 0.013,-2.453 -1.107,-0.226 0,-1.11 0.696,-0.517 0,-1.161 -13.97,-19.926 14.495,0.03 c 3.005,13.034 17.944,13.686 17.944,13.686 0,0 14.944,-0.518 18.042,-13.539 l 14.483,0.03 -14.101,19.858 0,1.16 0.679,0.531 0,1.099 -1.095,0.232 -0.014,2.442 -3.097,-0.007 -6.157,15.814 1.068,0.003 -0.014,3.257 -1.521,-0.004 0,0.927 -1.256,0.252 c 0,0 -2.139,10.792 -2.786,21.143 -0.648,10.351 -1.783,27.914 -1.783,27.914 0,0 1.374,0.236 1.372,0.817 l -0.014,2.789 -0.896,0.395 0,1.577 -2.034,1.554 -0.616,7.865 c 0,0 -0.076,0.66 -0.603,0.671 l 0,-0.001 z"
             style="fill:#050606;fill-opacity:1;fill-rule:nonzero;stroke:none"
             id="path38"
             inkscape:connector-curvature="0" /></g><g
           id="g40"
           transform="translate(76.166,54.6528)"><path
             d="m 0,0 6.26,0.014 c 0.449,-4.934 2.521,-10.692 2.521,-10.692 0,0 -4,0.074 -11.012,0.059 C -0.736,-6.421 0,0.001 0,0.001 L 0,0 Z M 3.027,74.426 C 2.502,74.342 2.43,73.692 2.43,73.692 l -0.559,-7.879 -2.023,-1.551 0,-1.588 -0.893,-0.388 0.014,-2.799 c 0,-0.582 1.377,-0.811 1.377,-0.811 0,0 -1.008,-17.568 -1.581,-27.921 C -1.808,20.401 -3.869,9.61 -3.869,9.61 l -1.253,-0.257 0,-0.936 -1.522,-0.003 0.014,-3.257 1.068,0.003 -6.043,-15.829 -3.096,-0.007 0.013,-2.453 -1.107,-0.226 0,-1.11 0.696,-0.517 0,-1.161 -13.97,-19.926 14.495,0.03 c 3.005,13.034 17.944,13.686 17.944,13.686 0,0 14.944,-0.518 18.042,-13.539 l 14.483,0.03 -14.101,19.858 0,1.16 0.679,0.531 0,1.099 -1.095,0.232 -0.014,2.442 -3.097,-0.007 -6.157,15.814 1.068,0.003 -0.014,3.257 -1.521,-0.004 0,0.927 -1.256,0.252 c 0,0 -2.139,10.792 -2.786,21.143 -0.648,10.351 -1.783,27.914 -1.783,27.914 0,0 1.374,0.236 1.372,0.817 l -0.014,2.789 -0.896,0.395 0,1.577 -2.034,1.554 -0.616,7.865 c 0,0 -0.076,0.66 -0.603,0.671 l 0,-0.001 z"
             style="fill:none;stroke:#ffffff;stroke-width:1.02900004;stroke-linecap:butt;stroke-linejoin:miter;stroke-miterlimit:4;stroke-dasharray:none;stroke-opacity:1"
             id="path42"
             inkscape:connector-curvature="0" /></g><g
           id="g44"
           transform="translate(46.4854,53.5391)"><path
             d="m 0,0 c 0,5.396 -2.629,8.093 -7.885,8.093 -3.705,0 -5.651,-0.208 -5.836,-0.625 -0.162,-0.301 -0.243,-2.976 -0.243,-8.024 0,-0.718 0.029,-1.777 0.087,-3.178 0.058,-1.401 0.087,-2.461 0.087,-3.178 0,-0.463 2.084,-0.695 6.252,-0.695 C -2.513,-7.607 0,-5.071 0,0 m 13.859,0.556 c 0,-5.604 -1.471,-10.143 -4.411,-13.617 -3.15,-3.681 -7.491,-5.522 -13.026,-5.522 -0.926,0 -2.322,0.052 -4.186,0.156 -1.864,0.104 -3.259,0.156 -4.185,0.156 -0.996,0 -1.494,-0.428 -1.494,-1.285 0,-1.065 0.105,-2.652 0.313,-4.758 0.208,-2.108 0.313,-3.683 0.313,-4.725 0,-0.532 -0.244,-0.798 -0.73,-0.798 -1.412,0 -3.532,0.04 -6.356,0.121 -2.826,0.082 -4.945,0.122 -6.357,0.122 -0.672,0 -1.007,0.335 -1.007,1.007 0,2.57 0.04,6.432 0.121,11.584 0.081,5.152 0.122,9.014 0.122,11.585 0,7.271 -0.313,14.912 -0.938,22.925 l -0.035,0.486 c -0.046,0.44 0.301,0.706 1.042,0.799 1.807,0.231 5.789,0.347 11.949,0.347 3.635,0 7.121,-0.047 10.456,-0.139 5.488,-0.162 9.91,-1.887 13.268,-5.175 3.427,-3.382 5.141,-7.804 5.141,-13.269"
             style="fill:#050606;fill-opacity:1;fill-rule:nonzero;stroke:none"
             id="path46"
             inkscape:connector-curvature="0" /></g><g
           id="g48"
           transform="translate(147.481,41)"><path
             d="m 0,0 c 0,-5.905 -0.707,-9.935 -2.119,-12.088 -2.593,-3.937 -9.066,-5.905 -19.417,-5.905 -4.678,0 -8.279,0.359 -10.802,1.077 -4.03,1.157 -6.647,3.369 -7.85,6.634 -0.603,1.598 -0.904,4.446 -0.904,8.545 0,0.949 0.035,2.362 0.105,4.237 0.069,1.876 0.104,3.277 0.104,4.204 0,2.686 -0.128,6.715 -0.383,12.088 -0.255,5.372 -0.381,9.389 -0.381,12.053 0,0.555 0.243,0.833 0.729,0.833 1.412,0 3.548,-0.058 6.409,-0.174 2.859,-0.116 4.995,-0.173 6.408,-0.173 0.579,0 0.869,-0.255 0.869,-0.764 0,-3.057 -0.099,-7.637 -0.296,-13.738 -0.197,-6.102 -0.295,-10.681 -0.295,-13.738 0,-3.635 0.382,-6.091 1.146,-7.363 1.019,-1.737 3.149,-2.606 6.392,-2.606 4.746,0 7.12,2.304 7.12,6.913 0,3.357 -0.081,8.394 -0.243,15.11 -0.162,6.714 -0.243,11.751 -0.243,15.109 0,0.718 0.289,1.077 0.868,1.077 1.366,0 3.427,0.057 6.183,0.173 2.756,0.116 4.816,0.174 6.183,0.174 0.671,0 1.007,-0.278 1.007,-0.833 C 0.59,28.181 0.48,24.164 0.26,18.792 0.04,13.419 -0.069,9.39 -0.069,6.704 -0.069,5.962 -0.058,4.845 -0.035,3.352 -0.012,1.858 0,0.741 0,0"
             style="fill:#050606;fill-opacity:1;fill-rule:nonzero;stroke:none"
             id="path50"
             inkscape:connector-curvature="0" /></g><g
           id="g52"
           transform="translate(201.8135,25.0562)"><path
             d="m 0,0 c 0.046,-0.625 -0.278,-0.938 -0.973,-0.938 -0.44,0 -1.708,0.255 -3.803,0.765 -2.096,0.508 -3.387,0.856 -3.873,1.042 -4.84,-1.899 -9.483,-2.848 -13.929,-2.848 -7.155,0 -13.026,2.384 -17.61,7.155 -4.54,4.7 -6.809,10.64 -6.809,17.819 0,7.34 2.2,13.43 6.6,18.271 4.538,5.002 10.432,7.503 17.68,7.503 3.52,0 6.831,-0.673 9.934,-2.015 3.358,-1.483 5.997,-3.566 7.92,-6.253 0.393,-0.555 0.591,-0.949 0.591,-1.181 0,-0.741 -1.037,-2.403 -3.109,-4.984 -2.073,-2.583 -3.411,-3.873 -4.012,-3.873 -0.139,0 -0.672,0.475 -1.598,1.424 -1.135,1.134 -2.293,2.015 -3.474,2.64 -1.76,0.949 -3.705,1.424 -5.835,1.424 -3.473,0 -6.23,-1.297 -8.267,-3.89 -1.899,-2.386 -2.849,-5.361 -2.849,-8.927 0,-3.775 0.985,-6.762 2.953,-8.962 2.038,-2.27 4.921,-3.404 8.649,-3.404 2.362,0 5.002,0.59 7.92,1.772 -0.07,0.764 -0.278,2.709 -0.626,5.835 -0.301,2.408 -0.451,4.354 -0.451,5.835 0,0.44 0.15,0.707 0.451,0.799 0.116,0.047 0.301,0.07 0.556,0.07 0.672,0 1.685,-0.064 3.04,-0.191 1.354,-0.128 2.379,-0.191 3.074,-0.191 0.741,0 1.852,0.052 3.334,0.156 1.482,0.105 2.594,0.156 3.335,0.156 0.578,0 0.868,-0.382 0.868,-1.146 0,-1.111 -0.064,-2.791 -0.191,-5.036 -0.127,-2.247 -0.191,-3.926 -0.191,-5.037 0,-2.987 0.22,-7.457 0.66,-13.408 L 0,0 Z"
             style="fill:#050606;fill-opacity:1;fill-rule:nonzero;stroke:none"
             id="path54"
             inkscape:connector-curvature="0" /></g><g
           id="g56"
           transform="translate(46.4854,53.5391)"><path
             d="m 0,0 c 0,5.396 -2.629,8.093 -7.885,8.093 -3.705,0 -5.651,-0.208 -5.836,-0.625 -0.162,-0.301 -0.243,-2.976 -0.243,-8.024 0,-0.718 0.029,-1.777 0.087,-3.178 0.058,-1.401 0.087,-2.461 0.087,-3.178 0,-0.463 2.084,-0.695 6.252,-0.695 C -2.513,-7.607 0,-5.071 0,0 Z m 13.859,0.556 c 0,-5.604 -1.471,-10.143 -4.411,-13.617 -3.15,-3.681 -7.491,-5.522 -13.026,-5.522 -0.926,0 -2.322,0.052 -4.186,0.156 -1.864,0.104 -3.259,0.156 -4.185,0.156 -0.996,0 -1.494,-0.428 -1.494,-1.285 0,-1.065 0.105,-2.652 0.313,-4.758 0.208,-2.108 0.313,-3.683 0.313,-4.725 0,-0.532 -0.244,-0.798 -0.73,-0.798 -1.412,0 -3.532,0.04 -6.356,0.121 -2.826,0.082 -4.945,0.122 -6.357,0.122 -0.672,0 -1.007,0.335 -1.007,1.007 0,2.57 0.04,6.432 0.121,11.584 0.081,5.152 0.122,9.014 0.122,11.585 0,7.271 -0.313,14.912 -0.938,22.925 l -0.035,0.486 c -0.046,0.44 0.301,0.706 1.042,0.799 1.807,0.231 5.789,0.347 11.949,0.347 3.635,0 7.121,-0.047 10.456,-0.139 5.488,-0.162 9.91,-1.887 13.268,-5.175 3.427,-3.382 5.141,-7.804 5.141,-13.269 z"
             style="fill:none;stroke:#ffffff;stroke-width:2.06699991;stroke-linecap:butt;stroke-linejoin:miter;stroke-miterlimit:4;stroke-dasharray:none;stroke-opacity:1"
             id="path58"
             inkscape:connector-curvature="0" /></g><g
           id="g60"
           transform="translate(147.481,41)"><path
             d="m 0,0 c 0,-5.905 -0.707,-9.935 -2.119,-12.088 -2.593,-3.937 -9.066,-5.905 -19.417,-5.905 -4.678,0 -8.279,0.359 -10.802,1.077 -4.03,1.157 -6.647,3.369 -7.85,6.634 -0.603,1.598 -0.904,4.446 -0.904,8.545 0,0.949 0.035,2.362 0.105,4.237 0.069,1.876 0.104,3.277 0.104,4.204 0,2.686 -0.128,6.715 -0.383,12.088 -0.255,5.372 -0.381,9.389 -0.381,12.053 0,0.555 0.243,0.833 0.729,0.833 1.412,0 3.548,-0.058 6.409,-0.174 2.859,-0.116 4.995,-0.173 6.408,-0.173 0.579,0 0.869,-0.255 0.869,-0.764 0,-3.057 -0.099,-7.637 -0.296,-13.738 -0.197,-6.102 -0.295,-10.681 -0.295,-13.738 0,-3.635 0.382,-6.091 1.146,-7.363 1.019,-1.737 3.149,-2.606 6.392,-2.606 4.746,0 7.12,2.304 7.12,6.913 0,3.357 -0.081,8.394 -0.243,15.11 -0.162,6.714 -0.243,11.751 -0.243,15.109 0,0.718 0.289,1.077 0.868,1.077 1.366,0 3.427,0.057 6.183,0.173 2.756,0.116 4.816,0.174 6.183,0.174 0.671,0 1.007,-0.278 1.007,-0.833 C 0.59,28.181 0.48,24.164 0.26,18.792 0.04,13.419 -0.069,9.39 -0.069,6.704 -0.069,5.962 -0.058,4.845 -0.035,3.352 -0.012,1.858 0,0.741 0,0 Z"
             style="fill:none;stroke:#ffffff;stroke-width:2.06699991;stroke-linecap:butt;stroke-linejoin:miter;stroke-miterlimit:4;stroke-dasharray:none;stroke-opacity:1"
             id="path62"
             inkscape:connector-curvature="0" /></g><g
           id="g64"
           transform="translate(201.8135,25.0562)"><path
             d="m 0,0 c 0.046,-0.625 -0.278,-0.938 -0.973,-0.938 -0.44,0 -1.708,0.255 -3.803,0.765 -2.096,0.508 -3.387,0.856 -3.873,1.042 -4.84,-1.899 -9.483,-2.848 -13.929,-2.848 -7.155,0 -13.026,2.384 -17.61,7.155 -4.54,4.7 -6.809,10.64 -6.809,17.819 0,7.34 2.2,13.43 6.6,18.271 4.538,5.002 10.432,7.503 17.68,7.503 3.52,0 6.831,-0.673 9.934,-2.015 3.358,-1.483 5.997,-3.566 7.92,-6.253 0.393,-0.555 0.591,-0.949 0.591,-1.181 0,-0.741 -1.037,-2.403 -3.109,-4.984 -2.073,-2.583 -3.411,-3.873 -4.012,-3.873 -0.139,0 -0.672,0.475 -1.598,1.424 -1.135,1.134 -2.293,2.015 -3.474,2.64 -1.76,0.949 -3.705,1.424 -5.835,1.424 -3.473,0 -6.23,-1.297 -8.267,-3.89 -1.899,-2.386 -2.849,-5.361 -2.849,-8.927 0,-3.775 0.985,-6.762 2.953,-8.962 2.038,-2.27 4.921,-3.404 8.649,-3.404 2.362,0 5.002,0.59 7.92,1.772 -0.07,0.764 -0.278,2.709 -0.626,5.835 -0.301,2.408 -0.451,4.354 -0.451,5.835 0,0.44 0.15,0.707 0.451,0.799 0.116,0.047 0.301,0.07 0.556,0.07 0.672,0 1.685,-0.064 3.04,-0.191 1.354,-0.128 2.379,-0.191 3.074,-0.191 0.741,0 1.852,0.052 3.334,0.156 1.482,0.105 2.594,0.156 3.335,0.156 0.578,0 0.868,-0.382 0.868,-1.146 0,-1.111 -0.064,-2.791 -0.191,-5.036 -0.127,-2.247 -0.191,-3.926 -0.191,-5.037 0,-2.987 0.22,-7.457 0.66,-13.408 L 0,0 Z"
             style="fill:none;stroke:#ffffff;stroke-width:2.06699991;stroke-linecap:butt;stroke-linejoin:miter;stroke-miterlimit:4;stroke-dasharray:none;stroke-opacity:1"
             id="path66"
             inkscape:connector-curvature="0" /></g><g
           id="g68"
           transform="translate(100.3169,73.6128)"><path
             d="m 0,0 c -1.054,0 -2.093,0.191 -3.088,0.57 l -29.545,11.222 c -4.426,1.682 -6.68,6.599 -5.023,10.96 1.234,3.249 4.428,5.432 7.949,5.432 1.052,0 2.09,-0.191 3.084,-0.568 L 2.923,16.394 C 7.349,14.712 9.602,9.795 7.945,5.432 6.711,2.183 3.518,0 0,0 Z"
             style="fill:#8fd039;fill-opacity:1;fill-rule:nonzero;stroke:none"
             id="path70"
             inkscape:connector-curvature="0" /></g><g
           id="g72"
           transform="translate(70.6099,102.2969)"><path
             d="m 0,0 c -3.727,0 -7.109,-2.312 -8.417,-5.754 -1.753,-4.62 0.63,-9.826 5.313,-11.605 l 29.545,-11.223 c 1.053,-0.399 2.151,-0.602 3.266,-0.602 3.724,0 7.105,2.312 8.413,5.754 1.755,4.621 -0.629,9.828 -5.313,11.607 L 3.262,-0.601 C 2.211,-0.202 1.113,0 0,0 m 0,-1 c 0.965,0 1.949,-0.172 2.907,-0.536 l 29.545,-11.222 c 4.177,-1.586 6.295,-6.204 4.733,-10.317 -1.204,-3.168 -4.238,-5.109 -7.478,-5.109 -0.966,0 -1.951,0.173 -2.911,0.537 l -29.545,11.223 c -4.174,1.586 -6.294,6.202 -4.733,10.315 C -6.279,-2.941 -3.241,-1 0,-1"
             style="fill:#ffffff;fill-opacity:1;fill-rule:nonzero;stroke:none"
             id="path74"
             inkscape:connector-curvature="0" /></g><g
           id="g76"
           transform="translate(153.3081,86.4844)"><path
             d="M 0,0 C -1,0 -1.985,0.179 -2.929,0.532 -7.3,2.169 -9.504,7.109 -7.844,11.543 L 3.243,41.14 c 1.256,3.353 4.474,5.605 8.009,5.605 1,0 1.986,-0.179 2.93,-0.532 2.118,-0.794 3.795,-2.377 4.721,-4.458 0.926,-2.078 0.992,-4.405 0.188,-6.551 L 8.005,5.607 C 6.75,2.253 3.532,0 0,0"
             style="fill:#8fd039;fill-opacity:1;fill-rule:nonzero;stroke:none"
             id="path78"
             inkscape:connector-curvature="0" /></g><g
           id="g80"
           transform="translate(164.5601,133.7295)"><path
             d="m 0,0 c -3.742,0 -7.149,-2.383 -8.478,-5.93 l -11.086,-29.597 c -1.757,-4.692 0.579,-9.92 5.208,-11.654 1,-0.374 2.044,-0.564 3.104,-0.564 3.74,0 7.145,2.384 8.474,5.932 l 11.085,29.596 c 0.851,2.27 0.78,4.731 -0.199,6.93 C 7.126,-3.082 5.349,-1.405 3.104,-0.564 2.106,-0.189 1.061,0 0,0 m 0,-1 c 0.917,0 1.848,-0.161 2.754,-0.5 l -10e-4,0 C 6.872,-3.043 8.938,-7.684 7.371,-11.866 L -3.715,-41.463 c -1.222,-3.263 -4.291,-5.282 -7.537,-5.282 -0.916,0 -1.847,0.161 -2.753,0.5 -4.118,1.543 -6.189,6.184 -4.622,10.368 L -7.541,-6.281 C -6.319,-3.02 -3.247,-1 0,-1"
             style="fill:#ffffff;fill-opacity:1;fill-rule:nonzero;stroke:none"
             id="path82"
             inkscape:connector-curvature="0" /></g><g
           id="g84"
           transform="translate(290.0298,75.2422)"><path
             d="m 0,0 c 0,4.032 -1.964,6.048 -5.893,6.048 -2.769,0 -4.223,-0.155 -4.361,-0.467 -0.121,-0.225 -0.182,-2.224 -0.182,-5.997 0,-0.536 0.022,-1.328 0.065,-2.375 0.043,-1.047 0.065,-1.839 0.065,-2.375 0,-0.346 1.558,-0.519 4.673,-0.519 C -1.878,-5.685 0,-3.79 0,0 m 10.357,0.415 c 0,-4.188 -1.099,-7.58 -3.296,-10.176 -2.354,-2.751 -5.599,-4.127 -9.735,-4.127 -0.692,0 -1.735,0.039 -3.128,0.117 -1.393,0.078 -2.436,0.116 -3.128,0.116 -0.744,0 -1.116,-0.32 -1.116,-0.96 0,-0.796 0.078,-1.982 0.233,-3.556 0.156,-1.576 0.234,-2.752 0.234,-3.531 0,-0.398 -0.182,-0.597 -0.545,-0.597 -1.056,0 -2.639,0.03 -4.751,0.091 -2.111,0.061 -3.694,0.091 -4.75,0.091 -0.502,0 -0.753,0.25 -0.753,0.753 0,1.921 0.03,4.806 0.091,8.657 0.06,3.851 0.091,6.736 0.091,8.657 0,5.434 -0.234,11.145 -0.701,17.133 l -0.026,0.363 c -0.035,0.329 0.225,0.528 0.779,0.597 1.35,0.173 4.326,0.26 8.93,0.26 2.716,0 5.321,-0.035 7.813,-0.104 4.102,-0.121 7.407,-1.41 9.917,-3.867 2.561,-2.527 3.841,-5.833 3.841,-9.917"
             style="fill:#231f20;fill-opacity:1;fill-rule:nonzero;stroke:none"
             id="path86"
             inkscape:connector-curvature="0" /></g><g
           id="g88"
           transform="translate(321.4922,65.9487)"><path
             d="M 0,0 C 0,1.471 -0.463,2.687 -1.389,3.647 -2.315,4.607 -3.522,5.088 -5.01,5.088 -6.499,5.088 -7.701,4.612 -8.619,3.66 -9.536,2.708 -9.994,1.488 -9.994,0 c 0,-1.402 0.484,-2.605 1.453,-3.608 0.969,-1.004 2.146,-1.506 3.531,-1.506 1.47,0 2.674,0.48 3.608,1.441 C -0.467,-2.713 0,-1.489 0,0 m 8.358,0.156 c 0,-1.333 0.079,-3.315 0.234,-5.945 0.156,-2.63 0.234,-4.604 0.234,-5.919 0,-0.692 -0.303,-1.064 -0.909,-1.116 -2.146,-0.155 -4.604,-0.233 -7.372,-0.233 -0.329,0 -0.549,0.497 -0.662,1.492 -0.112,0.995 -0.247,1.502 -0.403,1.519 -0.138,-0.07 -0.32,-0.217 -0.544,-0.441 -1.939,-1.956 -4.016,-2.934 -6.23,-2.934 -3.375,0 -6.17,1.333 -8.385,3.998 -2.094,2.492 -3.141,5.468 -3.141,8.93 0,3.997 1.081,7.216 3.245,9.657 2.249,2.526 5.33,3.79 9.241,3.79 2.717,0 4.863,-0.953 6.438,-2.856 0.069,-0.087 0.129,-0.13 0.182,-0.13 0.155,0 0.333,0.42 0.531,1.259 0.199,0.839 0.437,1.259 0.714,1.259 0.64,0 1.861,-0.181 3.661,-0.545 1.713,-0.346 2.941,-0.64 3.686,-0.882 0.259,-0.104 0.389,-0.243 0.389,-0.416 0,-0.069 -0.026,-0.251 -0.078,-0.545 C 8.635,6.965 8.358,3.651 8.358,0.156"
             style="fill:#231f20;fill-opacity:1;fill-rule:nonzero;stroke:none"
             id="path90"
             inkscape:connector-curvature="0" /></g><g
           id="g92"
           transform="translate(352.2271,69.2974)"><path
             d="m 0,0 c 0,-0.675 -0.372,-1.012 -1.116,-1.012 -0.329,0 -0.809,0.021 -1.441,0.065 -0.631,0.043 -1.103,0.064 -1.415,0.064 -1.436,0 -2.414,-0.225 -2.933,-0.675 -0.519,-0.45 -0.779,-1.359 -0.779,-2.725 0,-0.744 0.014,-1.874 0.039,-3.388 0.026,-1.515 0.04,-2.643 0.04,-3.388 0,-0.502 0.034,-1.25 0.103,-2.245 0.069,-0.995 0.104,-1.735 0.104,-2.219 0,-0.416 -0.286,-0.649 -0.857,-0.701 -0.83,-0.069 -2.102,-0.104 -3.816,-0.104 -1.644,0 -2.959,0.052 -3.946,0.156 -0.57,0.068 -0.856,0.354 -0.856,0.856 0,1.385 0.008,3.457 0.026,6.217 0.017,2.761 0.026,4.833 0.026,6.218 0,4.066 -0.372,7.415 -1.117,10.046 -0.034,0.155 -0.051,0.285 -0.051,0.389 0,0.259 0.13,0.432 0.389,0.519 0.952,0.104 2.345,0.294 4.18,0.572 2.733,0.536 4.144,0.804 4.231,0.804 0.311,0 0.51,-0.545 0.597,-1.636 0.086,-1.09 0.242,-1.635 0.467,-1.635 -0.243,0 0.467,0.454 2.129,1.363 1.661,0.909 3.262,1.363 4.802,1.363 0.969,0 1.454,-0.208 1.454,-0.623 C 0.26,7.779 0.208,7.069 0.104,6.152 0,5.166 -0.061,4.456 -0.078,4.023 -0.078,3.521 -0.069,2.855 -0.052,2.025 -0.017,1.003 0,0.329 0,0"
             style="fill:#231f20;fill-opacity:1;fill-rule:nonzero;stroke:none"
             id="path94"
             inkscape:connector-curvature="0" /></g><g
           id="g96"
           transform="translate(365.5444,84.3276)"><path
             d="m 0,0 c 0,-3.011 -1.696,-4.517 -5.088,-4.517 -1.454,0 -2.657,0.381 -3.608,1.142 -1.039,0.831 -1.558,1.956 -1.558,3.375 0,1.35 0.536,2.457 1.609,3.323 0.987,0.796 2.172,1.194 3.557,1.194 1.35,0 2.518,-0.407 3.505,-1.22 C -0.528,2.431 0,1.333 0,0 m -0.675,-19.288 c 0,-1.263 0.026,-3.145 0.078,-5.646 0.052,-2.501 0.077,-4.374 0.077,-5.62 0,-0.363 -0.216,-0.58 -0.648,-0.649 -0.589,-0.104 -1.913,-0.155 -3.972,-0.155 -2.077,0 -3.409,0.051 -3.998,0.155 -0.381,0.069 -0.614,0.182 -0.7,0.338 -0.036,0.069 -0.053,0.328 -0.053,0.779 0,1.194 0.027,2.989 0.078,5.386 0.052,2.397 0.078,4.201 0.078,5.412 0,4.915 -0.19,8.827 -0.571,11.734 -0.035,0.277 -0.052,0.458 -0.052,0.545 0,0.346 0.234,0.519 0.701,0.519 0.485,0 1.224,-0.052 2.219,-0.156 0.996,-0.104 1.744,-0.155 2.246,-0.155 0.502,0 1.254,0.043 2.258,0.13 1.004,0.086 1.757,0.129 2.259,0.129 0.415,0 0.623,-0.173 0.623,-0.519 0,-0.069 -0.017,-0.233 -0.052,-0.493 -0.381,-3.375 -0.571,-7.286 -0.571,-11.734"
             style="fill:#231f20;fill-opacity:1;fill-rule:nonzero;stroke:none"
             id="path98"
             inkscape:connector-curvature="0" /></g><g
           id="g100"
           transform="translate(385.0654,74.1255)"><path
             d="m 0,0 c 0,-0.173 -0.13,-0.407 -0.39,-0.701 -0.484,0.121 -0.969,0.182 -1.453,0.182 -1.022,0 -1.878,-0.225 -2.57,-0.675 -0.831,-0.519 -1.246,-1.255 -1.246,-2.206 0,-0.606 0.441,-1.376 1.324,-2.311 1.332,-1.401 2.154,-2.345 2.466,-2.829 0.882,-1.315 1.324,-2.726 1.324,-4.231 0,-0.883 -0.173,-1.818 -0.519,-2.804 -0.399,-1.091 -0.9,-1.886 -1.506,-2.388 -1.281,-1.108 -2.778,-2.042 -4.491,-2.804 -1.852,-0.796 -3.556,-1.194 -5.114,-1.194 -0.346,0 -1.12,0.939 -2.323,2.816 -1.203,1.878 -1.804,3.025 -1.804,3.44 0,0.156 0.094,0.251 0.285,0.286 1.211,0.224 2.432,0.449 3.661,0.674 1.522,0.485 2.284,1.281 2.284,2.389 0,0.761 -0.442,1.644 -1.324,2.648 -1.575,1.748 -2.397,2.673 -2.466,2.777 -0.883,1.246 -1.324,2.561 -1.324,3.946 0,2.596 1.315,4.802 3.946,6.619 2.353,1.61 4.871,2.415 7.553,2.415 0.277,0 0.961,-0.931 2.051,-2.791 C -0.545,1.397 0,0.312 0,0"
             style="fill:#231f20;fill-opacity:1;fill-rule:nonzero;stroke:none"
             id="path102"
             inkscape:connector-curvature="0" /></g><g
           id="g104"
           transform="translate(418.1108,77.4224)"><path
             d="m 0,0 c -0.363,-0.762 -0.978,-2.414 -1.843,-4.958 -0.935,-2.7 -1.402,-4.283 -1.402,-4.75 0,-0.312 0.519,-0.485 1.557,-0.52 0.537,-0.035 1.419,-0.052 2.648,-0.052 1.143,0 1.774,0.139 1.895,0.416 0.035,0.086 0.052,0.207 0.052,0.363 0,0.571 -0.398,2.146 -1.194,4.725 C 0.935,-2.284 0.363,-0.692 0,0 m 18.405,-23.648 c 0,-0.312 -0.217,-0.528 -0.649,-0.649 -0.519,-0.139 -2.129,-0.208 -4.828,-0.208 -2.475,0 -4.068,0.069 -4.777,0.208 -0.588,0.121 -0.961,0.51 -1.116,1.168 -0.589,2.492 -1.047,3.824 -1.376,3.998 -0.277,0.12 -2.596,0.181 -6.957,0.181 -2.942,0 -4.508,-0.078 -4.699,-0.234 -0.294,-0.276 -0.623,-1.203 -0.986,-2.777 -0.329,-1.437 -0.727,-2.215 -1.194,-2.336 -0.589,-0.139 -2.561,-0.208 -5.919,-0.208 -2.648,0 -3.971,0.251 -3.971,0.753 0,0.45 1.955,5.979 5.866,16.587 4.24,11.474 6.542,17.782 6.906,18.924 0.207,0.658 0.449,0.987 0.726,0.987 0.467,0 1.19,-0.043 2.168,-0.13 0.977,-0.087 1.709,-0.13 2.193,-0.13 0.468,0 1.155,0.031 2.064,0.091 0.909,0.061 1.587,0.091 2.038,0.091 0.328,0 0.631,-0.286 0.908,-0.856 0.848,-1.818 3.323,-8.048 7.425,-18.691 4.118,-10.712 6.178,-16.302 6.178,-16.769"
             style="fill:#231f20;fill-opacity:1;fill-rule:nonzero;stroke:none"
             id="path106"
             inkscape:connector-curvature="0" /></g><g
           id="g108"
           transform="translate(464.7852,53.8779)"><path
             d="m 0,0 c 0,-0.467 -0.243,-0.736 -0.727,-0.805 -0.485,-0.069 -1.748,-0.104 -3.79,-0.104 -2.181,0 -3.53,0.052 -4.049,0.156 -0.52,0.104 -0.779,0.459 -0.779,1.065 0,0.813 0.026,2.041 0.077,3.686 0.053,1.644 0.079,2.881 0.079,3.711 0,0.641 -0.018,1.597 -0.053,2.869 -0.034,1.272 -0.051,2.228 -0.051,2.869 0,2.37 -1.03,3.556 -3.089,3.556 -0.676,0 -1.463,-0.295 -2.363,-0.883 -0.969,-0.658 -1.453,-1.307 -1.453,-1.947 l 0,-14.017 c 0,-0.572 -0.269,-0.892 -0.805,-0.961 -0.606,-0.069 -1.843,-0.104 -3.712,-0.104 -2.025,0 -3.341,0.052 -3.946,0.156 -0.537,0.086 -0.805,0.372 -0.805,0.857 0,1.35 0.008,3.383 0.026,6.1 0.017,2.717 0.026,4.759 0.026,6.127 0,4.309 -0.337,7.691 -1.012,10.149 -0.035,0.156 -0.052,0.286 -0.052,0.39 0,0.276 0.129,0.467 0.389,0.571 1.09,0.121 2.544,0.311 4.361,0.571 2.752,0.536 4.301,0.804 4.647,0.804 0.19,0 0.337,-0.584 0.441,-1.752 0.104,-1.168 0.251,-1.752 0.442,-1.752 -0.191,0 0.74,0.601 2.79,1.804 2.051,1.203 3.846,1.804 5.387,1.804 2.197,0 4.032,-0.519 5.503,-1.557 1.644,-1.194 2.466,-2.856 2.466,-4.984 l 0,-8.281 c 0,-1.125 0.009,-2.808 0.026,-5.049 C -0.009,2.808 0,1.125 0,0"
             style="fill:#231f20;fill-opacity:1;fill-rule:nonzero;stroke:none"
             id="path110"
             inkscape:connector-curvature="0" /></g><g
           id="g112"
           transform="translate(486.8501,66.1045)"><path
             d="M 0,0 C 0,1.367 -0.476,2.565 -1.428,3.595 -2.38,4.625 -3.531,5.14 -4.88,5.14 -6.3,5.14 -7.429,4.625 -8.268,3.595 -9.107,2.565 -9.527,1.333 -9.527,-0.104 c 0,-1.402 0.424,-2.587 1.272,-3.556 0.865,-1.039 1.99,-1.558 3.375,-1.558 1.384,0 2.544,0.519 3.478,1.558 C -0.467,-2.622 0,-1.402 0,0 m 9.787,23.856 c 0,0.381 -0.07,-0.19 -0.208,-1.713 C 9.388,20.222 9.241,17.764 9.137,14.771 8.999,11.378 8.93,7.519 8.93,3.193 c 0,-7.148 0.198,-12.235 0.597,-15.264 0.034,-0.329 0.052,-0.536 0.052,-0.623 0,-0.191 -0.13,-0.303 -0.39,-0.337 -0.623,-0.087 -2.916,-0.13 -6.879,-0.13 -0.935,0 -1.471,0.182 -1.609,0.545 -0.035,0.658 -0.07,1.315 -0.104,1.973 -0.017,0.138 -0.087,0.276 -0.208,0.415 C 0.286,-10.28 0.156,-10.384 0,-10.54 c -1.869,-1.834 -4.206,-2.751 -7.009,-2.751 -3.652,0 -6.576,1.281 -8.774,3.842 -2.094,2.44 -3.141,5.52 -3.141,9.241 0,3.773 1.029,6.879 3.089,9.319 2.181,2.597 5.123,3.894 8.826,3.894 2.613,0 4.647,-0.83 6.1,-2.492 0.242,-0.277 0.416,-0.415 0.519,-0.415 0.156,0 0.234,0.225 0.234,0.675 0,1.332 -0.035,3.323 -0.104,5.971 -0.069,2.647 -0.104,4.629 -0.104,5.944 0,0.502 0.139,0.787 0.416,0.856 1.107,0.053 2.63,0.156 4.569,0.312 3.461,0.433 4.992,0.649 4.594,0.649 0.381,0 0.572,-0.216 0.572,-0.649"
             style="fill:#231f20;fill-opacity:1;fill-rule:nonzero;stroke:none"
             id="path114"
             inkscape:connector-curvature="0" /></g><g
           id="g116"
           transform="translate(517.689,69.2974)"><path
             d="m 0,0 c 0,-0.675 -0.372,-1.012 -1.116,-1.012 -0.329,0 -0.809,0.021 -1.441,0.065 -0.631,0.043 -1.103,0.064 -1.415,0.064 -1.436,0 -2.414,-0.225 -2.933,-0.675 -0.519,-0.45 -0.779,-1.359 -0.779,-2.725 0,-0.744 0.014,-1.874 0.039,-3.388 0.026,-1.515 0.04,-2.643 0.04,-3.388 0,-0.502 0.034,-1.25 0.103,-2.245 0.069,-0.995 0.104,-1.735 0.104,-2.219 0,-0.416 -0.286,-0.649 -0.857,-0.701 -0.83,-0.069 -2.102,-0.104 -3.816,-0.104 -1.644,0 -2.959,0.052 -3.946,0.156 -0.57,0.068 -0.856,0.354 -0.856,0.856 0,1.385 0.008,3.457 0.026,6.217 0.017,2.761 0.026,4.833 0.026,6.218 0,4.066 -0.372,7.415 -1.117,10.046 -0.034,0.155 -0.051,0.285 -0.051,0.389 0,0.259 0.13,0.432 0.389,0.519 0.952,0.104 2.345,0.294 4.18,0.572 2.733,0.536 4.144,0.804 4.231,0.804 0.311,0 0.51,-0.545 0.597,-1.636 0.086,-1.09 0.242,-1.635 0.467,-1.635 -0.243,0 0.467,0.454 2.129,1.363 1.661,0.909 3.262,1.363 4.802,1.363 0.969,0 1.454,-0.208 1.454,-0.623 C 0.26,7.779 0.208,7.069 0.104,6.152 0,5.166 -0.061,4.456 -0.078,4.023 -0.078,3.521 -0.069,2.855 -0.052,2.025 -0.017,1.003 0,0.329 0,0"
             style="fill:#231f20;fill-opacity:1;fill-rule:nonzero;stroke:none"
             id="path118"
             inkscape:connector-curvature="0" /></g><g
           id="g120"
           transform="translate(537.1846,65.897)"><path
             d="m 0,0 c 0,1.367 -0.424,2.574 -1.272,3.621 -0.848,1.047 -1.947,1.57 -3.297,1.57 -1.367,0 -2.492,-0.536 -3.374,-1.609 C -8.774,2.578 -9.189,1.384 -9.189,0 c 0,-1.402 0.415,-2.605 1.246,-3.608 0.882,-1.074 2.007,-1.61 3.374,-1.61 1.35,0 2.466,0.536 3.349,1.61 C -0.407,-2.605 0,-1.402 0,0 m 8.514,0 c 0,-3.946 -1.207,-7.148 -3.621,-9.605 -2.414,-2.458 -5.585,-3.686 -9.514,-3.686 -3.807,0 -6.94,1.211 -9.397,3.634 -2.458,2.423 -3.686,5.538 -3.686,9.345 0,4.015 1.177,7.273 3.53,9.774 2.354,2.5 5.538,3.751 9.553,3.751 3.911,0 7.078,-1.225 9.501,-3.673 C 7.303,7.091 8.514,3.911 8.514,0"
             style="fill:#231f20;fill-opacity:1;fill-rule:nonzero;stroke:none"
             id="path122"
             inkscape:connector-curvature="0" /></g><g
           id="g124"
           transform="translate(559.1196,84.3276)"><path
             d="m 0,0 c 0,-3.011 -1.696,-4.517 -5.088,-4.517 -1.454,0 -2.657,0.381 -3.608,1.142 -1.039,0.831 -1.558,1.956 -1.558,3.375 0,1.35 0.536,2.457 1.609,3.323 0.987,0.796 2.172,1.194 3.557,1.194 1.35,0 2.518,-0.407 3.505,-1.22 C -0.528,2.431 0,1.333 0,0 m -0.675,-19.288 c 0,-1.263 0.026,-3.145 0.078,-5.646 0.052,-2.501 0.077,-4.374 0.077,-5.62 0,-0.363 -0.216,-0.58 -0.648,-0.649 -0.589,-0.104 -1.913,-0.155 -3.972,-0.155 -2.077,0 -3.409,0.051 -3.998,0.155 -0.381,0.069 -0.614,0.182 -0.7,0.338 -0.036,0.069 -0.053,0.328 -0.053,0.779 0,1.194 0.027,2.989 0.078,5.386 0.052,2.397 0.078,4.201 0.078,5.412 0,4.915 -0.19,8.827 -0.571,11.734 -0.035,0.277 -0.052,0.458 -0.052,0.545 0,0.346 0.234,0.519 0.701,0.519 0.485,0 1.224,-0.052 2.219,-0.156 0.996,-0.104 1.744,-0.155 2.246,-0.155 0.502,0 1.254,0.043 2.258,0.13 1.004,0.086 1.757,0.129 2.259,0.129 0.415,0 0.623,-0.173 0.623,-0.519 0,-0.069 -0.017,-0.233 -0.052,-0.493 -0.381,-3.375 -0.571,-7.286 -0.571,-11.734"
             style="fill:#231f20;fill-opacity:1;fill-rule:nonzero;stroke:none"
             id="path126"
             inkscape:connector-curvature="0" /></g><g
           id="g128"
           transform="translate(581.1846,66.1045)"><path
             d="M 0,0 C 0,1.367 -0.476,2.565 -1.428,3.595 -2.38,4.625 -3.531,5.14 -4.88,5.14 -6.3,5.14 -7.429,4.625 -8.268,3.595 -9.107,2.565 -9.527,1.333 -9.527,-0.104 c 0,-1.402 0.424,-2.587 1.272,-3.556 0.865,-1.039 1.99,-1.558 3.375,-1.558 1.384,0 2.544,0.519 3.478,1.558 C -0.467,-2.622 0,-1.402 0,0 m 9.787,23.856 c 0,0.381 -0.07,-0.19 -0.208,-1.713 C 9.388,20.222 9.241,17.764 9.137,14.771 8.999,11.378 8.93,7.519 8.93,3.193 c 0,-7.148 0.198,-12.235 0.597,-15.264 0.034,-0.329 0.052,-0.536 0.052,-0.623 0,-0.191 -0.13,-0.303 -0.39,-0.337 -0.623,-0.087 -2.916,-0.13 -6.879,-0.13 -0.935,0 -1.471,0.182 -1.609,0.545 -0.035,0.658 -0.07,1.315 -0.104,1.973 -0.017,0.138 -0.087,0.276 -0.208,0.415 C 0.286,-10.28 0.156,-10.384 0,-10.54 c -1.869,-1.834 -4.206,-2.751 -7.009,-2.751 -3.652,0 -6.576,1.281 -8.774,3.842 -2.094,2.44 -3.141,5.52 -3.141,9.241 0,3.773 1.029,6.879 3.089,9.319 2.181,2.597 5.123,3.894 8.826,3.894 2.613,0 4.647,-0.83 6.1,-2.492 0.242,-0.277 0.416,-0.415 0.519,-0.415 0.156,0 0.234,0.225 0.234,0.675 0,1.332 -0.035,3.323 -0.104,5.971 -0.069,2.647 -0.104,4.629 -0.104,5.944 0,0.502 0.139,0.787 0.416,0.856 1.107,0.053 2.63,0.156 4.569,0.312 3.461,0.433 4.992,0.649 4.594,0.649 0.381,0 0.572,-0.216 0.572,-0.649"
             style="fill:#231f20;fill-opacity:1;fill-rule:nonzero;stroke:none"
             id="path130"
             inkscape:connector-curvature="0" /></g><g
           id="g132"
           transform="translate(639.2808,65.8706)"><path
             d="m 0,0 c 0,-4.413 -0.528,-7.424 -1.583,-9.034 -1.939,-2.942 -6.776,-4.412 -14.512,-4.412 -3.496,0 -6.187,0.268 -8.073,0.804 -3.011,0.866 -4.967,2.518 -5.867,4.958 -0.45,1.194 -0.674,3.323 -0.674,6.386 0,0.71 0.025,1.765 0.077,3.167 0.052,1.402 0.078,2.449 0.078,3.141 0,2.008 -0.095,5.019 -0.285,9.034 -0.191,4.015 -0.286,7.018 -0.286,9.008 0,0.415 0.182,0.623 0.545,0.623 1.056,0 2.652,-0.044 4.789,-0.13 2.138,-0.087 3.734,-0.13 4.79,-0.13 0.433,0 0.649,-0.19 0.649,-0.571 0,-2.284 -0.074,-5.707 -0.221,-10.267 -0.147,-4.56 -0.22,-7.982 -0.22,-10.266 0,-2.718 0.285,-4.552 0.856,-5.504 0.762,-1.298 2.354,-1.947 4.777,-1.947 3.547,0 5.322,1.722 5.322,5.166 0,2.509 -0.061,6.273 -0.183,11.292 -0.121,5.019 -0.181,8.783 -0.181,11.292 0,0.536 0.216,0.805 0.649,0.805 1.021,0 2.561,0.043 4.62,0.13 2.06,0.086 3.6,0.13 4.621,0.13 0.502,0 0.753,-0.208 0.753,-0.623 0,-1.99 -0.082,-4.993 -0.247,-9.008 C 0.03,10.029 -0.052,7.018 -0.052,5.01 -0.052,4.456 -0.043,3.622 -0.026,2.505 -0.009,1.389 0,0.554 0,0"
             style="fill:#231f20;fill-opacity:1;fill-rule:nonzero;stroke:none"
             id="path134"
             inkscape:connector-curvature="0" /></g><g
           id="g136"
           transform="translate(659.3989,74.1255)"><path
             d="m 0,0 c 0,-0.173 -0.13,-0.407 -0.39,-0.701 -0.484,0.121 -0.969,0.182 -1.453,0.182 -1.022,0 -1.878,-0.225 -2.57,-0.675 -0.831,-0.519 -1.246,-1.255 -1.246,-2.206 0,-0.606 0.441,-1.376 1.324,-2.311 1.332,-1.401 2.154,-2.345 2.466,-2.829 0.882,-1.315 1.324,-2.726 1.324,-4.231 0,-0.883 -0.173,-1.818 -0.519,-2.804 -0.399,-1.091 -0.9,-1.886 -1.506,-2.388 -1.281,-1.108 -2.778,-2.042 -4.491,-2.804 -1.852,-0.796 -3.556,-1.194 -5.114,-1.194 -0.346,0 -1.12,0.939 -2.323,2.816 -1.203,1.878 -1.804,3.025 -1.804,3.44 0,0.156 0.094,0.251 0.285,0.286 1.211,0.224 2.432,0.449 3.661,0.674 1.522,0.485 2.284,1.281 2.284,2.389 0,0.761 -0.442,1.644 -1.324,2.648 -1.575,1.748 -2.397,2.673 -2.466,2.777 -0.883,1.246 -1.324,2.561 -1.324,3.946 0,2.596 1.315,4.802 3.946,6.619 2.353,1.61 4.871,2.415 7.553,2.415 0.277,0 0.961,-0.931 2.051,-2.791 C -0.545,1.397 0,0.312 0,0"
             style="fill:#231f20;fill-opacity:1;fill-rule:nonzero;stroke:none"
             id="path138"
             inkscape:connector-curvature="0" /></g><g
           id="g140"
           transform="translate(677.8296,68.8042)"><path
             d="m 0,0 c 0,1.073 -0.381,2.016 -1.143,2.83 -0.761,0.813 -1.67,1.219 -2.725,1.219 -1.09,0 -1.99,-0.458 -2.7,-1.375 -0.658,-0.848 -0.986,-1.843 -0.986,-2.986 0,-0.467 0.242,-0.7 0.727,-0.7 1.28,0 3.27,0.199 5.97,0.596 C -0.286,-0.329 0,-0.191 0,0 m 9.085,-1.583 c 0,-1.749 -0.562,-2.744 -1.687,-2.986 -0.19,-0.035 -1.981,-0.225 -5.374,-0.571 -2.042,-0.225 -5.087,-0.493 -9.137,-0.805 0.242,-1.125 0.978,-1.981 2.207,-2.57 1.003,-0.484 2.145,-0.726 3.426,-0.726 1.54,0 3.089,0.415 4.647,1.245 0.657,0.416 1.315,0.831 1.973,1.246 0.363,-0.172 0.973,-1.055 1.83,-2.647 0.856,-1.593 1.285,-2.605 1.285,-3.038 0,-0.121 -0.13,-0.32 -0.39,-0.596 -2.111,-2.268 -5.39,-3.401 -9.838,-3.401 -4.119,0 -7.442,1.203 -9.968,3.608 -2.596,2.44 -3.894,5.702 -3.894,9.787 0,3.98 1.159,7.242 3.479,9.786 2.388,2.63 5.555,3.946 9.501,3.946 3.322,0 6.143,-1.212 8.462,-3.634 2.319,-2.423 3.478,-5.305 3.478,-8.644"
             style="fill:#231f20;fill-opacity:1;fill-rule:nonzero;stroke:none"
             id="path142"
             inkscape:connector-curvature="0" /></g><g
           id="g144"
           transform="translate(706.981,69.2974)"><path
             d="m 0,0 c 0,-0.675 -0.372,-1.012 -1.116,-1.012 -0.329,0 -0.809,0.021 -1.441,0.065 -0.631,0.043 -1.103,0.064 -1.415,0.064 -1.436,0 -2.414,-0.225 -2.933,-0.675 -0.519,-0.45 -0.779,-1.359 -0.779,-2.725 0,-0.744 0.014,-1.874 0.039,-3.388 0.026,-1.515 0.04,-2.643 0.04,-3.388 0,-0.502 0.034,-1.25 0.103,-2.245 0.069,-0.995 0.104,-1.735 0.104,-2.219 0,-0.416 -0.286,-0.649 -0.857,-0.701 -0.83,-0.069 -2.102,-0.104 -3.816,-0.104 -1.644,0 -2.959,0.052 -3.946,0.156 -0.57,0.068 -0.856,0.354 -0.856,0.856 0,1.385 0.008,3.457 0.026,6.217 0.017,2.761 0.026,4.833 0.026,6.218 0,4.066 -0.372,7.415 -1.117,10.046 -0.034,0.155 -0.051,0.285 -0.051,0.389 0,0.259 0.13,0.432 0.389,0.519 0.952,0.104 2.345,0.294 4.18,0.572 2.733,0.536 4.144,0.804 4.231,0.804 0.311,0 0.51,-0.545 0.597,-1.636 0.086,-1.09 0.242,-1.635 0.467,-1.635 -0.243,0 0.467,0.454 2.129,1.363 1.661,0.909 3.262,1.363 4.802,1.363 0.969,0 1.454,-0.208 1.454,-0.623 C 0.26,7.779 0.208,7.069 0.104,6.152 0,5.166 -0.061,4.456 -0.078,4.023 -0.078,3.521 -0.069,2.855 -0.052,2.025 -0.017,1.003 0,0.329 0,0"
             style="fill:#231f20;fill-opacity:1;fill-rule:nonzero;stroke:none"
             id="path146"
             inkscape:connector-curvature="0" /></g><g
           id="g148"
           transform="translate(757.6533,53.9556)"><path
             d="m 0,0 c 0.034,-0.467 -0.208,-0.701 -0.727,-0.701 -0.329,0 -1.276,0.19 -2.842,0.571 -1.567,0.381 -2.532,0.64 -2.895,0.779 -3.617,-1.419 -7.087,-2.128 -10.41,-2.128 -5.347,0 -9.734,1.782 -13.161,5.347 -3.392,3.513 -5.088,7.952 -5.088,13.317 0,5.486 1.644,10.037 4.933,13.654 3.391,3.738 7.796,5.607 13.212,5.607 2.631,0 5.105,-0.502 7.425,-1.505 2.509,-1.108 4.482,-2.666 5.919,-4.673 0.294,-0.415 0.441,-0.71 0.441,-0.882 0,-0.554 -0.775,-1.796 -2.324,-3.725 -1.548,-1.931 -2.548,-2.895 -2.998,-2.895 -0.104,0 -0.502,0.355 -1.194,1.065 -0.848,0.847 -1.713,1.505 -2.596,1.972 -1.315,0.71 -2.769,1.065 -4.361,1.065 -2.596,0 -4.655,-0.97 -6.178,-2.908 -1.419,-1.782 -2.129,-4.006 -2.129,-6.671 0,-2.821 0.736,-5.054 2.207,-6.698 1.522,-1.696 3.677,-2.544 6.464,-2.544 1.765,0 3.738,0.442 5.918,1.324 -0.052,0.571 -0.207,2.025 -0.467,4.361 -0.225,1.8 -0.337,3.254 -0.337,4.361 0,0.329 0.112,0.528 0.337,0.597 0.086,0.035 0.225,0.052 0.415,0.052 0.502,0 1.259,-0.048 2.272,-0.142 1.012,-0.096 1.778,-0.143 2.297,-0.143 0.554,0 1.385,0.039 2.492,0.117 1.107,0.077 1.938,0.116 2.492,0.116 0.433,0 0.649,-0.285 0.649,-0.856 0,-0.831 -0.048,-2.086 -0.142,-3.764 -0.096,-1.679 -0.144,-2.934 -0.144,-3.764 0,-2.233 0.165,-5.573 0.494,-10.02 L 0,0 Z"
             style="fill:#231f20;fill-opacity:1;fill-rule:nonzero;stroke:none"
             id="path150"
             inkscape:connector-curvature="0" /></g><g
           id="g152"
           transform="translate(778.3159,69.2974)"><path
             d="m 0,0 c 0,-0.675 -0.372,-1.012 -1.116,-1.012 -0.329,0 -0.809,0.021 -1.441,0.065 -0.631,0.043 -1.103,0.064 -1.415,0.064 -1.436,0 -2.414,-0.225 -2.933,-0.675 -0.519,-0.45 -0.779,-1.359 -0.779,-2.725 0,-0.744 0.014,-1.874 0.039,-3.388 0.026,-1.515 0.04,-2.643 0.04,-3.388 0,-0.502 0.034,-1.25 0.103,-2.245 0.069,-0.995 0.104,-1.735 0.104,-2.219 0,-0.416 -0.286,-0.649 -0.857,-0.701 -0.83,-0.069 -2.102,-0.104 -3.816,-0.104 -1.644,0 -2.959,0.052 -3.946,0.156 -0.57,0.068 -0.856,0.354 -0.856,0.856 0,1.385 0.008,3.457 0.026,6.217 0.017,2.761 0.026,4.833 0.026,6.218 0,4.066 -0.372,7.415 -1.117,10.046 -0.034,0.155 -0.051,0.285 -0.051,0.389 0,0.259 0.13,0.432 0.389,0.519 0.952,0.104 2.345,0.294 4.18,0.572 2.733,0.536 4.144,0.804 4.231,0.804 0.311,0 0.51,-0.545 0.597,-1.636 0.086,-1.09 0.242,-1.635 0.467,-1.635 -0.243,0 0.467,0.454 2.129,1.363 1.661,0.909 3.262,1.363 4.802,1.363 0.969,0 1.454,-0.208 1.454,-0.623 C 0.26,7.779 0.208,7.069 0.104,6.152 0,5.166 -0.061,4.456 -0.078,4.023 -0.078,3.521 -0.069,2.855 -0.052,2.025 -0.017,1.003 0,0.329 0,0"
             style="fill:#231f20;fill-opacity:1;fill-rule:nonzero;stroke:none"
             id="path154"
             inkscape:connector-curvature="0" /></g><g
           id="g156"
           transform="translate(797.8115,65.897)"><path
             d="m 0,0 c 0,1.367 -0.424,2.574 -1.272,3.621 -0.848,1.047 -1.947,1.57 -3.297,1.57 -1.367,0 -2.492,-0.536 -3.374,-1.609 C -8.774,2.578 -9.189,1.384 -9.189,0 c 0,-1.402 0.415,-2.605 1.246,-3.608 0.882,-1.074 2.007,-1.61 3.374,-1.61 1.35,0 2.466,0.536 3.349,1.61 C -0.407,-2.605 0,-1.402 0,0 m 8.514,0 c 0,-3.946 -1.207,-7.148 -3.621,-9.605 -2.414,-2.458 -5.585,-3.686 -9.514,-3.686 -3.807,0 -6.94,1.211 -9.397,3.634 -2.458,2.423 -3.686,5.538 -3.686,9.345 0,4.015 1.177,7.273 3.53,9.774 2.354,2.5 5.538,3.751 9.553,3.751 3.911,0 7.078,-1.225 9.501,-3.673 C 7.303,7.091 8.514,3.911 8.514,0"
             style="fill:#231f20;fill-opacity:1;fill-rule:nonzero;stroke:none"
             id="path158"
             inkscape:connector-curvature="0" /></g><g
           id="g160"
           transform="translate(836.1782,76.7217)"><path
             d="m 0,0 c 0,-1.281 -0.061,-3.202 -0.182,-5.763 -0.121,-2.561 -0.181,-4.482 -0.181,-5.763 0,-1.246 0.043,-3.115 0.13,-5.607 0.086,-2.492 0.129,-4.352 0.129,-5.581 0,-0.467 -0.216,-0.762 -0.648,-0.883 -0.659,-0.173 -2.051,-0.259 -4.18,-0.259 -1.886,0 -3.202,0.052 -3.946,0.155 -0.329,0.053 -0.537,0.26 -0.623,0.623 -0.052,0.52 -0.103,1.039 -0.155,1.558 -0.087,0.796 -0.208,1.194 -0.364,1.194 0.242,0 -0.632,-0.589 -2.622,-1.765 -1.99,-1.177 -3.799,-1.765 -5.425,-1.765 -4.586,0 -7.304,2.067 -8.151,6.204 -0.381,1.921 -0.572,4.707 -0.572,8.359 0,3.945 0.321,7.061 0.961,9.345 0.19,0.709 0.545,1.064 1.064,1.064 0.796,0 2.008,-0.009 3.635,-0.026 1.626,-0.017 2.838,-0.026 3.634,-0.026 0.536,0 0.805,-0.225 0.805,-0.675 0,-0.121 -0.018,-0.303 -0.052,-0.545 -0.363,-2.354 -0.546,-4.742 -0.546,-7.164 0,-3.012 0.096,-5.072 0.286,-6.179 0.312,-1.904 1.445,-2.855 3.401,-2.855 0.761,0 1.587,0.337 2.479,1.012 0.891,0.675 1.354,1.376 1.389,2.103 0.034,0.64 0.051,4.984 0.051,13.031 0,0.571 0.043,0.909 0.13,1.013 0.104,0.173 0.416,0.259 0.935,0.259 0.847,0 2.124,-0.009 3.829,-0.026 1.704,-0.017 2.98,-0.026 3.829,-0.026 0.519,0 0.821,-0.13 0.908,-0.389 C -0.017,0.484 0,0.276 0,0"
             style="fill:#231f20;fill-opacity:1;fill-rule:nonzero;stroke:none"
             id="path162"
             inkscape:connector-curvature="0" /></g><g
           id="g164"
           transform="translate(859.4634,65.6631)"><path
             d="M 0,0 C 0,1.384 -0.424,2.596 -1.272,3.634 -2.189,4.725 -3.323,5.27 -4.673,5.27 -6.058,5.27 -7.165,4.725 -7.996,3.634 -8.722,2.648 -9.086,1.437 -9.086,0 c 0,-1.471 0.381,-2.691 1.143,-3.66 0.813,-1.056 1.938,-1.584 3.374,-1.584 C -1.523,-5.244 0,-3.496 0,0 m 9.631,-0.052 c 0,-3.703 -1.09,-6.775 -3.271,-9.215 -2.25,-2.527 -5.201,-3.79 -8.852,-3.79 -1.333,0 -2.761,0.328 -4.283,0.986 -1.523,0.657 -2.216,0.987 -2.077,0.987 -0.225,0 -0.337,-0.26 -0.337,-0.779 0,-0.883 0.043,-2.211 0.129,-3.985 0.087,-1.774 0.13,-3.102 0.13,-3.985 0,-0.553 -0.285,-0.83 -0.857,-0.83 l -5.295,-0.026 c -1.194,0 -1.964,0.043 -2.311,0.129 -0.519,0.122 -0.778,0.442 -0.778,0.961 L -18.12,0.39 c 0,4.031 -0.302,7.432 -0.908,10.201 -0.035,0.173 -0.052,0.32 -0.052,0.442 0,0.259 0.104,0.432 0.311,0.519 0.676,0.26 1.965,0.536 3.869,0.83 1.851,0.294 3.192,0.442 4.023,0.442 0.675,0 1.06,-0.446 1.155,-1.337 0.095,-0.892 0.212,-1.337 0.351,-1.337 -0.173,0 0.566,0.471 2.219,1.415 1.652,0.943 3.154,1.414 4.504,1.414 3.755,0 6.758,-1.237 9.008,-3.711 2.181,-2.389 3.271,-5.496 3.271,-9.32"
             style="fill:#231f20;fill-opacity:1;fill-rule:nonzero;stroke:none"
             id="path166"
             inkscape:connector-curvature="0" /></g></g></g></g></svg>